<svg xmlns="http://www.w3.org/2000/svg" xmlns:xlink="http://www.w3.org/1999/xlink" width="400" zoomAndPan="magnify" viewBox="0 0 300 299.999988" height="400" preserveAspectRatio="xMidYMid meet" version="1.0"><defs><clipPath id="dda974dfce"><path d="M 38 0 L 265.363281 0 L 265.363281 300 L 38 300 Z M 38 0 " clip-rule="nonzero"/></clipPath><clipPath id="cd9e45a4b4"><path d="M 176 153 L 265.363281 153 L 265.363281 254 L 176 254 Z M 176 153 " clip-rule="nonzero"/></clipPath></defs><g clip-path="url(#dda974dfce)"><path fill="#000000" d="M 265.113281 226.867188 L 265.113281 178.636719 C 265.113281 178.628906 265.113281 178.628906 265.113281 178.621094 C 265.113281 178.613281 265.113281 178.613281 265.113281 178.605469 C 264.796875 171.875 260.113281 165.558594 251.929688 160.828125 C 234.695312 150.882812 206.757812 150.835938 189.648438 160.722656 C 187.890625 161.738281 186.308594 162.820312 184.890625 163.976562 C 184.835938 163.660156 184.796875 163.339844 184.742188 163.023438 C 184.742188 163.015625 184.742188 163.007812 184.734375 163 C 183.082031 152.96875 180.183594 143.125 176.121094 133.738281 L 124.835938 15.261719 L 124.835938 5.992188 C 124.835938 3.992188 123.804688 2.203125 122.066406 1.210938 C 120.339844 0.210938 118.277344 0.21875 116.546875 1.21875 L 48.191406 40.828125 C 46.503906 41.8125 45.449219 43.644531 45.449219 45.605469 L 45.449219 59.417969 L 45.410156 59.796875 C 39.261719 118.589844 34.503906 174.628906 43.734375 214.21875 C 44.277344 216.527344 45.363281 218.722656 46.875 220.542969 C 48.121094 222.054688 49.609375 223.300781 51.300781 224.246094 L 98.9375 250.835938 L 98.9375 255.621094 C 98.9375 255.636719 98.945312 255.660156 98.945312 255.675781 C 99 257.070312 99.726562 258.1875 101.121094 258.992188 L 170.152344 298.84375 C 171.457031 299.597656 173.183594 299.976562 174.984375 299.976562 C 176.921875 299.976562 178.945312 299.542969 180.617188 298.691406 C 180.617188 298.691406 180.617188 298.691406 180.625 298.691406 C 180.796875 298.613281 180.96875 298.527344 181.128906 298.425781 L 222.261719 274.675781 C 224.066406 273.628906 225.082031 272.246094 225.121094 270.78125 L 225.121094 253.132812 C 234.992188 252.621094 244.601562 250.203125 252.121094 245.859375 C 260.835938 240.828125 265.441406 234.085938 265.113281 226.867188 Z M 81.859375 31.621094 C 81.851562 29.714844 83.269531 27.269531 84.953125 26.300781 C 85.386719 26.054688 85.796875 25.921875 86.144531 25.921875 C 86.347656 25.921875 86.535156 25.96875 86.6875 26.054688 C 87.097656 26.292969 87.339844 26.875 87.339844 27.660156 C 87.339844 29.582031 85.929688 32.015625 84.253906 32.96875 C 83.5625 33.371094 82.921875 33.457031 82.503906 33.21875 C 82.089844 32.976562 81.859375 32.394531 81.859375 31.621094 Z M 175.300781 217.804688 L 176.648438 217.039062 L 176.648438 218.589844 Z M 175.300781 217.804688 " fill-opacity="1" fill-rule="nonzero"/></g><path fill="#f7be6b" d="M 185.488281 175.683594 L 108.472656 220.148438 L 108.464844 220.148438 C 108.199219 215.9375 107.710938 211.75 106.992188 207.605469 L 107 207.605469 L 184.058594 163.109375 C 184.75 167.253906 185.230469 171.464844 185.488281 175.683594 Z M 185.488281 175.683594 " fill-opacity="1" fill-rule="nonzero"/><path fill="#572ea8" d="M 185.742188 183.496094 L 185.742188 206.488281 C 185.742188 209.300781 184.230469 211.90625 181.773438 213.300781 L 108.570312 254.945312 C 108.671875 254.84375 108.734375 254.707031 108.734375 254.542969 L 108.734375 228.355469 C 108.734375 225.613281 108.648438 222.875 108.449219 220.148438 L 108.457031 220.148438 L 185.472656 175.683594 C 185.65625 178.277344 185.742188 180.882812 185.742188 183.496094 Z M 175.488281 134.007812 L 124.136719 15.410156 L 46.144531 59.851562 L 46.144531 59.96875 L 47.136719 62.21875 L 47.136719 62.242188 L 98.175781 178.171875 C 102.332031 187.605469 105.285156 197.496094 106.984375 207.605469 L 106.992188 207.605469 L 184.050781 163.109375 C 182.410156 153.125 179.535156 143.347656 175.488281 134.007812 Z M 107.285156 129.527344 C 103.71875 114.363281 107.097656 99.636719 114.378906 94.683594 C 121.65625 89.746094 131.648438 95.402344 137.449219 109.046875 C 144.238281 125.054688 133.023438 119.789062 124.425781 125.636719 C 115.828125 131.480469 111.464844 147.324219 107.285156 129.527344 Z M 129.828125 90.410156 C 127.191406 89.117188 125.632812 85.339844 126.261719 82.054688 C 126.882812 78.851562 129.78125 74.875 132.300781 75.898438 C 134.898438 76.953125 136.277344 82.953125 135.773438 86.378906 C 135.238281 89.921875 132.546875 91.75 129.828125 90.410156 Z M 112.269531 79.882812 C 111.820312 76.796875 112.914062 71.699219 115.089844 71.023438 C 117.285156 70.332031 119.960938 74.324219 120.5625 77.417969 C 121.199219 80.621094 119.765625 83.859375 117.378906 84.542969 C 115.015625 85.21875 112.726562 83.078125 112.269531 79.882812 Z M 101.238281 90.535156 C 99.984375 87.898438 99.570312 82.363281 101.339844 80.355469 C 103.089844 78.371094 106.503906 80.417969 107.859375 82.882812 C 109.261719 85.433594 108.9375 89.347656 107.074219 91.550781 C 105.183594 93.757812 102.546875 93.277344 101.238281 90.535156 Z M 96.300781 113.179688 C 94.144531 111.558594 91.84375 106.179688 92.9375 102.628906 C 94.007812 99.171875 97.976562 98.472656 100.074219 99.835938 C 102.230469 101.242188 103.238281 105.371094 102.246094 109.148438 C 101.214844 113.03125 98.519531 114.859375 96.300781 113.179688 Z M 116.898438 1.820312 L 48.542969 41.433594 C 47.058594 42.292969 46.144531 43.882812 46.144531 45.605469 L 46.144531 59.84375 L 124.128906 15.402344 L 124.128906 5.992188 C 124.136719 2.277344 120.113281 -0.0390625 116.898438 1.820312 Z M 81.152344 31.628906 C 81.152344 29.449219 82.6875 26.796875 84.59375 25.699219 C 86.496094 24.597656 88.03125 25.480469 88.03125 27.660156 C 88.03125 29.835938 86.496094 32.488281 84.59375 33.574219 C 82.6875 34.683594 81.152344 33.804688 81.152344 31.628906 Z M 81.152344 31.628906 " fill-opacity="1" fill-rule="nonzero"/><path fill="#e4f6f6" d="M 137.457031 109.046875 C 144.246094 125.054688 133.03125 119.789062 124.433594 125.636719 C 115.835938 131.480469 111.464844 147.324219 107.292969 129.527344 C 103.726562 114.363281 107.105469 99.636719 114.386719 94.683594 C 121.664062 89.75 131.65625 95.402344 137.457031 109.046875 Z M 126.261719 82.054688 C 125.625 85.347656 127.183594 89.117188 129.828125 90.410156 C 132.546875 91.75 135.246094 89.921875 135.78125 86.378906 C 136.285156 82.945312 134.898438 76.953125 132.308594 75.898438 C 129.78125 74.875 126.882812 78.851562 126.261719 82.054688 Z M 115.089844 71.023438 C 112.914062 71.699219 111.820312 76.796875 112.269531 79.882812 C 112.726562 83.078125 115.015625 85.210938 117.378906 84.550781 C 119.765625 83.859375 121.191406 80.628906 120.5625 77.425781 C 119.960938 74.324219 117.285156 70.339844 115.089844 71.023438 Z M 101.339844 80.355469 C 99.570312 82.363281 99.992188 87.898438 101.238281 90.535156 C 102.546875 93.277344 105.183594 93.757812 107.066406 91.550781 C 108.929688 89.347656 109.261719 85.433594 107.851562 82.882812 C 106.503906 80.417969 103.089844 78.371094 101.339844 80.355469 Z M 92.9375 102.628906 C 91.84375 106.179688 94.144531 111.550781 96.300781 113.179688 C 98.511719 114.859375 101.214844 113.023438 102.238281 109.148438 C 103.230469 105.378906 102.230469 101.25 100.066406 99.835938 C 97.96875 98.480469 94.007812 99.179688 92.9375 102.628906 Z M 92.9375 102.628906 " fill-opacity="1" fill-rule="nonzero"/><path fill="#8c52ff" d="M 108.734375 228.355469 L 108.734375 254.542969 C 108.734375 254.707031 108.671875 254.84375 108.570312 254.945312 C 108.570312 254.945312 108.5625 254.953125 108.546875 254.953125 C 108.386719 255.117188 108.121094 255.164062 107.898438 255.039062 L 74.625 236.457031 L 51.640625 223.628906 C 50.007812 222.714844 48.578125 221.503906 47.417969 220.085938 C 45.976562 218.347656 44.945312 216.292969 44.417969 214.046875 C 35.136719 174.292969 40.042969 117.765625 46.105469 59.875 L 46.152344 59.976562 L 47.144531 62.226562 L 47.144531 62.246094 L 98.175781 178.171875 C 102.332031 187.605469 105.285156 197.496094 106.984375 207.605469 C 107.703125 211.757812 108.191406 215.945312 108.457031 220.148438 C 108.648438 222.867188 108.734375 225.605469 108.734375 228.355469 Z M 108.734375 228.355469 " fill-opacity="1" fill-rule="nonzero"/><path fill="#000000" d="M 186.175781 175.644531 C 185.929688 171.441406 185.449219 167.203125 184.742188 163.023438 C 184.742188 163.015625 184.742188 163.007812 184.734375 163 C 183.082031 152.96875 180.183594 143.125 176.121094 133.738281 L 124.835938 15.261719 L 124.835938 5.992188 C 124.835938 3.992188 123.804688 2.203125 122.066406 1.210938 C 120.339844 0.210938 118.277344 0.21875 116.546875 1.21875 L 48.191406 40.828125 C 46.503906 41.8125 45.449219 43.644531 45.449219 45.605469 L 45.449219 59.417969 L 45.410156 59.796875 C 39.261719 118.589844 34.503906 174.628906 43.734375 214.21875 C 44.277344 216.527344 45.363281 218.722656 46.875 220.542969 C 48.121094 222.054688 49.609375 223.300781 51.300781 224.246094 L 107.554688 255.652344 L 107.5625 255.660156 L 107.570312 255.660156 C 107.59375 255.675781 107.617188 255.675781 107.648438 255.691406 C 107.679688 255.699219 107.703125 255.714844 107.734375 255.722656 C 107.882812 255.773438 108.03125 255.8125 108.175781 255.8125 C 108.394531 255.8125 108.601562 255.757812 108.796875 255.652344 L 108.875 255.652344 L 109.015625 255.511719 L 182.136719 213.914062 C 184.804688 212.394531 186.457031 209.558594 186.457031 206.496094 L 186.457031 183.503906 C 186.441406 180.875 186.355469 178.234375 186.175781 175.644531 Z M 109.066406 218.992188 C 108.804688 215.300781 108.363281 211.605469 107.75 207.96875 L 183.527344 164.21875 C 184.105469 167.890625 184.527344 171.605469 184.757812 175.292969 Z M 85.042969 215.945312 L 49.664062 69.707031 L 97.542969 178.449219 C 101.65625 187.8125 104.601562 197.660156 106.300781 207.722656 C 107.015625 211.828125 107.503906 216.023438 107.765625 220.195312 C 107.953125 222.789062 108.042969 225.535156 108.042969 228.347656 L 108.042969 253.921875 Z M 183.285156 162.746094 L 107.496094 206.511719 C 105.757812 196.675781 102.851562 187.054688 98.820312 177.882812 L 47.789062 61.984375 C 47.78125 61.96875 47.789062 61.953125 47.78125 61.9375 L 47 60.171875 L 123.804688 16.402344 L 174.851562 134.285156 C 178.804688 143.417969 181.632812 152.984375 183.285156 162.746094 Z M 48.898438 42.039062 L 117.253906 2.425781 C 118.546875 1.683594 120.082031 1.675781 121.378906 2.417969 C 122.671875 3.164062 123.449219 4.503906 123.449219 5.992188 L 123.449219 15 L 46.851562 58.644531 L 46.851562 45.613281 C 46.84375 44.140625 47.632812 42.773438 48.898438 42.039062 Z M 46.519531 62.636719 L 83.527344 215.605469 L 47.726562 219.363281 C 46.472656 217.765625 45.5625 215.882812 45.097656 213.898438 C 36.050781 175.125 40.519531 120.308594 46.519531 62.636719 Z M 48.851562 220.644531 L 84.023438 216.953125 L 105.9375 253.148438 L 51.984375 223.023438 C 50.828125 222.378906 49.78125 221.582031 48.851562 220.644531 Z M 185.042969 206.488281 C 185.042969 209.046875 183.65625 211.425781 181.433594 212.691406 L 109.433594 253.644531 L 109.433594 228.339844 C 109.433594 225.652344 109.347656 223.023438 109.175781 220.527344 L 184.84375 176.84375 C 184.96875 179.046875 185.042969 181.269531 185.042969 183.480469 Z M 185.042969 206.488281 " fill-opacity="1" fill-rule="nonzero"/><path fill="#000000" d="M 81.796875 34.433594 C 82.167969 34.652344 82.585938 34.757812 83.039062 34.757812 C 83.632812 34.757812 84.277344 34.566406 84.9375 34.1875 C 87.058594 32.96875 88.71875 30.101562 88.71875 27.667969 C 88.71875 26.355469 88.238281 25.355469 87.371094 24.851562 C 86.496094 24.347656 85.386719 24.433594 84.238281 25.101562 C 82.113281 26.324219 80.449219 29.203125 80.449219 31.636719 C 80.457031 32.9375 80.9375 33.929688 81.796875 34.433594 Z M 84.953125 26.300781 C 85.386719 26.054688 85.796875 25.921875 86.144531 25.921875 C 86.347656 25.921875 86.535156 25.96875 86.6875 26.054688 C 87.097656 26.292969 87.339844 26.875 87.339844 27.660156 C 87.339844 29.582031 85.929688 32.015625 84.253906 32.96875 C 83.5625 33.371094 82.921875 33.457031 82.503906 33.21875 C 82.089844 32.976562 81.859375 32.394531 81.859375 31.621094 C 81.851562 29.714844 83.269531 27.269531 84.953125 26.300781 Z M 84.953125 26.300781 " fill-opacity="1" fill-rule="nonzero"/><path fill="#000000" d="M 123.308594 92.722656 C 119.992188 91.746094 116.765625 92.226562 113.992188 94.109375 C 106.253906 99.371094 103.074219 114.667969 106.609375 129.691406 C 107.9375 135.332031 109.308594 137.929688 111.214844 138.363281 C 111.402344 138.410156 111.585938 138.425781 111.773438 138.425781 C 113.75 138.425781 115.65625 136.078125 118.023438 133.164062 C 119.992188 130.738281 122.222656 127.984375 124.828125 126.210938 C 127.417969 124.449219 130.285156 123.730469 132.820312 123.09375 C 135.898438 122.316406 138.546875 121.660156 139.6875 119.363281 C 140.773438 117.1875 140.277344 113.921875 138.097656 108.773438 C 134.488281 100.277344 129.097656 94.425781 123.308594 92.722656 Z M 138.441406 118.746094 C 137.585938 120.464844 135.332031 121.03125 132.480469 121.746094 C 129.835938 122.410156 126.835938 123.164062 124.039062 125.0625 C 121.261719 126.945312 118.960938 129.78125 116.929688 132.285156 C 114.835938 134.867188 112.859375 137.316406 111.519531 137.007812 C 110.277344 136.722656 109.082031 134.15625 107.960938 129.371094 C 104.554688 114.882812 107.480469 100.21875 114.765625 95.261719 C 116.371094 94.179688 118.144531 93.628906 120.007812 93.628906 C 120.960938 93.628906 121.929688 93.773438 122.914062 94.0625 C 128.292969 95.652344 133.363281 101.210938 136.804688 109.324219 C 138.796875 114 139.316406 116.992188 138.441406 118.746094 Z M 138.441406 118.746094 " fill-opacity="1" fill-rule="nonzero"/><path fill="#000000" d="M 129.519531 91.039062 C 130.207031 91.378906 130.921875 91.550781 131.617188 91.550781 C 132.292969 91.550781 132.960938 91.386719 133.570312 91.070312 C 135.089844 90.277344 136.144531 88.605469 136.464844 86.488281 C 137 82.820312 135.59375 76.496094 132.554688 75.253906 C 131.6875 74.898438 130.71875 74.984375 129.773438 75.503906 C 127.625 76.667969 126.015625 79.683594 125.570312 81.929688 C 124.882812 85.542969 126.648438 89.628906 129.519531 91.039062 Z M 126.945312 82.1875 C 127.378906 79.945312 128.914062 77.550781 130.441406 76.722656 C 130.796875 76.527344 131.136719 76.425781 131.464844 76.425781 C 131.664062 76.425781 131.851562 76.464844 132.039062 76.535156 C 134.128906 77.386719 135.570312 82.914062 135.082031 86.269531 C 134.828125 87.945312 134.042969 89.242188 132.929688 89.820312 C 132.066406 90.269531 131.105469 90.253906 130.128906 89.773438 C 127.796875 88.636719 126.363281 85.226562 126.945312 82.1875 Z M 126.945312 82.1875 " fill-opacity="1" fill-rule="nonzero"/><path fill="#000000" d="M 114.285156 84.683594 C 114.976562 85.132812 115.742188 85.363281 116.519531 85.363281 C 116.875 85.363281 117.222656 85.316406 117.570312 85.21875 C 120.308594 84.433594 121.953125 80.875 121.246094 77.285156 C 120.796875 74.984375 119.160156 71.90625 117.199219 70.730469 C 116.410156 70.253906 115.609375 70.132812 114.890625 70.355469 C 112.183594 71.195312 111.105469 76.707031 111.578125 79.984375 C 111.867188 82.015625 112.882812 83.765625 114.285156 84.683594 Z M 115.300781 71.691406 C 115.394531 71.660156 115.503906 71.644531 115.601562 71.644531 C 115.867188 71.644531 116.160156 71.738281 116.480469 71.929688 C 117.914062 72.789062 119.441406 75.308594 119.875 77.558594 C 120.433594 80.402344 119.199219 83.300781 117.183594 83.875 C 116.464844 84.078125 115.71875 83.953125 115.042969 83.511719 C 113.976562 82.8125 113.191406 81.417969 112.953125 79.78125 C 112.535156 76.835938 113.632812 72.210938 115.300781 71.691406 Z M 115.300781 71.691406 " fill-opacity="1" fill-rule="nonzero"/><path fill="#000000" d="M 100.457031 99.253906 C 99.144531 98.410156 97.308594 98.25 95.664062 98.84375 C 94 99.449219 92.796875 100.722656 92.269531 102.425781 C 91.042969 106.410156 93.617188 112.03125 95.882812 113.738281 C 96.546875 114.242188 97.292969 114.503906 98.042969 114.503906 C 98.417969 114.503906 98.789062 114.441406 99.152344 114.316406 C 100.84375 113.738281 102.246094 111.875 102.921875 109.332031 C 103.984375 105.269531 102.90625 100.851562 100.457031 99.253906 Z M 101.5625 108.96875 C 101.023438 111.023438 99.921875 112.566406 98.695312 112.992188 C 98.015625 113.226562 97.355469 113.101562 96.726562 112.628906 C 94.804688 111.1875 92.601562 106.117188 93.609375 102.84375 C 94.007812 101.566406 94.90625 100.621094 96.144531 100.164062 C 96.648438 99.976562 97.175781 99.890625 97.695312 99.890625 C 98.433594 99.890625 99.144531 100.078125 99.695312 100.433594 C 101.601562 101.667969 102.457031 105.582031 101.5625 108.96875 Z M 101.5625 108.96875 " fill-opacity="1" fill-rule="nonzero"/><path fill="#000000" d="M 107.601562 92 C 109.632812 89.605469 110.023438 85.363281 108.464844 82.550781 C 107.410156 80.628906 105.339844 79.085938 103.542969 78.882812 C 102.449219 78.757812 101.503906 79.109375 100.8125 79.890625 C 98.773438 82.203125 99.277344 88.03125 100.609375 90.828125 C 101.363281 92.410156 102.585938 93.425781 103.96875 93.605469 C 104.121094 93.628906 104.269531 93.636719 104.425781 93.636719 C 105.578125 93.644531 106.6875 93.070312 107.601562 92 Z M 104.152344 92.226562 C 103.253906 92.109375 102.417969 91.378906 101.875 90.234375 C 100.632812 87.613281 100.402344 82.480469 101.867188 80.8125 C 102.253906 80.371094 102.757812 80.195312 103.394531 80.261719 C 104.75 80.417969 106.410156 81.683594 107.246094 83.21875 C 108.519531 85.527344 108.199219 89.140625 106.542969 91.09375 C 105.828125 91.929688 104.984375 92.339844 104.152344 92.226562 Z M 104.152344 92.226562 " fill-opacity="1" fill-rule="nonzero"/><path fill="#572ea8" d="M 220.882812 208.945312 C 231.363281 208.945312 239.859375 217.441406 239.859375 227.914062 C 239.859375 238.394531 231.363281 246.890625 220.882812 246.890625 C 210.410156 246.890625 201.914062 238.394531 201.914062 227.914062 C 201.914062 217.441406 210.410156 208.945312 220.882812 208.945312 Z M 233.136719 229.851562 C 234.175781 228.8125 235.175781 226.132812 234.144531 225.09375 C 233.105469 224.0625 230.425781 225.0625 229.386719 226.101562 C 228.347656 227.132812 228.347656 228.8125 229.386719 229.851562 C 230.425781 230.890625 232.105469 230.890625 233.136719 229.851562 Z M 227.386719 222.21875 C 227.859375 220.828125 227.570312 217.976562 226.183594 217.503906 C 224.796875 217.03125 222.828125 219.117188 222.355469 220.503906 C 221.890625 221.898438 222.625 223.402344 224.023438 223.875 C 225.410156 224.347656 226.914062 223.605469 227.386719 222.21875 Z M 228.121094 235.125 C 228.121094 230.636719 224.882812 227.007812 220.882812 227.007812 C 216.890625 227.007812 213.640625 230.636719 213.640625 235.125 C 213.640625 239.605469 216.890625 238.1875 220.882812 238.1875 C 224.882812 238.1875 228.121094 239.605469 228.121094 235.125 Z M 217.75 223.875 C 219.136719 223.402344 219.882812 221.898438 219.410156 220.503906 C 218.9375 219.117188 216.976562 217.03125 215.585938 217.503906 C 214.199219 217.976562 213.90625 220.828125 214.378906 222.21875 C 214.851562 223.605469 216.363281 224.347656 217.75 223.875 Z M 212.386719 229.851562 C 213.417969 228.8125 213.417969 227.132812 212.386719 226.101562 C 211.347656 225.0625 208.664062 224.0625 207.625 225.09375 C 206.585938 226.132812 207.585938 228.8125 208.625 229.851562 C 209.664062 230.890625 211.347656 230.890625 212.386719 229.851562 Z M 212.386719 229.851562 " fill-opacity="1" fill-rule="nonzero"/><path fill="#e4f6f6" d="M 264.417969 178.714844 L 264.417969 179.914062 C 264.160156 186.117188 259.953125 192.269531 251.773438 196.992188 C 234.820312 206.78125 207.246094 206.730469 190.183594 196.882812 C 181.757812 192.015625 177.472656 185.667969 177.347656 179.300781 L 177.347656 178.636719 C 177.503906 172.347656 181.71875 166.101562 190 161.324219 C 206.945312 151.535156 234.519531 151.589844 251.578125 161.433594 C 259.84375 166.210938 264.121094 172.394531 264.417969 178.636719 Z M 239.6875 190.015625 C 249.992188 184.0625 249.9375 174.355469 239.5625 168.371094 C 229.199219 162.386719 212.386719 162.355469 202.082031 168.300781 C 191.78125 174.25 191.828125 183.960938 202.199219 189.945312 C 204.324219 191.179688 206.726562 192.15625 209.285156 192.875 L 209.464844 193.757812 C 209.765625 195.261719 211.023438 196.589844 212.859375 197.535156 C 214.695312 198.480469 217.113281 199.054688 219.734375 199.0625 C 224.984375 199.070312 229.378906 196.804688 229.945312 193.796875 L 230.042969 193.269531 L 230.71875 193.402344 C 233.992188 192.667969 237.050781 191.535156 239.6875 190.015625 Z M 202.082031 168.300781 C 191.78125 174.25 191.828125 183.960938 202.199219 189.945312 C 204.324219 191.179688 206.726562 192.15625 209.285156 192.875 L 207.472656 183.859375 C 206.765625 180.332031 211.527344 177.25 217.679688 177.261719 L 221.554688 177.269531 C 227.703125 177.277344 232.503906 180.378906 231.835938 183.90625 L 230.042969 193.269531 L 230.71875 193.402344 C 233.992188 192.667969 237.050781 191.535156 239.6875 190.015625 C 249.992188 184.0625 249.9375 174.355469 239.5625 168.371094 C 229.199219 162.386719 212.386719 162.355469 202.082031 168.300781 Z M 229.386719 226.101562 C 228.347656 227.132812 228.347656 228.8125 229.386719 229.851562 C 230.425781 230.890625 232.105469 230.890625 233.136719 229.851562 C 234.175781 228.8125 235.175781 226.132812 234.144531 225.09375 C 233.105469 224.0625 230.425781 225.0625 229.386719 226.101562 Z M 222.355469 220.503906 C 221.890625 221.898438 222.625 223.402344 224.023438 223.875 C 225.410156 224.347656 226.914062 223.605469 227.386719 222.21875 C 227.859375 220.828125 227.570312 217.976562 226.183594 217.503906 C 224.796875 217.03125 222.828125 219.117188 222.355469 220.503906 Z M 219.625 179.148438 C 215.316406 179.140625 211.828125 181.148438 211.84375 183.636719 C 211.851562 186.132812 215.363281 188.15625 219.671875 188.164062 C 223.992188 188.171875 227.480469 186.15625 227.464844 183.667969 C 227.449219 181.179688 223.945312 179.15625 219.625 179.148438 Z M 213.640625 235.125 C 213.640625 239.605469 216.890625 238.1875 220.882812 238.1875 C 224.882812 238.1875 228.121094 239.605469 228.121094 235.125 C 228.121094 230.636719 224.882812 227.007812 220.882812 227.007812 C 216.890625 227.007812 213.640625 230.636719 213.640625 235.125 Z M 227.464844 183.667969 C 227.449219 181.179688 223.945312 179.15625 219.625 179.148438 C 215.316406 179.140625 211.828125 181.148438 211.84375 183.636719 C 211.851562 186.132812 215.363281 188.15625 219.671875 188.164062 C 223.992188 188.171875 227.480469 186.15625 227.464844 183.667969 Z M 207.472656 183.859375 C 206.765625 180.332031 211.527344 177.25 217.679688 177.261719 L 221.554688 177.269531 C 227.703125 177.277344 232.503906 180.378906 231.835938 183.90625 L 230.042969 193.269531 L 229.945312 193.796875 C 229.378906 196.804688 224.984375 199.070312 219.734375 199.0625 C 217.113281 199.054688 214.695312 198.480469 212.859375 197.535156 C 211.023438 196.589844 209.765625 195.261719 209.464844 193.757812 L 209.285156 192.875 Z M 215.585938 217.503906 C 214.199219 217.976562 213.90625 220.828125 214.378906 222.21875 C 214.851562 223.605469 216.363281 224.347656 217.75 223.875 C 219.136719 223.402344 219.882812 221.898438 219.410156 220.503906 C 218.9375 219.117188 216.976562 217.03125 215.585938 217.503906 Z M 207.625 225.09375 C 206.585938 226.132812 207.585938 228.8125 208.625 229.851562 C 209.664062 230.890625 211.347656 230.890625 212.386719 229.851562 C 213.417969 228.8125 213.417969 227.132812 212.386719 226.101562 C 211.347656 225.0625 208.664062 224.0625 207.625 225.09375 Z M 193.410156 210.992188 C 193.410156 210.195312 192.9375 209.441406 192.230469 209.085938 C 189.648438 207.78125 187.207031 206.308594 184.96875 204.667969 C 181.804688 202.363281 179.269531 199.898438 177.347656 197.363281 L 177.347656 207.574219 C 179.269531 210.101562 181.804688 212.574219 184.96875 214.875 C 186.082031 215.699219 187.222656 216.457031 188.394531 217.171875 C 189.578125 217.890625 190.796875 218.503906 192.007812 219.15625 C 192.214844 219.269531 192.433594 219.386719 192.65625 219.425781 C 192.882812 219.457031 193.097656 219.410156 193.277344 219.292969 C 193.316406 219.261719 193.355469 219.242188 193.371094 219.195312 C 193.386719 219.15625 193.410156 219.109375 193.410156 219.0625 C 193.410156 218.890625 193.425781 218.722656 193.425781 218.550781 L 193.410156 218.550781 Z M 193.410156 234.355469 L 193.410156 226.796875 C 193.410156 226 192.9375 225.25 192.230469 224.890625 C 189.648438 223.597656 187.207031 222.117188 184.96875 220.480469 C 181.804688 218.171875 179.269531 215.714844 177.347656 213.171875 L 177.347656 223.378906 C 179.269531 225.914062 181.804688 228.378906 184.96875 230.691406 C 186.082031 231.503906 187.222656 232.261719 188.394531 232.976562 C 189.578125 233.699219 190.796875 234.308594 192.007812 234.960938 C 192.214844 235.078125 192.433594 235.195312 192.65625 235.234375 C 192.882812 235.261719 193.097656 235.21875 193.277344 235.101562 C 193.316406 235.070312 193.355469 235.046875 193.371094 235 C 193.386719 234.960938 193.410156 234.914062 193.410156 234.867188 C 193.410156 234.699219 193.425781 234.527344 193.425781 234.355469 Z M 193.410156 234.355469 " fill-opacity="1" fill-rule="nonzero"/><path fill="#f7be6b" d="M 177.347656 223.378906 C 179.269531 225.914062 181.804688 228.378906 184.96875 230.691406 C 186.082031 231.503906 187.222656 232.261719 188.394531 232.976562 C 189.578125 233.699219 190.796875 234.308594 192.007812 234.960938 C 192.214844 235.078125 192.433594 235.195312 192.65625 235.234375 C 192.882812 235.261719 193.097656 235.21875 193.277344 235.101562 C 193.316406 235.070312 193.355469 235.046875 193.371094 235 C 193.386719 234.960938 193.410156 234.914062 193.410156 234.867188 C 193.410156 234.699219 193.425781 234.527344 193.425781 234.355469 L 193.410156 234.355469 L 193.410156 226.796875 C 193.410156 226 192.9375 225.246094 192.230469 224.890625 C 189.648438 223.597656 187.207031 222.117188 184.96875 220.480469 C 181.804688 218.171875 179.269531 215.714844 177.347656 213.171875 L 177.347656 207.574219 C 179.269531 210.101562 181.804688 212.574219 184.96875 214.875 C 186.082031 215.699219 187.222656 216.457031 188.394531 217.171875 C 189.578125 217.890625 190.796875 218.503906 192.007812 219.15625 C 192.214844 219.269531 192.433594 219.386719 192.65625 219.425781 C 192.882812 219.457031 193.097656 219.410156 193.277344 219.292969 C 193.316406 219.261719 193.355469 219.242188 193.371094 219.195312 C 193.386719 219.15625 193.410156 219.109375 193.410156 219.0625 C 193.410156 218.890625 193.425781 218.722656 193.425781 218.550781 L 193.410156 218.550781 L 193.410156 210.992188 C 193.410156 210.195312 192.9375 209.441406 192.230469 209.085938 C 189.648438 207.78125 187.207031 206.308594 184.96875 204.667969 C 181.804688 202.363281 179.269531 199.898438 177.347656 197.363281 L 177.347656 179.300781 C 177.472656 185.667969 181.757812 192.015625 190.183594 196.882812 C 207.246094 206.730469 234.820312 206.78125 251.773438 196.992188 C 259.953125 192.269531 264.160156 186.117188 264.417969 179.914062 L 264.417969 226.867188 C 264.734375 233.511719 260.527344 240.203125 251.773438 245.253906 C 234.820312 255.039062 207.246094 254.992188 190.183594 245.140625 C 181.449219 240.101562 177.160156 233.464844 177.347656 226.867188 Z M 239.859375 227.914062 C 239.859375 217.441406 231.363281 208.945312 220.882812 208.945312 C 210.410156 208.945312 201.914062 217.441406 201.914062 227.914062 C 201.914062 238.394531 210.410156 246.890625 220.882812 246.890625 C 231.363281 246.890625 239.859375 238.394531 239.859375 227.914062 Z M 239.859375 227.914062 " fill-opacity="1" fill-rule="nonzero"/><path fill="#000000" d="M 201.851562 190.550781 C 203.867188 191.722656 206.167969 192.675781 208.679688 193.417969 L 208.773438 193.898438 C 209.105469 195.566406 210.449219 197.078125 212.535156 198.15625 C 214.527344 199.1875 217.082031 199.75 219.726562 199.757812 C 219.734375 199.757812 219.742188 199.757812 219.757812 199.757812 C 225.339844 199.757812 229.84375 197.378906 230.585938 194.078125 C 230.632812 194.085938 230.671875 194.101562 230.71875 194.101562 C 230.773438 194.101562 230.820312 194.09375 230.875 194.085938 C 234.308594 193.308594 237.394531 192.148438 240.039062 190.621094 C 245.222656 187.621094 248.074219 183.589844 248.074219 179.253906 C 248.074219 174.882812 245.175781 170.804688 239.914062 167.765625 C 229.355469 161.667969 212.230469 161.644531 201.734375 167.699219 C 196.546875 170.691406 193.6875 174.730469 193.6875 179.0625 C 193.695312 183.433594 196.585938 187.511719 201.851562 190.550781 Z M 219.765625 198.363281 C 219.757812 198.363281 219.75 198.363281 219.742188 198.363281 C 217.316406 198.355469 214.984375 197.84375 213.183594 196.914062 C 211.480469 196.039062 210.402344 194.867188 210.152344 193.621094 L 208.160156 183.722656 C 207.984375 182.8125 208.238281 181.921875 208.929688 181.078125 C 210.488281 179.179688 213.90625 177.953125 217.640625 177.953125 C 217.65625 177.953125 217.671875 177.953125 217.679688 177.953125 L 221.554688 177.960938 C 225.316406 177.96875 228.765625 179.210938 230.355469 181.125 C 231.050781 181.96875 231.324219 182.859375 231.152344 183.765625 L 229.261719 193.667969 C 228.765625 196.300781 224.59375 198.363281 219.765625 198.363281 Z M 202.433594 168.90625 C 212.542969 163.070312 229.042969 163.101562 239.214844 168.976562 C 244.03125 171.75 246.679688 175.402344 246.679688 179.253906 C 246.679688 183.070312 244.074219 186.675781 239.339844 189.410156 C 236.898438 190.820312 234.042969 191.898438 230.875 192.644531 L 232.519531 184.039062 C 232.765625 182.722656 232.386719 181.410156 231.425781 180.246094 C 229.554688 177.992188 225.773438 176.582031 221.554688 176.574219 L 217.679688 176.566406 C 217.664062 176.566406 217.648438 176.566406 217.632812 176.566406 C 213.433594 176.566406 209.6875 177.953125 207.84375 180.195312 C 206.882812 181.355469 206.519531 182.675781 206.78125 183.992188 L 208.363281 191.851562 C 206.230469 191.179688 204.269531 190.339844 202.542969 189.332031 C 197.726562 186.558594 195.074219 182.90625 195.074219 179.054688 C 195.089844 175.25 197.695312 171.644531 202.433594 168.90625 Z M 202.433594 168.90625 " fill-opacity="1" fill-rule="nonzero"/><path fill="#000000" d="M 219.625 178.449219 C 219.617188 178.449219 219.609375 178.449219 219.601562 178.449219 C 216.601562 178.449219 213.90625 179.363281 212.378906 180.898438 C 211.570312 181.714844 211.144531 182.660156 211.152344 183.636719 C 211.160156 186.558594 214.90625 188.851562 219.679688 188.859375 C 219.6875 188.859375 219.695312 188.859375 219.710938 188.859375 C 222.710938 188.859375 225.410156 187.945312 226.945312 186.402344 C 227.757812 185.589844 228.183594 184.636719 228.175781 183.660156 C 228.144531 180.75 224.394531 178.457031 219.625 178.449219 Z M 225.945312 185.417969 C 224.6875 186.683594 222.300781 187.457031 219.703125 187.457031 C 219.695312 187.457031 219.6875 187.457031 219.679688 187.457031 C 215.820312 187.449219 212.554688 185.699219 212.546875 183.621094 C 212.542969 183.015625 212.820312 182.425781 213.371094 181.875 C 214.625 180.621094 217.015625 179.835938 219.609375 179.835938 C 219.617188 179.835938 219.625 179.835938 219.632812 179.835938 C 223.496094 179.84375 226.765625 181.597656 226.773438 183.667969 C 226.773438 184.277344 226.496094 184.867188 225.945312 185.417969 Z M 225.945312 185.417969 " fill-opacity="1" fill-rule="nonzero"/><g clip-path="url(#cd9e45a4b4)"><path fill="#000000" d="M 265.113281 226.867188 L 265.113281 178.636719 C 265.113281 178.628906 265.113281 178.628906 265.113281 178.621094 C 265.113281 178.613281 265.113281 178.613281 265.113281 178.605469 C 264.796875 171.875 260.113281 165.558594 251.929688 160.828125 C 234.695312 150.882812 206.757812 150.835938 189.648438 160.722656 C 181.433594 165.457031 176.820312 171.8125 176.648438 178.621094 C 176.648438 178.628906 176.65625 178.644531 176.65625 178.652344 C 176.65625 178.660156 176.648438 178.667969 176.648438 178.675781 C 176.648438 178.683594 176.648438 178.691406 176.648438 178.699219 L 176.648438 226.867188 C 176.648438 226.867188 176.648438 226.867188 176.648438 226.875 C 176.457031 234.03125 181.136719 240.730469 189.835938 245.746094 C 198.488281 250.738281 209.835938 253.242188 221.160156 253.242188 C 232.394531 253.242188 243.59375 250.78125 252.121094 245.859375 C 260.835938 240.828125 265.441406 234.085938 265.113281 226.867188 Z M 190.347656 161.929688 C 207.066406 152.269531 234.386719 152.316406 251.230469 162.039062 C 258.984375 166.519531 263.417969 172.425781 263.71875 178.660156 L 263.71875 179.890625 C 263.464844 186.101562 259.089844 191.960938 251.425781 196.386719 C 234.695312 206.046875 207.378906 206 190.535156 196.277344 C 182.609375 191.707031 178.175781 185.675781 178.046875 179.285156 L 178.046875 178.644531 C 178.207031 172.347656 182.570312 166.410156 190.347656 161.929688 Z M 192.726562 218.621094 C 192.726562 218.660156 192.726562 218.691406 192.726562 218.730469 C 192.609375 218.691406 192.457031 218.605469 192.339844 218.542969 L 191.410156 218.046875 C 190.535156 217.582031 189.617188 217.101562 188.757812 216.574219 C 187.554688 215.84375 186.457031 215.101562 185.378906 214.308594 C 182.433594 212.164062 179.96875 209.8125 178.042969 207.324219 L 178.042969 199.316406 C 179.851562 201.402344 182.03125 203.386719 184.554688 205.226562 C 186.773438 206.851562 189.246094 208.355469 191.921875 209.707031 C 192.394531 209.945312 192.71875 210.464844 192.71875 210.992188 L 192.71875 218.550781 C 192.710938 218.574219 192.726562 218.597656 192.726562 218.621094 Z M 192.726562 234.425781 C 192.726562 234.464844 192.726562 234.496094 192.726562 234.535156 C 192.609375 234.496094 192.464844 234.417969 192.339844 234.347656 L 191.410156 233.851562 C 190.535156 233.386719 189.617188 232.90625 188.757812 232.378906 C 187.601562 231.675781 186.464844 230.914062 185.378906 230.125 C 182.417969 227.960938 179.953125 225.613281 178.042969 223.132812 L 178.042969 215.125 C 179.84375 217.203125 182.023438 219.1875 184.554688 221.039062 C 186.8125 222.691406 189.292969 224.195312 191.921875 225.511719 C 192.394531 225.75 192.71875 226.269531 192.71875 226.796875 L 192.71875 234.355469 C 192.710938 234.378906 192.726562 234.402344 192.726562 234.425781 Z M 251.425781 244.652344 C 234.6875 254.308594 207.371094 254.253906 190.535156 244.535156 C 182.292969 239.78125 177.859375 233.511719 178.042969 226.882812 C 178.050781 226.535156 178.074219 226.1875 178.113281 225.828125 C 178.128906 225.707031 178.097656 225.589844 178.050781 225.480469 L 178.050781 225.332031 C 179.859375 227.417969 182.039062 229.402344 184.5625 231.25 C 185.679688 232.0625 186.851562 232.84375 188.039062 233.566406 C 188.9375 234.117188 189.867188 234.605469 190.765625 235.078125 L 191.671875 235.558594 C 191.9375 235.707031 192.214844 235.851562 192.570312 235.914062 C 192.648438 235.921875 192.726562 235.929688 192.796875 235.929688 C 193.105469 235.929688 193.410156 235.84375 193.664062 235.675781 L 193.726562 235.628906 C 193.789062 235.582031 193.953125 235.449219 194.03125 235.234375 C 194.050781 235.171875 194.113281 235.03125 194.113281 234.859375 C 194.113281 234.78125 194.113281 234.714844 194.121094 234.636719 C 194.128906 234.542969 194.128906 234.441406 194.128906 234.347656 C 194.128906 234.316406 194.113281 234.292969 194.113281 234.269531 L 194.113281 226.789062 C 194.113281 225.738281 193.503906 224.746094 192.546875 224.261719 C 189.992188 222.976562 187.578125 221.519531 185.386719 219.914062 C 182.410156 217.746094 179.945312 215.386719 178.050781 212.921875 L 178.050781 209.519531 C 179.867188 211.613281 182.042969 213.597656 184.5625 215.425781 C 185.671875 216.242188 186.804688 217 188.042969 217.75 C 188.945312 218.300781 189.875 218.789062 190.773438 219.261719 L 191.679688 219.746094 C 191.945312 219.890625 192.222656 220.039062 192.578125 220.101562 C 192.65625 220.109375 192.734375 220.117188 192.804688 220.117188 C 193.113281 220.117188 193.417969 220.03125 193.671875 219.859375 L 193.734375 219.8125 C 193.796875 219.765625 193.960938 219.636719 194.039062 219.417969 C 194.066406 219.355469 194.121094 219.21875 194.121094 219.039062 C 194.121094 218.960938 194.121094 218.890625 194.128906 218.8125 C 194.136719 218.722656 194.136719 218.621094 194.136719 218.527344 C 194.136719 218.496094 194.121094 218.472656 194.121094 218.449219 L 194.121094 210.96875 C 194.121094 209.914062 193.511719 208.921875 192.5625 208.441406 C 189.96875 207.132812 187.554688 205.667969 185.394531 204.085938 C 182.433594 201.929688 179.976562 199.582031 178.058594 197.109375 L 178.058594 185.503906 C 180.035156 190.007812 184.058594 194.132812 189.851562 197.472656 C 198.503906 202.464844 209.851562 204.960938 221.175781 204.960938 C 232.410156 204.960938 243.617188 202.503906 252.136719 197.582031 C 257.820312 194.300781 261.773438 190.242188 263.734375 185.796875 L 263.734375 226.851562 C 263.734375 226.859375 263.734375 226.859375 263.734375 226.867188 C 263.734375 226.875 263.734375 226.875 263.734375 226.882812 C 264.039062 233.582031 259.671875 239.890625 251.425781 244.652344 Z M 251.425781 244.652344 " fill-opacity="1" fill-rule="nonzero"/></g><path fill="#000000" d="M 220.882812 226.308594 C 216.503906 226.308594 212.945312 230.261719 212.945312 235.125 C 212.945312 236.597656 213.285156 237.628906 213.976562 238.269531 C 214.679688 238.921875 215.617188 239.09375 216.71875 239.09375 C 217.300781 239.09375 217.921875 239.046875 218.570312 238.992188 C 220.058594 238.875 221.710938 238.875 223.191406 238.992188 C 225.082031 239.140625 226.710938 239.261719 227.78125 238.269531 C 228.480469 237.628906 228.8125 236.597656 228.8125 235.117188 C 228.820312 230.261719 225.261719 226.308594 220.882812 226.308594 Z M 226.835938 237.253906 C 226.214844 237.835938 224.867188 237.738281 223.300781 237.613281 C 221.835938 237.503906 219.9375 237.503906 218.464844 237.613281 C 216.898438 237.738281 215.546875 237.835938 214.921875 237.253906 C 214.527344 236.890625 214.332031 236.195312 214.332031 235.132812 C 214.332031 231.039062 217.269531 227.714844 220.875 227.714844 C 224.480469 227.714844 227.417969 231.039062 227.417969 235.132812 C 227.425781 236.1875 227.230469 236.882812 226.835938 237.253906 Z M 226.835938 237.253906 " fill-opacity="1" fill-rule="nonzero"/><path fill="#000000" d="M 228.898438 225.605469 C 228.261719 226.234375 227.914062 227.070312 227.914062 227.96875 C 227.914062 228.867188 228.261719 229.714844 228.898438 230.347656 C 229.535156 230.984375 230.378906 231.332031 231.269531 231.332031 C 231.269531 231.332031 231.269531 231.332031 231.277344 231.332031 C 232.167969 231.332031 233.007812 230.984375 233.632812 230.347656 C 234.789062 229.195312 236.082031 226.054688 234.640625 224.597656 C 233.191406 223.164062 230.050781 224.449219 228.898438 225.605469 Z M 232.640625 229.355469 C 232.277344 229.730469 231.789062 229.929688 231.269531 229.929688 C 230.75 229.929688 230.253906 229.730469 229.882812 229.355469 C 229.511719 228.984375 229.308594 228.488281 229.308594 227.96875 C 229.308594 227.449219 229.511719 226.960938 229.882812 226.597656 C 230.5625 225.914062 231.953125 225.347656 232.882812 225.347656 C 233.214844 225.347656 233.488281 225.417969 233.648438 225.582031 C 234.277344 226.21875 233.5625 228.441406 232.640625 229.355469 Z M 232.640625 229.355469 " fill-opacity="1" fill-rule="nonzero"/><path fill="#000000" d="M 223.796875 224.535156 C 224.152344 224.660156 224.519531 224.714844 224.882812 224.714844 C 225.386719 224.714844 225.890625 224.597656 226.363281 224.363281 C 227.160156 223.96875 227.765625 223.285156 228.050781 222.433594 C 228.339844 221.605469 228.378906 220.433594 228.175781 219.371094 C 227.914062 218.03125 227.285156 217.132812 226.417969 216.828125 C 224.480469 216.171875 222.230469 218.714844 221.703125 220.269531 C 221.105469 222.039062 222.050781 223.945312 223.796875 224.535156 Z M 223.015625 220.730469 C 223.402344 219.597656 224.859375 218.132812 225.742188 218.132812 C 225.820312 218.132812 225.890625 218.140625 225.960938 218.164062 C 226.324219 218.285156 226.640625 218.851562 226.796875 219.652344 C 226.960938 220.457031 226.929688 221.394531 226.726562 221.992188 C 226.378906 223.015625 225.269531 223.566406 224.246094 223.21875 C 223.222656 222.867188 222.671875 221.75 223.015625 220.730469 Z M 223.015625 220.730469 " fill-opacity="1" fill-rule="nonzero"/><path fill="#000000" d="M 212.882812 225.605469 C 211.726562 224.449219 208.585938 223.15625 207.136719 224.597656 C 205.6875 226.046875 206.984375 229.1875 208.136719 230.339844 C 208.789062 230.992188 209.648438 231.316406 210.511719 231.316406 C 211.371094 231.316406 212.230469 230.992188 212.890625 230.332031 C 214.183594 229.03125 214.183594 226.90625 212.882812 225.605469 Z M 211.898438 229.355469 C 211.128906 230.125 209.890625 230.125 209.121094 229.355469 C 208.199219 228.433594 207.496094 226.21875 208.121094 225.589844 C 208.285156 225.425781 208.5625 225.347656 208.898438 225.347656 C 209.835938 225.347656 211.214844 225.914062 211.898438 226.589844 C 212.648438 227.355469 212.648438 228.597656 211.898438 229.355469 Z M 211.898438 229.355469 " fill-opacity="1" fill-rule="nonzero"/><path fill="#000000" d="M 215.417969 224.371094 C 215.882812 224.605469 216.386719 224.722656 216.898438 224.722656 C 217.261719 224.722656 217.625 224.660156 217.984375 224.542969 C 219.734375 223.945312 220.671875 222.039062 220.074219 220.285156 C 219.789062 219.457031 219.113281 218.503906 218.308594 217.789062 C 217.285156 216.890625 216.238281 216.550781 215.371094 216.851562 C 214.503906 217.148438 213.875 218.046875 213.609375 219.386719 C 213.402344 220.449219 213.449219 221.621094 213.726562 222.449219 C 214.007812 223.285156 214.609375 223.976562 215.417969 224.371094 Z M 214.96875 219.652344 C 215.121094 218.851562 215.449219 218.285156 215.8125 218.164062 C 216.65625 217.882812 218.332031 219.496094 218.75 220.730469 C 219.097656 221.75 218.546875 222.867188 217.527344 223.21875 C 216.503906 223.566406 215.386719 223.015625 215.039062 221.992188 C 214.835938 221.402344 214.8125 220.457031 214.96875 219.652344 Z M 214.96875 219.652344 " fill-opacity="1" fill-rule="nonzero"/><path fill="#000000" d="M 220.882812 208.25 C 210.039062 208.25 201.214844 217.070312 201.214844 227.914062 C 201.214844 238.765625 210.039062 247.589844 220.882812 247.589844 C 231.726562 247.589844 240.554688 238.757812 240.554688 227.914062 C 240.554688 217.070312 231.734375 208.25 220.882812 208.25 Z M 220.882812 246.195312 C 210.804688 246.195312 202.609375 237.992188 202.609375 227.914062 C 202.609375 217.835938 210.804688 209.644531 220.882812 209.644531 C 230.960938 209.644531 239.160156 217.835938 239.160156 227.914062 C 239.160156 237.992188 230.960938 246.195312 220.882812 246.195312 Z M 220.882812 246.195312 " fill-opacity="1" fill-rule="nonzero"/><path fill="#f7be6b" d="M 207.128906 247.714844 C 208.703125 248.621094 208.503906 250.21875 206.6875 251.261719 L 177.160156 268.300781 C 175.347656 269.347656 172.59375 269.464844 171.023438 268.558594 L 116.503906 237.078125 C 114.929688 236.171875 115.128906 234.582031 116.945312 233.535156 L 146.464844 216.488281 C 148.277344 215.441406 151.03125 215.324219 152.601562 216.234375 Z M 173.441406 242.859375 C 175.214844 242.355469 177.640625 240.636719 176.757812 239.613281 C 175.882812 238.589844 172.023438 238.644531 170.253906 239.15625 C 168.480469 239.652344 167.757812 240.890625 168.632812 241.914062 C 169.527344 242.9375 171.679688 243.363281 173.441406 242.859375 Z M 177.167969 248.171875 C 177.160156 247.03125 173.640625 246.101562 171.664062 246.101562 C 169.695312 246.09375 168.089844 247.015625 168.097656 248.164062 C 168.105469 249.300781 169.710938 250.234375 171.6875 250.234375 C 173.664062 250.226562 177.167969 249.300781 177.167969 248.171875 Z M 167.441406 237.519531 C 168.308594 236.496094 168.410156 234.269531 166.632812 233.757812 C 164.859375 233.253906 161.882812 234.660156 161.007812 235.683594 C 160.128906 236.707031 160.875 237.9375 162.648438 238.449219 C 164.425781 238.960938 166.570312 238.542969 167.441406 237.519531 Z M 161.882812 250.339844 C 166.144531 247.882812 166.496094 244.101562 162.671875 241.890625 C 158.851562 239.683594 152.300781 239.890625 148.039062 242.347656 C 143.78125 244.804688 148.230469 245.8125 152.050781 248.015625 C 155.875 250.234375 157.625 252.804688 161.882812 250.339844 Z M 151.84375 238.765625 C 153.820312 238.773438 155.417969 237.851562 155.417969 236.707031 C 155.410156 235.566406 153.789062 233.535156 151.820312 233.535156 C 149.84375 233.535156 148.246094 235.558594 148.253906 236.699219 C 148.261719 237.835938 149.867188 238.765625 151.84375 238.765625 Z M 151.84375 238.765625 " fill-opacity="1" fill-rule="nonzero"/><path fill="#e4f6f6" d="M 224.433594 249.078125 C 224.238281 249.820312 223.648438 250.527344 222.664062 251.101562 L 216.945312 254.402344 L 198.65625 264.960938 L 180.363281 275.519531 L 177.394531 277.234375 C 174.9375 278.652344 170.929688 278.644531 168.457031 277.21875 L 162.074219 273.535156 L 145.371094 263.890625 C 144.921875 263.628906 144.386719 263.449219 143.820312 263.339844 C 142.472656 263.078125 140.929688 263.253906 139.859375 263.875 L 139.648438 264 C 135.796875 266.226562 129.71875 266.386719 125.496094 264.503906 C 125 264.277344 124.527344 264.03125 124.082031 263.75 C 120.175781 261.269531 120.542969 257.425781 124.617188 255.078125 C 125.371094 254.644531 125.75 254.070312 125.75 253.496094 C 125.75 252.914062 125.363281 252.339844 124.59375 251.898438 L 107.433594 241.984375 L 101.503906 238.558594 C 100.261719 237.84375 99.640625 236.898438 99.640625 235.96875 C 99.640625 235.953125 99.640625 235.929688 99.640625 235.914062 C 99.664062 235 100.277344 234.101562 101.480469 233.402344 L 146.75 207.261719 C 149.214844 205.84375 153.222656 205.851562 155.6875 207.277344 L 222.640625 245.929688 C 224.121094 246.789062 224.71875 247.96875 224.433594 249.078125 Z M 206.6875 251.261719 C 208.503906 250.21875 208.703125 248.621094 207.128906 247.714844 L 152.601562 216.234375 C 151.03125 215.324219 148.277344 215.441406 146.464844 216.488281 L 116.945312 233.535156 C 115.128906 234.582031 114.929688 236.171875 116.503906 237.078125 L 171.023438 268.558594 C 172.59375 269.464844 175.347656 269.347656 177.160156 268.300781 Z M 137.535156 256.714844 C 137.734375 255.953125 137.113281 255.226562 136.332031 255.292969 L 128.648438 255.976562 C 127.542969 256.070312 127.222656 257.535156 128.183594 258.085938 L 134.6875 261.84375 C 135.332031 262.21875 136.160156 261.867188 136.355469 261.15625 Z M 170.261719 239.148438 C 168.488281 239.644531 167.765625 240.882812 168.640625 241.90625 C 169.527344 242.9375 171.671875 243.355469 173.441406 242.859375 C 175.214844 242.355469 177.640625 240.636719 176.757812 239.613281 C 175.890625 238.589844 172.03125 238.644531 170.261719 239.148438 Z M 168.097656 248.15625 C 168.105469 249.292969 169.710938 250.226562 171.6875 250.226562 C 173.664062 250.226562 177.167969 249.300781 177.167969 248.164062 C 177.160156 247.023438 173.640625 246.09375 171.664062 246.09375 C 169.695312 246.085938 168.089844 247.007812 168.097656 248.15625 Z M 161.007812 235.683594 C 160.136719 236.707031 160.875 237.9375 162.648438 238.449219 C 164.425781 238.953125 166.5625 238.542969 167.433594 237.511719 C 168.300781 236.488281 168.402344 234.261719 166.625 233.75 C 164.859375 233.253906 161.882812 234.660156 161.007812 235.683594 Z M 148.042969 242.355469 C 143.789062 244.8125 148.238281 245.820312 152.058594 248.023438 C 155.882812 250.234375 157.625 252.804688 161.890625 250.339844 C 166.152344 247.882812 166.503906 244.101562 162.679688 241.890625 C 158.859375 239.691406 152.308594 239.890625 148.042969 242.355469 Z M 151.820312 233.535156 C 149.84375 233.535156 148.246094 235.558594 148.253906 236.699219 C 148.261719 237.84375 149.867188 238.765625 151.84375 238.765625 C 153.820312 238.773438 155.417969 237.851562 155.417969 236.707031 C 155.410156 235.566406 153.789062 233.535156 151.820312 233.535156 Z M 151.820312 233.535156 " fill-opacity="1" fill-rule="nonzero"/><path fill="#572ea8" d="M 224.433594 249.078125 L 224.433594 270.789062 C 224.402344 271.9375 223.546875 273.132812 221.921875 274.078125 L 216.953125 276.945312 L 216.953125 254.402344 L 222.671875 251.101562 C 223.648438 250.527344 224.238281 249.820312 224.433594 249.078125 Z M 216.945312 254.402344 L 198.65625 264.960938 L 198.65625 287.511719 L 216.945312 276.945312 Z M 180.363281 275.519531 L 180.363281 298.054688 C 180.511719 297.992188 180.648438 297.914062 180.789062 297.828125 L 198.65625 287.511719 L 198.65625 264.960938 Z M 177.394531 277.234375 C 174.9375 278.652344 170.929688 278.644531 168.457031 277.21875 L 162.074219 273.535156 L 162.074219 293.285156 L 162.039062 293.347656 L 170.519531 298.25 C 173.03125 299.699219 177.332031 299.589844 180.363281 298.046875 L 180.363281 275.511719 Z M 143.8125 263.339844 L 143.773438 263.542969 L 143.773438 282.8125 L 162.03125 293.355469 L 162.066406 293.292969 L 162.066406 273.542969 L 145.363281 263.898438 C 144.914062 263.628906 144.378906 263.449219 143.8125 263.339844 Z M 139.851562 263.875 L 139.640625 264 C 135.789062 266.226562 129.710938 266.386719 125.488281 264.503906 L 125.488281 272.046875 L 125.394531 272.203125 L 143.773438 282.8125 L 143.773438 263.542969 L 143.8125 263.339844 C 142.464844 263.078125 140.921875 263.253906 139.851562 263.875 Z M 124.074219 263.75 C 120.167969 261.269531 120.535156 257.425781 124.609375 255.078125 C 125.363281 254.644531 125.742188 254.070312 125.742188 253.496094 C 125.742188 252.914062 125.355469 252.339844 124.585938 251.898438 L 107.425781 241.984375 L 107.183594 242.402344 L 107.183594 261.691406 L 125.394531 272.203125 L 125.488281 272.046875 L 125.488281 264.503906 C 124.992188 264.277344 124.519531 264.03125 124.074219 263.75 Z M 101.503906 238.558594 C 100.261719 237.84375 99.640625 236.898438 99.640625 235.96875 L 99.640625 255.503906 C 99.640625 256.628906 100.160156 257.621094 101.488281 258.386719 L 107.191406 261.683594 L 107.191406 242.402344 L 107.433594 241.984375 Z M 127.441406 257.09375 L 130.261719 259.355469 L 135.945312 262 L 137.5625 255.992188 L 137.152344 255.292969 L 128.097656 256.1875 Z M 127.441406 257.09375 " fill-opacity="1" fill-rule="nonzero"/><path fill="#000000" d="M 149.378906 247.410156 C 150.144531 247.789062 150.9375 248.1875 151.710938 248.628906 C 152.488281 249.078125 153.160156 249.535156 153.820312 249.976562 C 155.425781 251.054688 156.882812 252.039062 158.710938 252.039062 C 159.742188 252.039062 160.882812 251.730469 162.238281 250.945312 C 164.648438 249.558594 166.03125 247.644531 166.03125 245.707031 C 166.03125 243.976562 164.96875 242.410156 163.03125 241.292969 C 159.023438 238.976562 152.144531 239.1875 147.695312 241.75 C 146.78125 242.277344 145.578125 243.109375 145.609375 244.242188 C 145.65625 245.574219 147.300781 246.386719 149.378906 247.410156 Z M 148.394531 242.960938 C 150.578125 241.699219 153.394531 241.054688 156.089844 241.054688 C 158.417969 241.054688 160.648438 241.535156 162.332031 242.496094 C 163.820312 243.355469 164.632812 244.488281 164.632812 245.699219 C 164.632812 247.132812 163.503906 248.597656 161.542969 249.738281 C 158.542969 251.472656 157.058594 250.472656 154.601562 248.820312 C 153.960938 248.386719 153.222656 247.890625 152.410156 247.425781 C 151.601562 246.960938 150.789062 246.558594 150 246.171875 C 148.742188 245.550781 147.03125 244.699219 147.007812 244.203125 C 147.007812 244.15625 147.039062 243.746094 148.394531 242.960938 Z M 171.664062 245.394531 C 170.167969 245.378906 168.851562 245.851562 168.074219 246.628906 C 167.625 247.078125 167.394531 247.605469 167.394531 248.164062 C 167.402344 249.707031 169.285156 250.921875 171.679688 250.929688 C 173.441406 250.929688 177.859375 250.109375 177.859375 248.171875 C 177.851562 246.21875 173.425781 245.394531 171.664062 245.394531 Z M 171.6875 249.527344 C 170.039062 249.519531 168.796875 248.796875 168.796875 248.148438 C 168.796875 247.96875 168.890625 247.789062 169.066406 247.613281 C 169.5625 247.117188 170.578125 246.789062 171.648438 246.789062 C 171.65625 246.789062 171.65625 246.789062 171.664062 246.789062 C 173.734375 246.789062 176.285156 247.714844 176.480469 248.132812 C 176.285156 248.621094 173.75 249.527344 171.6875 249.527344 Z M 167.65625 240.433594 C 167.457031 241.101562 167.617188 241.78125 168.113281 242.355469 C 168.875 243.25 170.355469 243.757812 171.882812 243.757812 C 172.472656 243.757812 173.066406 243.683594 173.625 243.527344 C 174.976562 243.148438 177.160156 241.929688 177.570312 240.550781 C 177.726562 240.039062 177.625 239.542969 177.285156 239.148438 C 176.058594 237.722656 171.609375 238.023438 170.058594 238.464844 C 168.804688 238.835938 167.929688 239.550781 167.65625 240.433594 Z M 168.992188 240.835938 C 169.082031 240.511719 169.527344 240.078125 170.457031 239.8125 C 171.238281 239.589844 172.269531 239.480469 173.253906 239.480469 C 174.640625 239.480469 175.921875 239.691406 176.253906 240.085938 C 176.332031 240.410156 174.976562 241.699219 173.253906 242.1875 C 171.75 242.613281 169.882812 242.269531 169.175781 241.449219 C 168.90625 241.140625 168.96875 240.914062 168.992188 240.835938 Z M 151.84375 239.464844 C 151.851562 239.464844 151.859375 239.464844 151.867188 239.464844 C 153.332031 239.464844 154.664062 239.007812 155.433594 238.234375 C 155.882812 237.78125 156.113281 237.253906 156.113281 236.699219 C 156.105469 235.179688 154.175781 232.835938 151.820312 232.828125 C 150.742188 232.828125 149.671875 233.308594 148.796875 234.1875 C 148.03125 234.960938 147.546875 235.921875 147.554688 236.691406 C 147.5625 238.246094 149.449219 239.464844 151.84375 239.464844 Z M 149.789062 235.179688 C 150.136719 234.820312 150.875 234.234375 151.820312 234.234375 C 153.457031 234.242188 154.71875 236 154.71875 236.714844 C 154.71875 236.890625 154.625 237.070312 154.449219 237.25 C 153.953125 237.746094 152.9375 238.070312 151.867188 238.070312 C 151.859375 238.070312 151.851562 238.070312 151.851562 238.070312 C 150.199219 238.070312 148.960938 237.339844 148.960938 236.691406 C 148.953125 236.355469 149.238281 235.730469 149.789062 235.179688 Z M 162.464844 239.125 C 163.039062 239.285156 163.640625 239.363281 164.238281 239.363281 C 165.757812 239.363281 167.222656 238.851562 167.976562 237.96875 C 168.664062 237.15625 168.929688 235.867188 168.617188 234.835938 C 168.355469 233.96875 167.71875 233.347656 166.828125 233.09375 C 164.679688 232.480469 161.425781 234.117188 160.480469 235.234375 C 159.992188 235.804688 159.828125 236.488281 160.03125 237.148438 C 160.300781 238.03125 161.183594 238.75 162.464844 239.125 Z M 161.542969 236.132812 C 162.144531 235.417969 164.253906 234.347656 165.78125 234.347656 C 166.023438 234.347656 166.246094 234.371094 166.449219 234.433594 C 166.882812 234.558594 167.152344 234.820312 167.285156 235.242188 C 167.464844 235.820312 167.300781 236.613281 166.914062 237.070312 C 166.230469 237.875 164.332031 238.210938 162.851562 237.78125 C 161.90625 237.511719 161.464844 237.070312 161.371094 236.746094 C 161.339844 236.667969 161.277344 236.449219 161.542969 236.132812 Z M 222.984375 245.332031 L 156.03125 206.683594 C 153.324219 205.117188 149.082031 205.109375 146.394531 206.667969 L 101.121094 232.804688 C 99.742188 233.597656 98.96875 234.699219 98.9375 235.976562 L 98.9375 255.621094 C 98.9375 255.636719 98.945312 255.660156 98.945312 255.675781 C 99 257.070312 99.726562 258.1875 101.121094 258.992188 L 170.152344 298.84375 C 171.457031 299.597656 173.183594 299.976562 174.984375 299.976562 C 176.921875 299.976562 178.945312 299.542969 180.617188 298.691406 C 180.617188 298.691406 180.617188 298.691406 180.625 298.691406 C 180.796875 298.613281 180.96875 298.527344 181.128906 298.425781 L 222.261719 274.675781 C 224.066406 273.628906 225.082031 272.246094 225.121094 270.78125 L 225.121094 249.109375 C 225.425781 247.691406 224.640625 246.285156 222.984375 245.332031 Z M 101.828125 234.007812 L 147.097656 207.867188 C 149.324219 206.582031 153.097656 206.597656 155.339844 207.882812 L 222.285156 246.535156 C 223.074219 246.992188 223.5625 247.542969 223.734375 248.109375 L 223.734375 248.953125 C 223.5625 249.519531 223.082031 250.046875 222.316406 250.488281 L 177.039062 276.621094 C 174.8125 277.90625 171.039062 277.898438 168.796875 276.605469 L 145.710938 263.277344 C 145.222656 262.992188 144.625 262.773438 143.945312 262.644531 C 143.496094 262.558594 143.03125 262.511719 142.570312 262.511719 C 141.441406 262.511719 140.339844 262.773438 139.496094 263.253906 L 139.285156 263.378906 C 135.664062 265.472656 129.851562 265.675781 125.765625 263.851562 C 125.300781 263.644531 124.859375 263.410156 124.449219 263.15625 C 122.867188 262.148438 122.015625 260.867188 122.039062 259.558594 C 122.066406 258.140625 123.128906 256.730469 124.960938 255.675781 C 125.898438 255.132812 126.441406 254.332031 126.441406 253.488281 C 126.441406 252.621094 125.90625 251.84375 124.9375 251.285156 L 101.84375 237.953125 C 100.882812 237.394531 100.332031 236.675781 100.332031 235.929688 C 100.355469 235.234375 100.882812 234.550781 101.828125 234.007812 Z M 216.246094 255.613281 L 216.246094 276.550781 L 199.355469 286.300781 L 199.355469 265.363281 Z M 124.246094 252.503906 C 124.757812 252.796875 125.050781 253.164062 125.050781 253.496094 C 125.050781 253.828125 124.765625 254.1875 124.269531 254.472656 C 121.976562 255.796875 120.695312 257.597656 120.648438 259.542969 C 120.609375 261.363281 121.695312 263.070312 123.710938 264.347656 C 124.050781 264.558594 124.417969 264.757812 124.789062 264.9375 L 124.789062 271.039062 L 107.890625 261.277344 L 107.890625 243.046875 Z M 126.183594 265.527344 C 130.554688 267.078125 136.300781 266.730469 139.992188 264.605469 L 140.207031 264.480469 C 140.953125 264.046875 142.03125 263.859375 143.082031 263.945312 L 143.082031 281.605469 L 126.191406 271.851562 L 126.191406 265.527344 Z M 144.472656 264.25 C 144.664062 264.316406 144.851562 264.402344 145.015625 264.496094 L 161.371094 273.9375 L 161.371094 292.164062 L 144.472656 282.402344 Z M 100.339844 255.503906 L 100.339844 238.597656 C 100.585938 238.796875 100.851562 238.992188 101.152344 239.164062 L 106.519531 242.261719 C 106.511719 242.308594 106.488281 242.347656 106.488281 242.402344 L 106.488281 260.480469 L 101.828125 257.789062 C 100.8125 257.203125 100.339844 256.472656 100.339844 255.503906 Z M 170.859375 297.644531 L 162.765625 292.96875 L 162.765625 274.746094 L 168.097656 277.820312 C 169.457031 278.605469 171.199219 279 172.945312 279 C 174.671875 279 176.402344 278.613281 177.742188 277.835938 L 179.664062 276.730469 L 179.664062 297.597656 C 176.84375 298.867188 173.058594 298.914062 170.859375 297.644531 Z M 181.058594 296.867188 L 181.058594 275.921875 L 197.960938 266.171875 L 197.960938 287.109375 Z M 221.570312 273.472656 L 217.648438 275.738281 L 217.648438 254.804688 L 223.023438 251.707031 C 223.285156 251.550781 223.527344 251.386719 223.742188 251.21875 L 223.742188 270.773438 C 223.710938 271.707031 222.921875 272.691406 221.570312 273.472656 Z M 116.144531 237.691406 L 170.664062 269.171875 C 171.488281 269.644531 172.5625 269.875 173.6875 269.875 C 175.015625 269.875 176.402344 269.550781 177.511719 268.914062 L 207.039062 251.875 C 208.214844 251.195312 208.890625 250.242188 208.890625 249.261719 C 208.890625 248.402344 208.386719 247.644531 207.480469 247.117188 L 152.953125 215.636719 C 151.160156 214.605469 148.152344 214.714844 146.105469 215.890625 L 116.585938 232.9375 C 115.410156 233.621094 114.734375 234.566406 114.734375 235.550781 C 114.734375 236.402344 115.238281 237.164062 116.144531 237.691406 Z M 117.285156 234.140625 L 146.804688 217.09375 C 148.402344 216.171875 150.898438 216.054688 152.246094 216.835938 L 206.78125 248.316406 C 207.105469 248.503906 207.496094 248.820312 207.496094 249.253906 C 207.496094 249.722656 207.058594 250.242188 206.339844 250.660156 L 176.8125 267.699219 C 175.214844 268.621094 172.726562 268.738281 171.371094 267.953125 L 116.851562 236.472656 C 116.527344 236.285156 116.136719 235.96875 116.136719 235.535156 C 116.128906 235.085938 116.5625 234.558594 117.285156 234.140625 Z M 136.261719 254.597656 L 128.578125 255.277344 C 127.765625 255.347656 127.128906 255.90625 126.953125 256.699219 C 126.773438 257.496094 127.113281 258.269531 127.828125 258.683594 L 134.332031 262.441406 C 134.609375 262.605469 134.929688 262.691406 135.238281 262.691406 C 135.480469 262.691406 135.71875 262.644531 135.945312 262.550781 C 136.472656 262.332031 136.867188 261.882812 137.015625 261.332031 L 138.207031 256.890625 C 138.355469 256.308594 138.214844 255.699219 137.835938 255.242188 C 137.449219 254.789062 136.859375 254.550781 136.261719 254.597656 Z M 136.859375 256.535156 L 135.664062 260.976562 C 135.632812 261.109375 135.535156 261.21875 135.410156 261.261719 C 135.332031 261.292969 135.183594 261.332031 135.023438 261.242188 L 128.519531 257.488281 C 128.261719 257.339844 128.285156 257.109375 128.308594 257.015625 C 128.332031 256.921875 128.410156 256.707031 128.695312 256.683594 L 136.378906 256 C 136.394531 256 136.410156 256 136.417969 256 C 136.59375 256 136.710938 256.109375 136.75 256.15625 C 136.8125 256.195312 136.90625 256.339844 136.859375 256.535156 Z M 136.859375 256.535156 " fill-opacity="1" fill-rule="nonzero"/></svg>