<svg xmlns="http://www.w3.org/2000/svg" xmlns:xlink="http://www.w3.org/1999/xlink" width="400" zoomAndPan="magnify" viewBox="0 0 300 299.999988" height="400" preserveAspectRatio="xMidYMid meet" version="1.0"><defs><filter x="0%" y="0%" width="100%" height="100%" id="2b5d4084ed"><feColorMatrix values="0 0 0 0 1 0 0 0 0 1 0 0 0 0 1 0 0 0 1 0" color-interpolation-filters="sRGB"/></filter><clipPath id="ac993b2740"><path d="M 33 41 L 297 41 L 297 269.4375 L 33 269.4375 Z M 33 41 " clip-rule="nonzero"/></clipPath><mask id="cb44e1fce3"><g filter="url(#2b5d4084ed)"><rect x="-30" width="360" fill="#000000" y="-29.999999" height="359.999986" fill-opacity="0.3"/></g></mask><clipPath id="19f094d2da"><path d="M 0.359375 0.28125 L 263.640625 0.28125 L 263.640625 228 L 0.359375 228 Z M 0.359375 0.28125 " clip-rule="nonzero"/></clipPath><clipPath id="9a106ee5be"><rect x="0" width="264" y="0" height="229"/></clipPath></defs><path fill="#ffffff" d="M 297.359375 250.355469 L 296.402344 268.894531 L 228.898438 268.894531 L 230.09375 250.355469 Z M 281.859375 169.09375 C 281.859375 169.09375 283.578125 138.816406 258.113281 107.453125 C 263.949219 78.46875 256.125 39.640625 248.695312 33.925781 C 234.664062 34.746094 205.359375 45.011719 189.082031 70.84375 C 172.601562 64.976562 149.34375 63.425781 125.886719 69.28125 C 125.886719 69.28125 98.117188 40.121094 65.5625 33.925781 C 49.761719 45.449219 54.714844 101.589844 54.550781 108.648438 C 43.539062 128.273438 1.886719 188.253906 70.347656 230.316406 C 61.253906 253.707031 57.632812 268.570312 57.632812 268.570312 L 226.425781 268.898438 C 226.425781 268.898438 229.546875 236.007812 232.894531 219.730469 C 236.246094 203.453125 239.367188 176.15625 246.53125 172.957031 C 253.699219 169.761719 259.300781 177.347656 259.300781 177.347656 C 259.300781 177.347656 267.398438 157.476562 273.722656 175.191406 C 271.90625 168.488281 281.859375 169.09375 281.859375 169.09375 Z M 281.859375 169.09375 " fill-opacity="1" fill-rule="nonzero"/><path fill="#ffbd59" d="M 237.277344 194.34375 C 242.542969 167.769531 253.3125 170.402344 259.300781 177.347656 C 260.257812 169.207031 268.875 166.574219 273.902344 173.039062 C 293.289062 153.886719 296.402344 210.703125 296.402344 210.703125 L 296.402344 247.484375 C 296.402344 247.484375 292.058594 261.609375 262.292969 261.609375 C 236.320312 261.609375 228.898438 250.117188 228.898438 250.117188 C 228.898438 250.117188 232.007812 220.914062 237.277344 194.34375 Z M 126.722656 69.625 C 120.976562 61.03125 83.992188 31.078125 66.039062 33.957031 C 45.691406 57.417969 55.507812 108.648438 55.507812 108.648438 C 55.507812 108.648438 38.703125 131.121094 36.703125 152.835938 C 37.351562 168.851562 80.890625 196.902344 130.671875 155.234375 C 177.980469 115.636719 139.890625 67.230469 139.890625 67.230469 C 139.890625 67.230469 133.425781 67.6875 126.722656 69.625 Z M 244.632812 47.84375 L 228.898438 79.757812 C 228.898438 79.757812 242.957031 91.410156 246.660156 101.464844 C 250.363281 91.886719 251.347656 67.472656 244.632812 47.84375 Z M 244.632812 47.84375 " fill-opacity="1" fill-rule="nonzero"/><g clip-path="url(#ac993b2740)"><g mask="url(#cb44e1fce3)"><g transform="matrix(1, 0, 0, 1, 33, 41)"><g clip-path="url(#9a106ee5be)"><g clip-path="url(#19f094d2da)"><path fill="#8c52ff" d="M 263.402344 227.894531 C 263.402344 227.894531 263.402344 227.894531 234.316406 227.894531 C 256.9375 225.847656 259.695312 164.839844 259.695312 164.839844 Z M 49.957031 38.757812 C 49.957031 38.757812 37.507812 12.90625 35.433594 6.84375 C 30.167969 19.609375 29.300781 51.527344 33.40625 60.464844 C 41.476562 50.625 49.957031 38.757812 49.957031 38.757812 Z M 193.554688 227.894531 C 196.21875 211.214844 199.875 188.253906 202.816406 169.75 C 202.804688 169.757812 202.789062 169.761719 202.773438 169.765625 L 205.785156 136.542969 C 205.59375 136.777344 205.351562 137.097656 205.054688 137.527344 C 202.773438 140.824219 197.609375 150.320312 193.4375 172.890625 C 176.34375 177.980469 153.832031 181.480469 124.199219 181.683594 C 9.289062 180.894531 1.460938 130.503906 1.460938 130.503906 C 1.460938 130.503906 -0.613281 137.300781 3.796875 148.402344 C 2.511719 147.3125 1.535156 146.453125 0.996094 145.921875 C 4.382812 171.375 37.507812 191.003906 37.507812 191.003906 L 24.632812 227.898438 C 24.632812 227.898438 38.148438 227.898438 52.828125 227.898438 C 61.765625 198.726562 72.566406 199.492188 72.566406 199.492188 L 72.566406 199.488281 C 95.058594 204.414062 116.660156 205.742188 124.199219 205.742188 C 131.734375 205.742188 153.335938 204.414062 175.828125 199.488281 L 175.828125 199.492188 C 175.828125 199.492188 181.351562 199.101562 187.765625 209.546875 C 185.4375 224.410156 184.6875 227.882812 184.6875 227.882812 Z M 155.46875 29.84375 L 168.71875 33.652344 C 168.71875 33.652344 173.664062 15.847656 195.285156 0.8125 C 180.207031 4.925781 163.925781 15.824219 155.46875 29.84375 Z M 52.058594 0.8125 C 73.679688 15.847656 78.625 33.652344 78.625 33.652344 L 91.875 29.84375 C 83.417969 15.824219 67.136719 4.925781 52.058594 0.8125 Z M 132.941406 141.0625 C 132.941406 141.0625 122.089844 143.554688 112.832031 140.789062 C 114.109375 151.425781 129.75 152.382812 132.941406 141.0625 Z M 132.941406 141.0625 " fill-opacity="1" fill-rule="nonzero"/></g></g></g></g></g><path fill="#ffffff" d="M 57.167969 64.9375 C 57.167969 64.9375 54.742188 98.285156 66.136719 114.238281 C 54.070312 123.007812 33.390625 151.507812 33.976562 174.714844 C 29.421875 159.632812 35.953125 133.855469 53.988281 110.800781 C 52.15625 97.15625 53.988281 78.382812 57.167969 64.9375 Z M 233.363281 237.367188 C 239.828125 189.425781 250.867188 174.753906 250.867188 174.753906 C 232.699219 169.847656 231.691406 216.046875 233.363281 237.367188 Z M 46.925781 205.839844 C 46.925781 205.839844 69.152344 226.179688 82.796875 228.332031 C 77.292969 235.277344 66.136719 268.898438 66.136719 268.898438 L 56.226562 268.898438 L 69.152344 231.207031 C 69.152344 231.207031 47.4375 220.453125 46.925781 205.839844 Z M 46.925781 205.839844 " fill-opacity="1" fill-rule="nonzero"/><path fill="#2b0806" d="M 299.992188 268.894531 C 296.941406 268.894531 292.929688 268.894531 292.929688 268.894531 C 292.871094 257.238281 294.921875 196.984375 288.808594 176.679688 C 285.574219 165.933594 275.484375 171.070312 274.113281 180.015625 C 273.199219 175.527344 272.164062 170.695312 267.574219 171.171875 C 261.90625 171.761719 259.585938 181.78125 259.585938 181.78125 C 259.585938 181.78125 255.03125 174.480469 250.867188 174.753906 C 244.289062 175.1875 239.957031 184.847656 236.804688 205.421875 C 235.03125 216.988281 230.46875 268.894531 230.46875 268.894531 L 224.597656 268.894531 C 224.597656 268.894531 227.824219 233.117188 228.863281 225.363281 L 228.894531 225.144531 L 229.726562 219.101562 C 231.617188 205.816406 233.722656 193.773438 235.753906 186.148438 C 241.035156 166.316406 253.027344 164.226562 258.433594 173.753906 C 261.207031 163.539062 273.242188 161.835938 274.511719 170.824219 C 274.90625 168.945312 276.777344 166.6875 279.414062 165.746094 C 278.367188 150.425781 271.660156 131.949219 255.503906 109.84375 C 259.035156 102.421875 262.804688 67.503906 247.96875 36.832031 C 240.46875 36.832031 215.335938 42.972656 191.078125 69.34375 C 195.199219 70.769531 199.074219 72.515625 202.328125 74.652344 C 201.316406 74.691406 179.160156 68.402344 157.003906 68.402344 C 134.851562 68.402344 112.695312 74.691406 111.683594 74.652344 C 114.9375 72.515625 118.8125 70.769531 122.929688 69.34375 C 98.671875 42.972656 73.542969 36.832031 66.039062 36.832031 C 51.207031 67.503906 54.976562 102.421875 58.507812 109.84375 C -0.0273438 189.925781 65.449219 222.375 74.777344 229.652344 C 69.511719 240.421875 59.816406 268.894531 59.816406 268.894531 L 53.3125 268.894531 C 53.3125 268.894531 59.605469 249.054688 67.265625 231.339844 C 8.828125 196.984375 27.738281 140.722656 51.675781 110.800781 C 44.496094 68.433594 59.335938 32.042969 65.082031 31.078125 C 103.152344 38.359375 122.601562 61.039062 127.695312 67.859375 C 134.53125 65.9375 145.765625 63.140625 157.003906 63.140625 C 168.230469 63.140625 179.460938 65.933594 186.316406 67.859375 C 191.40625 61.039062 210.859375 38.359375 248.929688 31.078125 C 254.671875 32.042969 269.515625 68.433594 262.332031 110.800781 C 273.691406 125 283.910156 145.128906 285.277344 166.035156 C 287.246094 166.90625 289.320312 168.609375 291.363281 171.523438 C 295.167969 176.964844 295.746094 183.980469 297.542969 198.117188 C 299.199219 211.164062 299.992188 261.1875 299.992188 268.894531 Z M 244.632812 47.84375 C 244.632812 47.84375 233.714844 63.296875 225.691406 79.746094 C 231.074219 83.269531 242.136719 94.761719 246.660156 101.464844 C 248.789062 97.632812 237.734375 81.394531 232.101562 78.242188 C 237.964844 72.019531 244.632812 47.84375 244.632812 47.84375 Z M 68.433594 47.84375 C 68.433594 47.84375 79.347656 63.296875 87.371094 79.746094 C 81.992188 83.269531 70.925781 94.761719 66.40625 101.464844 C 64.277344 97.632812 75.332031 81.394531 80.960938 78.242188 C 75.101562 72.019531 68.433594 47.84375 68.433594 47.84375 Z M 98.886719 125.203125 C 86.703125 128.082031 78.445312 140.242188 75.929688 150.324219 C 75.546875 151.863281 76.371094 153.082031 78.078125 153.507812 C 80.84375 154.199219 85.875 152.792969 86.617188 149.824219 C 87.582031 145.949219 89.226562 142.433594 91.503906 139.375 C 93.222656 137.070312 96.570312 133.082031 99.730469 132.292969 C 102.269531 131.65625 104.699219 135.8125 106.003906 138.042969 L 106.3125 138.566406 C 108.546875 142.339844 110.355469 146.710938 111.679688 151.5625 C 112.144531 153.261719 113.8125 153.933594 115.664062 153.933594 C 116.433594 153.933594 117.238281 153.816406 118 153.609375 C 121.097656 152.761719 122.871094 150.746094 122.316406 148.703125 C 117.433594 130.867188 109.335938 122.742188 98.886719 125.203125 Z M 237.125 148.703125 C 232.246094 130.863281 224.144531 122.738281 213.695312 125.203125 C 201.511719 128.082031 193.253906 140.242188 190.738281 150.324219 C 190.503906 151.257812 190.722656 152.105469 191.351562 152.714844 C 192.667969 153.984375 195.296875 153.816406 197.148438 153.285156 C 199.449219 152.625 201.050781 151.332031 201.425781 149.824219 C 202.394531 145.949219 204.039062 142.433594 206.316406 139.375 C 208.03125 137.070312 211.382812 133.082031 214.539062 132.292969 C 217.082031 131.660156 219.511719 135.8125 220.8125 138.042969 L 221.121094 138.566406 C 223.355469 142.339844 225.164062 146.710938 226.492188 151.5625 C 226.785156 152.640625 227.644531 153.421875 228.910156 153.753906 C 229.394531 153.878906 229.925781 153.9375 230.472656 153.9375 C 232.53125 153.9375 234.875 153.101562 236.175781 151.789062 C 237.082031 150.871094 237.417969 149.777344 237.125 148.703125 Z M 174.199219 154.074219 C 172.90625 154.761719 172.289062 156.976562 173.554688 159.351562 C 174.289062 160.734375 173.503906 162.160156 172.972656 162.882812 C 171.578125 164.785156 169.070312 165.941406 167.148438 165.582031 C 163.832031 164.960938 161.835938 161.0625 160.464844 157.734375 C 159.828125 156.183594 158.484375 155.21875 156.960938 155.21875 C 155.441406 155.21875 154.097656 156.183594 153.457031 157.734375 C 152.335938 160.464844 150.242188 165.546875 146.777344 166.195312 C 145.304688 166.472656 143.46875 165.757812 142.003906 164.347656 C 139.835938 162.167969 140.488281 159.320312 140.722656 158.546875 C 140.742188 158.488281 140.761719 158.429688 140.785156 158.347656 L 141.289062 157.003906 L 141.039062 157.003906 C 141.105469 155.597656 140.546875 154.394531 139.535156 153.988281 C 138.671875 153.636719 137.402344 153.90625 136.441406 155.710938 C 134.652344 159.070312 134.554688 163.0625 136.175781 166.394531 C 137.683594 169.492188 140.519531 171.617188 143.957031 172.226562 C 148.890625 173.105469 153.367188 171.019531 156.960938 166.199219 C 160.019531 170.304688 163.71875 172.421875 167.792969 172.421875 C 168.507812 172.421875 169.230469 172.359375 169.964844 172.226562 C 173.402344 171.617188 176.242188 169.492188 177.746094 166.394531 C 179.371094 163.0625 179.269531 159.070312 177.480469 155.710938 C 176.445312 153.761719 175.066406 153.613281 174.199219 154.074219 Z M 174.199219 154.074219 " fill-opacity="1" fill-rule="nonzero"/><path fill="#8c52ff" d="M 266.402344 202.320312 C 264.609375 200.308594 257.453125 194.851562 252.851562 203.757812 C 248.246094 212.660156 260.804688 221.566406 266.402344 221.566406 C 271.996094 221.566406 284.554688 212.660156 279.949219 203.757812 C 275.347656 194.851562 268.191406 200.308594 266.402344 202.320312 Z M 270.792969 187.320312 C 270.792969 184.601562 269.234375 182.398438 267.316406 182.398438 C 265.398438 182.398438 263.84375 184.601562 263.84375 187.320312 C 263.84375 190.039062 265.398438 192.242188 267.316406 192.242188 C 269.238281 192.242188 270.792969 190.039062 270.792969 187.320312 Z M 281.558594 185.359375 C 279.613281 185.0625 277.667969 186.875 277.210938 189.40625 C 276.753906 191.9375 277.960938 194.226562 279.90625 194.523438 C 281.855469 194.820312 283.800781 193.007812 284.257812 190.476562 C 284.714844 187.945312 283.507812 185.652344 281.558594 185.359375 Z M 253.488281 194.769531 C 255.457031 194.199219 256.328125 191.6875 255.441406 189.160156 C 254.550781 186.632812 252.234375 185.046875 250.265625 185.617188 C 248.300781 186.183594 247.425781 188.695312 248.316406 191.222656 C 249.207031 193.75 251.523438 195.339844 253.488281 194.769531 Z M 253.488281 194.769531 " fill-opacity="1" fill-rule="nonzero"/></svg>