<svg xmlns="http://www.w3.org/2000/svg" xmlns:xlink="http://www.w3.org/1999/xlink" width="400" zoomAndPan="magnify" viewBox="0 0 300 299.999988" height="400" preserveAspectRatio="xMidYMid meet" version="1.0"><defs><clipPath id="b5eb6b45ac"><path d="M 0 62.3125 L 300 62.3125 L 300 237.667969 L 0 237.667969 Z M 0 62.3125 " clip-rule="nonzero"/></clipPath></defs><path fill="#8c52ff" d="M 239.621094 190.6875 C 239.621094 192.484375 238.160156 193.941406 236.363281 193.941406 C 234.566406 193.941406 233.109375 192.484375 233.109375 190.6875 C 233.109375 188.886719 234.566406 187.429688 236.363281 187.429688 C 238.160156 187.429688 239.621094 188.886719 239.621094 190.6875 " fill-opacity="1" fill-rule="nonzero"/><g clip-path="url(#b5eb6b45ac)"><path fill="#000000" d="M 105.875 213.070312 C 106.058594 211.84375 106.015625 210.566406 105.792969 209.300781 C 105.578125 208.039062 105.191406 206.796875 104.6875 205.597656 C 103.679688 203.199219 102.21875 200.980469 100.46875 199.019531 C 100.027344 198.535156 99.578125 198.054688 99.101562 197.597656 C 98.632812 197.144531 98.140625 196.6875 97.652344 196.296875 C 96.664062 195.492188 95.589844 194.8125 94.433594 194.292969 C 92.128906 193.25 89.542969 192.867188 86.964844 193.003906 C 84.714844 193.121094 82.46875 193.617188 80.300781 194.347656 C 80.203125 194.378906 80.113281 194.414062 80.015625 194.449219 C 79.789062 194.523438 79.566406 194.605469 79.34375 194.6875 C 78.109375 195.152344 76.898438 195.6875 75.730469 196.296875 C 74.5625 196.902344 73.425781 197.578125 72.367188 198.324219 C 71.523438 198.933594 70.667969 199.703125 69.878906 200.484375 C 69.078125 201.269531 68.339844 202.125 67.625 202.992188 C 66.230469 204.746094 65.019531 206.65625 64.097656 208.675781 C 63.171875 210.695312 62.546875 212.839844 62.34375 215.023438 C 62.316406 215.300781 62.296875 215.578125 62.285156 215.859375 C 62.230469 217.40625 62.441406 218.972656 62.855469 220.492188 C 62.941406 220.8125 63.039062 221.128906 63.144531 221.445312 C 63.847656 223.53125 64.925781 225.507812 66.296875 227.230469 C 66.988281 228.089844 67.757812 228.882812 68.597656 229.5625 C 69.441406 230.242188 70.351562 230.824219 71.316406 231.195312 C 71.792969 231.390625 72.28125 231.511719 72.769531 231.589844 C 73.257812 231.644531 73.746094 231.660156 74.214844 231.570312 C 74.332031 231.558594 74.445312 231.515625 74.558594 231.496094 L 74.734375 231.449219 C 74.792969 231.433594 74.855469 231.40625 74.917969 231.386719 C 75.171875 231.304688 75.414062 231.207031 75.652344 231.101562 C 76.128906 230.886719 76.570312 230.636719 76.964844 230.328125 C 77.761719 229.71875 78.351562 228.902344 78.652344 227.949219 C 78.804688 227.472656 78.890625 226.96875 78.914062 226.453125 C 78.925781 226.195312 78.925781 225.9375 78.90625 225.679688 C 78.894531 225.550781 78.882812 225.421875 78.867188 225.296875 C 78.847656 225.175781 78.820312 225.03125 78.804688 224.949219 L 78.789062 224.851562 C 78.722656 224.414062 79.023438 224 79.464844 223.933594 C 79.808594 223.878906 80.136719 224.054688 80.292969 224.339844 C 80.472656 224.664062 80.796875 225.011719 81.128906 225.3125 C 81.300781 225.464844 81.480469 225.617188 81.675781 225.746094 C 81.855469 225.890625 82.0625 226.007812 82.265625 226.128906 C 83.078125 226.605469 83.984375 226.933594 84.917969 227.082031 C 85.847656 227.238281 86.808594 227.210938 87.746094 227.039062 L 88.445312 226.882812 C 88.679688 226.8125 88.902344 226.726562 89.132812 226.652344 C 89.25 226.609375 89.363281 226.578125 89.472656 226.53125 L 89.808594 226.378906 C 90.027344 226.277344 90.253906 226.179688 90.464844 226.070312 C 91.296875 225.628906 92.03125 225.03125 92.601562 224.285156 C 93.175781 223.542969 93.589844 222.671875 93.871094 221.746094 C 93.988281 221.335938 94.085938 220.917969 94.160156 220.492188 C 94.25 219.953125 94.308594 219.402344 94.332031 218.847656 C 94.347656 218.351562 94.34375 217.855469 94.3125 217.359375 C 94.285156 216.871094 94.226562 216.351562 94.148438 215.902344 L 94.148438 215.894531 C 94.144531 215.882812 94.144531 215.871094 94.144531 215.859375 C 94.09375 215.496094 94.339844 215.152344 94.707031 215.085938 C 95 215.035156 95.28125 215.175781 95.425781 215.414062 C 95.519531 215.554688 95.625 215.707031 95.746094 215.859375 C 95.820312 215.957031 95.898438 216.054688 95.972656 216.144531 C 96.179688 216.382812 96.398438 216.613281 96.625 216.828125 C 97.082031 217.253906 97.585938 217.621094 98.117188 217.890625 C 98.648438 218.164062 99.210938 218.347656 99.789062 218.40625 C 100.359375 218.464844 100.941406 218.414062 101.515625 218.253906 C 102.082031 218.097656 102.636719 217.835938 103.164062 217.507812 C 103.671875 217.191406 104.117188 216.8125 104.492188 216.359375 C 104.625 216.203125 104.75 216.035156 104.863281 215.859375 C 105.070312 215.539062 105.246094 215.195312 105.394531 214.832031 C 105.617188 214.273438 105.785156 213.683594 105.875 213.070312 Z M 121.578125 94.695312 C 120.914062 93.085938 120.199219 91.480469 119.472656 89.890625 C 118.507812 87.78125 117.5 85.695312 116.429688 83.644531 C 115.363281 81.589844 114.246094 79.5625 113.0625 77.585938 C 111.875 75.605469 110.621094 73.671875 109.25 71.839844 C 107.878906 70.019531 106.394531 68.273438 104.722656 66.816406 C 103.890625 66.09375 102.996094 65.453125 102.0625 64.988281 C 101.128906 64.535156 100.148438 64.261719 99.21875 64.351562 C 97.347656 64.460938 95.804688 66.15625 94.628906 68 C 93.441406 69.871094 92.527344 71.976562 91.722656 74.113281 C 90.140625 78.421875 89 82.925781 88.027344 87.453125 C 87.054688 91.988281 86.300781 96.578125 85.648438 101.175781 C 85.003906 105.78125 84.457031 110.398438 84.054688 115.03125 C 83.851562 117.347656 83.675781 119.667969 83.539062 121.980469 C 83.484375 122.917969 83.429688 123.859375 83.390625 124.796875 C 84.734375 122.660156 86.1875 120.59375 87.742188 118.609375 L 87.742188 118.605469 C 89.082031 103.539062 92.515625 71.917969 97.894531 69.113281 C 98.5625 68.765625 99.335938 68.734375 100.195312 69.03125 C 106.101562 71.042969 115.003906 87.832031 118.886719 95.65625 C 118.886719 95.660156 118.890625 95.660156 118.890625 95.664062 C 119.78125 95.324219 120.675781 94.996094 121.578125 94.695312 Z M 156.660156 155.503906 C 156.972656 153.539062 156.917969 151.5 156.601562 149.488281 L 156.523438 149.417969 C 156.414062 149.332031 156.316406 149.242188 156.191406 149.164062 C 155.960938 148.992188 155.699219 148.839844 155.445312 148.6875 C 155.167969 148.546875 154.910156 148.394531 154.613281 148.277344 L 154.1875 148.085938 C 154.042969 148.027344 153.894531 147.976562 153.746094 147.921875 L 153.304688 147.753906 L 152.847656 147.609375 C 152.539062 147.519531 152.242188 147.414062 151.925781 147.34375 C 151.613281 147.269531 151.300781 147.183594 150.988281 147.113281 L 150.035156 146.925781 C 149.71875 146.859375 149.398438 146.8125 149.074219 146.769531 L 148.105469 146.625 C 147.457031 146.566406 146.804688 146.488281 146.152344 146.441406 C 145.496094 146.40625 144.839844 146.359375 144.183594 146.335938 L 143.785156 146.332031 L 143.390625 146.335938 C 142.734375 146.359375 142.078125 146.40625 141.421875 146.441406 C 140.769531 146.488281 140.117188 146.566406 139.464844 146.625 L 138.5 146.769531 C 138.175781 146.8125 137.855469 146.859375 137.539062 146.925781 L 136.582031 147.113281 C 136.269531 147.183594 135.960938 147.269531 135.648438 147.34375 C 135.332031 147.414062 135.03125 147.519531 134.722656 147.609375 L 134.269531 147.753906 L 133.824219 147.921875 C 133.679688 147.976562 133.53125 148.027344 133.386719 148.085938 L 132.957031 148.277344 C 132.667969 148.394531 132.40625 148.546875 132.128906 148.6875 C 131.871094 148.839844 131.609375 148.992188 131.378906 149.164062 C 131.253906 149.242188 131.160156 149.332031 131.046875 149.417969 L 130.972656 149.488281 C 130.800781 150.574219 130.707031 151.679688 130.707031 152.773438 C 130.707031 153.691406 130.769531 154.605469 130.914062 155.503906 C 131.246094 157.566406 132.039062 159.527344 133.234375 161.21875 C 134.449219 162.90625 136.046875 164.316406 137.855469 165.414062 C 138.757812 165.964844 139.710938 166.441406 140.695312 166.839844 C 141.1875 167.039062 141.6875 167.226562 142.191406 167.386719 C 142.441406 167.46875 142.699219 167.542969 142.953125 167.609375 C 143.199219 167.679688 143.472656 167.746094 143.683594 167.789062 L 143.710938 167.796875 C 143.738281 167.800781 143.761719 167.808594 143.785156 167.8125 C 143.8125 167.808594 143.835938 167.800781 143.863281 167.796875 L 143.886719 167.789062 C 144.097656 167.746094 144.375 167.679688 144.621094 167.609375 C 144.875 167.542969 145.128906 167.46875 145.378906 167.386719 C 145.886719 167.226562 146.386719 167.039062 146.875 166.839844 C 147.863281 166.441406 148.816406 165.964844 149.71875 165.414062 C 151.523438 164.316406 153.121094 162.90625 154.339844 161.21875 C 155.535156 159.527344 156.324219 157.566406 156.660156 155.503906 Z M 159.875 220.492188 C 160.039062 218.964844 160.082031 217.402344 160.066406 215.859375 C 160.0625 215.316406 160.046875 214.773438 160.027344 214.234375 C 159.894531 211.601562 159.546875 208.964844 158.945312 206.398438 C 158.648438 205.109375 158.285156 203.84375 157.851562 202.609375 C 157.832031 202.550781 157.8125 202.492188 157.789062 202.433594 C 157.621094 201.964844 157.441406 201.5 157.246094 201.046875 C 156.953125 200.355469 156.632812 199.683594 156.269531 199.039062 C 155.960938 198.472656 155.605469 197.945312 155.230469 197.4375 C 154.839844 196.949219 154.421875 196.496094 153.957031 196.132812 C 153.492188 195.769531 152.980469 195.527344 152.472656 195.457031 C 152.171875 195.429688 151.847656 195.40625 151.53125 195.382812 C 151.222656 195.390625 150.910156 195.371094 150.601562 195.402344 C 150.292969 195.433594 149.984375 195.453125 149.691406 195.519531 C 149.382812 195.5625 149.097656 195.664062 148.808594 195.75 C 148.246094 195.957031 147.714844 196.230469 147.234375 196.59375 C 146.410156 197.210938 145.78125 198.058594 145.210938 199.003906 C 145.222656 199.0625 145.222656 199.113281 145.222656 199.171875 L 144.90625 215.859375 L 144.820312 220.492188 L 144.707031 226.375 C 144.703125 226.585938 144.527344 226.757812 144.316406 226.753906 C 144.109375 226.75 143.941406 226.582031 143.9375 226.375 L 143.824219 220.492188 L 143.738281 215.859375 L 143.421875 199.382812 C 143.386719 199.304688 143.347656 199.226562 143.304688 199.148438 C 143.238281 199.019531 143.160156 198.890625 143.082031 198.757812 C 142.925781 198.5 142.75 198.25 142.566406 198.011719 C 142.195312 197.535156 141.769531 197.105469 141.304688 196.746094 C 140.371094 196.03125 139.253906 195.628906 138.089844 195.621094 C 137.507812 195.617188 136.910156 195.699219 136.328125 195.855469 C 135.804688 195.996094 135.292969 196.273438 134.808594 196.617188 C 133.832031 197.308594 133.003906 198.289062 132.277344 199.332031 C 131.832031 199.972656 131.433594 200.644531 131.066406 201.34375 C 130.835938 201.785156 130.617188 202.230469 130.414062 202.683594 C 130.410156 202.695312 130.402344 202.707031 130.398438 202.71875 C 129.867188 203.90625 129.417969 205.132812 129.039062 206.386719 C 128.285156 208.898438 127.828125 211.5 127.652344 214.113281 C 127.613281 214.699219 127.589844 215.277344 127.585938 215.859375 C 127.5625 217.410156 127.65625 218.960938 127.863281 220.492188 C 127.925781 220.972656 128.003906 221.449219 128.09375 221.929688 C 128.597656 224.484375 129.433594 226.984375 130.78125 229.164062 C 132.113281 231.347656 134.007812 233.160156 136.261719 234.339844 C 138.515625 235.523438 141.09375 236.09375 143.660156 236.113281 C 144.902344 236.117188 146.1875 235.890625 147.425781 235.554688 C 148.667969 235.210938 149.882812 234.746094 151.023438 234.15625 C 153.316406 232.984375 155.34375 231.304688 156.824219 229.214844 C 158.683594 226.683594 159.53125 223.648438 159.875 220.492188 Z M 172.773438 183.238281 C 172.863281 182.980469 172.949219 182.722656 173.035156 182.460938 C 172.652344 182.757812 172.25 183.023438 171.839844 183.273438 C 170.417969 184.101562 168.84375 184.609375 167.261719 184.863281 L 166.964844 184.917969 L 166.667969 184.953125 L 166.074219 185.015625 L 165.476562 185.082031 C 165.277344 185.097656 165.082031 185.097656 164.882812 185.105469 L 163.691406 185.136719 C 163.296875 185.125 162.902344 185.101562 162.507812 185.082031 C 162.113281 185.0625 161.722656 185.054688 161.316406 185 L 160.71875 184.929688 L 160.109375 184.828125 C 159.910156 184.796875 159.710938 184.753906 159.507812 184.703125 C 159.308594 184.65625 159.105469 184.609375 158.902344 184.550781 C 158.507812 184.425781 158.101562 184.304688 157.707031 184.132812 C 156.925781 183.808594 156.164062 183.363281 155.488281 182.820312 C 154.8125 182.28125 154.230469 181.648438 153.722656 181.019531 C 152.707031 179.746094 151.933594 178.507812 150.964844 177.601562 C 149.175781 175.832031 146.53125 175.253906 143.792969 175.136719 C 143.789062 175.136719 143.789062 175.136719 143.785156 175.136719 C 141.046875 175.25 138.402344 175.832031 136.609375 177.601562 C 135.640625 178.507812 134.863281 179.746094 133.851562 181.019531 C 133.34375 181.648438 132.761719 182.28125 132.085938 182.820312 C 131.410156 183.363281 130.648438 183.808594 129.863281 184.132812 C 129.46875 184.304688 129.070312 184.425781 128.667969 184.550781 C 128.46875 184.609375 128.265625 184.65625 128.066406 184.703125 C 127.863281 184.753906 127.664062 184.796875 127.460938 184.828125 L 126.855469 184.929688 L 126.253906 185 C 125.851562 185.054688 125.460938 185.0625 125.066406 185.082031 C 124.671875 185.101562 124.277344 185.125 123.882812 185.136719 L 122.691406 185.105469 C 122.492188 185.097656 122.296875 185.097656 122.097656 185.082031 L 121.5 185.015625 L 120.902344 184.953125 L 120.609375 184.917969 L 120.308594 184.863281 C 118.730469 184.609375 117.152344 184.101562 115.730469 183.273438 C 115.320312 183.023438 114.921875 182.757812 114.539062 182.460938 C 114.621094 182.722656 114.710938 182.980469 114.800781 183.238281 C 115.265625 184.550781 115.796875 185.839844 116.398438 187.089844 C 117.003906 188.339844 117.683594 189.554688 118.429688 190.722656 C 119.183594 191.890625 120 193.007812 120.90625 194.054688 C 122.703125 196.15625 124.808594 197.984375 127.164062 199.417969 C 127.453125 199.609375 127.757812 199.765625 128.058594 199.933594 C 128.363281 200.09375 128.660156 200.273438 128.972656 200.417969 C 129.15625 200.5 129.335938 200.59375 129.515625 200.675781 C 129.921875 199.886719 130.375 199.113281 130.882812 198.375 C 131.683594 197.222656 132.601562 196.109375 133.816406 195.230469 C 134.425781 194.800781 135.105469 194.417969 135.878906 194.203125 C 136.59375 194.011719 137.339844 193.898438 138.101562 193.898438 C 139.621094 193.890625 141.167969 194.433594 142.363281 195.351562 C 142.964844 195.804688 143.492188 196.335938 143.957031 196.910156 C 144.140625 197.140625 144.308594 197.371094 144.472656 197.613281 C 144.992188 196.835938 145.609375 196.09375 146.398438 195.5 C 146.992188 195.050781 147.65625 194.695312 148.355469 194.441406 C 148.707031 194.332031 149.058594 194.214844 149.421875 194.160156 C 149.78125 194.078125 150.140625 194.046875 150.503906 194.011719 C 150.863281 193.976562 151.222656 194 151.578125 193.988281 C 151.9375 194.011719 152.285156 194.035156 152.652344 194.074219 C 153.480469 194.183594 154.214844 194.558594 154.804688 195.015625 C 155.402344 195.480469 155.894531 196.019531 156.34375 196.578125 C 156.769531 197.148438 157.164062 197.734375 157.5 198.347656 C 157.886719 199.03125 158.230469 199.734375 158.535156 200.449219 C 158.558594 200.4375 158.578125 200.429688 158.601562 200.417969 C 158.914062 200.273438 159.207031 200.09375 159.511719 199.933594 C 159.816406 199.765625 160.121094 199.609375 160.40625 199.417969 C 162.761719 197.984375 164.867188 196.15625 166.667969 194.054688 C 167.574219 193.007812 168.394531 191.890625 169.140625 190.722656 C 169.890625 189.554688 170.566406 188.339844 171.171875 187.089844 C 171.78125 185.839844 172.308594 184.550781 172.773438 183.238281 Z M 201.949219 121.199219 C 200.785156 107.628906 197.246094 72.242188 191.738281 69.371094 C 191.140625 69.058594 190.445312 69.039062 189.667969 69.300781 C 186.695312 70.3125 182.867188 75.3125 179.328125 80.976562 C 175.789062 86.636719 172.542969 92.960938 170.734375 96.628906 C 178.234375 99.726562 185.21875 104.070312 191.300781 109.445312 C 195.269531 112.957031 198.847656 116.90625 201.949219 121.199219 Z M 205.207031 126.140625 C 205.164062 124.757812 205.09375 123.367188 205.011719 121.980469 C 204.871094 119.667969 204.695312 117.347656 204.496094 115.03125 C 204.09375 110.398438 203.542969 105.78125 202.902344 101.175781 C 202.246094 96.578125 201.492188 91.988281 200.523438 87.453125 C 199.550781 82.925781 198.410156 78.421875 196.828125 74.113281 C 196.019531 71.976562 195.109375 69.871094 193.917969 68 C 192.742188 66.15625 191.199219 64.460938 189.328125 64.351562 C 188.398438 64.261719 187.417969 64.535156 186.488281 64.988281 C 185.554688 65.453125 184.65625 66.09375 183.824219 66.816406 C 182.152344 68.273438 180.675781 70.019531 179.300781 71.839844 C 177.925781 73.671875 176.671875 75.605469 175.488281 77.585938 C 174.304688 79.5625 173.1875 81.589844 172.117188 83.644531 C 171.046875 85.695312 170.042969 87.78125 169.078125 89.890625 C 168.285156 91.625 167.511719 93.378906 166.792969 95.136719 C 167.523438 95.390625 168.253906 95.652344 168.972656 95.929688 C 169.472656 96.121094 169.964844 96.316406 170.457031 96.515625 C 174.074219 89.144531 183.4375 71.117188 189.574219 69.03125 C 190.429688 68.734375 191.203125 68.765625 191.871094 69.113281 C 197.652344 72.125 201.179688 108.394531 202.285156 121.667969 C 203.316406 123.121094 204.292969 124.613281 205.207031 126.140625 Z M 213.015625 179.917969 C 213.226562 179.96875 213.433594 180.027344 213.640625 180.09375 C 213.359375 176.074219 213.117188 172.042969 212.960938 168.003906 C 212.882812 165.847656 212.824219 163.691406 212.8125 161.53125 C 212.789062 160.457031 212.746094 159.414062 212.714844 158.355469 C 212.707031 158.09375 212.707031 157.828125 212.683594 157.5625 L 212.613281 156.777344 L 212.480469 155.199219 C 211.648438 146.792969 209.140625 138.582031 205.207031 131.125 C 204.386719 129.574219 203.507812 128.050781 202.570312 126.566406 C 202.496094 126.457031 202.425781 126.34375 202.351562 126.230469 C 198.824219 120.714844 194.5 115.714844 189.574219 111.410156 C 183.636719 106.226562 176.851562 102.019531 169.558594 99.050781 C 169.472656 99.019531 169.378906 98.980469 169.289062 98.941406 C 168.863281 98.769531 168.441406 98.605469 168.011719 98.445312 C 160.136719 95.445312 151.722656 93.882812 143.300781 93.878906 C 136.933594 93.882812 130.570312 94.816406 124.460938 96.625 C 123.996094 96.761719 123.527344 96.902344 123.066406 97.046875 C 121.578125 97.527344 120.105469 98.054688 118.65625 98.632812 C 110.828125 101.742188 103.601562 106.328125 97.371094 112.011719 C 91.128906 117.6875 85.9375 124.515625 82.113281 132.039062 C 78.289062 139.558594 75.847656 147.789062 75.011719 156.195312 L 74.878906 157.769531 C 74.839844 158.296875 74.78125 158.824219 74.777344 159.355469 L 74.675781 162.527344 C 74.664062 164.683594 74.621094 166.835938 74.5625 168.988281 C 74.441406 173.292969 74.253906 177.589844 74.050781 181.878906 C 73.859375 186.167969 73.667969 190.449219 73.566406 194.734375 C 73.566406 194.742188 73.566406 194.75 73.566406 194.761719 C 73.921875 194.558594 74.285156 194.367188 74.644531 194.183594 C 75.902344 193.539062 77.199219 192.972656 78.527344 192.488281 C 78.972656 192.324219 79.421875 192.171875 79.878906 192.027344 C 79.6875 187.515625 79.660156 179.292969 80.769531 166.746094 C 81.722656 155.992188 84.941406 150.5 87.476562 147.789062 C 89.859375 145.242188 92.050781 144.597656 92.679688 144.460938 C 92.320312 143.476562 90.667969 138.273438 93.261719 132.585938 C 95.816406 126.972656 101.582031 122.652344 110.390625 119.738281 C 116.878906 117.59375 122.367188 118.003906 126.714844 120.960938 C 130 123.195312 132.234375 126.636719 133.746094 130.132812 L 133.484375 130.242188 C 131.988281 126.792969 129.785156 123.398438 126.554688 121.199219 C 122.285156 118.296875 116.878906 117.898438 110.484375 120.011719 C 101.75 122.898438 96.046875 127.171875 93.523438 132.707031 C 90.714844 138.875 92.988281 144.460938 93.011719 144.515625 C 93.027344 144.558594 93.023438 144.601562 93 144.640625 C 92.980469 144.683594 92.941406 144.707031 92.898438 144.714844 C 92.871094 144.714844 90.367188 145.109375 87.667969 148.007812 C 85.171875 150.6875 82 156.117188 81.058594 166.773438 C 79.957031 179.246094 79.976562 187.425781 80.164062 191.9375 C 82.320312 191.269531 84.5625 190.824219 86.851562 190.714844 C 89.71875 190.582031 92.6875 191.03125 95.359375 192.257812 C 96.691406 192.871094 97.941406 193.664062 99.054688 194.601562 C 99.625 195.074219 100.125 195.558594 100.628906 196.058594 C 101.128906 196.558594 101.609375 197.082031 102.070312 197.617188 C 103.921875 199.761719 105.472656 202.1875 106.535156 204.84375 C 107.066406 206.171875 107.472656 207.558594 107.691406 208.992188 C 107.921875 210.421875 107.957031 211.90625 107.703125 213.375 C 107.574219 214.113281 107.351562 214.84375 107.046875 215.542969 C 107 215.648438 106.949219 215.753906 106.898438 215.859375 L 125.945312 215.859375 C 125.949219 215.242188 125.96875 214.625 126.011719 214.011719 C 126.1875 211.269531 126.660156 208.546875 127.441406 205.910156 C 127.835938 204.59375 128.304688 203.292969 128.867188 202.027344 C 128.867188 202.027344 128.871094 202.023438 128.875 202.019531 C 128.683594 201.929688 128.496094 201.839844 128.308594 201.75 C 127.972656 201.597656 127.660156 201.410156 127.339844 201.238281 C 127.019531 201.066406 126.695312 200.890625 126.390625 200.691406 C 123.890625 199.179688 121.660156 197.242188 119.765625 195.03125 C 118.8125 193.9375 117.949219 192.761719 117.164062 191.539062 C 116.375 190.320312 115.667969 189.054688 115.039062 187.75 C 114.402344 186.445312 113.847656 185.109375 113.367188 183.742188 C 113.125 183.058594 112.902344 182.371094 112.707031 181.671875 C 112.511719 180.964844 112.328125 180.28125 112.183594 179.527344 C 112.175781 179.480469 112.171875 179.429688 112.171875 179.382812 C 112.171875 179.023438 112.417969 178.707031 112.78125 178.636719 C 113.121094 178.566406 113.457031 178.742188 113.605469 179.039062 L 113.636719 179.097656 C 113.679688 179.179688 113.777344 179.347656 113.863281 179.472656 C 113.960938 179.605469 114.054688 179.746094 114.164062 179.875 C 114.375 180.136719 114.613281 180.378906 114.863281 180.613281 C 115.367188 181.078125 115.953125 181.457031 116.558594 181.800781 C 117.785156 182.457031 119.171875 182.855469 120.589844 183.03125 C 120.679688 183.042969 120.769531 183.058594 120.855469 183.070312 L 121.125 183.09375 L 121.664062 183.128906 L 122.203125 183.167969 C 122.382812 183.175781 122.5625 183.167969 122.742188 183.167969 L 123.832031 183.160156 C 124.195312 183.136719 124.558594 183.101562 124.921875 183.070312 C 125.285156 183.035156 125.65625 183.019531 126.003906 182.957031 L 126.527344 182.878906 L 127.042969 182.769531 C 127.21875 182.734375 127.386719 182.695312 127.550781 182.644531 C 127.714844 182.597656 127.882812 182.554688 128.046875 182.503906 C 128.367188 182.386719 128.6875 182.277344 128.988281 182.128906 C 129.59375 181.851562 130.144531 181.503906 130.636719 181.078125 C 131.136719 180.648438 131.578125 180.140625 132 179.578125 C 132.839844 178.453125 133.632812 177.050781 134.839844 175.816406 C 136.027344 174.578125 137.609375 173.644531 139.207031 173.144531 C 140.203125 172.816406 141.207031 172.605469 142.207031 172.46875 L 142.207031 169.496094 C 141.996094 169.441406 141.785156 169.378906 141.578125 169.3125 C 141.019531 169.136719 140.472656 168.929688 139.933594 168.714844 C 138.855469 168.269531 137.804688 167.75 136.800781 167.140625 C 134.804688 165.925781 132.984375 164.335938 131.589844 162.394531 C 130.902344 161.421875 130.332031 160.359375 129.878906 159.261719 C 129.410156 158.160156 129.132812 156.992188 128.921875 155.832031 C 128.550781 153.488281 128.644531 151.117188 129.035156 148.835938 L 129.035156 148.828125 C 129.058594 148.664062 129.132812 148.511719 129.230469 148.394531 L 129.316406 148.292969 L 129.375 148.226562 C 129.414062 148.1875 129.457031 148.136719 129.496094 148.101562 L 129.726562 147.890625 C 129.878906 147.769531 130.03125 147.628906 130.1875 147.527344 C 130.496094 147.296875 130.816406 147.105469 131.132812 146.917969 C 131.457031 146.75 131.777344 146.5625 132.109375 146.425781 L 132.601562 146.203125 C 132.765625 146.132812 132.933594 146.074219 133.097656 146.011719 L 133.601562 145.820312 L 134.101562 145.65625 C 134.4375 145.554688 134.773438 145.4375 135.113281 145.359375 C 135.453125 145.273438 135.792969 145.179688 136.132812 145.097656 L 137.152344 144.890625 C 137.496094 144.816406 137.835938 144.769531 138.179688 144.714844 L 139.203125 144.558594 C 139.890625 144.492188 140.578125 144.402344 141.257812 144.351562 C 141.390625 144.34375 141.519531 144.335938 141.652344 144.328125 C 142.207031 144.292969 142.761719 144.25 143.3125 144.230469 L 143.785156 144.21875 L 144.257812 144.230469 C 144.8125 144.25 145.363281 144.292969 145.917969 144.328125 C 146.046875 144.335938 146.183594 144.34375 146.3125 144.351562 C 147 144.402344 147.683594 144.492188 148.367188 144.558594 L 149.394531 144.714844 C 149.738281 144.769531 150.078125 144.816406 150.421875 144.890625 L 151.441406 145.097656 C 151.78125 145.179688 152.117188 145.273438 152.460938 145.359375 C 152.796875 145.4375 153.132812 145.554688 153.46875 145.65625 L 153.976562 145.820312 L 154.472656 146.011719 C 154.640625 146.074219 154.804688 146.132812 154.972656 146.203125 L 155.464844 146.425781 C 155.796875 146.5625 156.113281 146.75 156.4375 146.917969 C 156.757812 147.105469 157.074219 147.296875 157.386719 147.527344 C 157.542969 147.628906 157.695312 147.769531 157.847656 147.890625 L 158.078125 148.101562 C 158.113281 148.136719 158.160156 148.1875 158.199219 148.226562 L 158.257812 148.292969 L 158.34375 148.394531 C 158.449219 148.519531 158.515625 148.671875 158.535156 148.824219 L 158.535156 148.835938 C 158.929688 151.117188 159.019531 153.488281 158.652344 155.832031 C 158.441406 156.992188 158.164062 158.160156 157.695312 159.261719 C 157.242188 160.359375 156.667969 161.421875 155.980469 162.394531 C 154.585938 164.335938 152.769531 165.925781 150.769531 167.140625 C 149.769531 167.75 148.722656 168.269531 147.640625 168.714844 C 147.101562 168.929688 146.550781 169.136719 145.996094 169.3125 C 145.789062 169.378906 145.578125 169.441406 145.367188 169.496094 L 145.367188 172.46875 C 146.363281 172.605469 147.371094 172.816406 148.367188 173.144531 C 149.964844 173.644531 151.542969 174.578125 152.734375 175.816406 C 153.941406 177.050781 154.734375 178.453125 155.574219 179.578125 C 155.996094 180.140625 156.4375 180.648438 156.933594 181.078125 C 157.429688 181.503906 157.980469 181.851562 158.585938 182.128906 C 158.886719 182.277344 159.207031 182.386719 159.527344 182.503906 C 159.691406 182.554688 159.859375 182.597656 160.023438 182.644531 C 160.1875 182.695312 160.359375 182.734375 160.527344 182.769531 L 161.042969 182.878906 L 161.574219 182.957031 C 161.921875 183.019531 162.289062 183.035156 162.648438 183.070312 C 163.015625 183.101562 163.378906 183.136719 163.738281 183.160156 L 164.828125 183.167969 C 165.007812 183.167969 165.191406 183.175781 165.371094 183.167969 L 165.90625 183.128906 L 166.445312 183.09375 L 166.71875 183.070312 C 166.804688 183.058594 166.894531 183.042969 166.980469 183.03125 C 168.402344 182.855469 169.785156 182.457031 171.015625 181.800781 C 171.621094 181.457031 172.207031 181.078125 172.710938 180.613281 C 172.957031 180.378906 173.199219 180.136719 173.410156 179.875 C 173.523438 179.746094 173.613281 179.605469 173.710938 179.472656 C 173.796875 179.347656 173.894531 179.179688 173.9375 179.097656 L 173.964844 179.039062 C 174.152344 178.664062 174.609375 178.511719 174.984375 178.699219 C 175.296875 178.855469 175.457031 179.203125 175.386719 179.527344 C 175.242188 180.28125 175.066406 180.964844 174.863281 181.671875 C 174.667969 182.371094 174.445312 183.058594 174.203125 183.742188 C 173.726562 185.109375 173.167969 186.445312 172.535156 187.75 C 171.90625 189.054688 171.195312 190.320312 170.40625 191.539062 C 169.625 192.761719 168.761719 193.9375 167.804688 195.03125 C 165.917969 197.242188 163.683594 199.179688 161.183594 200.691406 C 160.878906 200.890625 160.554688 201.066406 160.234375 201.238281 C 159.910156 201.410156 159.597656 201.597656 159.265625 201.75 C 159.207031 201.78125 159.144531 201.8125 159.085938 201.835938 C 159.121094 201.933594 159.160156 202.03125 159.195312 202.132812 C 159.65625 203.425781 160.03125 204.742188 160.347656 206.070312 C 160.972656 208.730469 161.339844 211.441406 161.484375 214.164062 C 161.515625 214.726562 161.535156 215.296875 161.542969 215.859375 L 194.53125 215.859375 C 194.246094 215.191406 193.972656 214.515625 193.707031 213.835938 C 193.101562 212.296875 192.542969 210.738281 192.089844 209.121094 C 191.863281 208.308594 191.671875 207.484375 191.53125 206.632812 C 191.394531 205.792969 191.3125 204.964844 191.246094 204.132812 C 191.121094 202.46875 191.082031 200.789062 191.226562 199.101562 C 191.371094 197.414062 191.652344 195.703125 192.375 194.054688 C 192.738281 193.238281 193.226562 192.433594 193.902344 191.753906 C 194.574219 191.070312 195.449219 190.542969 196.382812 190.289062 C 197.316406 190.023438 198.269531 190.015625 199.167969 190.125 L 199.835938 190.222656 L 200.484375 190.378906 C 200.539062 190.390625 200.59375 190.402344 200.652344 190.414062 C 200.675781 190.261719 200.699219 190.113281 200.722656 189.960938 C 200.816406 189.429688 200.929688 188.90625 201.0625 188.382812 C 201.320312 187.34375 201.660156 186.316406 202.113281 185.324219 C 202.34375 184.832031 202.597656 184.347656 202.886719 183.878906 C 203.171875 183.410156 203.496094 182.957031 203.863281 182.535156 C 204.214844 182.109375 204.636719 181.730469 205.070312 181.371094 C 205.523438 181.03125 206 180.71875 206.515625 180.480469 C 206.769531 180.351562 207.039062 180.261719 207.300781 180.15625 C 207.324219 180.152344 207.351562 180.140625 207.375 180.132812 C 207.234375 176.390625 206.972656 171.949219 206.515625 166.773438 C 205.574219 156.117188 202.402344 150.6875 199.902344 148.007812 C 197.207031 145.109375 194.699219 144.714844 194.679688 144.714844 C 194.632812 144.707031 194.59375 144.683594 194.570312 144.640625 C 194.550781 144.601562 194.546875 144.558594 194.566406 144.515625 C 194.589844 144.460938 196.859375 138.867188 194.046875 132.699219 C 191.523438 127.167969 185.820312 122.898438 177.089844 120.011719 C 170.699219 117.898438 165.289062 118.296875 161.023438 121.199219 C 157.792969 123.398438 155.589844 126.792969 154.089844 130.242188 L 153.832031 130.132812 C 155.34375 126.636719 157.574219 123.195312 160.859375 120.960938 C 165.207031 118.003906 170.695312 117.59375 177.179688 119.738281 C 185.992188 122.652344 191.757812 126.972656 194.3125 132.585938 C 196.902344 138.273438 195.25 143.476562 194.894531 144.460938 C 195.523438 144.597656 197.714844 145.242188 200.097656 147.789062 C 202.628906 150.5 205.851562 155.992188 206.804688 166.746094 C 207.257812 171.894531 207.519531 176.3125 207.660156 180.046875 C 207.808594 180 207.960938 179.957031 208.113281 179.925781 C 208.667969 179.789062 209.195312 179.761719 209.738281 179.695312 C 210.820312 179.628906 211.929688 179.636719 213.015625 179.917969 Z M 243.378906 209.785156 C 243.484375 205.917969 243.449219 202.039062 243.207031 198.179688 C 243.082031 196.253906 242.90625 194.332031 242.628906 192.433594 C 242.34375 190.550781 241.984375 188.648438 241.304688 186.96875 C 241.132812 186.558594 240.9375 186.164062 240.710938 185.832031 C 240.597656 185.664062 240.476562 185.527344 240.359375 185.398438 L 240.265625 185.324219 C 240.230469 185.296875 240.207031 185.265625 240.15625 185.234375 L 239.886719 185.042969 C 239.164062 184.554688 238.371094 184.214844 237.558594 184.121094 C 236.746094 184.015625 235.914062 184.15625 235.140625 184.503906 C 234.753906 184.675781 234.378906 184.894531 234.03125 185.152344 C 233.855469 185.277344 233.683594 185.414062 233.519531 185.558594 C 233.363281 185.699219 233.195312 185.871094 233.085938 185.992188 L 233.066406 186.011719 C 232.75 186.339844 232.226562 186.34375 231.902344 186.03125 C 231.734375 185.863281 231.652344 185.644531 231.652344 185.421875 L 231.65625 185.289062 C 231.65625 185.238281 231.65625 185.183594 231.652344 185.128906 C 231.648438 185.023438 231.644531 184.910156 231.632812 184.800781 C 231.621094 184.582031 231.585938 184.359375 231.558594 184.140625 C 231.476562 183.699219 231.382812 183.257812 231.234375 182.839844 C 230.945312 181.996094 230.515625 181.214844 229.957031 180.535156 C 229.410156 179.839844 228.6875 179.304688 227.917969 178.851562 L 227.324219 178.535156 C 227.121094 178.441406 226.898438 178.371094 226.691406 178.285156 C 226.265625 178.113281 225.847656 177.976562 225.425781 177.914062 C 224.585938 177.757812 223.738281 177.847656 222.957031 178.167969 C 222.5625 178.320312 222.195312 178.546875 221.84375 178.804688 C 221.492188 179.0625 221.164062 179.367188 220.859375 179.699219 C 220.246094 180.359375 219.730469 181.136719 219.28125 181.953125 C 218.839844 182.769531 218.453125 183.660156 218.179688 184.515625 L 218.167969 184.550781 C 218.042969 184.929688 217.632812 185.132812 217.253906 185.003906 C 217.039062 184.929688 216.878906 184.761719 216.804688 184.5625 C 216.78125 184.5 216.734375 184.382812 216.6875 184.289062 C 216.644531 184.1875 216.582031 184.089844 216.53125 183.992188 C 216.414062 183.796875 216.289062 183.601562 216.148438 183.417969 C 216.019531 183.226562 215.851562 183.066406 215.703125 182.890625 C 215.539062 182.730469 215.375 182.5625 215.195312 182.417969 C 214.757812 182.0625 214.265625 181.773438 213.742188 181.546875 C 213.410156 181.402344 213.0625 181.285156 212.707031 181.195312 L 212.011719 181.054688 L 211.296875 180.988281 C 211.058594 180.957031 210.816406 180.984375 210.574219 180.984375 L 210.207031 180.988281 C 210.089844 180.988281 209.96875 180.996094 209.847656 181.015625 C 209.097656 181.09375 208.375 181.195312 207.710938 181.4375 C 207.609375 181.46875 207.519531 181.511719 207.421875 181.550781 C 207.316406 181.597656 207.210938 181.648438 207.109375 181.707031 C 205.4375 182.53125 204.246094 184.144531 203.515625 185.933594 C 203.144531 186.835938 202.867188 187.78125 202.671875 188.75 C 202.578125 189.234375 202.5 189.722656 202.441406 190.210938 C 202.382812 190.695312 202.34375 191.210938 202.339844 191.65625 C 202.3125 192.148438 201.90625 192.535156 201.417969 192.535156 L 201.367188 192.535156 C 201.285156 192.53125 201.210938 192.515625 201.132812 192.492188 L 201.109375 192.484375 L 200.566406 192.308594 C 200.386719 192.246094 200.210938 192.1875 200.027344 192.152344 L 199.480469 192.019531 L 198.941406 191.9375 C 198.222656 191.851562 197.515625 191.867188 196.875 192.046875 C 196.234375 192.21875 195.664062 192.558594 195.191406 193.039062 C 194.714844 193.511719 194.332031 194.125 194.03125 194.792969 C 193.429688 196.136719 193.15625 197.691406 193.019531 199.25 C 192.882812 200.8125 192.914062 202.410156 193.03125 203.996094 C 193.089844 204.785156 193.171875 205.585938 193.292969 206.359375 C 193.414062 207.113281 193.59375 207.878906 193.808594 208.644531 C 194.226562 210.171875 194.765625 211.691406 195.351562 213.191406 C 195.703125 214.085938 196.0625 214.976562 196.441406 215.859375 L 243.046875 215.859375 C 243.054688 215.765625 243.058594 215.671875 243.070312 215.578125 C 243.226562 213.65625 243.320312 211.722656 243.378906 209.785156 Z M 297.699219 215.859375 C 298.976562 215.859375 300.015625 216.898438 300.015625 218.175781 C 300.015625 219.453125 298.976562 220.492188 297.699219 220.492188 L 161.347656 220.492188 C 161.285156 221.113281 161.207031 221.730469 161.113281 222.347656 C 160.695312 225.09375 159.691406 227.796875 158.050781 230.085938 C 156.429688 232.390625 154.207031 234.238281 151.722656 235.515625 C 150.484375 236.160156 149.179688 236.667969 147.835938 237.039062 C 146.488281 237.410156 145.105469 237.660156 143.65625 237.667969 C 140.863281 237.648438 138.042969 237.046875 135.53125 235.738281 C 133.015625 234.4375 130.890625 232.402344 129.421875 230.007812 C 127.9375 227.613281 127.042969 224.9375 126.503906 222.238281 C 126.394531 221.65625 126.300781 221.074219 126.222656 220.492188 L 95.605469 220.492188 C 95.53125 221.050781 95.414062 221.605469 95.253906 222.15625 C 94.945312 223.222656 94.46875 224.269531 93.773438 225.179688 C 93.082031 226.097656 92.175781 226.855469 91.175781 227.398438 C 90.925781 227.527344 90.675781 227.636719 90.421875 227.757812 L 90.046875 227.933594 C 89.917969 227.984375 89.785156 228.03125 89.65625 228.078125 C 89.390625 228.167969 89.128906 228.265625 88.863281 228.347656 L 88.042969 228.542969 C 86.941406 228.757812 85.789062 228.796875 84.667969 228.625 C 83.542969 228.453125 82.457031 228.074219 81.46875 227.507812 C 81.222656 227.363281 80.976562 227.222656 80.746094 227.050781 C 80.691406 227.011719 80.636719 226.972656 80.582031 226.933594 C 80.550781 227.441406 80.46875 227.949219 80.324219 228.453125 C 79.96875 229.746094 79.15625 230.933594 78.113281 231.769531 C 77.597656 232.191406 77.03125 232.535156 76.449219 232.816406 C 76.152344 232.953125 75.855469 233.082031 75.558594 233.191406 C 75.480469 233.214844 75.414062 233.246094 75.332031 233.273438 L 75.082031 233.34375 C 74.914062 233.386719 74.746094 233.445312 74.578125 233.472656 C 73.894531 233.613281 73.203125 233.617188 72.53125 233.5625 C 71.863281 233.472656 71.214844 233.320312 70.597656 233.09375 C 69.367188 232.648438 68.285156 231.960938 67.292969 231.191406 C 66.308594 230.421875 65.425781 229.535156 64.644531 228.585938 C 63.074219 226.679688 61.84375 224.511719 61.019531 222.179688 C 60.824219 221.625 60.652344 221.0625 60.503906 220.492188 L 2.316406 220.492188 C 1.035156 220.492188 0 219.453125 0 218.175781 C 0 216.898438 1.035156 215.859375 2.316406 215.859375 L 59.957031 215.859375 C 59.96875 215.511719 59.988281 215.160156 60.023438 214.808594 C 60.234375 212.335938 60.925781 209.925781 61.925781 207.695312 C 62.929688 205.457031 64.253906 203.390625 65.757812 201.496094 C 66.527344 200.554688 67.316406 199.636719 68.1875 198.785156 C 69.058594 197.925781 69.9375 197.117188 70.988281 196.355469 C 71.277344 196.15625 71.566406 195.960938 71.863281 195.769531 C 71.863281 195.417969 71.863281 195.0625 71.867188 194.707031 C 71.902344 190.398438 72.027344 186.101562 72.15625 181.804688 C 72.285156 177.511719 72.425781 173.226562 72.5 168.941406 C 72.535156 166.800781 72.554688 164.660156 72.546875 162.523438 L 72.609375 159.257812 C 72.605469 158.710938 72.664062 158.167969 72.699219 157.625 L 72.816406 155.992188 C 73.199219 151.644531 73.992188 147.332031 75.1875 143.132812 C 76.382812 138.929688 77.980469 134.84375 79.933594 130.9375 C 80.226562 130.34375 80.53125 129.761719 80.84375 129.179688 C 80.824219 129.089844 80.8125 128.992188 80.8125 128.898438 L 80.8125 128.882812 C 80.859375 126.503906 81.007812 124.164062 81.175781 121.824219 C 81.351562 119.484375 81.5625 117.148438 81.800781 114.820312 C 82.285156 110.15625 82.839844 105.503906 83.53125 100.871094 C 84.21875 96.234375 85.035156 91.617188 86.019531 87.023438 C 87.011719 82.433594 88.171875 77.863281 89.816406 73.40625 C 90.65625 71.183594 91.609375 68.980469 92.925781 66.90625 C 93.089844 66.648438 93.261719 66.390625 93.445312 66.140625 C 93.621094 65.882812 93.816406 65.640625 94.011719 65.394531 C 94.199219 65.144531 94.429688 64.914062 94.632812 64.675781 C 94.871094 64.449219 95.082031 64.214844 95.339844 64.003906 C 95.820312 63.566406 96.398438 63.1875 97.023438 62.882812 C 97.65625 62.574219 98.34375 62.398438 99.042969 62.335938 C 99.738281 62.277344 100.441406 62.324219 101.097656 62.484375 C 101.753906 62.640625 102.375 62.867188 102.957031 63.148438 C 104.117188 63.71875 105.136719 64.449219 106.066406 65.246094 C 107.929688 66.851562 109.488281 68.683594 110.933594 70.574219 C 113.789062 74.378906 116.222656 78.429688 118.460938 82.570312 C 119.570312 84.640625 120.648438 86.730469 121.679688 88.84375 C 122.5 90.523438 123.292969 92.207031 124.058594 93.921875 C 130.296875 92.101562 136.792969 91.148438 143.300781 91.128906 C 150.417969 91.144531 157.523438 92.234375 164.3125 94.324219 C 165.136719 92.472656 165.984375 90.65625 166.871094 88.84375 C 167.902344 86.730469 168.976562 84.640625 170.089844 82.570312 C 172.328125 78.429688 174.757812 74.378906 177.617188 70.574219 C 179.058594 68.683594 180.621094 66.851562 182.480469 65.246094 C 183.410156 64.449219 184.433594 63.71875 185.589844 63.148438 C 186.171875 62.867188 186.796875 62.640625 187.453125 62.484375 C 188.105469 62.324219 188.8125 62.277344 189.507812 62.335938 C 190.203125 62.398438 190.894531 62.574219 191.527344 62.882812 C 192.152344 63.1875 192.726562 63.566406 193.210938 64.003906 C 193.46875 64.214844 193.683594 64.449219 193.914062 64.675781 C 194.121094 64.914062 194.347656 65.144531 194.535156 65.394531 C 194.734375 65.640625 194.929688 65.882812 195.101562 66.140625 C 195.289062 66.390625 195.457031 66.648438 195.621094 66.90625 C 196.941406 68.980469 197.890625 71.183594 198.730469 73.40625 C 200.378906 77.863281 201.535156 82.433594 202.527344 87.023438 C 203.511719 91.617188 204.328125 96.234375 205.019531 100.871094 C 205.710938 105.503906 206.261719 110.15625 206.75 114.820312 C 206.984375 117.148438 207.199219 119.484375 207.371094 121.824219 C 207.527344 123.964844 207.660156 128.167969 207.722656 130.6875 C 209.570312 134.359375 211.101562 138.191406 212.257812 142.132812 C 213.480469 146.332031 214.289062 150.644531 214.675781 154.992188 L 214.796875 156.625 L 214.855469 157.445312 C 214.878906 157.71875 214.875 157.988281 214.882812 158.261719 C 214.902344 159.347656 214.9375 160.453125 214.945312 161.523438 C 214.9375 163.660156 214.964844 165.796875 215.023438 167.933594 C 215.140625 172.210938 215.359375 176.488281 215.585938 180.773438 C 215.59375 180.867188 215.597656 180.957031 215.601562 181.050781 C 215.75 181.144531 215.898438 181.253906 216.039062 181.367188 C 216.265625 181.539062 216.472656 181.738281 216.683594 181.929688 C 216.875 182.136719 217.078125 182.335938 217.246094 182.566406 C 217.273438 182.59375 217.296875 182.625 217.320312 182.65625 C 217.523438 182.183594 217.742188 181.71875 217.984375 181.257812 C 218.476562 180.355469 219.042969 179.476562 219.761719 178.691406 C 220.117188 178.300781 220.507812 177.929688 220.949219 177.601562 C 221.378906 177.277344 221.855469 176.980469 222.375 176.773438 C 223.40625 176.332031 224.589844 176.207031 225.679688 176.402344 C 226.226562 176.476562 226.753906 176.648438 227.234375 176.839844 C 227.480469 176.9375 227.730469 177.015625 227.972656 177.128906 L 228.679688 177.492188 C 229.597656 178.023438 230.488281 178.675781 231.167969 179.523438 C 231.863281 180.355469 232.394531 181.3125 232.746094 182.324219 C 232.917969 182.800781 233.035156 183.296875 233.132812 183.792969 C 233.542969 183.492188 233.992188 183.226562 234.46875 183.007812 C 235.472656 182.554688 236.628906 182.339844 237.753906 182.476562 C 238.3125 182.542969 238.859375 182.6875 239.375 182.890625 C 239.890625 183.097656 240.367188 183.367188 240.816406 183.660156 L 241.148438 183.890625 C 241.195312 183.925781 241.261719 183.976562 241.324219 184.03125 C 241.386719 184.082031 241.449219 184.136719 241.507812 184.191406 C 241.730469 184.410156 241.929688 184.644531 242.089844 184.878906 C 242.414062 185.351562 242.652344 185.835938 242.855469 186.320312 C 243.265625 187.289062 243.535156 188.265625 243.769531 189.242188 C 243.992188 190.222656 244.171875 191.203125 244.324219 192.183594 C 244.621094 194.140625 244.8125 196.101562 244.945312 198.066406 C 245.210938 201.988281 245.273438 205.910156 245.183594 209.835938 C 245.136719 211.796875 245.050781 213.757812 244.902344 215.722656 C 244.898438 215.765625 244.898438 215.8125 244.890625 215.859375 Z M 88.085938 118.171875 C 90.378906 115.292969 92.890625 112.585938 95.601562 110.085938 C 102.019531 104.152344 109.53125 99.390625 117.660156 96.132812 C 117.976562 96.007812 118.292969 95.890625 118.609375 95.769531 C 118.609375 95.769531 118.605469 95.769531 118.605469 95.765625 C 114.722656 87.976562 105.824219 71.253906 100.101562 69.300781 C 99.324219 69.035156 98.625 69.058594 98.027344 69.371094 C 92.890625 72.046875 89.46875 103.003906 88.085938 118.171875 " fill-opacity="1" fill-rule="nonzero"/></g><path fill="#ffffff" d="M 202.144531 199.53125 C 202.144531 197.734375 200.6875 196.277344 198.890625 196.277344 C 197.09375 196.277344 195.636719 197.734375 195.636719 199.53125 C 195.636719 201.332031 197.09375 202.789062 198.890625 202.789062 C 200.6875 202.789062 202.144531 201.332031 202.144531 199.53125 Z M 213.015625 187.980469 C 213.015625 186.1875 211.558594 184.726562 209.757812 184.726562 C 209.019531 184.726562 208.335938 184.972656 207.789062 185.390625 C 207.6875 185.46875 207.589844 185.550781 207.5 185.636719 C 206.886719 186.230469 206.503906 187.0625 206.503906 187.980469 C 206.503906 188.886719 206.871094 189.699219 207.464844 190.292969 C 207.554688 190.378906 207.644531 190.464844 207.75 190.539062 C 208.300781 190.976562 209 191.238281 209.757812 191.238281 C 211.558594 191.238281 213.015625 189.78125 213.015625 187.980469 Z M 228.738281 184.726562 C 228.738281 182.929688 227.28125 181.46875 225.480469 181.46875 C 223.683594 181.46875 222.226562 182.929688 222.226562 184.726562 C 222.226562 186.527344 223.683594 187.980469 225.480469 187.980469 C 227.28125 187.980469 228.738281 186.527344 228.738281 184.726562 Z M 228.722656 203.511719 C 229.15625 198.402344 218.53125 192.355469 215.652344 192.804688 C 211.648438 193.433594 207.40625 203.367188 208.417969 207.851562 C 209.433594 212.335938 215.796875 210.941406 219.222656 210.363281 C 222.644531 209.78125 228.289062 208.625 228.722656 203.511719 Z M 243.207031 198.179688 C 243.449219 202.039062 243.484375 205.917969 243.378906 209.785156 C 243.320312 211.722656 243.226562 213.65625 243.070312 215.578125 C 243.058594 215.671875 243.054688 215.765625 243.046875 215.859375 L 196.441406 215.859375 C 196.0625 214.976562 195.703125 214.085938 195.351562 213.191406 C 194.765625 211.691406 194.226562 210.171875 193.808594 208.644531 C 193.59375 207.878906 193.414062 207.113281 193.292969 206.359375 C 193.171875 205.585938 193.089844 204.785156 193.03125 203.996094 C 192.914062 202.410156 192.882812 200.8125 193.019531 199.25 C 193.15625 197.691406 193.429688 196.136719 194.03125 194.792969 C 194.332031 194.125 194.714844 193.511719 195.191406 193.039062 C 195.664062 192.558594 196.234375 192.21875 196.875 192.046875 C 197.515625 191.867188 198.222656 191.851562 198.941406 191.9375 L 199.480469 192.019531 L 200.027344 192.152344 C 200.210938 192.1875 200.386719 192.246094 200.566406 192.308594 L 201.109375 192.484375 L 201.132812 192.492188 C 201.210938 192.515625 201.285156 192.53125 201.367188 192.535156 L 201.417969 192.535156 C 201.90625 192.535156 202.3125 192.148438 202.339844 191.65625 C 202.34375 191.210938 202.382812 190.695312 202.441406 190.210938 C 202.5 189.722656 202.578125 189.234375 202.671875 188.75 C 202.867188 187.78125 203.144531 186.835938 203.515625 185.933594 C 204.246094 184.144531 205.4375 182.53125 207.109375 181.707031 C 207.210938 181.648438 207.316406 181.597656 207.421875 181.550781 C 207.519531 181.511719 207.609375 181.46875 207.710938 181.4375 C 208.375 181.195312 209.097656 181.09375 209.847656 181.015625 C 209.96875 180.996094 210.089844 180.988281 210.207031 180.988281 L 210.574219 180.984375 C 210.816406 180.984375 211.058594 180.957031 211.296875 180.988281 L 212.011719 181.054688 L 212.707031 181.195312 C 213.0625 181.285156 213.410156 181.402344 213.742188 181.546875 C 214.265625 181.773438 214.757812 182.0625 215.195312 182.417969 C 215.375 182.5625 215.539062 182.730469 215.703125 182.890625 C 215.851562 183.066406 216.019531 183.226562 216.148438 183.417969 C 216.289062 183.601562 216.414062 183.796875 216.53125 183.992188 C 216.582031 184.089844 216.644531 184.1875 216.6875 184.289062 C 216.734375 184.382812 216.78125 184.5 216.804688 184.5625 C 216.878906 184.761719 217.039062 184.929688 217.253906 185.003906 C 217.632812 185.132812 218.042969 184.929688 218.167969 184.550781 L 218.179688 184.515625 C 218.453125 183.660156 218.839844 182.769531 219.28125 181.953125 C 219.730469 181.136719 220.246094 180.359375 220.859375 179.699219 C 221.164062 179.367188 221.492188 179.0625 221.84375 178.804688 C 222.195312 178.546875 222.5625 178.320312 222.957031 178.167969 C 223.738281 177.847656 224.585938 177.757812 225.425781 177.914062 C 225.847656 177.976562 226.265625 178.113281 226.691406 178.285156 C 226.898438 178.371094 227.121094 178.441406 227.324219 178.535156 L 227.917969 178.851562 C 228.6875 179.304688 229.410156 179.839844 229.957031 180.535156 C 230.515625 181.214844 230.945312 181.996094 231.234375 182.839844 C 231.382812 183.257812 231.476562 183.699219 231.558594 184.140625 C 231.585938 184.359375 231.621094 184.582031 231.632812 184.800781 C 231.644531 184.910156 231.648438 185.023438 231.652344 185.128906 C 231.65625 185.183594 231.65625 185.238281 231.65625 185.289062 L 231.652344 185.421875 C 231.652344 185.644531 231.734375 185.863281 231.902344 186.03125 C 232.226562 186.34375 232.75 186.339844 233.066406 186.011719 L 233.085938 185.992188 C 233.195312 185.871094 233.363281 185.699219 233.519531 185.558594 C 233.683594 185.414062 233.855469 185.277344 234.03125 185.152344 C 234.378906 184.894531 234.753906 184.675781 235.140625 184.503906 C 235.914062 184.15625 236.746094 184.015625 237.558594 184.121094 C 238.371094 184.214844 239.164062 184.554688 239.886719 185.042969 L 240.15625 185.234375 C 240.207031 185.265625 240.230469 185.296875 240.265625 185.324219 L 240.359375 185.398438 C 240.476562 185.527344 240.597656 185.664062 240.710938 185.832031 C 240.9375 186.164062 241.132812 186.558594 241.304688 186.96875 C 241.984375 188.648438 242.34375 190.550781 242.628906 192.433594 C 242.90625 194.332031 243.082031 196.253906 243.207031 198.179688 " fill-opacity="1" fill-rule="nonzero"/><path fill="#8c52ff" d="M 215.652344 192.804688 C 218.53125 192.355469 229.15625 198.402344 228.722656 203.511719 C 228.289062 208.625 222.644531 209.78125 219.222656 210.363281 C 215.796875 210.941406 209.433594 212.335938 208.417969 207.851562 C 207.40625 203.367188 211.648438 193.433594 215.652344 192.804688 " fill-opacity="1" fill-rule="nonzero"/><path fill="#8c52ff" d="M 225.480469 181.46875 C 227.28125 181.46875 228.738281 182.929688 228.738281 184.726562 C 228.738281 186.527344 227.28125 187.980469 225.480469 187.980469 C 223.683594 187.980469 222.226562 186.527344 222.226562 184.726562 C 222.226562 182.929688 223.683594 181.46875 225.480469 181.46875 " fill-opacity="1" fill-rule="nonzero"/><path fill="#737373" d="M 213.640625 180.09375 C 213.433594 180.027344 213.226562 179.96875 213.015625 179.917969 C 211.929688 179.636719 210.820312 179.628906 209.738281 179.695312 C 209.195312 179.761719 208.667969 179.789062 208.113281 179.925781 C 207.960938 179.957031 207.808594 180 207.660156 180.046875 C 207.519531 176.3125 207.257812 171.894531 206.804688 166.746094 C 205.851562 155.992188 202.628906 150.5 200.097656 147.789062 C 197.714844 145.242188 195.523438 144.597656 194.894531 144.460938 C 195.25 143.476562 196.902344 138.273438 194.3125 132.585938 C 191.757812 126.972656 185.992188 122.652344 177.179688 119.738281 C 170.695312 117.59375 165.207031 118.003906 160.859375 120.960938 C 157.574219 123.195312 155.34375 126.636719 153.832031 130.132812 C 152.511719 133.175781 151.738281 136.265625 151.292969 138.640625 C 150.375 138.234375 149.433594 137.875 148.464844 137.578125 C 148.230469 137.511719 147.992188 137.441406 147.753906 137.375 L 144.003906 110.882812 C 143.992188 110.804688 143.921875 110.75 143.839844 110.761719 C 143.816406 110.761719 143.800781 110.769531 143.785156 110.78125 C 143.773438 110.769531 143.753906 110.761719 143.734375 110.761719 C 143.652344 110.75 143.582031 110.804688 143.574219 110.882812 L 139.820312 137.378906 C 139.582031 137.441406 139.34375 137.511719 139.105469 137.578125 C 138.140625 137.875 137.199219 138.230469 136.28125 138.640625 C 135.835938 136.265625 135.0625 133.175781 133.746094 130.132812 C 132.234375 126.636719 130 123.195312 126.714844 120.960938 C 122.367188 118.003906 116.878906 117.59375 110.390625 119.738281 C 101.582031 122.652344 95.816406 126.972656 93.261719 132.585938 C 90.667969 138.273438 92.320312 143.476562 92.679688 144.460938 C 92.050781 144.597656 89.859375 145.242188 87.476562 147.789062 C 84.941406 150.5 81.722656 155.992188 80.769531 166.746094 C 79.660156 179.292969 79.6875 187.515625 79.878906 192.027344 C 79.421875 192.171875 78.972656 192.324219 78.527344 192.488281 C 77.199219 192.972656 75.902344 193.539062 74.644531 194.183594 C 74.285156 194.367188 73.921875 194.558594 73.566406 194.761719 C 73.566406 194.75 73.566406 194.742188 73.566406 194.734375 C 73.667969 190.449219 73.859375 186.167969 74.050781 181.878906 C 74.253906 177.589844 74.441406 173.292969 74.5625 168.988281 C 74.621094 166.835938 74.664062 164.683594 74.675781 162.527344 L 74.777344 159.355469 C 74.78125 158.824219 74.839844 158.296875 74.878906 157.769531 L 75.011719 156.195312 C 75.847656 147.789062 78.289062 139.558594 82.113281 132.039062 C 85.9375 124.515625 91.128906 117.6875 97.371094 112.011719 C 103.601562 106.328125 110.828125 101.742188 118.65625 98.632812 C 120.105469 98.054688 121.578125 97.527344 123.066406 97.046875 C 123.527344 96.902344 123.996094 96.761719 124.460938 96.625 C 130.570312 94.816406 136.933594 93.882812 143.300781 93.878906 C 151.722656 93.882812 160.136719 95.445312 168.011719 98.445312 C 168.441406 98.605469 168.863281 98.769531 169.289062 98.941406 C 169.378906 98.980469 169.472656 99.019531 169.558594 99.050781 C 176.851562 102.019531 183.636719 106.226562 189.574219 111.410156 C 194.5 115.714844 198.824219 120.714844 202.351562 126.230469 C 202.425781 126.34375 202.496094 126.457031 202.570312 126.566406 C 203.507812 128.050781 204.386719 129.574219 205.207031 131.125 C 209.140625 138.582031 211.648438 146.792969 212.480469 155.199219 L 212.613281 156.777344 L 212.683594 157.5625 C 212.707031 157.828125 212.707031 158.09375 212.714844 158.355469 C 212.746094 159.414062 212.789062 160.457031 212.8125 161.53125 C 212.824219 163.691406 212.882812 165.847656 212.960938 168.003906 C 213.117188 172.042969 213.359375 176.074219 213.640625 180.09375 " fill-opacity="1" fill-rule="nonzero"/><path fill="#8c52ff" d="M 209.757812 184.726562 C 211.558594 184.726562 213.015625 186.1875 213.015625 187.980469 C 213.015625 189.78125 211.558594 191.238281 209.757812 191.238281 C 209 191.238281 208.300781 190.976562 207.75 190.539062 C 207.644531 190.464844 207.554688 190.378906 207.464844 190.292969 C 206.871094 189.699219 206.503906 188.886719 206.503906 187.980469 C 206.503906 187.0625 206.886719 186.230469 207.5 185.636719 C 207.589844 185.550781 207.6875 185.46875 207.789062 185.390625 C 208.335938 184.972656 209.019531 184.726562 209.757812 184.726562 " fill-opacity="1" fill-rule="nonzero"/><path fill="#ffffff" d="M 120.65625 138.496094 C 120.65625 134.207031 117.183594 130.726562 112.890625 130.726562 C 108.605469 130.726562 105.128906 134.207031 105.128906 138.496094 C 105.128906 142.785156 108.605469 146.257812 112.890625 146.257812 C 117.183594 146.257812 120.65625 142.785156 120.65625 138.496094 Z M 182.445312 138.496094 C 182.445312 134.207031 178.96875 130.726562 174.679688 130.726562 C 170.390625 130.726562 166.914062 134.207031 166.914062 138.496094 C 166.914062 142.785156 170.390625 146.257812 174.679688 146.257812 C 178.96875 146.257812 182.445312 142.785156 182.445312 138.496094 Z M 207.375 180.132812 C 207.351562 180.140625 207.324219 180.152344 207.300781 180.15625 C 207.039062 180.261719 206.769531 180.351562 206.515625 180.480469 C 206 180.71875 205.523438 181.03125 205.070312 181.371094 C 204.636719 181.730469 204.214844 182.109375 203.863281 182.535156 C 203.496094 182.957031 203.171875 183.410156 202.886719 183.878906 C 202.597656 184.347656 202.34375 184.832031 202.113281 185.324219 C 201.660156 186.316406 201.320312 187.34375 201.0625 188.382812 C 200.929688 188.90625 200.816406 189.429688 200.722656 189.960938 C 200.699219 190.113281 200.675781 190.261719 200.652344 190.414062 C 200.59375 190.402344 200.539062 190.390625 200.484375 190.378906 L 199.835938 190.222656 L 199.167969 190.125 C 198.269531 190.015625 197.316406 190.023438 196.382812 190.289062 C 195.449219 190.542969 194.574219 191.070312 193.902344 191.753906 C 193.226562 192.433594 192.738281 193.238281 192.375 194.054688 C 191.652344 195.703125 191.371094 197.414062 191.226562 199.101562 C 191.082031 200.789062 191.121094 202.46875 191.246094 204.132812 C 191.3125 204.964844 191.394531 205.792969 191.53125 206.632812 C 191.671875 207.484375 191.863281 208.308594 192.089844 209.121094 C 192.542969 210.738281 193.101562 212.296875 193.707031 213.835938 C 193.972656 214.515625 194.246094 215.191406 194.53125 215.859375 L 161.542969 215.859375 C 161.535156 215.296875 161.515625 214.726562 161.484375 214.164062 C 161.339844 211.441406 160.972656 208.730469 160.347656 206.070312 C 160.03125 204.742188 159.65625 203.425781 159.195312 202.132812 C 159.160156 202.03125 159.121094 201.933594 159.085938 201.835938 C 159.144531 201.8125 159.207031 201.78125 159.265625 201.75 C 159.597656 201.597656 159.910156 201.410156 160.234375 201.238281 C 160.554688 201.066406 160.878906 200.890625 161.183594 200.691406 C 163.683594 199.179688 165.917969 197.242188 167.804688 195.03125 C 168.761719 193.9375 169.625 192.761719 170.40625 191.539062 C 171.195312 190.320312 171.90625 189.054688 172.535156 187.75 C 173.167969 186.445312 173.726562 185.109375 174.203125 183.742188 C 174.445312 183.058594 174.667969 182.371094 174.863281 181.671875 C 175.066406 180.964844 175.242188 180.28125 175.386719 179.527344 C 175.457031 179.203125 175.296875 178.855469 174.984375 178.699219 C 174.609375 178.511719 174.152344 178.664062 173.964844 179.039062 L 173.9375 179.097656 C 173.894531 179.179688 173.796875 179.347656 173.710938 179.472656 C 173.613281 179.605469 173.523438 179.746094 173.410156 179.875 C 173.199219 180.136719 172.957031 180.378906 172.710938 180.613281 C 172.207031 181.078125 171.621094 181.457031 171.015625 181.800781 C 169.785156 182.457031 168.402344 182.855469 166.980469 183.03125 C 166.894531 183.042969 166.804688 183.058594 166.71875 183.070312 L 166.445312 183.09375 L 165.90625 183.128906 L 165.371094 183.167969 C 165.191406 183.175781 165.007812 183.167969 164.828125 183.167969 L 163.738281 183.160156 C 163.378906 183.136719 163.015625 183.101562 162.648438 183.070312 C 162.289062 183.035156 161.921875 183.019531 161.574219 182.957031 L 161.042969 182.878906 L 160.527344 182.769531 C 160.359375 182.734375 160.1875 182.695312 160.023438 182.644531 C 159.859375 182.597656 159.691406 182.554688 159.527344 182.503906 C 159.207031 182.386719 158.886719 182.277344 158.585938 182.128906 C 157.980469 181.851562 157.429688 181.503906 156.933594 181.078125 C 156.4375 180.648438 155.996094 180.140625 155.574219 179.578125 C 154.734375 178.453125 153.941406 177.050781 152.734375 175.816406 C 151.542969 174.578125 149.964844 173.644531 148.367188 173.144531 C 147.371094 172.816406 146.363281 172.605469 145.367188 172.46875 L 145.367188 169.496094 C 145.578125 169.441406 145.789062 169.378906 145.996094 169.3125 C 146.550781 169.136719 147.101562 168.929688 147.640625 168.714844 C 148.722656 168.269531 149.769531 167.75 150.769531 167.140625 C 152.769531 165.925781 154.585938 164.335938 155.980469 162.394531 C 156.667969 161.421875 157.242188 160.359375 157.695312 159.261719 C 158.164062 158.160156 158.441406 156.992188 158.652344 155.832031 C 159.019531 153.488281 158.929688 151.117188 158.535156 148.835938 L 158.535156 148.824219 C 158.515625 148.671875 158.449219 148.519531 158.34375 148.394531 L 158.257812 148.292969 L 158.199219 148.226562 C 158.160156 148.1875 158.113281 148.136719 158.078125 148.101562 L 157.847656 147.890625 C 157.695312 147.769531 157.542969 147.628906 157.386719 147.527344 C 157.074219 147.296875 156.757812 147.105469 156.4375 146.917969 C 156.113281 146.75 155.796875 146.5625 155.464844 146.425781 L 154.972656 146.203125 C 154.804688 146.132812 154.640625 146.074219 154.472656 146.011719 L 153.976562 145.820312 L 153.46875 145.65625 C 153.132812 145.554688 152.796875 145.4375 152.460938 145.359375 C 152.117188 145.273438 151.78125 145.179688 151.441406 145.097656 L 150.421875 144.890625 C 150.078125 144.816406 149.738281 144.769531 149.394531 144.714844 L 148.367188 144.558594 C 147.683594 144.492188 147 144.402344 146.3125 144.351562 C 146.183594 144.34375 146.046875 144.335938 145.917969 144.328125 C 145.363281 144.292969 144.8125 144.25 144.257812 144.230469 L 143.785156 144.21875 L 143.3125 144.230469 C 142.761719 144.25 142.207031 144.292969 141.652344 144.328125 C 141.519531 144.335938 141.390625 144.34375 141.257812 144.351562 C 140.578125 144.402344 139.890625 144.492188 139.203125 144.558594 L 138.179688 144.714844 C 137.835938 144.769531 137.496094 144.816406 137.152344 144.890625 L 136.132812 145.097656 C 135.792969 145.179688 135.453125 145.273438 135.113281 145.359375 C 134.773438 145.4375 134.4375 145.554688 134.101562 145.65625 L 133.601562 145.820312 L 133.097656 146.011719 C 132.933594 146.074219 132.765625 146.132812 132.601562 146.203125 L 132.109375 146.425781 C 131.777344 146.5625 131.457031 146.75 131.132812 146.917969 C 130.816406 147.105469 130.496094 147.296875 130.1875 147.527344 C 130.03125 147.628906 129.878906 147.769531 129.726562 147.890625 L 129.496094 148.101562 C 129.457031 148.136719 129.414062 148.1875 129.375 148.226562 L 129.316406 148.292969 L 129.230469 148.394531 C 129.132812 148.511719 129.058594 148.664062 129.035156 148.828125 L 129.035156 148.835938 C 128.644531 151.117188 128.550781 153.488281 128.921875 155.832031 C 129.132812 156.992188 129.410156 158.160156 129.878906 159.261719 C 130.332031 160.359375 130.902344 161.421875 131.589844 162.394531 C 132.984375 164.335938 134.804688 165.925781 136.800781 167.140625 C 137.804688 167.75 138.855469 168.269531 139.933594 168.714844 C 140.472656 168.929688 141.019531 169.136719 141.578125 169.3125 C 141.785156 169.378906 141.996094 169.441406 142.207031 169.496094 L 142.207031 172.46875 C 141.207031 172.605469 140.203125 172.816406 139.207031 173.144531 C 137.609375 173.644531 136.027344 174.578125 134.839844 175.816406 C 133.632812 177.050781 132.839844 178.453125 132 179.578125 C 131.578125 180.140625 131.136719 180.648438 130.636719 181.078125 C 130.144531 181.503906 129.59375 181.851562 128.988281 182.128906 C 128.6875 182.277344 128.367188 182.386719 128.046875 182.503906 C 127.882812 182.554688 127.714844 182.597656 127.550781 182.644531 C 127.386719 182.695312 127.21875 182.734375 127.042969 182.769531 L 126.527344 182.878906 L 126.003906 182.957031 C 125.65625 183.019531 125.285156 183.035156 124.921875 183.070312 C 124.558594 183.101562 124.195312 183.136719 123.832031 183.160156 L 122.742188 183.167969 C 122.5625 183.167969 122.382812 183.175781 122.203125 183.167969 L 121.664062 183.128906 L 121.125 183.09375 L 120.855469 183.070312 C 120.769531 183.058594 120.679688 183.042969 120.589844 183.03125 C 119.171875 182.855469 117.785156 182.457031 116.558594 181.800781 C 115.953125 181.457031 115.367188 181.078125 114.863281 180.613281 C 114.613281 180.378906 114.375 180.136719 114.164062 179.875 C 114.054688 179.746094 113.960938 179.605469 113.863281 179.472656 C 113.777344 179.347656 113.679688 179.179688 113.636719 179.097656 L 113.605469 179.039062 C 113.457031 178.742188 113.121094 178.566406 112.78125 178.636719 C 112.417969 178.707031 112.171875 179.023438 112.171875 179.382812 C 112.171875 179.429688 112.175781 179.480469 112.183594 179.527344 C 112.328125 180.28125 112.511719 180.964844 112.707031 181.671875 C 112.902344 182.371094 113.125 183.058594 113.367188 183.742188 C 113.847656 185.109375 114.402344 186.445312 115.039062 187.75 C 115.667969 189.054688 116.375 190.320312 117.164062 191.539062 C 117.949219 192.761719 118.8125 193.9375 119.765625 195.03125 C 121.660156 197.242188 123.890625 199.179688 126.390625 200.691406 C 126.695312 200.890625 127.019531 201.066406 127.339844 201.238281 C 127.660156 201.410156 127.972656 201.597656 128.308594 201.75 C 128.496094 201.839844 128.683594 201.929688 128.875 202.019531 C 128.871094 202.023438 128.867188 202.027344 128.867188 202.027344 C 128.304688 203.292969 127.835938 204.59375 127.441406 205.910156 C 126.660156 208.546875 126.1875 211.269531 126.011719 214.011719 C 125.96875 214.625 125.949219 215.242188 125.945312 215.859375 L 106.898438 215.859375 C 106.949219 215.753906 107 215.648438 107.046875 215.542969 C 107.351562 214.84375 107.574219 214.113281 107.703125 213.375 C 107.957031 211.90625 107.921875 210.421875 107.691406 208.992188 C 107.472656 207.558594 107.066406 206.171875 106.535156 204.84375 C 105.472656 202.1875 103.921875 199.761719 102.070312 197.617188 C 101.609375 197.082031 101.128906 196.558594 100.628906 196.058594 C 100.125 195.558594 99.625 195.074219 99.054688 194.601562 C 97.941406 193.664062 96.691406 192.871094 95.359375 192.257812 C 92.6875 191.03125 89.71875 190.582031 86.851562 190.714844 C 84.5625 190.824219 82.320312 191.269531 80.164062 191.9375 C 79.976562 187.425781 79.957031 179.246094 81.058594 166.773438 C 82 156.117188 85.171875 150.6875 87.667969 148.007812 C 90.367188 145.109375 92.871094 144.714844 92.898438 144.714844 C 92.941406 144.707031 92.980469 144.683594 93 144.640625 C 93.023438 144.601562 93.027344 144.558594 93.011719 144.515625 C 92.988281 144.460938 90.714844 138.875 93.523438 132.707031 C 96.046875 127.171875 101.75 122.898438 110.484375 120.011719 C 116.878906 117.898438 122.285156 118.296875 126.554688 121.199219 C 129.785156 123.398438 131.988281 126.792969 133.484375 130.242188 C 134.800781 133.292969 135.566406 136.394531 136.011719 138.761719 C 135.609375 138.945312 135.210938 139.140625 134.820312 139.34375 C 133.441406 140.039062 132.144531 140.898438 130.929688 141.84375 C 129.699219 142.785156 128.613281 143.898438 127.625 145.089844 L 126.917969 146.011719 C 126.6875 146.324219 126.492188 146.660156 126.28125 146.984375 L 125.972656 147.476562 C 125.878906 147.648438 125.792969 147.820312 125.707031 147.996094 L 125.183594 149.03125 C 124.582031 150.332031 123.867188 151.582031 122.984375 152.707031 C 122.105469 153.828125 121.050781 154.820312 119.851562 155.59375 C 119.257812 155.988281 118.621094 156.316406 117.96875 156.597656 C 117.636719 156.726562 117.304688 156.855469 116.960938 156.953125 C 116.628906 157.046875 116.265625 157.144531 115.953125 157.183594 L 115.921875 157.183594 C 115.695312 157.214844 115.535156 157.414062 115.5625 157.640625 C 115.585938 157.867188 115.789062 158.03125 116.019531 158.007812 C 117.625 157.828125 119.046875 157.234375 120.390625 156.453125 C 121.71875 155.671875 122.90625 154.644531 123.90625 153.472656 C 124.910156 152.296875 125.738281 150.988281 126.4375 149.621094 L 126.960938 148.6875 C 127.046875 148.53125 127.128906 148.378906 127.222656 148.222656 L 127.523438 147.789062 C 127.734375 147.496094 127.921875 147.195312 128.140625 146.917969 L 128.828125 146.101562 C 129.78125 145.050781 130.816406 144.0625 131.988281 143.246094 C 133.152344 142.421875 134.378906 141.675781 135.679688 141.085938 C 135.898438 140.984375 136.121094 140.886719 136.339844 140.792969 C 136.433594 140.75 136.527344 140.710938 136.617188 140.671875 C 137.558594 140.28125 138.519531 139.945312 139.496094 139.679688 C 139.558594 139.664062 139.621094 139.644531 139.683594 139.628906 C 139.722656 139.621094 139.761719 139.609375 139.800781 139.597656 C 141.113281 139.273438 142.46875 139.0625 143.75 139.070312 L 143.859375 139.070312 C 145.128906 139.0625 146.46875 139.273438 147.773438 139.597656 C 147.8125 139.609375 147.851562 139.621094 147.886719 139.628906 C 147.949219 139.644531 148.015625 139.664062 148.078125 139.679688 C 149.058594 139.945312 150.015625 140.28125 150.957031 140.671875 C 151.050781 140.710938 151.140625 140.75 151.234375 140.792969 C 151.453125 140.886719 151.671875 140.984375 151.890625 141.085938 C 153.195312 141.675781 154.421875 142.421875 155.582031 143.246094 C 156.753906 144.0625 157.792969 145.050781 158.746094 146.101562 L 159.429688 146.917969 C 159.652344 147.195312 159.839844 147.496094 160.046875 147.789062 L 160.351562 148.222656 C 160.441406 148.378906 160.527344 148.53125 160.609375 148.6875 L 161.136719 149.621094 C 161.835938 150.988281 162.660156 152.296875 163.667969 153.472656 C 164.667969 154.644531 165.855469 155.671875 167.183594 156.453125 C 168.527344 157.234375 169.949219 157.828125 171.554688 158.007812 C 171.78125 158.03125 171.984375 157.871094 172.011719 157.648438 C 172.042969 157.417969 171.878906 157.214844 171.652344 157.183594 L 171.621094 157.183594 C 171.308594 157.144531 170.941406 157.046875 170.609375 156.953125 C 170.269531 156.855469 169.9375 156.726562 169.605469 156.597656 C 168.949219 156.316406 168.316406 155.988281 167.71875 155.59375 C 166.523438 154.820312 165.46875 153.828125 164.589844 152.707031 C 163.703125 151.582031 162.992188 150.332031 162.390625 149.03125 L 161.863281 147.996094 C 161.78125 147.820312 161.695312 147.648438 161.597656 147.476562 L 161.289062 146.984375 C 161.078125 146.660156 160.886719 146.324219 160.65625 146.011719 L 159.949219 145.089844 C 158.960938 143.898438 157.871094 142.785156 156.640625 141.84375 C 155.425781 140.898438 154.132812 140.039062 152.753906 139.34375 C 152.363281 139.140625 151.964844 138.945312 151.5625 138.761719 C 152.007812 136.394531 152.773438 133.292969 154.089844 130.242188 C 155.589844 126.792969 157.792969 123.398438 161.023438 121.199219 C 165.289062 118.296875 170.699219 117.898438 177.089844 120.011719 C 185.820312 122.898438 191.523438 127.167969 194.046875 132.699219 C 196.859375 138.867188 194.589844 144.460938 194.566406 144.515625 C 194.546875 144.558594 194.550781 144.601562 194.570312 144.640625 C 194.59375 144.683594 194.632812 144.707031 194.679688 144.714844 C 194.699219 144.714844 197.207031 145.109375 199.902344 148.007812 C 202.402344 150.6875 205.574219 156.117188 206.515625 166.773438 C 206.972656 171.949219 207.234375 176.390625 207.375 180.132812 " fill-opacity="1" fill-rule="nonzero"/><path fill="#737373" d="M 205.011719 121.980469 C 205.09375 123.367188 205.164062 124.757812 205.207031 126.140625 C 204.292969 124.613281 203.316406 123.121094 202.285156 121.667969 C 201.179688 108.394531 197.652344 72.125 191.871094 69.113281 C 191.203125 68.765625 190.429688 68.734375 189.574219 69.03125 C 183.4375 71.117188 174.074219 89.144531 170.457031 96.515625 C 169.964844 96.316406 169.472656 96.121094 168.972656 95.929688 C 168.253906 95.652344 167.523438 95.390625 166.792969 95.136719 C 167.511719 93.378906 168.285156 91.625 169.078125 89.890625 C 170.042969 87.78125 171.046875 85.695312 172.117188 83.644531 C 173.1875 81.589844 174.304688 79.5625 175.488281 77.585938 C 176.671875 75.605469 177.925781 73.671875 179.300781 71.839844 C 180.675781 70.019531 182.152344 68.273438 183.824219 66.816406 C 184.65625 66.09375 185.554688 65.453125 186.488281 64.988281 C 187.417969 64.535156 188.398438 64.261719 189.328125 64.351562 C 191.199219 64.460938 192.742188 66.15625 193.917969 68 C 195.109375 69.871094 196.019531 71.976562 196.828125 74.113281 C 198.410156 78.421875 199.550781 82.925781 200.523438 87.453125 C 201.492188 91.988281 202.246094 96.578125 202.902344 101.175781 C 203.542969 105.78125 204.09375 110.398438 204.496094 115.03125 C 204.695312 117.347656 204.871094 119.667969 205.011719 121.980469 " fill-opacity="1" fill-rule="nonzero"/><path fill="#8c52ff" d="M 198.890625 196.277344 C 200.6875 196.277344 202.144531 197.734375 202.144531 199.53125 C 202.144531 201.332031 200.6875 202.789062 198.890625 202.789062 C 197.09375 202.789062 195.636719 201.332031 195.636719 199.53125 C 195.636719 197.734375 197.09375 196.277344 198.890625 196.277344 " fill-opacity="1" fill-rule="nonzero"/><path fill="#ffffff" d="M 191.738281 69.371094 C 197.246094 72.242188 200.785156 107.628906 201.949219 121.199219 C 198.847656 116.90625 195.269531 112.957031 191.300781 109.445312 C 185.21875 104.070312 178.234375 99.726562 170.734375 96.628906 C 172.542969 92.960938 175.789062 86.636719 179.328125 80.976562 C 182.867188 75.3125 186.695312 70.3125 189.667969 69.300781 C 190.445312 69.039062 191.140625 69.058594 191.738281 69.371094 " fill-opacity="1" fill-rule="nonzero"/><path fill="#000000" d="M 174.679688 130.726562 C 178.96875 130.726562 182.445312 134.207031 182.445312 138.496094 C 182.445312 142.785156 178.96875 146.257812 174.679688 146.257812 C 170.390625 146.257812 166.914062 142.785156 166.914062 138.496094 C 166.914062 134.207031 170.390625 130.726562 174.679688 130.726562 " fill-opacity="1" fill-rule="nonzero"/><path fill="#000000" d="M 173.035156 182.460938 C 172.949219 182.722656 172.863281 182.980469 172.773438 183.238281 C 172.308594 184.550781 171.78125 185.839844 171.171875 187.089844 C 170.566406 188.339844 169.890625 189.554688 169.140625 190.722656 C 168.394531 191.890625 167.574219 193.007812 166.667969 194.054688 C 164.867188 196.15625 162.761719 197.984375 160.40625 199.417969 C 160.121094 199.609375 159.816406 199.765625 159.511719 199.933594 C 159.207031 200.09375 158.914062 200.273438 158.601562 200.417969 C 158.578125 200.429688 158.558594 200.4375 158.535156 200.449219 C 158.230469 199.734375 157.886719 199.03125 157.5 198.347656 C 157.164062 197.734375 156.769531 197.148438 156.34375 196.578125 C 155.894531 196.019531 155.402344 195.480469 154.804688 195.015625 C 154.214844 194.558594 153.480469 194.183594 152.652344 194.074219 C 152.285156 194.035156 151.9375 194.011719 151.578125 193.988281 C 151.222656 194 150.863281 193.976562 150.503906 194.011719 C 150.140625 194.046875 149.78125 194.078125 149.421875 194.160156 C 149.058594 194.214844 148.707031 194.332031 148.355469 194.441406 C 147.65625 194.695312 146.992188 195.050781 146.398438 195.5 C 145.609375 196.09375 144.992188 196.835938 144.472656 197.613281 C 144.308594 197.371094 144.140625 197.140625 143.957031 196.910156 C 143.492188 196.335938 142.964844 195.804688 142.363281 195.351562 C 141.167969 194.433594 139.621094 193.890625 138.101562 193.898438 C 137.339844 193.898438 136.59375 194.011719 135.878906 194.203125 C 135.105469 194.417969 134.425781 194.800781 133.816406 195.230469 C 132.601562 196.109375 131.683594 197.222656 130.882812 198.375 C 130.375 199.113281 129.921875 199.886719 129.515625 200.675781 C 129.335938 200.59375 129.15625 200.5 128.972656 200.417969 C 128.660156 200.273438 128.363281 200.09375 128.058594 199.933594 C 127.757812 199.765625 127.453125 199.609375 127.164062 199.417969 C 124.808594 197.984375 122.703125 196.15625 120.90625 194.054688 C 120 193.007812 119.183594 191.890625 118.429688 190.722656 C 117.683594 189.554688 117.003906 188.339844 116.398438 187.089844 C 115.796875 185.839844 115.265625 184.550781 114.800781 183.238281 C 114.710938 182.980469 114.621094 182.722656 114.539062 182.460938 C 114.921875 182.757812 115.320312 183.023438 115.730469 183.273438 C 117.152344 184.101562 118.730469 184.609375 120.308594 184.863281 L 120.609375 184.917969 L 120.902344 184.953125 L 121.5 185.015625 L 122.097656 185.082031 C 122.296875 185.097656 122.492188 185.097656 122.691406 185.105469 L 123.882812 185.136719 C 124.277344 185.125 124.671875 185.101562 125.066406 185.082031 C 125.460938 185.0625 125.851562 185.054688 126.253906 185 L 126.855469 184.929688 L 127.460938 184.828125 C 127.664062 184.796875 127.863281 184.753906 128.066406 184.703125 C 128.265625 184.65625 128.46875 184.609375 128.667969 184.550781 C 129.070312 184.425781 129.46875 184.304688 129.863281 184.132812 C 130.648438 183.808594 131.410156 183.363281 132.085938 182.820312 C 132.761719 182.28125 133.34375 181.648438 133.851562 181.019531 C 134.863281 179.746094 135.640625 178.507812 136.609375 177.601562 C 138.402344 175.832031 141.046875 175.25 143.785156 175.136719 C 143.789062 175.136719 143.789062 175.136719 143.792969 175.136719 C 146.53125 175.253906 149.175781 175.832031 150.964844 177.601562 C 151.933594 178.507812 152.707031 179.746094 153.722656 181.019531 C 154.230469 181.648438 154.8125 182.28125 155.488281 182.820312 C 156.164062 183.363281 156.925781 183.808594 157.707031 184.132812 C 158.101562 184.304688 158.507812 184.425781 158.902344 184.550781 C 159.105469 184.609375 159.308594 184.65625 159.507812 184.703125 C 159.710938 184.753906 159.910156 184.796875 160.109375 184.828125 L 160.71875 184.929688 L 161.316406 185 C 161.722656 185.054688 162.113281 185.0625 162.507812 185.082031 C 162.902344 185.101562 163.296875 185.125 163.691406 185.136719 L 164.882812 185.105469 C 165.082031 185.097656 165.277344 185.097656 165.476562 185.082031 L 166.074219 185.015625 L 166.667969 184.953125 L 166.964844 184.917969 L 167.261719 184.863281 C 168.84375 184.609375 170.417969 184.101562 171.839844 183.273438 C 172.25 183.023438 172.652344 182.757812 173.035156 182.460938 " fill-opacity="1" fill-rule="nonzero"/><path fill="#000000" d="M 147.449219 137.300781 L 143.785156 111.421875 L 140.125 137.300781 C 141.246094 137.015625 142.398438 136.816406 143.613281 136.765625 C 143.65625 136.761719 143.695312 136.757812 143.738281 136.757812 C 143.742188 136.757812 143.75 136.757812 143.753906 136.757812 L 143.785156 136.757812 C 143.839844 136.761719 143.890625 136.761719 143.941406 136.765625 C 145.160156 136.8125 146.320312 137.015625 147.449219 137.300781 Z M 171.652344 157.183594 C 171.878906 157.214844 172.042969 157.417969 172.011719 157.648438 C 171.984375 157.871094 171.78125 158.03125 171.554688 158.007812 C 169.949219 157.828125 168.527344 157.234375 167.183594 156.453125 C 165.855469 155.671875 164.667969 154.644531 163.667969 153.472656 C 162.660156 152.296875 161.835938 150.988281 161.136719 149.621094 L 160.609375 148.6875 C 160.527344 148.53125 160.441406 148.378906 160.351562 148.222656 L 160.046875 147.789062 C 159.839844 147.496094 159.652344 147.195312 159.429688 146.917969 L 158.746094 146.101562 C 157.792969 145.050781 156.753906 144.0625 155.582031 143.246094 C 154.421875 142.421875 153.195312 141.675781 151.890625 141.085938 C 151.671875 140.984375 151.453125 140.886719 151.234375 140.792969 C 151.140625 140.75 151.050781 140.710938 150.957031 140.671875 C 150.015625 140.28125 149.058594 139.945312 148.078125 139.679688 C 148.015625 139.664062 147.949219 139.644531 147.886719 139.628906 C 147.851562 139.621094 147.8125 139.609375 147.773438 139.597656 C 146.46875 139.273438 145.128906 139.0625 143.859375 139.070312 L 143.75 139.070312 C 142.46875 139.0625 141.113281 139.273438 139.800781 139.597656 C 139.761719 139.609375 139.722656 139.621094 139.683594 139.628906 C 139.621094 139.644531 139.558594 139.664062 139.496094 139.679688 C 138.519531 139.945312 137.558594 140.28125 136.617188 140.671875 C 136.527344 140.710938 136.433594 140.75 136.339844 140.792969 C 136.121094 140.886719 135.898438 140.984375 135.679688 141.085938 C 134.378906 141.675781 133.152344 142.421875 131.988281 143.246094 C 130.816406 144.0625 129.78125 145.050781 128.828125 146.101562 L 128.140625 146.917969 C 127.921875 147.195312 127.734375 147.496094 127.523438 147.789062 L 127.222656 148.222656 C 127.128906 148.378906 127.046875 148.53125 126.960938 148.6875 L 126.4375 149.621094 C 125.738281 150.988281 124.910156 152.296875 123.90625 153.472656 C 122.90625 154.644531 121.71875 155.671875 120.390625 156.453125 C 119.046875 157.234375 117.625 157.828125 116.019531 158.007812 C 115.789062 158.03125 115.585938 157.867188 115.5625 157.640625 C 115.535156 157.414062 115.695312 157.214844 115.921875 157.183594 L 115.953125 157.183594 C 116.265625 157.144531 116.628906 157.046875 116.960938 156.953125 C 117.304688 156.855469 117.636719 156.726562 117.96875 156.597656 C 118.621094 156.316406 119.257812 155.988281 119.851562 155.59375 C 121.050781 154.820312 122.105469 153.828125 122.984375 152.707031 C 123.867188 151.582031 124.582031 150.332031 125.183594 149.03125 L 125.707031 147.996094 C 125.792969 147.820312 125.878906 147.648438 125.972656 147.476562 L 126.28125 146.984375 C 126.492188 146.660156 126.6875 146.324219 126.917969 146.011719 L 127.625 145.089844 C 128.613281 143.898438 129.699219 142.785156 130.929688 141.84375 C 132.144531 140.898438 133.441406 140.039062 134.820312 139.34375 C 135.210938 139.140625 135.609375 138.945312 136.011719 138.761719 C 135.566406 136.394531 134.800781 133.292969 133.484375 130.242188 L 133.746094 130.132812 C 135.0625 133.175781 135.835938 136.265625 136.28125 138.640625 C 137.199219 138.230469 138.140625 137.875 139.105469 137.578125 C 139.34375 137.511719 139.582031 137.441406 139.820312 137.378906 L 143.574219 110.882812 C 143.582031 110.804688 143.652344 110.75 143.734375 110.761719 C 143.753906 110.761719 143.773438 110.769531 143.785156 110.78125 C 143.800781 110.769531 143.816406 110.761719 143.839844 110.761719 C 143.921875 110.75 143.992188 110.804688 144.003906 110.882812 L 147.753906 137.375 C 147.992188 137.441406 148.230469 137.511719 148.464844 137.578125 C 149.433594 137.875 150.375 138.234375 151.292969 138.640625 C 151.738281 136.265625 152.511719 133.175781 153.832031 130.132812 L 154.089844 130.242188 C 152.773438 133.292969 152.007812 136.394531 151.5625 138.761719 C 151.964844 138.945312 152.363281 139.140625 152.753906 139.34375 C 154.132812 140.039062 155.425781 140.898438 156.640625 141.84375 C 157.871094 142.785156 158.960938 143.898438 159.949219 145.089844 L 160.65625 146.011719 C 160.886719 146.324219 161.078125 146.660156 161.289062 146.984375 L 161.597656 147.476562 C 161.695312 147.648438 161.78125 147.820312 161.863281 147.996094 L 162.390625 149.03125 C 162.992188 150.332031 163.703125 151.582031 164.589844 152.707031 C 165.46875 153.828125 166.523438 154.820312 167.71875 155.59375 C 168.316406 155.988281 168.949219 156.316406 169.605469 156.597656 C 169.9375 156.726562 170.269531 156.855469 170.609375 156.953125 C 170.941406 157.046875 171.308594 157.144531 171.621094 157.183594 L 171.652344 157.183594 " fill-opacity="1" fill-rule="nonzero"/><path fill="#8c52ff" d="M 160.066406 215.859375 C 160.082031 217.402344 160.039062 218.964844 159.875 220.492188 C 159.53125 223.648438 158.683594 226.683594 156.824219 229.214844 C 155.34375 231.304688 153.316406 232.984375 151.023438 234.15625 C 149.882812 234.746094 148.667969 235.210938 147.425781 235.554688 C 146.1875 235.890625 144.902344 236.117188 143.660156 236.113281 C 141.09375 236.09375 138.515625 235.523438 136.261719 234.339844 C 134.007812 233.160156 132.113281 231.347656 130.78125 229.164062 C 129.433594 226.984375 128.597656 224.484375 128.09375 221.929688 C 128.003906 221.449219 127.925781 220.972656 127.863281 220.492188 C 127.65625 218.960938 127.5625 217.410156 127.585938 215.859375 C 127.589844 215.277344 127.613281 214.699219 127.652344 214.113281 C 127.828125 211.5 128.285156 208.898438 129.039062 206.386719 C 129.417969 205.132812 129.867188 203.90625 130.398438 202.71875 C 130.402344 202.707031 130.410156 202.695312 130.414062 202.683594 C 130.617188 202.230469 130.835938 201.785156 131.066406 201.34375 C 131.433594 200.644531 131.832031 199.972656 132.277344 199.332031 C 133.003906 198.289062 133.832031 197.308594 134.808594 196.617188 C 135.292969 196.273438 135.804688 195.996094 136.328125 195.855469 C 136.910156 195.699219 137.507812 195.617188 138.089844 195.621094 C 139.253906 195.628906 140.371094 196.03125 141.304688 196.746094 C 141.769531 197.105469 142.195312 197.535156 142.566406 198.011719 C 142.75 198.25 142.925781 198.5 143.082031 198.757812 C 143.160156 198.890625 143.238281 199.019531 143.304688 199.148438 C 143.347656 199.226562 143.386719 199.304688 143.421875 199.382812 L 143.738281 215.859375 L 143.824219 220.492188 L 143.9375 226.375 C 143.941406 226.582031 144.109375 226.75 144.316406 226.753906 C 144.527344 226.757812 144.703125 226.585938 144.707031 226.375 L 144.820312 220.492188 L 144.90625 215.859375 L 145.222656 199.171875 C 145.222656 199.113281 145.222656 199.0625 145.210938 199.003906 C 145.78125 198.058594 146.410156 197.210938 147.234375 196.59375 C 147.714844 196.230469 148.246094 195.957031 148.808594 195.75 C 149.097656 195.664062 149.382812 195.5625 149.691406 195.519531 C 149.984375 195.453125 150.292969 195.433594 150.601562 195.402344 C 150.910156 195.371094 151.222656 195.390625 151.53125 195.382812 C 151.847656 195.40625 152.171875 195.429688 152.472656 195.457031 C 152.980469 195.527344 153.492188 195.769531 153.957031 196.132812 C 154.421875 196.496094 154.839844 196.949219 155.230469 197.4375 C 155.605469 197.945312 155.960938 198.472656 156.269531 199.039062 C 156.632812 199.683594 156.953125 200.355469 157.246094 201.046875 C 157.441406 201.5 157.621094 201.964844 157.789062 202.433594 C 157.8125 202.492188 157.832031 202.550781 157.851562 202.609375 C 158.285156 203.84375 158.648438 205.109375 158.945312 206.398438 C 159.546875 208.964844 159.894531 211.601562 160.027344 214.234375 C 160.046875 214.773438 160.0625 215.316406 160.066406 215.859375 " fill-opacity="1" fill-rule="nonzero"/><path fill="#000000" d="M 156.601562 149.488281 C 156.917969 151.5 156.972656 153.539062 156.660156 155.503906 C 156.324219 157.566406 155.535156 159.527344 154.339844 161.21875 C 153.121094 162.90625 151.523438 164.316406 149.71875 165.414062 C 148.816406 165.964844 147.863281 166.441406 146.875 166.839844 C 146.386719 167.039062 145.886719 167.226562 145.378906 167.386719 C 145.128906 167.46875 144.875 167.542969 144.621094 167.609375 C 144.375 167.679688 144.097656 167.746094 143.886719 167.789062 L 143.863281 167.796875 C 143.835938 167.800781 143.8125 167.808594 143.785156 167.8125 C 143.761719 167.808594 143.738281 167.800781 143.710938 167.796875 L 143.683594 167.789062 C 143.472656 167.746094 143.199219 167.679688 142.953125 167.609375 C 142.699219 167.542969 142.441406 167.46875 142.191406 167.386719 C 141.6875 167.226562 141.1875 167.039062 140.695312 166.839844 C 139.710938 166.441406 138.757812 165.964844 137.855469 165.414062 C 136.046875 164.316406 134.449219 162.90625 133.234375 161.21875 C 132.039062 159.527344 131.246094 157.566406 130.914062 155.503906 C 130.769531 154.605469 130.707031 153.691406 130.707031 152.773438 C 130.707031 151.679688 130.800781 150.574219 130.972656 149.488281 L 131.046875 149.417969 C 131.160156 149.332031 131.253906 149.242188 131.378906 149.164062 C 131.609375 148.992188 131.871094 148.839844 132.128906 148.6875 C 132.40625 148.546875 132.667969 148.394531 132.957031 148.277344 L 133.386719 148.085938 C 133.53125 148.027344 133.679688 147.976562 133.824219 147.921875 L 134.269531 147.753906 L 134.722656 147.609375 C 135.03125 147.519531 135.332031 147.414062 135.648438 147.34375 C 135.960938 147.269531 136.269531 147.183594 136.582031 147.113281 L 137.539062 146.925781 C 137.855469 146.859375 138.175781 146.8125 138.5 146.769531 L 139.464844 146.625 C 140.117188 146.566406 140.769531 146.488281 141.421875 146.441406 C 142.078125 146.40625 142.734375 146.359375 143.390625 146.335938 L 143.785156 146.332031 L 144.183594 146.335938 C 144.839844 146.359375 145.496094 146.40625 146.152344 146.441406 C 146.804688 146.488281 147.457031 146.566406 148.105469 146.625 L 149.074219 146.769531 C 149.398438 146.8125 149.71875 146.859375 150.035156 146.925781 L 150.988281 147.113281 C 151.300781 147.183594 151.613281 147.269531 151.925781 147.34375 C 152.242188 147.414062 152.539062 147.519531 152.847656 147.609375 L 153.304688 147.753906 L 153.746094 147.921875 C 153.894531 147.976562 154.042969 148.027344 154.1875 148.085938 L 154.613281 148.277344 C 154.910156 148.394531 155.167969 148.546875 155.445312 148.6875 C 155.699219 148.839844 155.960938 148.992188 156.191406 149.164062 C 156.316406 149.242188 156.414062 149.332031 156.523438 149.417969 L 156.601562 149.488281 " fill-opacity="1" fill-rule="nonzero"/><path fill="#ffffff" d="M 143.785156 111.421875 L 147.449219 137.300781 C 146.320312 137.015625 145.160156 136.8125 143.941406 136.765625 C 143.890625 136.761719 143.839844 136.761719 143.785156 136.757812 L 143.753906 136.757812 C 143.75 136.757812 143.742188 136.757812 143.738281 136.757812 C 143.695312 136.757812 143.65625 136.761719 143.613281 136.765625 C 142.398438 136.816406 141.246094 137.015625 140.125 137.300781 L 143.785156 111.421875 " fill-opacity="1" fill-rule="nonzero"/><path fill="#737373" d="M 119.472656 89.890625 C 120.199219 91.480469 120.914062 93.085938 121.578125 94.695312 C 120.675781 94.996094 119.78125 95.324219 118.890625 95.664062 C 118.890625 95.660156 118.886719 95.660156 118.886719 95.65625 C 115.003906 87.832031 106.101562 71.042969 100.195312 69.03125 C 99.335938 68.734375 98.5625 68.765625 97.894531 69.113281 C 92.515625 71.917969 89.082031 103.539062 87.742188 118.605469 L 87.742188 118.609375 C 86.1875 120.59375 84.734375 122.660156 83.390625 124.796875 C 83.429688 123.859375 83.484375 122.917969 83.539062 121.980469 C 83.675781 119.667969 83.851562 117.347656 84.054688 115.03125 C 84.457031 110.398438 85.003906 105.78125 85.648438 101.175781 C 86.300781 96.578125 87.054688 91.988281 88.027344 87.453125 C 89 82.925781 90.140625 78.421875 91.722656 74.113281 C 92.527344 71.976562 93.441406 69.871094 94.628906 68 C 95.804688 66.15625 97.347656 64.460938 99.21875 64.351562 C 100.148438 64.261719 101.128906 64.535156 102.0625 64.988281 C 102.996094 65.453125 103.890625 66.09375 104.722656 66.816406 C 106.394531 68.273438 107.878906 70.019531 109.25 71.839844 C 110.621094 73.671875 111.875 75.605469 113.0625 77.585938 C 114.246094 79.5625 115.363281 81.589844 116.429688 83.644531 C 117.5 85.695312 118.507812 87.78125 119.472656 89.890625 " fill-opacity="1" fill-rule="nonzero"/><path fill="#000000" d="M 112.890625 130.726562 C 117.183594 130.726562 120.65625 134.207031 120.65625 138.496094 C 120.65625 142.785156 117.183594 146.257812 112.890625 146.257812 C 108.605469 146.257812 105.128906 142.785156 105.128906 138.496094 C 105.128906 134.207031 108.605469 130.726562 112.890625 130.726562 " fill-opacity="1" fill-rule="nonzero"/><path fill="#ffffff" d="M 118.605469 95.765625 C 118.605469 95.769531 118.609375 95.769531 118.609375 95.769531 C 118.292969 95.890625 117.976562 96.007812 117.660156 96.132812 C 109.53125 99.390625 102.019531 104.152344 95.601562 110.085938 C 92.890625 112.585938 90.378906 115.292969 88.085938 118.171875 C 89.46875 103.003906 92.890625 72.046875 98.027344 69.371094 C 98.625 69.058594 99.324219 69.035156 100.101562 69.300781 C 105.824219 71.253906 114.722656 87.976562 118.605469 95.765625 " fill-opacity="1" fill-rule="nonzero"/><path fill="#ffffff" d="M 105.792969 209.300781 C 106.015625 210.566406 106.058594 211.84375 105.875 213.070312 C 105.785156 213.683594 105.617188 214.273438 105.394531 214.832031 C 105.246094 215.195312 105.070312 215.539062 104.863281 215.859375 C 104.75 216.035156 104.625 216.203125 104.492188 216.359375 C 104.117188 216.8125 103.671875 217.191406 103.164062 217.507812 C 102.636719 217.835938 102.082031 218.097656 101.515625 218.253906 C 100.941406 218.414062 100.359375 218.464844 99.789062 218.40625 C 99.210938 218.347656 98.648438 218.164062 98.117188 217.890625 C 97.585938 217.621094 97.082031 217.253906 96.625 216.828125 C 96.398438 216.613281 96.179688 216.382812 95.972656 216.144531 C 95.898438 216.054688 95.820312 215.957031 95.746094 215.859375 C 95.625 215.707031 95.519531 215.554688 95.425781 215.414062 C 95.28125 215.175781 95 215.035156 94.707031 215.085938 C 94.339844 215.152344 94.09375 215.496094 94.144531 215.859375 C 94.144531 215.871094 94.144531 215.882812 94.148438 215.894531 L 94.148438 215.902344 C 94.226562 216.351562 94.285156 216.871094 94.3125 217.359375 C 94.34375 217.855469 94.347656 218.351562 94.332031 218.847656 C 94.308594 219.402344 94.25 219.953125 94.160156 220.492188 C 94.085938 220.917969 93.988281 221.335938 93.871094 221.746094 C 93.589844 222.671875 93.175781 223.542969 92.601562 224.285156 C 92.03125 225.03125 91.296875 225.628906 90.464844 226.070312 C 90.253906 226.179688 90.027344 226.277344 89.808594 226.378906 L 89.472656 226.53125 C 89.363281 226.578125 89.25 226.609375 89.132812 226.652344 C 88.902344 226.726562 88.679688 226.8125 88.445312 226.882812 L 87.746094 227.039062 C 86.808594 227.210938 85.847656 227.238281 84.917969 227.082031 C 83.984375 226.933594 83.078125 226.605469 82.265625 226.128906 C 82.0625 226.007812 81.855469 225.890625 81.675781 225.746094 C 81.480469 225.617188 81.300781 225.464844 81.128906 225.3125 C 80.796875 225.011719 80.472656 224.664062 80.292969 224.339844 C 80.136719 224.054688 79.808594 223.878906 79.464844 223.933594 C 79.023438 224 78.722656 224.414062 78.789062 224.851562 L 78.804688 224.949219 C 78.820312 225.03125 78.847656 225.175781 78.867188 225.296875 C 78.882812 225.421875 78.894531 225.550781 78.90625 225.679688 C 78.925781 225.9375 78.925781 226.195312 78.914062 226.453125 C 78.890625 226.96875 78.804688 227.472656 78.652344 227.949219 C 78.351562 228.902344 77.761719 229.71875 76.964844 230.328125 C 76.570312 230.636719 76.128906 230.886719 75.652344 231.101562 C 75.414062 231.207031 75.171875 231.304688 74.917969 231.386719 C 74.855469 231.40625 74.792969 231.433594 74.734375 231.449219 L 74.558594 231.496094 C 74.445312 231.515625 74.332031 231.558594 74.214844 231.570312 C 73.746094 231.660156 73.257812 231.644531 72.769531 231.589844 C 72.28125 231.511719 71.792969 231.390625 71.316406 231.195312 C 70.351562 230.824219 69.441406 230.242188 68.597656 229.5625 C 67.757812 228.882812 66.988281 228.089844 66.296875 227.230469 C 64.925781 225.507812 63.847656 223.53125 63.144531 221.445312 C 63.039062 221.128906 62.941406 220.8125 62.855469 220.492188 C 62.441406 218.972656 62.230469 217.40625 62.285156 215.859375 C 62.296875 215.578125 62.316406 215.300781 62.34375 215.023438 C 62.546875 212.839844 63.171875 210.695312 64.097656 208.675781 C 65.019531 206.65625 66.230469 204.746094 67.625 202.992188 C 68.339844 202.125 69.078125 201.269531 69.878906 200.484375 C 70.667969 199.703125 71.523438 198.933594 72.367188 198.324219 C 73.425781 197.578125 74.5625 196.902344 75.730469 196.296875 C 76.898438 195.6875 78.109375 195.152344 79.34375 194.6875 C 79.566406 194.605469 79.789062 194.523438 80.015625 194.449219 C 80.113281 194.414062 80.203125 194.378906 80.300781 194.347656 C 82.46875 193.617188 84.714844 193.121094 86.964844 193.003906 C 89.542969 192.867188 92.128906 193.25 94.433594 194.292969 C 95.589844 194.8125 96.664062 195.492188 97.652344 196.296875 C 98.140625 196.6875 98.632812 197.144531 99.101562 197.597656 C 99.578125 198.054688 100.027344 198.535156 100.46875 199.019531 C 102.21875 200.980469 103.679688 203.199219 104.6875 205.597656 C 105.191406 206.796875 105.578125 208.039062 105.792969 209.300781 " fill-opacity="1" fill-rule="nonzero"/><path fill="#ffffff" d="M 118.328125 134.472656 C 118.328125 135.996094 117.09375 137.230469 115.570312 137.230469 C 114.046875 137.230469 112.8125 135.996094 112.8125 134.472656 C 112.8125 132.945312 114.046875 131.714844 115.570312 131.714844 C 117.09375 131.714844 118.328125 132.945312 118.328125 134.472656 " fill-opacity="1" fill-rule="nonzero"/><path fill="#ffffff" d="M 180.195312 134.472656 C 180.195312 135.996094 178.960938 137.230469 177.4375 137.230469 C 175.914062 137.230469 174.679688 135.996094 174.679688 134.472656 C 174.679688 132.945312 175.914062 131.714844 177.4375 131.714844 C 178.960938 131.714844 180.195312 132.945312 180.195312 134.472656 " fill-opacity="1" fill-rule="nonzero"/><path fill="#8c52ff" d="M 240.15625 189.863281 C 240.15625 191.582031 238.757812 192.976562 237.039062 192.976562 C 235.320312 192.976562 233.925781 191.582031 233.925781 189.863281 C 233.925781 188.144531 235.320312 186.746094 237.039062 186.746094 C 238.757812 186.746094 240.15625 188.144531 240.15625 189.863281 " fill-opacity="1" fill-rule="nonzero"/></svg>