<svg xmlns="http://www.w3.org/2000/svg" xmlns:xlink="http://www.w3.org/1999/xlink" width="400" zoomAndPan="magnify" viewBox="0 0 300 299.999988" height="400" preserveAspectRatio="xMidYMid meet" version="1.0"><defs><clipPath id="ffb747a1a1"><path d="M 0 62.320312 L 300 62.320312 L 300 264.28125 L 0 264.28125 Z M 0 62.320312 " clip-rule="nonzero"/></clipPath></defs><path fill="#8c52ff" d="M 255.96875 210.171875 C 255.96875 212.242188 254.289062 213.921875 252.21875 213.921875 C 250.148438 213.921875 248.46875 212.242188 248.46875 210.171875 C 248.46875 208.097656 250.148438 206.421875 252.21875 206.421875 C 254.289062 206.421875 255.96875 208.097656 255.96875 210.171875 " fill-opacity="1" fill-rule="nonzero"/><g clip-path="url(#ffb747a1a1)"><path fill="#000000" d="M 101.933594 235.953125 C 102.144531 234.542969 102.097656 233.066406 101.835938 231.613281 C 101.589844 230.160156 101.148438 228.726562 100.566406 227.34375 C 99.40625 224.582031 97.722656 222.027344 95.707031 219.769531 C 95.199219 219.210938 94.679688 218.660156 94.136719 218.132812 C 93.589844 217.609375 93.027344 217.082031 92.464844 216.632812 C 91.328125 215.707031 90.089844 214.921875 88.757812 214.328125 C 86.101562 213.125 83.121094 212.683594 80.15625 212.839844 C 77.5625 212.976562 74.976562 213.546875 72.480469 214.390625 C 72.371094 214.425781 72.261719 214.464844 72.152344 214.503906 C 71.890625 214.589844 71.632812 214.683594 71.375 214.78125 C 69.957031 215.3125 68.5625 215.929688 67.21875 216.632812 C 65.871094 217.332031 64.5625 218.109375 63.339844 218.964844 C 62.371094 219.671875 61.386719 220.554688 60.476562 221.457031 C 59.554688 222.359375 58.707031 223.34375 57.882812 224.34375 C 56.273438 226.363281 54.878906 228.5625 53.816406 230.890625 C 52.753906 233.214844 52.035156 235.6875 51.796875 238.199219 C 51.765625 238.523438 51.746094 238.839844 51.730469 239.164062 C 51.667969 240.945312 51.910156 242.75 52.386719 244.496094 C 52.488281 244.871094 52.601562 245.234375 52.71875 245.597656 C 53.53125 248 54.769531 250.277344 56.351562 252.261719 C 57.148438 253.25 58.035156 254.164062 59 254.949219 C 59.96875 255.726562 61.019531 256.398438 62.128906 256.828125 C 62.679688 257.050781 63.242188 257.191406 63.804688 257.285156 C 64.367188 257.34375 64.929688 257.359375 65.46875 257.261719 C 65.605469 257.246094 65.734375 257.195312 65.867188 257.171875 L 66.066406 257.121094 C 66.136719 257.097656 66.210938 257.070312 66.277344 257.046875 C 66.574219 256.953125 66.847656 256.839844 67.125 256.71875 C 67.671875 256.472656 68.183594 256.179688 68.640625 255.828125 C 69.554688 255.128906 70.238281 254.1875 70.578125 253.089844 C 70.757812 252.539062 70.855469 251.957031 70.882812 251.367188 C 70.898438 251.066406 70.894531 250.773438 70.871094 250.472656 C 70.859375 250.324219 70.84375 250.179688 70.828125 250.03125 C 70.804688 249.894531 70.777344 249.726562 70.757812 249.636719 L 70.738281 249.519531 C 70.660156 249.015625 71.011719 248.539062 71.515625 248.460938 C 71.914062 248.402344 72.289062 248.601562 72.472656 248.933594 C 72.675781 249.304688 73.050781 249.703125 73.433594 250.050781 C 73.632812 250.226562 73.835938 250.402344 74.0625 250.550781 C 74.273438 250.71875 74.507812 250.851562 74.742188 250.992188 C 75.679688 251.542969 76.722656 251.917969 77.796875 252.089844 C 78.867188 252.269531 79.976562 252.238281 81.054688 252.039062 L 81.863281 251.859375 C 82.128906 251.777344 82.386719 251.679688 82.652344 251.59375 C 82.785156 251.546875 82.917969 251.507812 83.046875 251.453125 L 83.429688 251.277344 C 83.679688 251.160156 83.941406 251.046875 84.1875 250.925781 C 85.144531 250.414062 85.988281 249.726562 86.644531 248.867188 C 87.308594 248.015625 87.785156 247.011719 88.109375 245.945312 C 88.242188 245.46875 88.359375 244.992188 88.441406 244.496094 C 88.546875 243.878906 88.609375 243.242188 88.636719 242.605469 C 88.65625 242.035156 88.652344 241.460938 88.617188 240.890625 C 88.585938 240.328125 88.519531 239.730469 88.425781 239.214844 L 88.425781 239.203125 C 88.421875 239.191406 88.421875 239.175781 88.421875 239.164062 C 88.363281 238.746094 88.648438 238.351562 89.070312 238.273438 C 89.40625 238.214844 89.734375 238.375 89.902344 238.652344 C 90.003906 238.8125 90.128906 238.988281 90.269531 239.164062 C 90.355469 239.277344 90.445312 239.386719 90.53125 239.492188 C 90.769531 239.769531 91.019531 240.03125 91.28125 240.277344 C 91.804688 240.769531 92.386719 241.191406 92.996094 241.503906 C 93.609375 241.820312 94.261719 242.03125 94.921875 242.097656 C 95.582031 242.164062 96.253906 242.105469 96.910156 241.921875 C 97.566406 241.742188 98.203125 241.441406 98.8125 241.0625 C 99.398438 240.699219 99.90625 240.261719 100.339844 239.738281 C 100.492188 239.558594 100.636719 239.363281 100.769531 239.164062 C 101.007812 238.792969 101.210938 238.398438 101.382812 237.980469 C 101.636719 237.339844 101.828125 236.660156 101.933594 235.953125 Z M 120.019531 99.617188 C 119.253906 97.765625 118.433594 95.914062 117.597656 94.082031 C 116.480469 91.65625 115.324219 89.253906 114.089844 86.890625 C 112.863281 84.523438 111.574219 82.191406 110.210938 79.910156 C 108.84375 77.628906 107.398438 75.402344 105.820312 73.296875 C 104.242188 71.195312 102.535156 69.1875 100.609375 67.507812 C 99.648438 66.675781 98.617188 65.941406 97.542969 65.402344 C 96.464844 64.878906 95.335938 64.566406 94.269531 64.667969 C 92.113281 64.792969 90.335938 66.75 88.980469 68.871094 C 87.613281 71.023438 86.5625 73.449219 85.632812 75.914062 C 83.8125 80.871094 82.496094 86.058594 81.378906 91.277344 C 80.257812 96.5 79.390625 101.785156 78.640625 107.082031 C 77.894531 112.382812 77.265625 117.703125 76.800781 123.039062 C 76.570312 125.707031 76.367188 128.378906 76.207031 131.042969 C 76.144531 132.121094 76.085938 133.207031 76.039062 134.285156 C 77.585938 131.828125 79.257812 129.445312 81.050781 127.160156 L 81.050781 127.15625 C 82.59375 109.804688 86.546875 73.382812 92.746094 70.15625 C 93.515625 69.753906 94.402344 69.71875 95.390625 70.058594 C 102.191406 72.375 112.449219 91.714844 116.917969 100.722656 C 116.917969 100.726562 116.921875 100.726562 116.921875 100.730469 C 117.949219 100.339844 118.976562 99.964844 120.019531 99.617188 Z M 160.421875 169.648438 C 160.78125 167.386719 160.722656 165.039062 160.355469 162.722656 L 160.269531 162.644531 C 160.140625 162.542969 160.027344 162.441406 159.886719 162.347656 C 159.621094 162.152344 159.320312 161.976562 159.023438 161.800781 C 158.707031 161.640625 158.40625 161.464844 158.070312 161.328125 L 157.574219 161.105469 C 157.410156 161.042969 157.238281 160.980469 157.070312 160.917969 L 156.558594 160.722656 L 156.03125 160.558594 C 155.679688 160.453125 155.335938 160.332031 154.972656 160.253906 C 154.613281 160.167969 154.253906 160.070312 153.894531 159.988281 L 152.792969 159.769531 C 152.429688 159.695312 152.058594 159.644531 151.6875 159.589844 L 150.574219 159.425781 C 149.824219 159.355469 149.074219 159.269531 148.320312 159.214844 C 147.566406 159.171875 146.8125 159.117188 146.054688 159.09375 L 145.597656 159.085938 L 145.140625 159.09375 C 144.382812 159.117188 143.628906 159.171875 142.875 159.214844 C 142.121094 159.269531 141.371094 159.355469 140.621094 159.425781 L 139.507812 159.589844 C 139.136719 159.644531 138.765625 159.695312 138.402344 159.769531 L 137.300781 159.988281 C 136.941406 160.070312 136.585938 160.167969 136.222656 160.253906 C 135.863281 160.332031 135.515625 160.453125 135.160156 160.558594 L 134.636719 160.722656 L 134.125 160.917969 C 133.957031 160.980469 133.785156 161.042969 133.617188 161.105469 L 133.125 161.328125 C 132.792969 161.464844 132.488281 161.640625 132.171875 161.800781 C 131.875 161.976562 131.574219 162.152344 131.308594 162.347656 C 131.164062 162.441406 131.054688 162.542969 130.925781 162.644531 L 130.839844 162.722656 C 130.640625 163.976562 130.53125 165.246094 130.53125 166.507812 C 130.53125 167.5625 130.605469 168.617188 130.773438 169.648438 C 131.15625 172.027344 132.070312 174.285156 133.445312 176.234375 C 134.84375 178.175781 136.683594 179.800781 138.765625 181.066406 C 139.804688 181.699219 140.90625 182.246094 142.039062 182.707031 C 142.605469 182.9375 143.179688 183.15625 143.761719 183.335938 C 144.050781 183.429688 144.34375 183.519531 144.636719 183.59375 C 144.921875 183.675781 145.238281 183.753906 145.480469 183.800781 L 145.507812 183.808594 C 145.539062 183.816406 145.566406 183.820312 145.597656 183.828125 C 145.628906 183.820312 145.65625 183.816406 145.683594 183.808594 L 145.714844 183.800781 C 145.957031 183.753906 146.273438 183.675781 146.558594 183.59375 C 146.847656 183.519531 147.144531 183.429688 147.433594 183.335938 C 148.015625 183.15625 148.589844 182.9375 149.15625 182.707031 C 150.289062 182.246094 151.390625 181.699219 152.429688 181.066406 C 154.507812 179.800781 156.351562 178.175781 157.75 176.234375 C 159.128906 174.285156 160.039062 172.027344 160.421875 169.648438 Z M 164.125 244.496094 C 164.316406 242.738281 164.367188 240.941406 164.347656 239.164062 C 164.34375 238.539062 164.328125 237.914062 164.300781 237.292969 C 164.148438 234.257812 163.746094 231.226562 163.054688 228.265625 C 162.710938 226.785156 162.296875 225.328125 161.796875 223.902344 C 161.773438 223.835938 161.75 223.765625 161.722656 223.699219 C 161.53125 223.164062 161.324219 222.625 161.097656 222.101562 C 160.761719 221.308594 160.394531 220.53125 159.972656 219.792969 C 159.621094 219.140625 159.210938 218.53125 158.777344 217.949219 C 158.328125 217.386719 157.847656 216.859375 157.3125 216.441406 C 156.777344 216.027344 156.1875 215.746094 155.601562 215.667969 C 155.253906 215.632812 154.878906 215.605469 154.519531 215.582031 C 154.164062 215.589844 153.800781 215.566406 153.445312 215.605469 C 153.09375 215.636719 152.738281 215.660156 152.394531 215.738281 C 152.042969 215.789062 151.714844 215.90625 151.382812 216.003906 C 150.734375 216.238281 150.121094 216.558594 149.570312 216.976562 C 148.621094 217.6875 147.894531 218.664062 147.238281 219.753906 C 147.25 219.816406 147.253906 219.878906 147.253906 219.941406 L 146.886719 239.164062 L 146.789062 244.496094 L 146.65625 251.273438 C 146.652344 251.519531 146.453125 251.71875 146.207031 251.710938 C 145.96875 251.707031 145.773438 251.515625 145.769531 251.273438 L 145.640625 244.496094 L 145.539062 239.164062 L 145.175781 220.1875 C 145.136719 220.097656 145.089844 220.007812 145.042969 219.917969 C 144.964844 219.769531 144.878906 219.621094 144.785156 219.46875 C 144.605469 219.171875 144.402344 218.882812 144.191406 218.609375 C 143.765625 218.058594 143.273438 217.566406 142.738281 217.152344 C 141.664062 216.328125 140.378906 215.863281 139.035156 215.855469 C 138.363281 215.851562 137.675781 215.945312 137.007812 216.125 C 136.40625 216.285156 135.8125 216.609375 135.257812 217.003906 C 134.132812 217.800781 133.179688 218.929688 132.339844 220.128906 C 131.832031 220.867188 131.371094 221.640625 130.949219 222.445312 C 130.679688 222.953125 130.429688 223.46875 130.199219 223.988281 C 130.191406 224.003906 130.183594 224.015625 130.179688 224.03125 C 129.566406 225.398438 129.050781 226.8125 128.613281 228.257812 C 127.742188 231.144531 127.21875 234.140625 127.015625 237.15625 C 126.96875 237.824219 126.941406 238.496094 126.9375 239.164062 C 126.914062 240.949219 127.019531 242.734375 127.257812 244.496094 C 127.332031 245.054688 127.421875 245.605469 127.527344 246.15625 C 128.101562 249.097656 129.070312 251.976562 130.617188 254.488281 C 132.152344 257.003906 134.335938 259.089844 136.929688 260.449219 C 139.527344 261.8125 142.496094 262.464844 145.453125 262.488281 C 146.878906 262.492188 148.363281 262.238281 149.789062 261.847656 C 151.222656 261.453125 152.617188 260.917969 153.933594 260.238281 C 156.574219 258.886719 158.910156 256.949219 160.613281 254.546875 C 162.753906 251.628906 163.730469 248.132812 164.125 244.496094 Z M 178.980469 201.59375 C 179.085938 201.296875 179.183594 200.996094 179.28125 200.699219 C 178.84375 201.039062 178.378906 201.347656 177.910156 201.632812 C 176.269531 202.585938 174.457031 203.171875 172.632812 203.464844 L 172.292969 203.527344 L 171.953125 203.566406 L 171.265625 203.640625 L 170.578125 203.71875 C 170.347656 203.738281 170.125 203.734375 169.894531 203.746094 L 168.523438 203.78125 C 168.066406 203.769531 167.613281 203.742188 167.160156 203.71875 C 166.703125 203.695312 166.253906 203.6875 165.789062 203.625 L 165.097656 203.542969 L 164.398438 203.425781 C 164.167969 203.386719 163.9375 203.339844 163.703125 203.28125 C 163.472656 203.226562 163.238281 203.171875 163.007812 203.105469 C 162.550781 202.960938 162.085938 202.820312 161.632812 202.625 C 160.730469 202.25 159.851562 201.738281 159.074219 201.113281 C 158.296875 200.492188 157.625 199.765625 157.039062 199.039062 C 155.871094 197.570312 154.980469 196.144531 153.863281 195.101562 C 151.800781 193.066406 148.757812 192.398438 145.605469 192.265625 C 145.601562 192.265625 145.601562 192.265625 145.597656 192.265625 C 142.445312 192.394531 139.394531 193.066406 137.332031 195.101562 C 136.214844 196.144531 135.320312 197.570312 134.15625 199.039062 C 133.570312 199.765625 132.898438 200.492188 132.121094 201.113281 C 131.34375 201.738281 130.464844 202.25 129.5625 202.625 C 129.109375 202.820312 128.648438 202.960938 128.183594 203.105469 C 127.953125 203.171875 127.722656 203.226562 127.492188 203.28125 C 127.257812 203.339844 127.027344 203.386719 126.792969 203.425781 L 126.097656 203.542969 L 125.40625 203.625 C 124.941406 203.6875 124.492188 203.695312 124.035156 203.71875 C 123.582031 203.742188 123.128906 203.769531 122.675781 203.78125 L 121.300781 203.746094 C 121.070312 203.734375 120.847656 203.738281 120.617188 203.71875 L 119.929688 203.640625 L 119.242188 203.566406 L 118.902344 203.527344 L 118.558594 203.464844 C 116.738281 203.171875 114.921875 202.585938 113.285156 201.632812 C 112.8125 201.347656 112.351562 201.039062 111.910156 200.699219 C 112.007812 200.996094 112.109375 201.296875 112.214844 201.59375 C 112.746094 203.105469 113.359375 204.589844 114.054688 206.03125 C 114.753906 207.46875 115.53125 208.871094 116.394531 210.214844 C 117.257812 211.558594 118.203125 212.847656 119.246094 214.050781 C 121.316406 216.46875 123.742188 218.574219 126.453125 220.226562 C 126.785156 220.445312 127.136719 220.628906 127.484375 220.820312 C 127.835938 221.007812 128.175781 221.210938 128.535156 221.378906 C 128.746094 221.476562 128.953125 221.582031 129.160156 221.679688 C 129.628906 220.769531 130.148438 219.878906 130.734375 219.027344 C 131.660156 217.699219 132.714844 216.417969 134.113281 215.40625 C 134.8125 214.910156 135.597656 214.46875 136.492188 214.222656 C 137.3125 214 138.171875 213.871094 139.046875 213.871094 C 140.800781 213.859375 142.582031 214.488281 143.957031 215.542969 C 144.652344 216.066406 145.261719 216.679688 145.792969 217.339844 C 146.003906 217.601562 146.199219 217.871094 146.386719 218.148438 C 146.984375 217.253906 147.699219 216.402344 148.605469 215.714844 C 149.289062 215.195312 150.054688 214.789062 150.855469 214.496094 C 151.261719 214.371094 151.667969 214.238281 152.085938 214.171875 C 152.5 214.078125 152.917969 214.042969 153.332031 214.003906 C 153.75 213.960938 154.160156 213.984375 154.574219 213.976562 C 154.988281 214.003906 155.382812 214.03125 155.808594 214.074219 C 156.761719 214.199219 157.605469 214.628906 158.285156 215.160156 C 158.976562 215.691406 159.542969 216.3125 160.058594 216.957031 C 160.550781 217.613281 161.003906 218.289062 161.390625 218.996094 C 161.839844 219.78125 162.234375 220.59375 162.582031 221.414062 C 162.609375 221.402344 162.632812 221.394531 162.660156 221.378906 C 163.019531 221.210938 163.359375 221.007812 163.710938 220.820312 C 164.058594 220.628906 164.410156 220.445312 164.738281 220.226562 C 167.453125 218.574219 169.878906 216.46875 171.949219 214.050781 C 172.992188 212.847656 173.9375 211.558594 174.796875 210.214844 C 175.664062 208.871094 176.441406 207.46875 177.136719 206.03125 C 177.835938 204.589844 178.449219 203.105469 178.980469 201.59375 Z M 212.582031 130.140625 C 211.246094 114.511719 207.171875 73.757812 200.824219 70.449219 C 200.136719 70.09375 199.335938 70.066406 198.4375 70.371094 C 195.015625 71.535156 190.605469 77.292969 186.53125 83.816406 C 182.453125 90.335938 178.714844 97.621094 176.632812 101.84375 C 185.269531 105.410156 193.316406 110.414062 200.320312 116.601562 C 204.890625 120.648438 209.011719 125.195312 212.582031 130.140625 Z M 216.335938 135.832031 C 216.285156 134.238281 216.207031 132.636719 216.113281 131.042969 C 215.953125 128.378906 215.75 125.707031 215.515625 123.039062 C 215.054688 117.703125 214.421875 112.382812 213.679688 107.082031 C 212.925781 101.785156 212.058594 96.5 210.941406 91.277344 C 209.824219 86.058594 208.507812 80.871094 206.6875 75.914062 C 205.757812 73.449219 204.707031 71.023438 203.335938 68.871094 C 201.980469 66.75 200.203125 64.792969 198.050781 64.667969 C 196.980469 64.566406 195.851562 64.878906 194.777344 65.402344 C 193.699219 65.941406 192.667969 66.675781 191.710938 67.507812 C 189.785156 69.1875 188.082031 71.195312 186.5 73.296875 C 184.917969 75.402344 183.472656 77.628906 182.109375 79.910156 C 180.746094 82.191406 179.460938 84.523438 178.226562 86.890625 C 176.996094 89.253906 175.835938 91.65625 174.722656 94.082031 C 173.8125 96.078125 172.921875 98.101562 172.09375 100.125 C 172.933594 100.417969 173.773438 100.71875 174.605469 101.039062 C 175.179688 101.257812 175.75 101.484375 176.316406 101.714844 C 180.476562 93.222656 191.265625 72.464844 198.332031 70.058594 C 199.316406 69.71875 200.207031 69.753906 200.980469 70.15625 C 207.636719 73.621094 211.699219 115.394531 212.972656 130.683594 C 214.160156 132.355469 215.28125 134.074219 216.335938 135.832031 Z M 225.332031 197.769531 C 225.570312 197.828125 225.8125 197.894531 226.050781 197.972656 C 225.722656 193.339844 225.445312 188.703125 225.269531 184.046875 C 225.175781 181.566406 225.113281 179.078125 225.097656 176.59375 C 225.070312 175.355469 225.019531 174.15625 224.984375 172.9375 C 224.972656 172.632812 224.972656 172.324219 224.945312 172.023438 L 224.867188 171.117188 L 224.710938 169.300781 C 223.753906 159.621094 220.867188 150.160156 216.335938 141.574219 C 215.390625 139.785156 214.378906 138.03125 213.296875 136.324219 C 213.214844 136.195312 213.132812 136.066406 213.050781 135.933594 C 208.984375 129.585938 204.007812 123.824219 198.332031 118.867188 C 191.496094 112.898438 183.679688 108.054688 175.28125 104.632812 C 175.179688 104.59375 175.074219 104.550781 174.96875 104.507812 C 174.480469 104.3125 173.992188 104.121094 173.5 103.933594 C 164.429688 100.480469 154.738281 98.679688 145.039062 98.675781 C 137.703125 98.679688 130.375 99.757812 123.34375 101.839844 C 122.800781 101.996094 122.265625 102.160156 121.730469 102.328125 C 120.019531 102.878906 118.324219 103.484375 116.65625 104.152344 C 107.640625 107.730469 99.3125 113.015625 92.136719 119.558594 C 84.953125 126.101562 78.972656 133.960938 74.566406 142.625 C 70.164062 151.289062 67.351562 160.765625 66.390625 170.445312 L 66.238281 172.261719 C 66.191406 172.871094 66.121094 173.476562 66.117188 174.085938 L 66.003906 177.738281 C 65.988281 180.222656 65.9375 182.703125 65.871094 185.183594 C 65.730469 190.136719 65.515625 195.085938 65.285156 200.027344 C 65.058594 204.96875 64.839844 209.902344 64.722656 214.832031 C 64.722656 214.84375 64.722656 214.855469 64.722656 214.863281 C 65.132812 214.632812 65.550781 214.414062 65.964844 214.199219 C 67.410156 213.457031 68.90625 212.804688 70.4375 212.246094 C 70.949219 212.058594 71.46875 211.882812 71.992188 211.714844 C 71.773438 206.519531 71.742188 197.050781 73.019531 182.601562 C 74.113281 170.214844 77.824219 163.886719 80.746094 160.765625 C 83.488281 157.832031 86.011719 157.089844 86.738281 156.933594 C 86.324219 155.800781 84.421875 149.804688 87.40625 143.257812 C 90.351562 136.792969 96.988281 131.816406 107.136719 128.460938 C 114.605469 125.988281 120.929688 126.464844 125.933594 129.871094 C 129.71875 132.4375 132.292969 136.402344 134.03125 140.433594 L 133.730469 140.558594 C 132.007812 136.582031 129.472656 132.675781 125.75 130.140625 C 120.832031 126.800781 114.605469 126.339844 107.242188 128.777344 C 97.183594 132.097656 90.613281 137.019531 87.707031 143.394531 C 84.472656 150.5 87.089844 156.929688 87.117188 156.996094 C 87.136719 157.046875 87.132812 157.097656 87.105469 157.140625 C 87.082031 157.1875 87.039062 157.21875 86.988281 157.226562 C 86.957031 157.226562 84.070312 157.679688 80.964844 161.019531 C 78.09375 164.105469 74.4375 170.359375 73.351562 182.628906 C 72.082031 196.992188 72.105469 206.417969 72.324219 211.613281 C 74.804688 210.84375 77.386719 210.328125 80.023438 210.207031 C 83.328125 210.054688 86.746094 210.566406 89.820312 211.984375 C 91.359375 212.6875 92.796875 213.597656 94.082031 214.679688 C 94.734375 215.222656 95.308594 215.785156 95.890625 216.359375 C 96.464844 216.9375 97.019531 217.539062 97.554688 218.152344 C 99.683594 220.625 101.46875 223.417969 102.695312 226.476562 C 103.304688 228.007812 103.773438 229.601562 104.027344 231.257812 C 104.289062 232.902344 104.332031 234.613281 104.039062 236.304688 C 103.890625 237.152344 103.632812 237.992188 103.285156 238.796875 C 103.230469 238.921875 103.171875 239.042969 103.113281 239.164062 L 125.050781 239.164062 C 125.054688 238.453125 125.078125 237.742188 125.125 237.035156 C 125.328125 233.878906 125.871094 230.746094 126.773438 227.703125 C 127.226562 226.1875 127.765625 224.691406 128.414062 223.234375 C 128.414062 223.234375 128.417969 223.230469 128.421875 223.226562 C 128.203125 223.121094 127.984375 223.019531 127.769531 222.917969 C 127.382812 222.738281 127.023438 222.523438 126.65625 222.328125 C 126.285156 222.125 125.910156 221.925781 125.5625 221.695312 C 122.683594 219.953125 120.113281 217.722656 117.933594 215.175781 C 116.832031 213.914062 115.839844 212.5625 114.9375 211.152344 C 114.027344 209.75 113.214844 208.289062 112.484375 206.789062 C 111.757812 205.289062 111.117188 203.746094 110.5625 202.175781 C 110.285156 201.386719 110.027344 200.59375 109.800781 199.789062 C 109.578125 198.976562 109.367188 198.1875 109.199219 197.320312 C 109.191406 197.265625 109.183594 197.207031 109.183594 197.152344 C 109.183594 196.742188 109.46875 196.375 109.886719 196.292969 C 110.28125 196.210938 110.667969 196.414062 110.839844 196.757812 L 110.875 196.824219 C 110.921875 196.921875 111.035156 197.113281 111.132812 197.257812 C 111.246094 197.410156 111.351562 197.570312 111.480469 197.71875 C 111.722656 198.019531 112 198.300781 112.285156 198.570312 C 112.867188 199.105469 113.542969 199.542969 114.238281 199.9375 C 115.652344 200.695312 117.246094 201.152344 118.882812 201.351562 C 118.984375 201.367188 119.085938 201.386719 119.1875 201.402344 L 119.5 201.425781 L 120.117188 201.46875 L 120.738281 201.515625 C 120.945312 201.523438 121.15625 201.515625 121.363281 201.515625 L 122.613281 201.503906 C 123.03125 201.476562 123.453125 201.433594 123.871094 201.402344 C 124.289062 201.359375 124.714844 201.34375 125.113281 201.269531 L 125.722656 201.175781 L 126.316406 201.054688 C 126.515625 201.015625 126.707031 200.96875 126.898438 200.910156 C 127.089844 200.855469 127.28125 200.804688 127.472656 200.75 C 127.839844 200.609375 128.207031 200.488281 128.554688 200.316406 C 129.253906 200 129.882812 199.59375 130.453125 199.105469 C 131.027344 198.613281 131.535156 198.027344 132.019531 197.378906 C 132.992188 196.082031 133.902344 194.46875 135.292969 193.046875 C 136.660156 191.617188 138.480469 190.546875 140.324219 189.96875 C 141.472656 189.589844 142.625 189.347656 143.777344 189.1875 L 143.777344 185.769531 C 143.535156 185.703125 143.292969 185.632812 143.054688 185.554688 C 142.410156 185.351562 141.78125 185.117188 141.15625 184.867188 C 139.917969 184.355469 138.707031 183.757812 137.554688 183.050781 C 135.25 181.652344 133.15625 179.820312 131.550781 177.585938 C 130.757812 176.464844 130.101562 175.246094 129.578125 173.976562 C 129.042969 172.707031 128.722656 171.367188 128.480469 170.027344 C 128.050781 167.332031 128.15625 164.601562 128.609375 161.972656 L 128.609375 161.964844 C 128.636719 161.773438 128.71875 161.601562 128.832031 161.464844 L 128.929688 161.34375 L 129 161.269531 C 129.046875 161.222656 129.09375 161.167969 129.136719 161.128906 L 129.40625 160.882812 C 129.578125 160.742188 129.753906 160.582031 129.933594 160.464844 C 130.289062 160.199219 130.65625 159.980469 131.023438 159.761719 C 131.398438 159.570312 131.765625 159.351562 132.148438 159.195312 L 132.714844 158.941406 C 132.902344 158.859375 133.097656 158.789062 133.289062 158.71875 L 133.863281 158.496094 L 134.445312 158.3125 C 134.832031 158.191406 135.21875 158.058594 135.605469 157.96875 C 136 157.867188 136.390625 157.761719 136.78125 157.667969 L 137.957031 157.429688 C 138.351562 157.339844 138.746094 157.289062 139.140625 157.226562 L 140.320312 157.046875 C 141.109375 156.96875 141.898438 156.867188 142.6875 156.808594 C 142.835938 156.796875 142.988281 156.789062 143.136719 156.78125 C 143.777344 156.738281 144.417969 156.691406 145.054688 156.667969 L 145.597656 156.65625 L 146.140625 156.667969 C 146.777344 156.691406 147.414062 156.738281 148.054688 156.78125 C 148.203125 156.789062 148.359375 156.796875 148.507812 156.808594 C 149.296875 156.867188 150.082031 156.96875 150.871094 157.046875 L 152.058594 157.226562 C 152.449219 157.289062 152.84375 157.339844 153.238281 157.429688 L 154.414062 157.667969 C 154.804688 157.761719 155.195312 157.867188 155.585938 157.96875 C 155.976562 158.058594 156.363281 158.191406 156.75 158.3125 L 157.335938 158.496094 L 157.90625 158.71875 C 158.101562 158.789062 158.289062 158.859375 158.480469 158.941406 L 159.050781 159.195312 C 159.429688 159.351562 159.796875 159.570312 160.167969 159.761719 C 160.535156 159.980469 160.902344 160.199219 161.257812 160.464844 C 161.441406 160.582031 161.617188 160.742188 161.792969 160.882812 L 162.058594 161.128906 C 162.101562 161.167969 162.148438 161.222656 162.195312 161.269531 L 162.265625 161.34375 L 162.363281 161.464844 C 162.488281 161.609375 162.558594 161.785156 162.585938 161.960938 L 162.585938 161.972656 C 163.039062 164.601562 163.140625 167.332031 162.714844 170.027344 C 162.476562 171.367188 162.15625 172.707031 161.617188 173.976562 C 161.097656 175.246094 160.433594 176.464844 159.640625 177.585938 C 158.035156 179.820312 155.941406 181.652344 153.640625 183.050781 C 152.488281 183.757812 151.28125 184.355469 150.039062 184.867188 C 149.414062 185.117188 148.78125 185.351562 148.140625 185.554688 C 147.902344 185.632812 147.660156 185.703125 147.417969 185.769531 L 147.417969 189.1875 C 148.566406 189.347656 149.722656 189.589844 150.871094 189.96875 C 152.714844 190.546875 154.53125 191.617188 155.902344 193.046875 C 157.292969 194.46875 158.203125 196.082031 159.171875 197.378906 C 159.660156 198.027344 160.167969 198.613281 160.742188 199.105469 C 161.308594 199.59375 161.945312 200 162.644531 200.316406 C 162.988281 200.488281 163.355469 200.609375 163.726562 200.75 C 163.914062 200.804688 164.105469 200.855469 164.296875 200.910156 C 164.484375 200.96875 164.683594 201.015625 164.878906 201.054688 L 165.472656 201.175781 L 166.082031 201.269531 C 166.484375 201.34375 166.90625 201.359375 167.320312 201.402344 C 167.742188 201.433594 168.164062 201.476562 168.578125 201.503906 L 169.832031 201.515625 C 170.039062 201.515625 170.25 201.523438 170.457031 201.515625 L 171.074219 201.46875 L 171.695312 201.425781 L 172.007812 201.402344 C 172.109375 201.386719 172.210938 201.367188 172.3125 201.351562 C 173.949219 201.152344 175.542969 200.695312 176.957031 199.9375 C 177.65625 199.542969 178.328125 199.105469 178.910156 198.570312 C 179.195312 198.300781 179.472656 198.019531 179.714844 197.71875 C 179.84375 197.570312 179.949219 197.410156 180.0625 197.257812 C 180.160156 197.113281 180.273438 196.921875 180.320312 196.824219 L 180.355469 196.757812 C 180.570312 196.324219 181.097656 196.152344 181.527344 196.367188 C 181.886719 196.546875 182.070312 196.945312 181.992188 197.320312 C 181.828125 198.1875 181.621094 198.976562 181.390625 199.789062 C 181.164062 200.59375 180.90625 201.386719 180.632812 202.175781 C 180.078125 203.746094 179.4375 205.289062 178.707031 206.789062 C 177.980469 208.289062 177.164062 209.75 176.257812 211.152344 C 175.355469 212.5625 174.363281 213.914062 173.261719 215.175781 C 171.085938 217.722656 168.511719 219.953125 165.632812 221.695312 C 165.28125 221.925781 164.910156 222.125 164.542969 222.328125 C 164.167969 222.523438 163.808594 222.738281 163.425781 222.917969 C 163.355469 222.949219 163.285156 222.984375 163.21875 223.011719 C 163.257812 223.125 163.300781 223.238281 163.34375 223.351562 C 163.871094 224.84375 164.304688 226.359375 164.667969 227.886719 C 165.390625 230.953125 165.8125 234.074219 165.980469 237.210938 C 166.015625 237.859375 166.039062 238.515625 166.050781 239.164062 L 204.039062 239.164062 C 203.714844 238.390625 203.394531 237.617188 203.089844 236.832031 C 202.398438 235.0625 201.75 233.265625 201.230469 231.402344 C 200.96875 230.46875 200.746094 229.519531 200.585938 228.535156 C 200.429688 227.570312 200.332031 226.617188 200.257812 225.660156 C 200.113281 223.738281 200.070312 221.804688 200.234375 219.863281 C 200.402344 217.921875 200.722656 215.949219 201.558594 214.050781 C 201.976562 213.109375 202.539062 212.183594 203.316406 211.402344 C 204.089844 210.613281 205.097656 210.007812 206.171875 209.714844 C 207.25 209.410156 208.34375 209.398438 209.378906 209.523438 L 210.148438 209.636719 L 210.894531 209.816406 C 210.960938 209.832031 211.023438 209.847656 211.089844 209.859375 C 211.117188 209.683594 211.144531 209.511719 211.171875 209.335938 C 211.28125 208.722656 211.410156 208.121094 211.5625 207.519531 C 211.863281 206.320312 212.253906 205.136719 212.773438 204 C 213.039062 203.429688 213.332031 202.871094 213.664062 202.332031 C 213.996094 201.789062 214.367188 201.269531 214.789062 200.785156 C 215.195312 200.292969 215.679688 199.855469 216.179688 199.441406 C 216.699219 199.050781 217.25 198.691406 217.84375 198.417969 C 218.136719 198.269531 218.445312 198.167969 218.75 198.046875 C 218.777344 198.039062 218.804688 198.027344 218.832031 198.019531 C 218.671875 193.707031 218.367188 188.589844 217.84375 182.628906 C 216.757812 170.359375 213.105469 164.105469 210.226562 161.019531 C 207.121094 157.679688 204.234375 157.226562 204.210938 157.226562 C 204.15625 157.21875 204.113281 157.1875 204.085938 157.140625 C 204.0625 157.097656 204.058594 157.046875 204.082031 156.996094 C 204.109375 156.929688 206.722656 150.492188 203.484375 143.386719 C 200.578125 137.015625 194.007812 132.097656 183.953125 128.777344 C 176.59375 126.339844 170.363281 126.800781 165.449219 130.140625 C 161.726562 132.675781 159.191406 136.582031 157.464844 140.558594 L 157.164062 140.433594 C 158.90625 136.402344 161.476562 132.4375 165.257812 129.871094 C 170.265625 126.464844 176.589844 125.988281 184.058594 128.460938 C 194.207031 131.816406 200.847656 136.792969 203.789062 143.257812 C 206.773438 149.804688 204.871094 155.800781 204.460938 156.933594 C 205.183594 157.089844 207.707031 157.832031 210.453125 160.765625 C 213.367188 163.886719 217.078125 170.214844 218.175781 182.601562 C 218.699219 188.527344 219.003906 193.617188 219.164062 197.917969 C 219.335938 197.863281 219.507812 197.816406 219.683594 197.78125 C 220.324219 197.621094 220.929688 197.589844 221.554688 197.511719 C 222.800781 197.4375 224.082031 197.445312 225.332031 197.769531 Z M 260.296875 232.167969 C 260.421875 227.710938 260.378906 223.246094 260.101562 218.800781 C 259.957031 216.582031 259.753906 214.371094 259.4375 212.1875 C 259.105469 210.015625 258.691406 207.824219 257.914062 205.890625 C 257.710938 205.417969 257.488281 204.964844 257.226562 204.582031 C 257.097656 204.386719 256.957031 204.226562 256.820312 204.082031 L 256.710938 203.996094 C 256.675781 203.964844 256.644531 203.929688 256.585938 203.894531 L 256.277344 203.671875 C 255.445312 203.109375 254.53125 202.714844 253.59375 202.609375 C 252.660156 202.492188 251.703125 202.652344 250.8125 203.050781 C 250.367188 203.25 249.933594 203.5 249.535156 203.796875 C 249.332031 203.945312 249.132812 204.101562 248.945312 204.265625 C 248.765625 204.425781 248.570312 204.625 248.441406 204.765625 L 248.421875 204.785156 C 248.054688 205.164062 247.457031 205.167969 247.082031 204.808594 C 246.886719 204.617188 246.792969 204.363281 246.792969 204.109375 L 246.796875 203.953125 C 246.800781 203.898438 246.796875 203.832031 246.792969 203.769531 C 246.789062 203.648438 246.785156 203.519531 246.773438 203.394531 C 246.757812 203.140625 246.714844 202.882812 246.6875 202.632812 C 246.59375 202.125 246.484375 201.617188 246.3125 201.136719 C 245.980469 200.164062 245.488281 199.261719 244.84375 198.480469 C 244.210938 197.679688 243.378906 197.0625 242.496094 196.542969 L 241.808594 196.179688 C 241.574219 196.066406 241.320312 195.988281 241.082031 195.886719 C 240.585938 195.691406 240.109375 195.53125 239.625 195.460938 C 238.65625 195.28125 237.679688 195.386719 236.78125 195.753906 C 236.328125 195.929688 235.902344 196.191406 235.496094 196.488281 C 235.089844 196.785156 234.714844 197.136719 234.363281 197.519531 C 233.65625 198.277344 233.0625 199.175781 232.546875 200.113281 C 232.035156 201.050781 231.59375 202.082031 231.277344 203.0625 L 231.277344 203.066406 L 231.265625 203.105469 C 231.117188 203.539062 230.648438 203.773438 230.210938 203.628906 C 229.960938 203.542969 229.777344 203.347656 229.695312 203.117188 C 229.667969 203.046875 229.613281 202.910156 229.558594 202.804688 C 229.507812 202.6875 229.4375 202.574219 229.378906 202.460938 C 229.246094 202.234375 229.101562 202.011719 228.9375 201.800781 C 228.789062 201.582031 228.597656 201.394531 228.425781 201.191406 C 228.234375 201.007812 228.046875 200.8125 227.839844 200.648438 C 227.335938 200.238281 226.769531 199.90625 226.164062 199.644531 C 225.78125 199.476562 225.382812 199.34375 224.972656 199.242188 L 224.171875 199.078125 L 223.347656 199.003906 C 223.074219 198.96875 222.796875 199 222.519531 199 L 222.097656 199.003906 C 221.960938 199.003906 221.824219 199.011719 221.683594 199.035156 C 220.816406 199.125 219.984375 199.242188 219.21875 199.519531 C 219.105469 199.558594 219 199.605469 218.886719 199.652344 C 218.769531 199.703125 218.644531 199.765625 218.527344 199.828125 C 216.601562 200.777344 215.226562 202.636719 214.390625 204.699219 C 213.960938 205.738281 213.644531 206.828125 213.417969 207.941406 C 213.308594 208.5 213.21875 209.058594 213.152344 209.625 C 213.085938 210.179688 213.039062 210.773438 213.035156 211.285156 C 213.003906 211.855469 212.535156 212.300781 211.972656 212.300781 L 211.917969 212.300781 C 211.820312 212.296875 211.734375 212.28125 211.644531 212.253906 L 211.617188 212.242188 L 210.992188 212.039062 C 210.785156 211.96875 210.582031 211.898438 210.371094 211.859375 L 209.742188 211.707031 L 209.117188 211.613281 C 208.292969 211.511719 207.480469 211.53125 206.738281 211.738281 C 206.003906 211.9375 205.347656 212.328125 204.800781 212.878906 C 204.25 213.425781 203.808594 214.132812 203.464844 214.902344 C 202.773438 216.449219 202.457031 218.238281 202.300781 220.035156 C 202.144531 221.835938 202.179688 223.671875 202.3125 225.5 C 202.382812 226.410156 202.476562 227.332031 202.617188 228.222656 C 202.757812 229.09375 202.964844 229.976562 203.207031 230.851562 C 203.691406 232.613281 204.3125 234.363281 204.988281 236.09375 C 205.390625 237.121094 205.804688 238.144531 206.242188 239.164062 L 259.914062 239.164062 C 259.925781 239.054688 259.933594 238.949219 259.941406 238.839844 C 260.121094 236.625 260.234375 234.398438 260.296875 232.167969 Z M 322.863281 239.164062 C 324.332031 239.164062 325.527344 240.359375 325.527344 241.832031 C 325.527344 243.304688 324.332031 244.496094 322.863281 244.496094 L 165.820312 244.496094 C 165.75 245.214844 165.664062 245.925781 165.550781 246.636719 C 165.070312 249.796875 163.914062 252.910156 162.027344 255.550781 C 160.160156 258.203125 157.601562 260.332031 154.738281 261.804688 C 153.3125 262.542969 151.808594 263.128906 150.261719 263.558594 C 148.707031 263.984375 147.117188 264.273438 145.449219 264.28125 C 142.230469 264.261719 138.984375 263.566406 136.089844 262.058594 C 133.195312 260.558594 130.746094 258.21875 129.054688 255.460938 C 127.347656 252.703125 126.3125 249.621094 125.691406 246.507812 C 125.566406 245.839844 125.457031 245.171875 125.367188 244.496094 L 90.109375 244.496094 C 90.019531 245.140625 89.886719 245.78125 89.703125 246.414062 C 89.34375 247.644531 88.792969 248.847656 87.996094 249.898438 C 87.203125 250.957031 86.15625 251.828125 85.003906 252.453125 C 84.71875 252.601562 84.425781 252.726562 84.136719 252.867188 L 83.703125 253.070312 C 83.558594 253.128906 83.40625 253.179688 83.253906 253.234375 C 82.949219 253.339844 82.648438 253.453125 82.339844 253.546875 L 81.398438 253.769531 C 80.125 254.019531 78.800781 254.066406 77.507812 253.867188 C 76.214844 253.667969 74.960938 253.230469 73.824219 252.582031 C 73.542969 252.414062 73.257812 252.25 72.992188 252.050781 C 72.929688 252.007812 72.867188 251.960938 72.800781 251.917969 C 72.765625 252.503906 72.671875 253.089844 72.507812 253.667969 C 72.097656 255.15625 71.164062 256.527344 69.960938 257.488281 C 69.367188 257.972656 68.714844 258.371094 68.042969 258.691406 C 67.703125 258.851562 67.363281 259 67.015625 259.125 C 66.929688 259.152344 66.847656 259.191406 66.757812 259.21875 L 66.46875 259.300781 C 66.273438 259.351562 66.082031 259.417969 65.886719 259.449219 C 65.105469 259.613281 64.308594 259.617188 63.53125 259.550781 C 62.761719 259.449219 62.015625 259.273438 61.304688 259.011719 C 59.890625 258.5 58.640625 257.710938 57.5 256.824219 C 56.363281 255.933594 55.351562 254.917969 54.445312 253.820312 C 52.636719 251.625 51.222656 249.128906 50.269531 246.441406 C 50.046875 245.804688 49.851562 245.15625 49.679688 244.496094 L -17.339844 244.496094 C -18.8125 244.496094 -20.003906 243.304688 -20.003906 241.832031 C -20.003906 240.359375 -18.8125 239.164062 -17.339844 239.164062 L 49.050781 239.164062 C 49.0625 238.761719 49.082031 238.359375 49.125 237.957031 C 49.371094 235.105469 50.164062 232.332031 51.316406 229.761719 C 52.472656 227.183594 53.996094 224.804688 55.730469 222.621094 C 56.617188 221.539062 57.527344 220.480469 58.527344 219.5 C 59.53125 218.511719 60.542969 217.578125 61.753906 216.699219 C 62.085938 216.46875 62.421875 216.246094 62.761719 216.027344 C 62.761719 215.621094 62.761719 215.210938 62.765625 214.804688 C 62.808594 209.839844 62.949219 204.890625 63.097656 199.945312 C 63.246094 195 63.410156 190.0625 63.496094 185.128906 C 63.535156 182.660156 63.558594 180.199219 63.546875 177.734375 L 63.621094 173.972656 C 63.617188 173.347656 63.683594 172.71875 63.722656 172.09375 L 63.859375 170.214844 C 64.300781 165.207031 65.214844 160.242188 66.589844 155.402344 C 67.964844 150.558594 69.804688 145.859375 72.054688 141.355469 C 72.394531 140.675781 72.746094 140.003906 73.105469 139.332031 C 73.082031 139.230469 73.070312 139.117188 73.070312 139.007812 L 73.070312 138.988281 C 73.125 136.25 73.292969 133.558594 73.488281 130.859375 C 73.691406 128.167969 73.933594 125.476562 74.207031 122.792969 C 74.765625 117.421875 75.402344 112.066406 76.199219 106.726562 C 76.992188 101.390625 77.929688 96.070312 79.0625 90.785156 C 80.207031 85.496094 81.542969 80.230469 83.4375 75.097656 C 84.40625 72.535156 85.503906 70 87.023438 67.609375 C 87.207031 67.3125 87.40625 67.015625 87.617188 66.730469 C 87.820312 66.433594 88.042969 66.15625 88.269531 65.871094 C 88.488281 65.585938 88.75 65.316406 88.988281 65.042969 C 89.257812 64.785156 89.503906 64.511719 89.796875 64.269531 C 90.355469 63.765625 91.019531 63.328125 91.738281 62.976562 C 92.46875 62.625 93.261719 62.421875 94.066406 62.347656 C 94.867188 62.28125 95.675781 62.335938 96.429688 62.519531 C 97.1875 62.699219 97.90625 62.960938 98.574219 63.285156 C 99.90625 63.941406 101.082031 64.785156 102.15625 65.699219 C 104.300781 67.546875 106.097656 69.65625 107.757812 71.835938 C 111.050781 76.21875 113.851562 80.882812 116.429688 85.648438 C 117.707031 88.035156 118.949219 90.445312 120.136719 92.878906 C 121.082031 94.8125 121.992188 96.75 122.875 98.726562 C 130.0625 96.628906 137.542969 95.53125 145.039062 95.507812 C 153.234375 95.53125 161.417969 96.785156 169.238281 99.1875 C 170.1875 97.054688 171.164062 94.964844 172.183594 92.878906 C 173.371094 90.445312 174.609375 88.035156 175.890625 85.648438 C 178.46875 80.882812 181.265625 76.21875 184.5625 71.835938 C 186.222656 69.65625 188.019531 67.546875 190.160156 65.699219 C 191.234375 64.785156 192.410156 63.941406 193.742188 63.285156 C 194.414062 62.960938 195.132812 62.699219 195.886719 62.519531 C 196.640625 62.335938 197.453125 62.28125 198.253906 62.347656 C 199.054688 62.421875 199.855469 62.625 200.582031 62.976562 C 201.300781 63.328125 201.964844 63.765625 202.519531 64.269531 C 202.816406 64.511719 203.0625 64.785156 203.332031 65.042969 C 203.570312 65.316406 203.828125 65.585938 204.046875 65.871094 C 204.273438 66.15625 204.5 66.433594 204.699219 66.730469 C 204.914062 67.015625 205.109375 67.3125 205.296875 67.609375 C 206.816406 70 207.910156 72.535156 208.878906 75.097656 C 210.777344 80.230469 212.109375 85.496094 213.253906 90.785156 C 214.386719 96.070312 215.324219 101.390625 216.121094 106.726562 C 216.914062 112.066406 217.550781 117.421875 218.113281 122.792969 C 218.386719 125.476562 218.628906 128.167969 218.828125 130.859375 C 219.007812 133.328125 219.164062 138.167969 219.230469 141.070312 C 221.363281 145.296875 223.125 149.714844 224.457031 154.253906 C 225.867188 159.085938 226.796875 164.054688 227.242188 169.0625 L 227.382812 170.945312 L 227.449219 171.886719 C 227.472656 172.199219 227.472656 172.515625 227.480469 172.828125 C 227.503906 174.078125 227.542969 175.351562 227.550781 176.585938 C 227.542969 179.046875 227.574219 181.503906 227.640625 183.96875 C 227.777344 188.894531 228.027344 193.820312 228.292969 198.757812 C 228.296875 198.863281 228.304688 198.96875 228.308594 199.070312 C 228.480469 199.183594 228.652344 199.308594 228.8125 199.4375 C 229.074219 199.636719 229.3125 199.863281 229.550781 200.085938 C 229.773438 200.324219 230.007812 200.554688 230.203125 200.816406 C 230.234375 200.851562 230.261719 200.886719 230.285156 200.925781 C 230.519531 200.378906 230.773438 199.84375 231.054688 199.3125 C 231.617188 198.273438 232.269531 197.261719 233.097656 196.359375 C 233.507812 195.90625 233.957031 195.476562 234.464844 195.101562 C 234.964844 194.726562 235.511719 194.386719 236.109375 194.148438 C 237.296875 193.640625 238.660156 193.496094 239.914062 193.71875 C 240.546875 193.808594 241.152344 194.003906 241.707031 194.226562 C 241.992188 194.335938 242.277344 194.429688 242.554688 194.558594 L 243.371094 194.976562 C 244.429688 195.589844 245.453125 196.339844 246.238281 197.316406 C 247.039062 198.273438 247.648438 199.375 248.050781 200.542969 C 248.253906 201.089844 248.386719 201.660156 248.496094 202.230469 C 248.972656 201.886719 249.492188 201.582031 250.039062 201.332031 C 251.191406 200.804688 252.527344 200.558594 253.820312 200.71875 C 254.464844 200.792969 255.097656 200.960938 255.6875 201.195312 C 256.28125 201.429688 256.828125 201.738281 257.351562 202.082031 L 257.730469 202.34375 C 257.785156 202.382812 257.863281 202.445312 257.933594 202.507812 C 258.003906 202.566406 258.078125 202.628906 258.144531 202.691406 C 258.402344 202.945312 258.628906 203.210938 258.8125 203.484375 C 259.1875 204.027344 259.460938 204.585938 259.699219 205.144531 C 260.167969 206.261719 260.476562 207.382812 260.75 208.511719 C 261.007812 209.636719 261.214844 210.765625 261.390625 211.894531 C 261.730469 214.148438 261.949219 216.410156 262.105469 218.671875 C 262.410156 223.1875 262.484375 227.703125 262.378906 232.226562 C 262.328125 234.484375 262.226562 236.742188 262.054688 239.003906 C 262.050781 239.058594 262.050781 239.113281 262.042969 239.164062 Z M 81.445312 126.65625 C 84.085938 123.339844 86.976562 120.21875 90.101562 117.34375 C 97.492188 110.507812 106.148438 105.023438 115.507812 101.273438 C 115.871094 101.128906 116.238281 100.996094 116.601562 100.855469 C 116.601562 100.851562 116.597656 100.851562 116.597656 100.847656 C 112.121094 91.878906 101.875 72.617188 95.285156 70.371094 C 94.386719 70.0625 93.582031 70.09375 92.898438 70.449219 C 86.980469 73.535156 83.039062 109.183594 81.445312 126.65625 " fill-opacity="1" fill-rule="nonzero"/></g><path fill="#ffffff" d="M 212.8125 220.359375 C 212.8125 218.289062 211.132812 216.609375 209.0625 216.609375 C 206.992188 216.609375 205.3125 218.289062 205.3125 220.359375 C 205.3125 222.433594 206.992188 224.109375 209.0625 224.109375 C 211.132812 224.109375 212.8125 222.433594 212.8125 220.359375 Z M 225.328125 207.058594 C 225.328125 204.988281 223.652344 203.308594 221.578125 203.308594 C 220.726562 203.308594 219.941406 203.589844 219.3125 204.074219 C 219.195312 204.160156 219.082031 204.257812 218.980469 204.359375 C 218.269531 205.039062 217.828125 205.996094 217.828125 207.058594 C 217.828125 208.097656 218.25 209.035156 218.9375 209.71875 C 219.039062 209.820312 219.144531 209.917969 219.261719 210.003906 C 219.898438 210.507812 220.707031 210.808594 221.578125 210.808594 C 223.652344 210.808594 225.328125 209.128906 225.328125 207.058594 Z M 243.4375 203.308594 C 243.4375 201.238281 241.757812 199.558594 239.6875 199.558594 C 237.613281 199.558594 235.9375 201.238281 235.9375 203.308594 C 235.9375 205.378906 237.613281 207.058594 239.6875 207.058594 C 241.757812 207.058594 243.4375 205.378906 243.4375 203.308594 Z M 243.421875 224.941406 C 243.917969 219.058594 231.679688 212.09375 228.367188 212.609375 C 223.753906 213.335938 218.867188 224.777344 220.035156 229.941406 C 221.203125 235.109375 228.535156 233.5 232.476562 232.832031 C 236.421875 232.164062 242.917969 230.832031 243.421875 224.941406 Z M 260.101562 218.800781 C 260.378906 223.246094 260.421875 227.710938 260.296875 232.167969 C 260.234375 234.398438 260.121094 236.625 259.941406 238.839844 C 259.933594 238.949219 259.925781 239.054688 259.914062 239.164062 L 206.242188 239.164062 C 205.804688 238.144531 205.390625 237.121094 204.988281 236.09375 C 204.3125 234.363281 203.691406 232.613281 203.207031 230.851562 C 202.964844 229.976562 202.757812 229.09375 202.617188 228.222656 C 202.476562 227.332031 202.382812 226.410156 202.3125 225.5 C 202.179688 223.671875 202.144531 221.835938 202.300781 220.035156 C 202.457031 218.238281 202.773438 216.449219 203.464844 214.902344 C 203.808594 214.132812 204.25 213.425781 204.800781 212.878906 C 205.347656 212.328125 206.003906 211.9375 206.738281 211.738281 C 207.480469 211.53125 208.292969 211.511719 209.117188 211.613281 L 209.742188 211.707031 L 210.371094 211.859375 C 210.582031 211.898438 210.785156 211.96875 210.992188 212.039062 L 211.617188 212.242188 L 211.644531 212.253906 C 211.734375 212.28125 211.820312 212.296875 211.917969 212.300781 L 211.972656 212.300781 C 212.535156 212.300781 213.003906 211.855469 213.035156 211.285156 C 213.039062 210.773438 213.085938 210.179688 213.152344 209.625 C 213.21875 209.058594 213.308594 208.5 213.417969 207.941406 C 213.644531 206.828125 213.960938 205.738281 214.390625 204.699219 C 215.226562 202.636719 216.601562 200.777344 218.527344 199.828125 C 218.644531 199.765625 218.769531 199.703125 218.886719 199.652344 C 219 199.605469 219.105469 199.558594 219.21875 199.519531 C 219.984375 199.242188 220.816406 199.125 221.683594 199.035156 C 221.824219 199.011719 221.960938 199.003906 222.097656 199.003906 L 222.519531 199 C 222.796875 199 223.074219 198.96875 223.347656 199.003906 L 224.171875 199.078125 L 224.972656 199.242188 C 225.382812 199.34375 225.78125 199.476562 226.164062 199.644531 C 226.769531 199.90625 227.335938 200.238281 227.839844 200.648438 C 228.046875 200.8125 228.234375 201.007812 228.425781 201.191406 C 228.597656 201.394531 228.789062 201.582031 228.9375 201.800781 C 229.101562 202.011719 229.246094 202.234375 229.378906 202.460938 C 229.4375 202.574219 229.507812 202.6875 229.558594 202.804688 C 229.613281 202.910156 229.667969 203.046875 229.695312 203.117188 C 229.777344 203.347656 229.960938 203.542969 230.210938 203.628906 C 230.648438 203.773438 231.117188 203.539062 231.265625 203.105469 L 231.277344 203.066406 L 231.277344 203.0625 C 231.59375 202.082031 232.035156 201.050781 232.546875 200.113281 C 233.0625 199.175781 233.65625 198.277344 234.363281 197.519531 C 234.714844 197.136719 235.089844 196.785156 235.496094 196.488281 C 235.902344 196.191406 236.328125 195.929688 236.78125 195.753906 C 237.679688 195.386719 238.65625 195.28125 239.625 195.460938 C 240.109375 195.53125 240.585938 195.691406 241.082031 195.886719 C 241.320312 195.988281 241.574219 196.066406 241.808594 196.179688 L 242.496094 196.542969 C 243.378906 197.0625 244.210938 197.679688 244.84375 198.480469 C 245.488281 199.261719 245.980469 200.164062 246.3125 201.136719 C 246.484375 201.617188 246.59375 202.125 246.6875 202.632812 C 246.714844 202.882812 246.757812 203.140625 246.773438 203.394531 C 246.785156 203.519531 246.789062 203.648438 246.792969 203.769531 C 246.796875 203.832031 246.800781 203.898438 246.796875 203.953125 L 246.792969 204.109375 C 246.792969 204.363281 246.886719 204.617188 247.082031 204.808594 C 247.457031 205.167969 248.054688 205.164062 248.421875 204.785156 L 248.441406 204.765625 C 248.570312 204.625 248.765625 204.425781 248.945312 204.265625 C 249.132812 204.101562 249.332031 203.945312 249.535156 203.796875 C 249.933594 203.5 250.367188 203.25 250.8125 203.050781 C 251.703125 202.652344 252.660156 202.492188 253.59375 202.609375 C 254.53125 202.714844 255.445312 203.109375 256.277344 203.671875 L 256.585938 203.894531 C 256.644531 203.929688 256.675781 203.964844 256.710938 203.996094 L 256.820312 204.082031 C 256.957031 204.226562 257.097656 204.386719 257.226562 204.582031 C 257.488281 204.964844 257.710938 205.417969 257.914062 205.890625 C 258.691406 207.824219 259.105469 210.015625 259.4375 212.1875 C 259.753906 214.371094 259.957031 216.582031 260.101562 218.800781 " fill-opacity="1" fill-rule="nonzero"/><path fill="#8c52ff" d="M 228.367188 212.609375 C 231.679688 212.09375 243.917969 219.058594 243.421875 224.941406 C 242.917969 230.832031 236.421875 232.164062 232.476562 232.832031 C 228.535156 233.5 221.203125 235.109375 220.035156 229.941406 C 218.867188 224.777344 223.753906 213.335938 228.367188 212.609375 " fill-opacity="1" fill-rule="nonzero"/><path fill="#8c52ff" d="M 239.6875 199.558594 C 241.757812 199.558594 243.4375 201.238281 243.4375 203.308594 C 243.4375 205.378906 241.757812 207.058594 239.6875 207.058594 C 237.613281 207.058594 235.9375 205.378906 235.9375 203.308594 C 235.9375 201.238281 237.613281 199.558594 239.6875 199.558594 " fill-opacity="1" fill-rule="nonzero"/><path fill="#737373" d="M 226.050781 197.972656 C 225.8125 197.894531 225.570312 197.828125 225.332031 197.769531 C 224.082031 197.445312 222.800781 197.4375 221.554688 197.511719 C 220.929688 197.589844 220.324219 197.621094 219.683594 197.78125 C 219.507812 197.816406 219.335938 197.863281 219.164062 197.917969 C 219.003906 193.617188 218.699219 188.527344 218.175781 182.601562 C 217.078125 170.214844 213.367188 163.886719 210.453125 160.765625 C 207.707031 157.832031 205.183594 157.089844 204.460938 156.933594 C 204.871094 155.800781 206.773438 149.804688 203.789062 143.257812 C 200.847656 136.792969 194.207031 131.816406 184.058594 128.460938 C 176.589844 125.988281 170.265625 126.464844 165.257812 129.871094 C 161.476562 132.4375 158.90625 136.402344 157.164062 140.433594 C 155.644531 143.933594 154.757812 147.492188 154.242188 150.230469 C 153.1875 149.761719 152.101562 149.347656 150.988281 149.007812 C 150.714844 148.929688 150.441406 148.847656 150.167969 148.773438 L 145.847656 118.261719 C 145.835938 118.171875 145.75 118.105469 145.65625 118.121094 C 145.632812 118.121094 145.613281 118.128906 145.597656 118.144531 C 145.582031 118.128906 145.558594 118.121094 145.535156 118.121094 C 145.445312 118.105469 145.359375 118.171875 145.351562 118.261719 L 141.03125 148.777344 C 140.753906 148.847656 140.480469 148.929688 140.207031 149.007812 C 139.09375 149.347656 138.011719 149.757812 136.953125 150.230469 C 136.441406 147.492188 135.550781 143.933594 134.03125 140.433594 C 132.292969 136.402344 129.71875 132.4375 125.933594 129.871094 C 120.929688 126.464844 114.605469 125.988281 107.136719 128.460938 C 96.988281 131.816406 90.351562 136.792969 87.40625 143.257812 C 84.421875 149.804688 86.324219 155.800781 86.738281 156.933594 C 86.011719 157.089844 83.488281 157.832031 80.746094 160.765625 C 77.824219 163.886719 74.113281 170.214844 73.019531 182.601562 C 71.742188 197.050781 71.773438 206.519531 71.992188 211.714844 C 71.46875 211.882812 70.949219 212.058594 70.4375 212.246094 C 68.90625 212.804688 67.410156 213.457031 65.964844 214.199219 C 65.550781 214.414062 65.132812 214.632812 64.722656 214.863281 C 64.722656 214.855469 64.722656 214.84375 64.722656 214.832031 C 64.839844 209.902344 65.058594 204.96875 65.285156 200.027344 C 65.515625 195.085938 65.730469 190.136719 65.871094 185.183594 C 65.9375 182.703125 65.988281 180.222656 66.003906 177.738281 L 66.117188 174.085938 C 66.121094 173.476562 66.191406 172.871094 66.238281 172.261719 L 66.390625 170.445312 C 67.351562 160.765625 70.164062 151.289062 74.566406 142.625 C 78.972656 133.960938 84.953125 126.101562 92.136719 119.558594 C 99.3125 113.015625 107.640625 107.730469 116.65625 104.152344 C 118.324219 103.484375 120.019531 102.878906 121.730469 102.328125 C 122.265625 102.160156 122.800781 101.996094 123.34375 101.839844 C 130.375 99.757812 137.703125 98.679688 145.039062 98.675781 C 154.738281 98.679688 164.429688 100.480469 173.5 103.933594 C 173.992188 104.121094 174.480469 104.3125 174.96875 104.507812 C 175.074219 104.550781 175.179688 104.59375 175.28125 104.632812 C 183.679688 108.054688 191.496094 112.898438 198.332031 118.867188 C 204.007812 123.824219 208.984375 129.585938 213.050781 135.933594 C 213.132812 136.066406 213.214844 136.195312 213.296875 136.324219 C 214.378906 138.03125 215.390625 139.785156 216.335938 141.574219 C 220.867188 150.160156 223.753906 159.621094 224.710938 169.300781 L 224.867188 171.117188 L 224.945312 172.023438 C 224.972656 172.324219 224.972656 172.632812 224.984375 172.9375 C 225.019531 174.15625 225.070312 175.355469 225.097656 176.59375 C 225.113281 179.078125 225.175781 181.566406 225.269531 184.046875 C 225.445312 188.703125 225.722656 193.339844 226.050781 197.972656 " fill-opacity="1" fill-rule="nonzero"/><path fill="#8c52ff" d="M 221.578125 203.308594 C 223.652344 203.308594 225.328125 204.988281 225.328125 207.058594 C 225.328125 209.128906 223.652344 210.808594 221.578125 210.808594 C 220.707031 210.808594 219.898438 210.507812 219.261719 210.003906 C 219.144531 209.917969 219.039062 209.820312 218.9375 209.71875 C 218.25 209.035156 217.828125 208.097656 217.828125 207.058594 C 217.828125 205.996094 218.269531 205.039062 218.980469 204.359375 C 219.082031 204.257812 219.195312 204.160156 219.3125 204.074219 C 219.941406 203.589844 220.726562 203.308594 221.578125 203.308594 " fill-opacity="1" fill-rule="nonzero"/><path fill="#ffffff" d="M 118.960938 150.0625 C 118.960938 145.121094 114.957031 141.117188 110.015625 141.117188 C 105.078125 141.117188 101.074219 145.121094 101.074219 150.0625 C 101.074219 155 105.078125 159.003906 110.015625 159.003906 C 114.957031 159.003906 118.960938 155 118.960938 150.0625 Z M 190.121094 150.0625 C 190.121094 145.121094 186.117188 141.117188 181.179688 141.117188 C 176.238281 141.117188 172.234375 145.121094 172.234375 150.0625 C 172.234375 155 176.238281 159.003906 181.179688 159.003906 C 186.117188 159.003906 190.121094 155 190.121094 150.0625 Z M 218.832031 198.019531 C 218.804688 198.027344 218.777344 198.039062 218.75 198.046875 C 218.445312 198.167969 218.136719 198.269531 217.84375 198.417969 C 217.25 198.691406 216.699219 199.050781 216.179688 199.441406 C 215.679688 199.855469 215.195312 200.292969 214.789062 200.785156 C 214.367188 201.269531 213.996094 201.789062 213.664062 202.332031 C 213.332031 202.871094 213.039062 203.429688 212.773438 204 C 212.253906 205.136719 211.863281 206.320312 211.5625 207.519531 C 211.410156 208.121094 211.28125 208.722656 211.171875 209.335938 C 211.144531 209.511719 211.117188 209.683594 211.089844 209.859375 C 211.023438 209.847656 210.960938 209.832031 210.894531 209.816406 L 210.148438 209.636719 L 209.378906 209.523438 C 208.34375 209.398438 207.25 209.410156 206.171875 209.714844 C 205.097656 210.007812 204.089844 210.613281 203.316406 211.402344 C 202.539062 212.183594 201.976562 213.109375 201.558594 214.050781 C 200.722656 215.949219 200.402344 217.921875 200.234375 219.863281 C 200.070312 221.804688 200.113281 223.738281 200.257812 225.660156 C 200.332031 226.617188 200.429688 227.570312 200.585938 228.535156 C 200.746094 229.519531 200.96875 230.46875 201.230469 231.402344 C 201.75 233.265625 202.398438 235.0625 203.089844 236.832031 C 203.394531 237.617188 203.714844 238.390625 204.039062 239.164062 L 166.050781 239.164062 C 166.039062 238.515625 166.015625 237.859375 165.980469 237.210938 C 165.8125 234.074219 165.390625 230.953125 164.667969 227.886719 C 164.304688 226.359375 163.871094 224.84375 163.34375 223.351562 C 163.300781 223.238281 163.257812 223.125 163.21875 223.011719 C 163.285156 222.984375 163.355469 222.949219 163.425781 222.917969 C 163.808594 222.738281 164.167969 222.523438 164.542969 222.328125 C 164.910156 222.125 165.28125 221.925781 165.632812 221.695312 C 168.511719 219.953125 171.085938 217.722656 173.261719 215.175781 C 174.363281 213.914062 175.355469 212.5625 176.257812 211.152344 C 177.164062 209.75 177.980469 208.289062 178.707031 206.789062 C 179.4375 205.289062 180.078125 203.746094 180.632812 202.175781 C 180.90625 201.386719 181.164062 200.59375 181.390625 199.789062 C 181.621094 198.976562 181.828125 198.1875 181.992188 197.320312 C 182.070312 196.945312 181.886719 196.546875 181.527344 196.367188 C 181.097656 196.152344 180.570312 196.324219 180.355469 196.757812 L 180.320312 196.824219 C 180.273438 196.921875 180.160156 197.113281 180.0625 197.257812 C 179.949219 197.410156 179.84375 197.570312 179.714844 197.71875 C 179.472656 198.019531 179.195312 198.300781 178.910156 198.570312 C 178.328125 199.105469 177.65625 199.542969 176.957031 199.9375 C 175.542969 200.695312 173.949219 201.152344 172.3125 201.351562 C 172.210938 201.367188 172.109375 201.386719 172.007812 201.402344 L 171.695312 201.425781 L 171.074219 201.46875 L 170.457031 201.515625 C 170.25 201.523438 170.039062 201.515625 169.832031 201.515625 L 168.578125 201.503906 C 168.164062 201.476562 167.742188 201.433594 167.320312 201.402344 C 166.90625 201.359375 166.484375 201.34375 166.082031 201.269531 L 165.472656 201.175781 L 164.878906 201.054688 C 164.683594 201.015625 164.484375 200.96875 164.296875 200.910156 C 164.105469 200.855469 163.914062 200.804688 163.726562 200.75 C 163.355469 200.609375 162.988281 200.488281 162.644531 200.316406 C 161.945312 200 161.308594 199.59375 160.742188 199.105469 C 160.167969 198.613281 159.660156 198.027344 159.171875 197.378906 C 158.203125 196.082031 157.292969 194.46875 155.902344 193.046875 C 154.53125 191.617188 152.714844 190.546875 150.871094 189.96875 C 149.722656 189.589844 148.566406 189.347656 147.417969 189.1875 L 147.417969 185.769531 C 147.660156 185.703125 147.902344 185.632812 148.140625 185.554688 C 148.78125 185.351562 149.414062 185.117188 150.039062 184.867188 C 151.28125 184.355469 152.488281 183.757812 153.640625 183.050781 C 155.941406 181.652344 158.035156 179.820312 159.640625 177.585938 C 160.433594 176.464844 161.097656 175.246094 161.617188 173.976562 C 162.15625 172.707031 162.476562 171.367188 162.714844 170.027344 C 163.140625 167.332031 163.039062 164.601562 162.585938 161.972656 L 162.585938 161.960938 C 162.558594 161.785156 162.488281 161.609375 162.363281 161.464844 L 162.265625 161.34375 L 162.195312 161.269531 C 162.148438 161.222656 162.101562 161.167969 162.058594 161.128906 L 161.792969 160.882812 C 161.617188 160.742188 161.441406 160.582031 161.257812 160.464844 C 160.902344 160.199219 160.535156 159.980469 160.167969 159.761719 C 159.796875 159.570312 159.429688 159.351562 159.050781 159.195312 L 158.480469 158.941406 C 158.289062 158.859375 158.101562 158.789062 157.90625 158.71875 L 157.335938 158.496094 L 156.75 158.3125 C 156.363281 158.191406 155.976562 158.058594 155.585938 157.96875 C 155.195312 157.867188 154.804688 157.761719 154.414062 157.667969 L 153.238281 157.429688 C 152.84375 157.339844 152.449219 157.289062 152.058594 157.226562 L 150.871094 157.046875 C 150.082031 156.96875 149.296875 156.867188 148.507812 156.808594 C 148.359375 156.796875 148.203125 156.789062 148.054688 156.78125 C 147.414062 156.738281 146.777344 156.691406 146.140625 156.667969 L 145.597656 156.65625 L 145.054688 156.667969 C 144.417969 156.691406 143.777344 156.738281 143.136719 156.78125 C 142.988281 156.789062 142.835938 156.796875 142.6875 156.808594 C 141.898438 156.867188 141.109375 156.96875 140.320312 157.046875 L 139.140625 157.226562 C 138.746094 157.289062 138.351562 157.339844 137.957031 157.429688 L 136.78125 157.667969 C 136.390625 157.761719 136 157.867188 135.605469 157.96875 C 135.21875 158.058594 134.832031 158.191406 134.445312 158.3125 L 133.863281 158.496094 L 133.289062 158.71875 C 133.097656 158.789062 132.902344 158.859375 132.714844 158.941406 L 132.148438 159.195312 C 131.765625 159.351562 131.398438 159.570312 131.023438 159.761719 C 130.65625 159.980469 130.289062 160.199219 129.933594 160.464844 C 129.753906 160.582031 129.578125 160.742188 129.40625 160.882812 L 129.136719 161.128906 C 129.09375 161.167969 129.046875 161.222656 129 161.269531 L 128.929688 161.34375 L 128.832031 161.464844 C 128.71875 161.601562 128.636719 161.773438 128.609375 161.964844 L 128.609375 161.972656 C 128.15625 164.601562 128.050781 167.332031 128.480469 170.027344 C 128.722656 171.367188 129.042969 172.707031 129.578125 173.976562 C 130.101562 175.246094 130.757812 176.464844 131.550781 177.585938 C 133.15625 179.820312 135.25 181.652344 137.554688 183.050781 C 138.707031 183.757812 139.917969 184.355469 141.15625 184.867188 C 141.78125 185.117188 142.410156 185.351562 143.054688 185.554688 C 143.292969 185.632812 143.535156 185.703125 143.777344 185.769531 L 143.777344 189.1875 C 142.625 189.347656 141.472656 189.589844 140.324219 189.96875 C 138.480469 190.546875 136.660156 191.617188 135.292969 193.046875 C 133.902344 194.46875 132.992188 196.082031 132.019531 197.378906 C 131.535156 198.027344 131.027344 198.613281 130.453125 199.105469 C 129.882812 199.59375 129.253906 200 128.554688 200.316406 C 128.207031 200.488281 127.839844 200.609375 127.472656 200.75 C 127.28125 200.804688 127.089844 200.855469 126.898438 200.910156 C 126.707031 200.96875 126.515625 201.015625 126.316406 201.054688 L 125.722656 201.175781 L 125.113281 201.269531 C 124.714844 201.34375 124.289062 201.359375 123.871094 201.402344 C 123.453125 201.433594 123.03125 201.476562 122.613281 201.503906 L 121.363281 201.515625 C 121.15625 201.515625 120.945312 201.523438 120.738281 201.515625 L 120.117188 201.46875 L 119.5 201.425781 L 119.1875 201.402344 C 119.085938 201.386719 118.984375 201.367188 118.882812 201.351562 C 117.246094 201.152344 115.652344 200.695312 114.238281 199.9375 C 113.542969 199.542969 112.867188 199.105469 112.285156 198.570312 C 112 198.300781 111.722656 198.019531 111.480469 197.71875 C 111.351562 197.570312 111.246094 197.410156 111.132812 197.257812 C 111.035156 197.113281 110.921875 196.921875 110.875 196.824219 L 110.839844 196.757812 C 110.667969 196.414062 110.28125 196.210938 109.886719 196.292969 C 109.46875 196.375 109.183594 196.742188 109.183594 197.152344 C 109.183594 197.207031 109.191406 197.265625 109.199219 197.320312 C 109.367188 198.1875 109.578125 198.976562 109.800781 199.789062 C 110.027344 200.59375 110.285156 201.386719 110.5625 202.175781 C 111.117188 203.746094 111.757812 205.289062 112.484375 206.789062 C 113.214844 208.289062 114.027344 209.75 114.9375 211.152344 C 115.839844 212.5625 116.832031 213.914062 117.933594 215.175781 C 120.113281 217.722656 122.683594 219.953125 125.5625 221.695312 C 125.910156 221.925781 126.285156 222.125 126.65625 222.328125 C 127.023438 222.523438 127.382812 222.738281 127.769531 222.917969 C 127.984375 223.019531 128.203125 223.121094 128.421875 223.226562 C 128.417969 223.230469 128.414062 223.234375 128.414062 223.234375 C 127.765625 224.691406 127.226562 226.1875 126.773438 227.703125 C 125.871094 230.746094 125.328125 233.878906 125.125 237.035156 C 125.078125 237.742188 125.054688 238.453125 125.050781 239.164062 L 103.113281 239.164062 C 103.171875 239.042969 103.230469 238.921875 103.285156 238.796875 C 103.632812 237.992188 103.890625 237.152344 104.039062 236.304688 C 104.332031 234.613281 104.289062 232.902344 104.027344 231.257812 C 103.773438 229.601562 103.304688 228.007812 102.695312 226.476562 C 101.46875 223.417969 99.683594 220.625 97.554688 218.152344 C 97.019531 217.539062 96.464844 216.9375 95.890625 216.359375 C 95.308594 215.785156 94.734375 215.222656 94.082031 214.679688 C 92.796875 213.597656 91.359375 212.6875 89.820312 211.984375 C 86.746094 210.566406 83.328125 210.054688 80.023438 210.207031 C 77.386719 210.328125 74.804688 210.84375 72.324219 211.613281 C 72.105469 206.417969 72.082031 196.992188 73.351562 182.628906 C 74.4375 170.359375 78.09375 164.105469 80.964844 161.019531 C 84.070312 157.679688 86.957031 157.226562 86.988281 157.226562 C 87.039062 157.21875 87.082031 157.1875 87.105469 157.140625 C 87.132812 157.097656 87.136719 157.046875 87.117188 156.996094 C 87.089844 156.929688 84.472656 150.5 87.707031 143.394531 C 90.613281 137.019531 97.183594 132.097656 107.242188 128.777344 C 114.605469 126.339844 120.832031 126.800781 125.75 130.140625 C 129.472656 132.675781 132.007812 136.582031 133.730469 140.558594 C 135.246094 144.070312 136.132812 147.640625 136.640625 150.371094 C 136.175781 150.582031 135.722656 150.804688 135.269531 151.039062 C 133.679688 151.839844 132.191406 152.832031 130.792969 153.921875 C 129.375 155 128.121094 156.285156 126.980469 157.65625 L 126.167969 158.71875 C 125.90625 159.082031 125.679688 159.46875 125.4375 159.839844 L 125.082031 160.40625 C 124.972656 160.605469 124.875 160.804688 124.773438 161.003906 L 124.171875 162.199219 C 123.480469 163.695312 122.65625 165.132812 121.636719 166.429688 C 120.625 167.722656 119.414062 168.863281 118.03125 169.757812 C 117.347656 170.207031 116.617188 170.585938 115.863281 170.914062 C 115.480469 171.058594 115.097656 171.207031 114.703125 171.324219 C 114.320312 171.429688 113.898438 171.539062 113.542969 171.582031 L 113.507812 171.585938 C 113.246094 171.621094 113.058594 171.851562 113.089844 172.113281 C 113.121094 172.371094 113.351562 172.5625 113.617188 172.53125 C 115.464844 172.328125 117.105469 171.644531 118.648438 170.746094 C 120.183594 169.84375 121.550781 168.664062 122.703125 167.3125 C 123.859375 165.960938 124.808594 164.449219 125.617188 162.878906 L 126.21875 161.800781 C 126.320312 161.625 126.410156 161.441406 126.519531 161.265625 L 126.867188 160.765625 C 127.109375 160.429688 127.324219 160.085938 127.578125 159.761719 L 128.367188 158.820312 C 129.46875 157.613281 130.660156 156.476562 132.011719 155.535156 C 133.347656 154.582031 134.761719 153.726562 136.261719 153.042969 C 136.515625 152.925781 136.765625 152.816406 137.019531 152.707031 C 137.128906 152.65625 137.234375 152.613281 137.339844 152.570312 C 138.425781 152.117188 139.53125 151.730469 140.65625 151.429688 C 140.726562 151.40625 140.800781 151.386719 140.875 151.367188 C 140.917969 151.355469 140.960938 151.34375 141.003906 151.332031 C 142.519531 150.957031 144.082031 150.714844 145.554688 150.726562 L 145.679688 150.726562 C 147.144531 150.71875 148.6875 150.960938 150.191406 151.332031 C 150.234375 151.34375 150.277344 151.355469 150.320312 151.367188 C 150.394531 151.386719 150.464844 151.40625 150.539062 151.429688 C 151.667969 151.730469 152.773438 152.117188 153.855469 152.570312 C 153.960938 152.613281 154.066406 152.65625 154.171875 152.707031 C 154.425781 152.816406 154.679688 152.925781 154.933594 153.042969 C 156.433594 153.726562 157.847656 154.582031 159.183594 155.535156 C 160.535156 156.476562 161.730469 157.613281 162.828125 158.820312 L 163.617188 159.761719 C 163.867188 160.085938 164.085938 160.429688 164.328125 160.765625 L 164.675781 161.265625 C 164.78125 161.441406 164.875 161.625 164.976562 161.800781 L 165.578125 162.878906 C 166.386719 164.449219 167.335938 165.960938 168.492188 167.3125 C 169.644531 168.664062 171.011719 169.84375 172.546875 170.746094 C 174.09375 171.644531 175.726562 172.328125 177.578125 172.53125 C 177.835938 172.5625 178.070312 172.375 178.105469 172.121094 C 178.140625 171.855469 177.953125 171.621094 177.691406 171.585938 L 177.65625 171.582031 C 177.296875 171.539062 176.875 171.429688 176.492188 171.324219 C 176.097656 171.207031 175.714844 171.058594 175.332031 170.914062 C 174.578125 170.585938 173.847656 170.207031 173.164062 169.757812 C 171.78125 168.863281 170.570312 167.722656 169.554688 166.429688 C 168.539062 165.132812 167.714844 163.695312 167.023438 162.199219 L 166.417969 161.003906 C 166.320312 160.804688 166.222656 160.605469 166.113281 160.40625 L 165.753906 159.839844 C 165.511719 159.46875 165.289062 159.082031 165.027344 158.71875 L 164.210938 157.65625 C 163.070312 156.285156 161.820312 155 160.402344 153.921875 C 159.003906 152.832031 157.511719 151.839844 155.925781 151.039062 C 155.472656 150.804688 155.015625 150.582031 154.554688 150.371094 C 155.0625 147.640625 155.945312 144.070312 157.464844 140.558594 C 159.191406 136.582031 161.726562 132.675781 165.449219 130.140625 C 170.363281 126.800781 176.59375 126.339844 183.953125 128.777344 C 194.007812 132.097656 200.578125 137.015625 203.484375 143.386719 C 206.722656 150.492188 204.109375 156.929688 204.082031 156.996094 C 204.058594 157.046875 204.0625 157.097656 204.085938 157.140625 C 204.113281 157.1875 204.15625 157.21875 204.210938 157.226562 C 204.234375 157.226562 207.121094 157.679688 210.226562 161.019531 C 213.105469 164.105469 216.757812 170.359375 217.84375 182.628906 C 218.367188 188.589844 218.671875 193.707031 218.832031 198.019531 " fill-opacity="1" fill-rule="nonzero"/><path fill="#737373" d="M 216.113281 131.042969 C 216.207031 132.636719 216.285156 134.238281 216.335938 135.832031 C 215.28125 134.074219 214.160156 132.355469 212.972656 130.683594 C 211.699219 115.394531 207.636719 73.621094 200.980469 70.15625 C 200.207031 69.753906 199.316406 69.71875 198.332031 70.058594 C 191.265625 72.464844 180.476562 93.222656 176.316406 101.714844 C 175.75 101.484375 175.179688 101.257812 174.605469 101.039062 C 173.773438 100.71875 172.933594 100.417969 172.09375 100.125 C 172.921875 98.101562 173.8125 96.078125 174.722656 94.082031 C 175.835938 91.65625 176.996094 89.253906 178.226562 86.890625 C 179.460938 84.523438 180.746094 82.191406 182.109375 79.910156 C 183.472656 77.628906 184.917969 75.402344 186.5 73.296875 C 188.082031 71.195312 189.785156 69.1875 191.710938 67.507812 C 192.667969 66.675781 193.699219 65.941406 194.777344 65.402344 C 195.851562 64.878906 196.980469 64.566406 198.050781 64.667969 C 200.203125 64.792969 201.980469 66.75 203.335938 68.871094 C 204.707031 71.023438 205.757812 73.449219 206.6875 75.914062 C 208.507812 80.871094 209.824219 86.058594 210.941406 91.277344 C 212.058594 96.5 212.925781 101.785156 213.679688 107.082031 C 214.421875 112.382812 215.054688 117.703125 215.515625 123.039062 C 215.75 125.707031 215.953125 128.378906 216.113281 131.042969 " fill-opacity="1" fill-rule="nonzero"/><path fill="#8c52ff" d="M 209.0625 216.609375 C 211.132812 216.609375 212.8125 218.289062 212.8125 220.359375 C 212.8125 222.433594 211.132812 224.109375 209.0625 224.109375 C 206.992188 224.109375 205.3125 222.433594 205.3125 220.359375 C 205.3125 218.289062 206.992188 216.609375 209.0625 216.609375 " fill-opacity="1" fill-rule="nonzero"/><path fill="#ffffff" d="M 200.824219 70.449219 C 207.171875 73.757812 211.246094 114.511719 212.582031 130.140625 C 209.011719 125.195312 204.890625 120.648438 200.320312 116.601562 C 193.316406 110.414062 185.269531 105.410156 176.632812 101.84375 C 178.714844 97.621094 182.453125 90.335938 186.53125 83.816406 C 190.605469 77.292969 195.015625 71.535156 198.4375 70.371094 C 199.335938 70.066406 200.136719 70.09375 200.824219 70.449219 " fill-opacity="1" fill-rule="nonzero"/><path fill="#000000" d="M 181.179688 141.117188 C 186.117188 141.117188 190.121094 145.121094 190.121094 150.0625 C 190.121094 155 186.117188 159.003906 181.179688 159.003906 C 176.238281 159.003906 172.234375 155 172.234375 150.0625 C 172.234375 145.121094 176.238281 141.117188 181.179688 141.117188 " fill-opacity="1" fill-rule="nonzero"/><path fill="#000000" d="M 179.28125 200.699219 C 179.183594 200.996094 179.085938 201.296875 178.980469 201.59375 C 178.449219 203.105469 177.835938 204.589844 177.136719 206.03125 C 176.441406 207.46875 175.664062 208.871094 174.796875 210.214844 C 173.9375 211.558594 172.992188 212.847656 171.949219 214.050781 C 169.878906 216.46875 167.453125 218.574219 164.738281 220.226562 C 164.410156 220.445312 164.058594 220.628906 163.710938 220.820312 C 163.359375 221.007812 163.019531 221.210938 162.660156 221.378906 C 162.632812 221.394531 162.609375 221.402344 162.582031 221.414062 C 162.234375 220.59375 161.839844 219.78125 161.390625 218.996094 C 161.003906 218.289062 160.550781 217.613281 160.058594 216.957031 C 159.542969 216.3125 158.976562 215.691406 158.285156 215.160156 C 157.605469 214.628906 156.761719 214.199219 155.808594 214.074219 C 155.382812 214.03125 154.988281 214.003906 154.574219 213.976562 C 154.160156 213.984375 153.75 213.960938 153.332031 214.003906 C 152.917969 214.042969 152.5 214.078125 152.085938 214.171875 C 151.667969 214.238281 151.261719 214.371094 150.855469 214.496094 C 150.054688 214.789062 149.289062 215.195312 148.605469 215.714844 C 147.699219 216.402344 146.984375 217.253906 146.386719 218.148438 C 146.199219 217.871094 146.003906 217.601562 145.792969 217.339844 C 145.261719 216.679688 144.652344 216.066406 143.957031 215.542969 C 142.582031 214.488281 140.800781 213.859375 139.046875 213.871094 C 138.171875 213.871094 137.3125 214 136.492188 214.222656 C 135.597656 214.46875 134.8125 214.910156 134.113281 215.40625 C 132.714844 216.417969 131.660156 217.699219 130.734375 219.027344 C 130.148438 219.878906 129.628906 220.769531 129.160156 221.679688 C 128.953125 221.582031 128.746094 221.476562 128.535156 221.378906 C 128.175781 221.210938 127.835938 221.007812 127.484375 220.820312 C 127.136719 220.628906 126.785156 220.445312 126.453125 220.226562 C 123.742188 218.574219 121.316406 216.46875 119.246094 214.050781 C 118.203125 212.847656 117.257812 211.558594 116.394531 210.214844 C 115.53125 208.871094 114.753906 207.46875 114.054688 206.03125 C 113.359375 204.589844 112.746094 203.105469 112.214844 201.59375 C 112.109375 201.296875 112.007812 200.996094 111.910156 200.699219 C 112.351562 201.039062 112.8125 201.347656 113.285156 201.632812 C 114.921875 202.585938 116.738281 203.171875 118.558594 203.464844 L 118.902344 203.527344 L 119.242188 203.566406 L 119.929688 203.640625 L 120.617188 203.71875 C 120.847656 203.738281 121.070312 203.734375 121.300781 203.746094 L 122.675781 203.78125 C 123.128906 203.769531 123.582031 203.742188 124.035156 203.71875 C 124.492188 203.695312 124.941406 203.6875 125.40625 203.625 L 126.097656 203.542969 L 126.792969 203.425781 C 127.027344 203.386719 127.257812 203.339844 127.492188 203.28125 C 127.722656 203.226562 127.953125 203.171875 128.183594 203.105469 C 128.648438 202.960938 129.109375 202.820312 129.5625 202.625 C 130.464844 202.25 131.34375 201.738281 132.121094 201.113281 C 132.898438 200.492188 133.570312 199.765625 134.15625 199.039062 C 135.320312 197.570312 136.214844 196.144531 137.332031 195.101562 C 139.394531 193.066406 142.445312 192.394531 145.597656 192.265625 C 145.601562 192.265625 145.601562 192.265625 145.605469 192.265625 C 148.757812 192.398438 151.800781 193.066406 153.863281 195.101562 C 154.980469 196.144531 155.871094 197.570312 157.039062 199.039062 C 157.625 199.765625 158.296875 200.492188 159.074219 201.113281 C 159.851562 201.738281 160.730469 202.25 161.632812 202.625 C 162.085938 202.820312 162.550781 202.960938 163.007812 203.105469 C 163.238281 203.171875 163.472656 203.226562 163.703125 203.28125 C 163.9375 203.339844 164.167969 203.386719 164.398438 203.425781 L 165.097656 203.542969 L 165.789062 203.625 C 166.253906 203.6875 166.703125 203.695312 167.160156 203.71875 C 167.613281 203.742188 168.066406 203.769531 168.523438 203.78125 L 169.894531 203.746094 C 170.125 203.734375 170.347656 203.738281 170.578125 203.71875 L 171.265625 203.640625 L 171.953125 203.566406 L 172.292969 203.527344 L 172.632812 203.464844 C 174.457031 203.171875 176.269531 202.585938 177.910156 201.632812 C 178.378906 201.347656 178.84375 201.039062 179.28125 200.699219 " fill-opacity="1" fill-rule="nonzero"/><path fill="#000000" d="M 149.816406 148.683594 L 145.597656 118.882812 L 141.378906 148.683594 C 142.671875 148.359375 144 148.128906 145.398438 148.070312 C 145.449219 148.066406 145.496094 148.0625 145.539062 148.0625 C 145.546875 148.0625 145.554688 148.0625 145.558594 148.0625 L 145.597656 148.0625 C 145.65625 148.066406 145.714844 148.066406 145.773438 148.070312 C 147.179688 148.125 148.515625 148.359375 149.816406 148.683594 Z M 177.691406 171.585938 C 177.953125 171.621094 178.140625 171.855469 178.105469 172.121094 C 178.070312 172.375 177.835938 172.5625 177.578125 172.53125 C 175.726562 172.328125 174.09375 171.644531 172.546875 170.746094 C 171.011719 169.84375 169.644531 168.664062 168.492188 167.3125 C 167.335938 165.960938 166.386719 164.449219 165.578125 162.878906 L 164.976562 161.800781 C 164.875 161.625 164.78125 161.441406 164.675781 161.265625 L 164.328125 160.765625 C 164.085938 160.429688 163.867188 160.085938 163.617188 159.761719 L 162.828125 158.820312 C 161.730469 157.613281 160.535156 156.476562 159.183594 155.535156 C 157.847656 154.582031 156.433594 153.726562 154.933594 153.042969 C 154.679688 152.925781 154.425781 152.816406 154.171875 152.707031 C 154.066406 152.65625 153.960938 152.613281 153.855469 152.570312 C 152.773438 152.117188 151.667969 151.730469 150.539062 151.429688 C 150.464844 151.40625 150.394531 151.386719 150.320312 151.367188 C 150.277344 151.355469 150.234375 151.34375 150.191406 151.332031 C 148.6875 150.960938 147.144531 150.71875 145.679688 150.726562 L 145.554688 150.726562 C 144.082031 150.714844 142.519531 150.957031 141.003906 151.332031 C 140.960938 151.34375 140.917969 151.355469 140.875 151.367188 C 140.800781 151.386719 140.726562 151.40625 140.65625 151.429688 C 139.53125 151.730469 138.425781 152.117188 137.339844 152.570312 C 137.234375 152.613281 137.128906 152.65625 137.019531 152.707031 C 136.765625 152.816406 136.515625 152.925781 136.261719 153.042969 C 134.761719 153.726562 133.347656 154.582031 132.011719 155.535156 C 130.660156 156.476562 129.46875 157.613281 128.367188 158.820312 L 127.578125 159.761719 C 127.324219 160.085938 127.109375 160.429688 126.867188 160.765625 L 126.519531 161.265625 C 126.410156 161.441406 126.320312 161.625 126.21875 161.800781 L 125.617188 162.878906 C 124.808594 164.449219 123.859375 165.960938 122.703125 167.3125 C 121.550781 168.664062 120.183594 169.84375 118.648438 170.746094 C 117.105469 171.644531 115.464844 172.328125 113.617188 172.53125 C 113.351562 172.5625 113.121094 172.371094 113.089844 172.113281 C 113.058594 171.851562 113.246094 171.621094 113.507812 171.585938 L 113.542969 171.582031 C 113.898438 171.539062 114.320312 171.429688 114.703125 171.324219 C 115.097656 171.207031 115.480469 171.058594 115.863281 170.914062 C 116.617188 170.585938 117.347656 170.207031 118.03125 169.757812 C 119.414062 168.863281 120.625 167.722656 121.636719 166.429688 C 122.65625 165.132812 123.480469 163.695312 124.171875 162.199219 L 124.773438 161.003906 C 124.875 160.804688 124.972656 160.605469 125.082031 160.40625 L 125.4375 159.839844 C 125.679688 159.46875 125.90625 159.082031 126.167969 158.71875 L 126.980469 157.65625 C 128.121094 156.285156 129.375 155 130.792969 153.921875 C 132.191406 152.832031 133.679688 151.839844 135.269531 151.039062 C 135.722656 150.804688 136.175781 150.582031 136.640625 150.371094 C 136.132812 147.640625 135.246094 144.070312 133.730469 140.558594 L 134.03125 140.433594 C 135.550781 143.933594 136.441406 147.492188 136.953125 150.230469 C 138.011719 149.757812 139.09375 149.347656 140.207031 149.007812 C 140.480469 148.929688 140.753906 148.847656 141.03125 148.777344 L 145.351562 118.261719 C 145.359375 118.171875 145.445312 118.105469 145.535156 118.121094 C 145.558594 118.121094 145.582031 118.128906 145.597656 118.144531 C 145.613281 118.128906 145.632812 118.121094 145.65625 118.121094 C 145.75 118.105469 145.835938 118.171875 145.847656 118.261719 L 150.167969 148.773438 C 150.441406 148.847656 150.714844 148.929688 150.988281 149.007812 C 152.101562 149.347656 153.1875 149.761719 154.242188 150.230469 C 154.757812 147.492188 155.644531 143.933594 157.164062 140.433594 L 157.464844 140.558594 C 155.945312 144.070312 155.0625 147.640625 154.554688 150.371094 C 155.015625 150.582031 155.472656 150.804688 155.925781 151.039062 C 157.511719 151.839844 159.003906 152.832031 160.402344 153.921875 C 161.820312 155 163.070312 156.285156 164.210938 157.65625 L 165.027344 158.71875 C 165.289062 159.082031 165.511719 159.46875 165.753906 159.839844 L 166.113281 160.40625 C 166.222656 160.605469 166.320312 160.804688 166.417969 161.003906 L 167.023438 162.199219 C 167.714844 163.695312 168.539062 165.132812 169.554688 166.429688 C 170.570312 167.722656 171.78125 168.863281 173.164062 169.757812 C 173.847656 170.207031 174.578125 170.585938 175.332031 170.914062 C 175.714844 171.058594 176.097656 171.207031 176.492188 171.324219 C 176.875 171.429688 177.296875 171.539062 177.65625 171.582031 L 177.691406 171.585938 " fill-opacity="1" fill-rule="nonzero"/><path fill="#8c52ff" d="M 164.347656 239.164062 C 164.367188 240.941406 164.316406 242.738281 164.125 244.496094 C 163.730469 248.132812 162.753906 251.628906 160.613281 254.546875 C 158.910156 256.949219 156.574219 258.886719 153.933594 260.238281 C 152.617188 260.917969 151.222656 261.453125 149.789062 261.847656 C 148.363281 262.238281 146.878906 262.492188 145.453125 262.488281 C 142.496094 262.464844 139.527344 261.8125 136.929688 260.449219 C 134.335938 259.089844 132.152344 257.003906 130.617188 254.488281 C 129.070312 251.976562 128.101562 249.097656 127.527344 246.15625 C 127.421875 245.605469 127.332031 245.054688 127.257812 244.496094 C 127.019531 242.734375 126.914062 240.949219 126.9375 239.164062 C 126.941406 238.496094 126.96875 237.824219 127.015625 237.15625 C 127.21875 234.140625 127.742188 231.144531 128.613281 228.257812 C 129.050781 226.8125 129.566406 225.398438 130.179688 224.03125 C 130.183594 224.015625 130.191406 224.003906 130.199219 223.988281 C 130.429688 223.46875 130.679688 222.953125 130.949219 222.445312 C 131.371094 221.640625 131.832031 220.867188 132.339844 220.128906 C 133.179688 218.929688 134.132812 217.800781 135.257812 217.003906 C 135.8125 216.609375 136.40625 216.285156 137.007812 216.125 C 137.675781 215.945312 138.363281 215.851562 139.035156 215.855469 C 140.378906 215.863281 141.664062 216.328125 142.738281 217.152344 C 143.273438 217.566406 143.765625 218.058594 144.191406 218.609375 C 144.402344 218.882812 144.605469 219.171875 144.785156 219.46875 C 144.878906 219.621094 144.964844 219.769531 145.042969 219.917969 C 145.089844 220.007812 145.136719 220.097656 145.175781 220.1875 L 145.539062 239.164062 L 145.640625 244.496094 L 145.769531 251.273438 C 145.773438 251.515625 145.96875 251.707031 146.207031 251.710938 C 146.453125 251.71875 146.652344 251.519531 146.65625 251.273438 L 146.789062 244.496094 L 146.886719 239.164062 L 147.253906 219.941406 C 147.253906 219.878906 147.25 219.816406 147.238281 219.753906 C 147.894531 218.664062 148.621094 217.6875 149.570312 216.976562 C 150.121094 216.558594 150.734375 216.238281 151.382812 216.003906 C 151.714844 215.90625 152.042969 215.789062 152.394531 215.738281 C 152.738281 215.660156 153.09375 215.636719 153.445312 215.605469 C 153.800781 215.566406 154.164062 215.589844 154.519531 215.582031 C 154.878906 215.605469 155.253906 215.632812 155.601562 215.667969 C 156.1875 215.746094 156.777344 216.027344 157.3125 216.441406 C 157.847656 216.859375 158.328125 217.386719 158.777344 217.949219 C 159.210938 218.53125 159.621094 219.140625 159.972656 219.792969 C 160.394531 220.53125 160.761719 221.308594 161.097656 222.101562 C 161.324219 222.625 161.53125 223.164062 161.722656 223.699219 C 161.75 223.765625 161.773438 223.835938 161.796875 223.902344 C 162.296875 225.328125 162.710938 226.785156 163.054688 228.265625 C 163.746094 231.226562 164.148438 234.257812 164.300781 237.292969 C 164.328125 237.914062 164.34375 238.539062 164.347656 239.164062 " fill-opacity="1" fill-rule="nonzero"/><path fill="#000000" d="M 160.355469 162.722656 C 160.722656 165.039062 160.78125 167.386719 160.421875 169.648438 C 160.039062 172.027344 159.128906 174.285156 157.75 176.234375 C 156.351562 178.175781 154.507812 179.800781 152.429688 181.066406 C 151.390625 181.699219 150.289062 182.246094 149.15625 182.707031 C 148.589844 182.9375 148.015625 183.15625 147.433594 183.335938 C 147.144531 183.429688 146.847656 183.519531 146.558594 183.59375 C 146.273438 183.675781 145.957031 183.753906 145.714844 183.800781 L 145.683594 183.808594 C 145.65625 183.816406 145.628906 183.820312 145.597656 183.828125 C 145.566406 183.820312 145.539062 183.816406 145.507812 183.808594 L 145.480469 183.800781 C 145.238281 183.753906 144.921875 183.675781 144.636719 183.59375 C 144.34375 183.519531 144.050781 183.429688 143.761719 183.335938 C 143.179688 183.15625 142.605469 182.9375 142.039062 182.707031 C 140.90625 182.246094 139.804688 181.699219 138.765625 181.066406 C 136.683594 179.800781 134.84375 178.175781 133.445312 176.234375 C 132.070312 174.285156 131.15625 172.027344 130.773438 169.648438 C 130.605469 168.617188 130.53125 167.5625 130.53125 166.507812 C 130.53125 165.246094 130.640625 163.976562 130.839844 162.722656 L 130.925781 162.644531 C 131.054688 162.542969 131.164062 162.441406 131.308594 162.347656 C 131.574219 162.152344 131.875 161.976562 132.171875 161.800781 C 132.488281 161.640625 132.792969 161.464844 133.125 161.328125 L 133.617188 161.105469 C 133.785156 161.042969 133.957031 160.980469 134.125 160.917969 L 134.636719 160.722656 L 135.160156 160.558594 C 135.515625 160.453125 135.863281 160.332031 136.222656 160.253906 C 136.585938 160.167969 136.941406 160.070312 137.300781 159.988281 L 138.402344 159.769531 C 138.765625 159.695312 139.136719 159.644531 139.507812 159.589844 L 140.621094 159.425781 C 141.371094 159.355469 142.121094 159.269531 142.875 159.214844 C 143.628906 159.171875 144.382812 159.117188 145.140625 159.09375 L 145.597656 159.085938 L 146.054688 159.09375 C 146.8125 159.117188 147.566406 159.171875 148.320312 159.214844 C 149.074219 159.269531 149.824219 159.355469 150.574219 159.425781 L 151.6875 159.589844 C 152.058594 159.644531 152.429688 159.695312 152.792969 159.769531 L 153.894531 159.988281 C 154.253906 160.070312 154.613281 160.167969 154.972656 160.253906 C 155.335938 160.332031 155.679688 160.453125 156.03125 160.558594 L 156.558594 160.722656 L 157.070312 160.917969 C 157.238281 160.980469 157.410156 161.042969 157.574219 161.105469 L 158.070312 161.328125 C 158.40625 161.464844 158.707031 161.640625 159.023438 161.800781 C 159.320312 161.976562 159.621094 162.152344 159.886719 162.347656 C 160.027344 162.441406 160.140625 162.542969 160.269531 162.644531 L 160.355469 162.722656 " fill-opacity="1" fill-rule="nonzero"/><path fill="#ffffff" d="M 145.597656 118.882812 L 149.816406 148.683594 C 148.515625 148.359375 147.179688 148.125 145.773438 148.070312 C 145.714844 148.066406 145.65625 148.066406 145.597656 148.0625 L 145.558594 148.0625 C 145.554688 148.0625 145.546875 148.0625 145.539062 148.0625 C 145.496094 148.0625 145.449219 148.066406 145.398438 148.070312 C 144 148.128906 142.671875 148.359375 141.378906 148.683594 L 145.597656 118.882812 " fill-opacity="1" fill-rule="nonzero"/><path fill="#737373" d="M 117.597656 94.082031 C 118.433594 95.914062 119.253906 97.765625 120.019531 99.617188 C 118.976562 99.964844 117.949219 100.339844 116.921875 100.730469 C 116.921875 100.726562 116.917969 100.726562 116.917969 100.722656 C 112.449219 91.714844 102.191406 72.375 95.390625 70.058594 C 94.402344 69.71875 93.515625 69.753906 92.746094 70.15625 C 86.546875 73.382812 82.59375 109.804688 81.050781 127.15625 L 81.050781 127.160156 C 79.257812 129.445312 77.585938 131.828125 76.039062 134.285156 C 76.085938 133.207031 76.144531 132.121094 76.207031 131.042969 C 76.367188 128.378906 76.570312 125.707031 76.800781 123.039062 C 77.265625 117.703125 77.894531 112.382812 78.640625 107.082031 C 79.390625 101.785156 80.257812 96.5 81.378906 91.277344 C 82.496094 86.058594 83.8125 80.871094 85.632812 75.914062 C 86.5625 73.449219 87.613281 71.023438 88.980469 68.871094 C 90.335938 66.75 92.113281 64.792969 94.269531 64.667969 C 95.335938 64.566406 96.464844 64.878906 97.542969 65.402344 C 98.617188 65.941406 99.648438 66.675781 100.609375 67.507812 C 102.535156 69.1875 104.242188 71.195312 105.820312 73.296875 C 107.398438 75.402344 108.84375 77.628906 110.210938 79.910156 C 111.574219 82.191406 112.863281 84.523438 114.089844 86.890625 C 115.324219 89.253906 116.480469 91.65625 117.597656 94.082031 " fill-opacity="1" fill-rule="nonzero"/><path fill="#000000" d="M 110.015625 141.117188 C 114.957031 141.117188 118.960938 145.121094 118.960938 150.0625 C 118.960938 155 114.957031 159.003906 110.015625 159.003906 C 105.078125 159.003906 101.074219 155 101.074219 150.0625 C 101.074219 145.121094 105.078125 141.117188 110.015625 141.117188 " fill-opacity="1" fill-rule="nonzero"/><path fill="#ffffff" d="M 116.597656 100.847656 C 116.597656 100.851562 116.601562 100.851562 116.601562 100.855469 C 116.238281 100.996094 115.871094 101.128906 115.507812 101.273438 C 106.148438 105.023438 97.492188 110.507812 90.101562 117.34375 C 86.976562 120.21875 84.085938 123.339844 81.445312 126.65625 C 83.039062 109.183594 86.980469 73.535156 92.898438 70.449219 C 93.582031 70.09375 94.386719 70.0625 95.285156 70.371094 C 101.875 72.617188 112.121094 91.878906 116.597656 100.847656 " fill-opacity="1" fill-rule="nonzero"/><path fill="#ffffff" d="M 101.835938 231.613281 C 102.097656 233.066406 102.144531 234.542969 101.933594 235.953125 C 101.828125 236.660156 101.636719 237.339844 101.382812 237.980469 C 101.210938 238.398438 101.007812 238.792969 100.769531 239.164062 C 100.636719 239.363281 100.492188 239.558594 100.339844 239.738281 C 99.90625 240.261719 99.398438 240.699219 98.8125 241.0625 C 98.203125 241.441406 97.566406 241.742188 96.910156 241.921875 C 96.253906 242.105469 95.582031 242.164062 94.921875 242.097656 C 94.261719 242.03125 93.609375 241.820312 92.996094 241.503906 C 92.386719 241.191406 91.804688 240.769531 91.28125 240.277344 C 91.019531 240.03125 90.769531 239.769531 90.53125 239.492188 C 90.445312 239.386719 90.355469 239.277344 90.269531 239.164062 C 90.128906 238.988281 90.003906 238.8125 89.902344 238.652344 C 89.734375 238.375 89.40625 238.214844 89.070312 238.273438 C 88.648438 238.351562 88.363281 238.746094 88.421875 239.164062 C 88.421875 239.175781 88.421875 239.191406 88.425781 239.203125 L 88.425781 239.214844 C 88.519531 239.730469 88.585938 240.328125 88.617188 240.890625 C 88.652344 241.460938 88.65625 242.035156 88.636719 242.605469 C 88.609375 243.242188 88.546875 243.878906 88.441406 244.496094 C 88.359375 244.992188 88.242188 245.46875 88.109375 245.945312 C 87.785156 247.011719 87.308594 248.015625 86.644531 248.867188 C 85.988281 249.726562 85.144531 250.414062 84.1875 250.925781 C 83.941406 251.046875 83.679688 251.160156 83.429688 251.277344 L 83.046875 251.453125 C 82.917969 251.507812 82.785156 251.546875 82.652344 251.59375 C 82.386719 251.679688 82.128906 251.777344 81.863281 251.859375 L 81.054688 252.039062 C 79.976562 252.238281 78.867188 252.269531 77.796875 252.089844 C 76.722656 251.917969 75.679688 251.542969 74.742188 250.992188 C 74.507812 250.851562 74.273438 250.71875 74.0625 250.550781 C 73.835938 250.402344 73.632812 250.226562 73.433594 250.050781 C 73.050781 249.703125 72.675781 249.304688 72.472656 248.933594 C 72.289062 248.601562 71.914062 248.402344 71.515625 248.460938 C 71.011719 248.539062 70.660156 249.015625 70.738281 249.519531 L 70.757812 249.636719 C 70.777344 249.726562 70.804688 249.894531 70.828125 250.03125 C 70.84375 250.179688 70.859375 250.324219 70.871094 250.472656 C 70.894531 250.773438 70.898438 251.066406 70.882812 251.367188 C 70.855469 251.957031 70.757812 252.539062 70.578125 253.089844 C 70.238281 254.1875 69.554688 255.128906 68.640625 255.828125 C 68.183594 256.179688 67.671875 256.472656 67.125 256.71875 C 66.847656 256.839844 66.574219 256.953125 66.277344 257.046875 C 66.210938 257.070312 66.136719 257.097656 66.066406 257.121094 L 65.867188 257.171875 C 65.734375 257.195312 65.605469 257.246094 65.46875 257.261719 C 64.929688 257.359375 64.367188 257.34375 63.804688 257.285156 C 63.242188 257.191406 62.679688 257.050781 62.128906 256.828125 C 61.019531 256.398438 59.96875 255.726562 59 254.949219 C 58.035156 254.164062 57.148438 253.25 56.351562 252.261719 C 54.769531 250.277344 53.53125 248 52.71875 245.597656 C 52.601562 245.234375 52.488281 244.871094 52.386719 244.496094 C 51.910156 242.75 51.667969 240.945312 51.730469 239.164062 C 51.746094 238.839844 51.765625 238.523438 51.796875 238.199219 C 52.035156 235.6875 52.753906 233.214844 53.816406 230.890625 C 54.878906 228.5625 56.273438 226.363281 57.882812 224.34375 C 58.707031 223.34375 59.554688 222.359375 60.476562 221.457031 C 61.386719 220.554688 62.371094 219.671875 63.339844 218.964844 C 64.5625 218.109375 65.871094 217.332031 67.21875 216.632812 C 68.5625 215.929688 69.957031 215.3125 71.375 214.78125 C 71.632812 214.683594 71.890625 214.589844 72.152344 214.503906 C 72.261719 214.464844 72.371094 214.425781 72.480469 214.390625 C 74.976562 213.546875 77.5625 212.976562 80.15625 212.839844 C 83.121094 212.683594 86.101562 213.125 88.757812 214.328125 C 90.089844 214.921875 91.328125 215.707031 92.464844 216.632812 C 93.027344 217.082031 93.589844 217.609375 94.136719 218.132812 C 94.679688 218.660156 95.199219 219.210938 95.707031 219.769531 C 97.722656 222.027344 99.40625 224.582031 100.566406 227.34375 C 101.148438 228.726562 101.589844 230.160156 101.835938 231.613281 " fill-opacity="1" fill-rule="nonzero"/><path fill="#ffffff" d="M 116.277344 145.425781 C 116.277344 147.183594 114.855469 148.605469 113.101562 148.605469 C 111.347656 148.605469 109.925781 147.183594 109.925781 145.425781 C 109.925781 143.671875 111.347656 142.25 113.101562 142.25 C 114.855469 142.25 116.277344 143.671875 116.277344 145.425781 " fill-opacity="1" fill-rule="nonzero"/><path fill="#ffffff" d="M 187.53125 145.425781 C 187.53125 147.183594 186.109375 148.605469 184.355469 148.605469 C 182.601562 148.605469 181.179688 147.183594 181.179688 145.425781 C 181.179688 143.671875 182.601562 142.25 184.355469 142.25 C 186.109375 142.25 187.53125 143.671875 187.53125 145.425781 " fill-opacity="1" fill-rule="nonzero"/><path fill="#8c52ff" d="M 256.585938 209.222656 C 256.585938 211.203125 254.980469 212.808594 253 212.808594 C 251.019531 212.808594 249.410156 211.203125 249.410156 209.222656 C 249.410156 207.242188 251.019531 205.636719 253 205.636719 C 254.980469 205.636719 256.585938 207.242188 256.585938 209.222656 " fill-opacity="1" fill-rule="nonzero"/></svg>