<svg xmlns="http://www.w3.org/2000/svg" xmlns:xlink="http://www.w3.org/1999/xlink" width="200" zoomAndPan="magnify" viewBox="0 0 150 68.999997" height="92" preserveAspectRatio="xMidYMid meet" version="1.0"><defs><g/><clipPath id="bb3379cb91"><path d="M 67.277344 37 L 77 37 L 77 50.652344 L 67.277344 50.652344 Z M 67.277344 37 " clip-rule="nonzero"/></clipPath><clipPath id="16d3d1b3a4"><path d="M 67.277344 29.652344 L 83 29.652344 L 83 46 L 67.277344 46 Z M 67.277344 29.652344 " clip-rule="nonzero"/></clipPath></defs><g fill="#8c52ff" fill-opacity="1"><g transform="translate(27.079838, 36.637192)"><g><path d="M -1.328125 -3.40625 L -0.640625 -20.796875 L -2.6875 -23.140625 L -2.609375 -31.640625 L 10.859375 -34.96875 L 13.15625 -32.328125 L 27.859375 -6.890625 L 18.515625 -4.578125 L 16.5 -7.8125 L 9.25 -6.015625 L 9.25 -2.28125 L 1.3125 -0.328125 Z M 6.46875 -6.109375 L 6.5 -9.921875 L 15.21875 -12.09375 L 17.015625 -8.71875 L 24.09375 -10.46875 L 10.421875 -34 L -1.765625 -30.984375 L -1.796875 -24.09375 L 0.34375 -24.625 L -0.359375 -4.421875 Z M 6.40625 -28.546875 L 12.546875 -17.125 L 6.4375 -15.625 Z M 11.28125 -17.59375 L 9.109375 -21.71875 L 9.140625 -17.0625 Z M 11.28125 -17.59375 "/></g></g></g><g fill="#8c52ff" fill-opacity="1"><g transform="translate(50.267074, 30.146387)"><g><path d="M 1.84375 -4 L 1.4375 -12.953125 L 1.15625 -12.9375 L -0.625 -16.328125 L 0.953125 -23.890625 L 8.359375 -24.21875 L 8.828125 -23.203125 L 9.3125 -24.25 L 13.859375 -24.453125 C 15.273438 -24.515625 16.375 -24.359375 17.15625 -23.984375 C 17.945312 -23.617188 18.679688 -22.90625 19.359375 -21.84375 L 20.671875 -24.765625 L 24.890625 -24.953125 C 26.640625 -25.023438 28.003906 -24.785156 28.984375 -24.234375 C 29.972656 -23.679688 30.863281 -22.65625 31.65625 -21.15625 C 32.0625 -20.363281 32.394531 -19.695312 32.65625 -19.15625 C 32.914062 -18.625 33.109375 -18.128906 33.234375 -17.671875 C 33.367188 -17.222656 33.46875 -16.765625 33.53125 -16.296875 C 33.601562 -15.828125 33.65625 -15.296875 33.6875 -14.703125 L 33.78125 -12.40625 L 34.34375 -12.4375 L 36 -8.9375 L 34.3125 -1.515625 L 26.515625 -1.171875 L 25 -4.703125 L 24.59375 -13.796875 C 24.4375 -13.816406 24.296875 -13.835938 24.171875 -13.859375 C 24.046875 -13.890625 23.910156 -13.910156 23.765625 -13.921875 C 23.617188 -13.929688 23.445312 -13.9375 23.25 -13.9375 C 23.050781 -13.945312 22.789062 -13.941406 22.46875 -13.921875 L 22 -13.90625 L 22.578125 -1 L 15.015625 -0.671875 L 13.40625 -4.1875 L 13 -13.28125 C 12.625 -13.351562 12.253906 -13.394531 11.890625 -13.40625 C 11.523438 -13.425781 11.046875 -13.421875 10.453125 -13.390625 L 11.03125 -0.484375 L 3.765625 -0.171875 Z M 8.53125 -4.765625 L 7.953125 -17.671875 L 9.75 -17.75 C 10.5 -17.78125 11.125 -17.742188 11.625 -17.640625 C 12.132812 -17.535156 12.546875 -17.332031 12.859375 -17.03125 C 13.171875 -16.726562 13.398438 -16.328125 13.546875 -15.828125 C 13.691406 -15.335938 13.78125 -14.703125 13.8125 -13.921875 L 14.21875 -5.015625 L 20 -5.265625 L 19.421875 -18.171875 L 21.109375 -18.25 C 21.921875 -18.289062 22.59375 -18.257812 23.125 -18.15625 C 23.664062 -18.050781 24.09375 -17.847656 24.40625 -17.546875 C 24.71875 -17.242188 24.945312 -16.820312 25.09375 -16.28125 C 25.238281 -15.738281 25.332031 -15.046875 25.375 -14.203125 L 25.765625 -5.53125 L 32.0625 -5.8125 L 33.203125 -11.59375 L 31.375 -11.5 L 31.109375 -17.59375 C 31.046875 -19.039062 30.910156 -20.117188 30.703125 -20.828125 C 30.503906 -21.546875 30.140625 -22.191406 29.609375 -22.765625 C 29.078125 -23.335938 28.421875 -23.722656 27.640625 -23.921875 C 26.867188 -24.117188 25.796875 -24.1875 24.421875 -24.125 L 21.1875 -23.984375 L 19.296875 -19.90625 C 19.015625 -20.644531 18.710938 -21.265625 18.390625 -21.765625 C 18.066406 -22.273438 17.679688 -22.675781 17.234375 -22.96875 C 16.785156 -23.257812 16.25 -23.453125 15.625 -23.546875 C 15.007812 -23.648438 14.28125 -23.679688 13.4375 -23.640625 L 9.6875 -23.46875 L 7.859375 -19.734375 L 7.703125 -23.390625 L 1.65625 -23.125 L 0.40625 -17.328125 L 2 -17.40625 L 2.578125 -4.5 Z M 8.53125 -4.765625 "/></g></g></g><g fill="#8c52ff" fill-opacity="1"><g transform="translate(83.700757, 29.007419)"><g><path d="M 14.328125 -22.296875 C 16.085938 -22.035156 17.671875 -21.390625 19.078125 -20.359375 C 20.484375 -19.335938 21.53125 -18.066406 22.21875 -16.546875 C 22.519531 -15.941406 22.816406 -15.175781 23.109375 -14.25 C 23.398438 -13.332031 23.65625 -12.398438 23.875 -11.453125 C 24.070312 -10.515625 24.191406 -9.75 24.234375 -9.15625 C 24.273438 -8.5625 24.242188 -7.878906 24.140625 -7.109375 C 23.921875 -5.585938 23.453125 -4.210938 22.734375 -2.984375 C 22.023438 -1.765625 21.144531 -0.75 20.09375 0.0625 C 19.039062 0.882812 17.851562 1.476562 16.53125 1.84375 C 15.207031 2.207031 13.820312 2.28125 12.375 2.0625 C 10.882812 1.851562 9.507812 1.359375 8.25 0.578125 C 6.988281 -0.203125 5.96875 -1.1875 5.1875 -2.375 C 4.800781 -2.976562 4.441406 -3.679688 4.109375 -4.484375 C 3.773438 -5.296875 3.445312 -6.328125 3.125 -7.578125 C 2.9375 -8.253906 2.785156 -8.863281 2.671875 -9.40625 C 2.566406 -9.957031 2.484375 -10.457031 2.421875 -10.90625 C 2.367188 -11.351562 2.347656 -11.785156 2.359375 -12.203125 C 2.367188 -12.628906 2.40625 -13.0625 2.46875 -13.5 C 2.675781 -14.925781 3.140625 -16.21875 3.859375 -17.375 C 4.578125 -18.539062 5.476562 -19.519531 6.5625 -20.3125 C 7.644531 -21.101562 8.847656 -21.679688 10.171875 -22.046875 C 11.503906 -22.410156 12.890625 -22.492188 14.328125 -22.296875 Z M 14.296875 -21.390625 C 12.953125 -21.578125 11.660156 -21.515625 10.421875 -21.203125 C 9.191406 -20.890625 8.082031 -20.367188 7.09375 -19.640625 C 6.101562 -18.910156 5.273438 -18.007812 4.609375 -16.9375 C 3.953125 -15.863281 3.53125 -14.660156 3.34375 -13.328125 C 3.15625 -12.023438 3.222656 -10.753906 3.546875 -9.515625 C 3.878906 -8.285156 4.414062 -7.179688 5.15625 -6.203125 C 5.90625 -5.222656 6.820312 -4.398438 7.90625 -3.734375 C 9 -3.078125 10.21875 -2.65625 11.5625 -2.46875 C 12.851562 -2.28125 14.097656 -2.351562 15.296875 -2.6875 C 16.503906 -3.019531 17.597656 -3.539062 18.578125 -4.25 C 19.554688 -4.96875 20.375 -5.851562 21.03125 -6.90625 C 21.6875 -7.96875 22.109375 -9.132812 22.296875 -10.40625 C 22.484375 -11.738281 22.421875 -13.03125 22.109375 -14.28125 C 21.796875 -15.539062 21.273438 -16.660156 20.546875 -17.640625 C 19.816406 -18.628906 18.914062 -19.453125 17.84375 -20.109375 C 16.769531 -20.773438 15.585938 -21.203125 14.296875 -21.390625 Z M 13.515625 -15.953125 C 14.660156 -15.785156 15.554688 -15.242188 16.203125 -14.328125 C 16.859375 -13.410156 17.101562 -12.363281 16.9375 -11.1875 C 16.78125 -10.101562 16.269531 -9.234375 15.40625 -8.578125 C 14.539062 -7.929688 13.566406 -7.679688 12.484375 -7.828125 C 11.890625 -7.921875 11.347656 -8.101562 10.859375 -8.375 C 10.378906 -8.65625 9.972656 -9.007812 9.640625 -9.4375 C 9.304688 -9.875 9.066406 -10.351562 8.921875 -10.875 C 8.773438 -11.40625 8.738281 -11.945312 8.8125 -12.5 C 8.988281 -13.675781 9.519531 -14.585938 10.40625 -15.234375 C 11.289062 -15.878906 12.328125 -16.117188 13.515625 -15.953125 Z M 15.828125 -10.734375 C 15.347656 -11.109375 14.832031 -11.335938 14.28125 -11.421875 C 12.851562 -11.628906 11.707031 -10.957031 10.84375 -9.40625 C 11.164062 -9.175781 11.429688 -9.007812 11.640625 -8.90625 C 11.847656 -8.8125 12.125 -8.742188 12.46875 -8.703125 C 13.207031 -8.597656 13.875 -8.710938 14.46875 -9.046875 C 15.070312 -9.390625 15.523438 -9.953125 15.828125 -10.734375 Z M 15.828125 -10.734375 "/></g></g></g><g fill="#8c52ff" fill-opacity="1"><g transform="translate(105.017625, 32.150451)"><g><path d="M 2.9375 -3.03125 L 5.359375 -11.71875 L 5.1875 -11.78125 L 4.46875 -15.671875 L 8.328125 -22.40625 L 15.484375 -20.421875 L 15.71875 -18.59375 C 16.789062 -19.03125 17.660156 -19.289062 18.328125 -19.375 C 19.003906 -19.457031 19.734375 -19.390625 20.515625 -19.171875 C 20.898438 -19.066406 21.273438 -18.894531 21.640625 -18.65625 L 22.15625 -14.9375 L 17.96875 -7.78125 C 17.820312 -7.851562 17.703125 -7.898438 17.609375 -7.921875 C 17.515625 -7.941406 17.425781 -7.96875 17.34375 -8 C 16.164062 -8.320312 15.207031 -8.203125 14.46875 -7.640625 C 13.726562 -7.085938 13.144531 -6.039062 12.71875 -4.5 L 10.640625 2.96875 L 3.625 1.015625 Z M 20.328125 -18.21875 C 20.222656 -18.289062 20.117188 -18.335938 20.015625 -18.359375 C 19.910156 -18.390625 19.828125 -18.414062 19.765625 -18.4375 C 18.285156 -18.84375 16.226562 -18.21875 13.59375 -16.5625 L 14.5 -19.859375 L 8.703125 -21.46875 L 5.703125 -16.125 L 7.28125 -15.6875 L 3.875 -3.46875 L 9.5 -1.90625 L 11.5 -9.09375 C 11.90625 -10.539062 12.539062 -11.578125 13.40625 -12.203125 C 14.269531 -12.835938 15.273438 -13 16.421875 -12.6875 C 16.484375 -12.664062 16.554688 -12.640625 16.640625 -12.609375 C 16.734375 -12.585938 16.847656 -12.539062 16.984375 -12.46875 Z M 20.328125 -18.21875 "/></g></g></g><g fill="#8c52ff" fill-opacity="1"><g transform="translate(53.333014, 64.426851)"><g><path d="M 6.859375 -16.515625 C 8.078125 -16.328125 9.3125 -16.050781 10.5625 -15.6875 C 12.882812 -15.019531 14.488281 -13.972656 15.375 -12.546875 C 16.257812 -11.117188 16.390625 -9.320312 15.765625 -7.15625 C 15.210938 -5.226562 14.113281 -3.890625 12.46875 -3.140625 C 10.9375 -2.441406 9.203125 -2.375 7.265625 -2.9375 C 7.046875 -3 6.8125 -3.078125 6.5625 -3.171875 L 5.21875 1.5 L 1.953125 0.5625 Z M 10.0625 -12.5 C 9.800781 -12.570312 9.546875 -12.632812 9.296875 -12.6875 L 7.359375 -5.984375 C 7.617188 -5.878906 7.941406 -5.769531 8.328125 -5.65625 C 8.722656 -5.539062 9.15625 -5.503906 9.625 -5.546875 C 10.101562 -5.585938 10.53125 -5.71875 10.90625 -5.9375 C 11.695312 -6.382812 12.238281 -7.113281 12.53125 -8.125 C 13.175781 -10.382812 12.351562 -11.84375 10.0625 -12.5 Z M 10.0625 -12.5 "/></g></g></g><g fill="#8c52ff" fill-opacity="1"><g transform="translate(68.183297, 68.470551)"><g><path d="M 11.171875 -3.1875 C 11.722656 -3.1875 12.101562 -3.238281 12.3125 -3.34375 L 12.359375 -3.328125 L 12.234375 0 L 2.28125 0 L 2.28125 -17.765625 C 2.519531 -17.742188 2.785156 -17.726562 3.078125 -17.71875 L 4.015625 -17.6875 C 4.628906 -17.675781 5.300781 -17.671875 6.03125 -17.671875 C 8.0625 -17.671875 10.066406 -17.703125 12.046875 -17.765625 C 11.953125 -16.992188 11.90625 -15.957031 11.90625 -14.65625 C 11.90625 -14.507812 11.910156 -14.398438 11.921875 -14.328125 L 11.90625 -14.296875 C 11.4375 -14.421875 10.78125 -14.484375 9.9375 -14.484375 L 5.75 -14.484375 L 5.75 -11.109375 L 8.90625 -11.109375 C 9.875 -11.109375 10.457031 -11.132812 10.65625 -11.1875 L 10.6875 -7.90625 C 10.269531 -7.945312 9.722656 -7.96875 9.046875 -7.96875 L 5.75 -7.96875 L 5.75 -3.1875 Z M 11.171875 -3.1875 "/></g></g></g><g fill="#8c52ff" fill-opacity="1"><g transform="translate(84.055427, 68.189412)"><g><path d="M 8.328125 -2.3125 C 7.910156 -2.25 6.859375 -1.972656 5.171875 -1.484375 L 4.765625 -1.375 L 0.71875 -15.484375 L -1.8125 -14.75 C -2.5625 -14.53125 -2.992188 -14.363281 -3.109375 -14.25 C -3.222656 -14.144531 -3.316406 -14.050781 -3.390625 -13.96875 L -3.40625 -13.96875 L -4.34375 -17.234375 L -4.34375 -17.296875 C -4.03125 -17.273438 -3.253906 -17.441406 -2.015625 -17.796875 L 5.984375 -20.109375 C 6.734375 -20.316406 7.164062 -20.476562 7.28125 -20.59375 C 7.394531 -20.707031 7.484375 -20.804688 7.546875 -20.890625 L 7.59375 -20.890625 L 8.53125 -17.625 L 8.5 -17.578125 C 8.195312 -17.578125 7.425781 -17.398438 6.1875 -17.046875 L 4.265625 -16.5 Z M 8.328125 -2.3125 "/></g></g></g><g clip-path="url(#bb3379cb91)"><path fill="#8c52ff" d="M 74.523438 44.875 C 74.320312 44.371094 74.214844 43.828125 74.171875 43.285156 C 74.164062 43.183594 74.15625 43.082031 74.152344 42.980469 C 74.140625 42.550781 74.15625 42.121094 74.128906 41.695312 C 74.074219 40.816406 73.824219 39.96875 73.492188 39.15625 C 73.464844 39.085938 73.4375 39.011719 73.410156 38.941406 C 73.238281 38.492188 73.085938 38.027344 72.808594 37.632812 C 72.726562 37.507812 72.4375 37.078125 72.253906 37.148438 C 72.148438 37.191406 72.027344 37.746094 72.019531 37.863281 C 71.976562 38.257812 71.914062 38.652344 71.824219 39.042969 C 71.820312 39.0625 71.816406 39.082031 71.808594 39.097656 C 71.800781 39.132812 71.789062 39.167969 71.765625 39.195312 C 71.238281 39.949219 70.078125 39.324219 69.535156 40.203125 C 69.34375 40.507812 68.933594 40.902344 68.621094 41.066406 C 68.589844 41.085938 68.5625 41.101562 68.53125 41.117188 C 68.445312 41.164062 68.359375 41.207031 68.273438 41.253906 C 68.164062 41.3125 68.058594 41.367188 67.953125 41.425781 C 67.628906 41.597656 67.414062 41.570312 67.332031 41.941406 C 67.28125 42.179688 67.320312 42.417969 67.394531 42.640625 C 67.398438 42.644531 67.398438 42.648438 67.398438 42.652344 C 67.398438 42.652344 67.402344 42.65625 67.402344 42.65625 C 67.566406 43.148438 67.765625 43.84375 68.191406 44.164062 C 68.585938 44.460938 69.132812 44.421875 69.628906 44.488281 C 69.90625 44.527344 70.164062 44.597656 70.371094 44.773438 C 70.367188 44.898438 70.359375 45.023438 70.351562 45.148438 C 70.335938 45.398438 70.3125 45.644531 70.28125 45.890625 C 70.273438 45.925781 70.261719 45.960938 70.25 45.996094 C 69.804688 47.476562 69.394531 49.136719 69.984375 50.609375 C 72.578125 49.457031 74.933594 47.867188 76.957031 45.929688 C 76.191406 45.738281 74.753906 45.453125 74.523438 44.875 " fill-opacity="1" fill-rule="nonzero"/></g><g clip-path="url(#16d3d1b3a4)"><path fill="#8c52ff" d="M 82.726562 37.414062 C 82.164062 36.972656 81.671875 36.460938 81.3125 35.867188 C 81.042969 35.429688 80.757812 35.003906 80.464844 34.578125 C 79.945312 33.8125 79.390625 33.070312 78.851562 32.316406 C 77.941406 31.050781 77.089844 29.777344 75.378906 29.707031 C 74.492188 29.671875 73.585938 29.882812 72.753906 30.171875 C 71.808594 30.503906 71.738281 31.316406 71.238281 32.046875 C 71.238281 32.050781 71.234375 32.054688 71.234375 32.058594 C 70.492188 33.128906 69.027344 32.800781 68.019531 33.300781 C 67.929688 33.324219 67.828125 33.351562 67.722656 33.382812 C 67.464844 33.460938 67.859375 34.09375 67.945312 34.285156 C 67.949219 34.28125 67.949219 34.28125 67.953125 34.28125 C 68.003906 34.554688 68.039062 34.828125 68.101562 35.101562 C 68.152344 35.351562 68.222656 35.605469 68.378906 35.8125 C 69.105469 36.777344 71.757812 36.675781 72.480469 36.621094 C 72.613281 36.613281 73.039062 36.59375 73.039062 36.59375 C 73.109375 36.230469 73.222656 35.875 73.351562 35.53125 C 73.847656 34.203125 74.429688 32.902344 74.992188 31.605469 C 74.632812 33.144531 74.046875 34.625 73.691406 36.164062 C 73.496094 37.011719 73.308594 38.398438 74.230469 38.90625 C 75.546875 39.628906 76.886719 38.3125 77.425781 37.226562 C 78.15625 35.773438 78.125 33.980469 78.378906 32.40625 C 78.449219 34.355469 78.675781 36.675781 77.441406 38.339844 C 77.292969 38.542969 77.125 38.730469 76.9375 38.894531 C 76.757812 39.054688 76.292969 39.367188 76.292969 39.367188 C 75.925781 39.613281 76.140625 40.757812 76.171875 41.109375 C 76.316406 42.664062 76.390625 44.085938 76.855469 45.496094 C 77.019531 45.535156 77.167969 45.574219 77.289062 45.609375 C 79.617188 43.292969 81.480469 40.511719 82.726562 37.414062 " fill-opacity="1" fill-rule="nonzero"/></g></svg>