<svg xmlns="http://www.w3.org/2000/svg" xmlns:xlink="http://www.w3.org/1999/xlink" width="200" zoomAndPan="magnify" viewBox="0 0 150 68.999997" height="92" preserveAspectRatio="xMidYMid meet" version="1.0"><defs><g/><clipPath id="e9fe37cb5a"><path d="M 62.1875 42 L 79 42 L 79 64.765625 L 62.1875 64.765625 Z M 62.1875 42 " clip-rule="nonzero"/></clipPath><clipPath id="e831c77e73"><path d="M 62.1875 30.265625 L 87.6875 30.265625 L 87.6875 57 L 62.1875 57 Z M 62.1875 30.265625 " clip-rule="nonzero"/></clipPath></defs><g fill="#8c52ff" fill-opacity="1"><g transform="translate(27.079838, 35.381962)"><g><path d="M -1.328125 -3.40625 L -0.640625 -20.796875 L -2.6875 -23.140625 L -2.609375 -31.640625 L 10.859375 -34.96875 L 13.15625 -32.328125 L 27.859375 -6.890625 L 18.515625 -4.578125 L 16.5 -7.8125 L 9.25 -6.015625 L 9.25 -2.28125 L 1.3125 -0.328125 Z M 6.46875 -6.109375 L 6.5 -9.921875 L 15.21875 -12.09375 L 17.015625 -8.71875 L 24.09375 -10.46875 L 10.421875 -34 L -1.765625 -30.984375 L -1.796875 -24.09375 L 0.34375 -24.625 L -0.359375 -4.421875 Z M 6.40625 -28.546875 L 12.546875 -17.125 L 6.4375 -15.625 Z M 11.28125 -17.59375 L 9.109375 -21.71875 L 9.140625 -17.0625 Z M 11.28125 -17.59375 "/></g></g></g><g fill="#8c52ff" fill-opacity="1"><g transform="translate(50.267074, 28.891157)"><g><path d="M 1.84375 -4 L 1.4375 -12.953125 L 1.15625 -12.9375 L -0.625 -16.328125 L 0.953125 -23.890625 L 8.359375 -24.21875 L 8.828125 -23.203125 L 9.3125 -24.25 L 13.859375 -24.453125 C 15.273438 -24.515625 16.375 -24.359375 17.15625 -23.984375 C 17.945312 -23.617188 18.679688 -22.90625 19.359375 -21.84375 L 20.671875 -24.765625 L 24.890625 -24.953125 C 26.640625 -25.023438 28.003906 -24.785156 28.984375 -24.234375 C 29.972656 -23.679688 30.863281 -22.65625 31.65625 -21.15625 C 32.0625 -20.363281 32.394531 -19.695312 32.65625 -19.15625 C 32.914062 -18.625 33.109375 -18.128906 33.234375 -17.671875 C 33.367188 -17.222656 33.46875 -16.765625 33.53125 -16.296875 C 33.601562 -15.828125 33.65625 -15.296875 33.6875 -14.703125 L 33.78125 -12.40625 L 34.34375 -12.4375 L 36 -8.9375 L 34.3125 -1.515625 L 26.515625 -1.171875 L 25 -4.703125 L 24.59375 -13.796875 C 24.4375 -13.816406 24.296875 -13.835938 24.171875 -13.859375 C 24.046875 -13.890625 23.910156 -13.910156 23.765625 -13.921875 C 23.617188 -13.929688 23.445312 -13.9375 23.25 -13.9375 C 23.050781 -13.945312 22.789062 -13.941406 22.46875 -13.921875 L 22 -13.90625 L 22.578125 -1 L 15.015625 -0.671875 L 13.40625 -4.1875 L 13 -13.28125 C 12.625 -13.351562 12.253906 -13.394531 11.890625 -13.40625 C 11.523438 -13.425781 11.046875 -13.421875 10.453125 -13.390625 L 11.03125 -0.484375 L 3.765625 -0.171875 Z M 8.53125 -4.765625 L 7.953125 -17.671875 L 9.75 -17.75 C 10.5 -17.78125 11.125 -17.742188 11.625 -17.640625 C 12.132812 -17.535156 12.546875 -17.332031 12.859375 -17.03125 C 13.171875 -16.726562 13.398438 -16.328125 13.546875 -15.828125 C 13.691406 -15.335938 13.78125 -14.703125 13.8125 -13.921875 L 14.21875 -5.015625 L 20 -5.265625 L 19.421875 -18.171875 L 21.109375 -18.25 C 21.921875 -18.289062 22.59375 -18.257812 23.125 -18.15625 C 23.664062 -18.050781 24.09375 -17.847656 24.40625 -17.546875 C 24.71875 -17.242188 24.945312 -16.820312 25.09375 -16.28125 C 25.238281 -15.738281 25.332031 -15.046875 25.375 -14.203125 L 25.765625 -5.53125 L 32.0625 -5.8125 L 33.203125 -11.59375 L 31.375 -11.5 L 31.109375 -17.59375 C 31.046875 -19.039062 30.910156 -20.117188 30.703125 -20.828125 C 30.503906 -21.546875 30.140625 -22.191406 29.609375 -22.765625 C 29.078125 -23.335938 28.421875 -23.722656 27.640625 -23.921875 C 26.867188 -24.117188 25.796875 -24.1875 24.421875 -24.125 L 21.1875 -23.984375 L 19.296875 -19.90625 C 19.015625 -20.644531 18.710938 -21.265625 18.390625 -21.765625 C 18.066406 -22.273438 17.679688 -22.675781 17.234375 -22.96875 C 16.785156 -23.257812 16.25 -23.453125 15.625 -23.546875 C 15.007812 -23.648438 14.28125 -23.679688 13.4375 -23.640625 L 9.6875 -23.46875 L 7.859375 -19.734375 L 7.703125 -23.390625 L 1.65625 -23.125 L 0.40625 -17.328125 L 2 -17.40625 L 2.578125 -4.5 Z M 8.53125 -4.765625 "/></g></g></g><g fill="#8c52ff" fill-opacity="1"><g transform="translate(83.700757, 27.75219)"><g><path d="M 14.328125 -22.296875 C 16.085938 -22.035156 17.671875 -21.390625 19.078125 -20.359375 C 20.484375 -19.335938 21.53125 -18.066406 22.21875 -16.546875 C 22.519531 -15.941406 22.816406 -15.175781 23.109375 -14.25 C 23.398438 -13.332031 23.65625 -12.398438 23.875 -11.453125 C 24.070312 -10.515625 24.191406 -9.75 24.234375 -9.15625 C 24.273438 -8.5625 24.242188 -7.878906 24.140625 -7.109375 C 23.921875 -5.585938 23.453125 -4.210938 22.734375 -2.984375 C 22.023438 -1.765625 21.144531 -0.75 20.09375 0.0625 C 19.039062 0.882812 17.851562 1.476562 16.53125 1.84375 C 15.207031 2.207031 13.820312 2.28125 12.375 2.0625 C 10.882812 1.851562 9.507812 1.359375 8.25 0.578125 C 6.988281 -0.203125 5.96875 -1.1875 5.1875 -2.375 C 4.800781 -2.976562 4.441406 -3.679688 4.109375 -4.484375 C 3.773438 -5.296875 3.445312 -6.328125 3.125 -7.578125 C 2.9375 -8.253906 2.785156 -8.863281 2.671875 -9.40625 C 2.566406 -9.957031 2.484375 -10.457031 2.421875 -10.90625 C 2.367188 -11.351562 2.347656 -11.785156 2.359375 -12.203125 C 2.367188 -12.628906 2.40625 -13.0625 2.46875 -13.5 C 2.675781 -14.925781 3.140625 -16.21875 3.859375 -17.375 C 4.578125 -18.539062 5.476562 -19.519531 6.5625 -20.3125 C 7.644531 -21.101562 8.847656 -21.679688 10.171875 -22.046875 C 11.503906 -22.410156 12.890625 -22.492188 14.328125 -22.296875 Z M 14.296875 -21.390625 C 12.953125 -21.578125 11.660156 -21.515625 10.421875 -21.203125 C 9.191406 -20.890625 8.082031 -20.367188 7.09375 -19.640625 C 6.101562 -18.910156 5.273438 -18.007812 4.609375 -16.9375 C 3.953125 -15.863281 3.53125 -14.660156 3.34375 -13.328125 C 3.15625 -12.023438 3.222656 -10.753906 3.546875 -9.515625 C 3.878906 -8.285156 4.414062 -7.179688 5.15625 -6.203125 C 5.90625 -5.222656 6.820312 -4.398438 7.90625 -3.734375 C 9 -3.078125 10.21875 -2.65625 11.5625 -2.46875 C 12.851562 -2.28125 14.097656 -2.351562 15.296875 -2.6875 C 16.503906 -3.019531 17.597656 -3.539062 18.578125 -4.25 C 19.554688 -4.96875 20.375 -5.851562 21.03125 -6.90625 C 21.6875 -7.96875 22.109375 -9.132812 22.296875 -10.40625 C 22.484375 -11.738281 22.421875 -13.03125 22.109375 -14.28125 C 21.796875 -15.539062 21.273438 -16.660156 20.546875 -17.640625 C 19.816406 -18.628906 18.914062 -19.453125 17.84375 -20.109375 C 16.769531 -20.773438 15.585938 -21.203125 14.296875 -21.390625 Z M 13.515625 -15.953125 C 14.660156 -15.785156 15.554688 -15.242188 16.203125 -14.328125 C 16.859375 -13.410156 17.101562 -12.363281 16.9375 -11.1875 C 16.78125 -10.101562 16.269531 -9.234375 15.40625 -8.578125 C 14.539062 -7.929688 13.566406 -7.679688 12.484375 -7.828125 C 11.890625 -7.921875 11.347656 -8.101562 10.859375 -8.375 C 10.378906 -8.65625 9.972656 -9.007812 9.640625 -9.4375 C 9.304688 -9.875 9.066406 -10.351562 8.921875 -10.875 C 8.773438 -11.40625 8.738281 -11.945312 8.8125 -12.5 C 8.988281 -13.675781 9.519531 -14.585938 10.40625 -15.234375 C 11.289062 -15.878906 12.328125 -16.117188 13.515625 -15.953125 Z M 15.828125 -10.734375 C 15.347656 -11.109375 14.832031 -11.335938 14.28125 -11.421875 C 12.851562 -11.628906 11.707031 -10.957031 10.84375 -9.40625 C 11.164062 -9.175781 11.429688 -9.007812 11.640625 -8.90625 C 11.847656 -8.8125 12.125 -8.742188 12.46875 -8.703125 C 13.207031 -8.597656 13.875 -8.710938 14.46875 -9.046875 C 15.070312 -9.390625 15.523438 -9.953125 15.828125 -10.734375 Z M 15.828125 -10.734375 "/></g></g></g><g fill="#8c52ff" fill-opacity="1"><g transform="translate(105.017625, 30.895221)"><g><path d="M 2.9375 -3.03125 L 5.359375 -11.71875 L 5.1875 -11.78125 L 4.46875 -15.671875 L 8.328125 -22.40625 L 15.484375 -20.421875 L 15.71875 -18.59375 C 16.789062 -19.03125 17.660156 -19.289062 18.328125 -19.375 C 19.003906 -19.457031 19.734375 -19.390625 20.515625 -19.171875 C 20.898438 -19.066406 21.273438 -18.894531 21.640625 -18.65625 L 22.15625 -14.9375 L 17.96875 -7.78125 C 17.820312 -7.851562 17.703125 -7.898438 17.609375 -7.921875 C 17.515625 -7.941406 17.425781 -7.96875 17.34375 -8 C 16.164062 -8.320312 15.207031 -8.203125 14.46875 -7.640625 C 13.726562 -7.085938 13.144531 -6.039062 12.71875 -4.5 L 10.640625 2.96875 L 3.625 1.015625 Z M 20.328125 -18.21875 C 20.222656 -18.289062 20.117188 -18.335938 20.015625 -18.359375 C 19.910156 -18.390625 19.828125 -18.414062 19.765625 -18.4375 C 18.285156 -18.84375 16.226562 -18.21875 13.59375 -16.5625 L 14.5 -19.859375 L 8.703125 -21.46875 L 5.703125 -16.125 L 7.28125 -15.6875 L 3.875 -3.46875 L 9.5 -1.90625 L 11.5 -9.09375 C 11.90625 -10.539062 12.539062 -11.578125 13.40625 -12.203125 C 14.269531 -12.835938 15.273438 -13 16.421875 -12.6875 C 16.484375 -12.664062 16.554688 -12.640625 16.640625 -12.609375 C 16.734375 -12.585938 16.847656 -12.539062 16.984375 -12.46875 Z M 20.328125 -18.21875 "/></g></g></g><g clip-path="url(#e9fe37cb5a)"><path fill="#ffffff" d="M 74.203125 55.511719 C 73.871094 54.679688 73.691406 53.78125 73.621094 52.878906 C 73.609375 52.710938 73.601562 52.539062 73.59375 52.371094 C 73.570312 51.660156 73.601562 50.949219 73.554688 50.242188 C 73.460938 48.785156 73.042969 47.375 72.5 46.027344 C 72.449219 45.910156 72.40625 45.792969 72.359375 45.671875 C 72.078125 44.925781 71.820312 44.160156 71.363281 43.503906 C 71.222656 43.296875 70.746094 42.585938 70.441406 42.699219 C 70.265625 42.769531 70.070312 43.691406 70.050781 43.882812 C 69.984375 44.542969 69.875 45.195312 69.730469 45.839844 C 69.722656 45.871094 69.714844 45.902344 69.703125 45.9375 C 69.6875 45.992188 69.667969 46.046875 69.632812 46.09375 C 68.753906 47.347656 66.835938 46.308594 65.929688 47.769531 C 65.617188 48.273438 64.933594 48.925781 64.417969 49.203125 C 64.367188 49.226562 64.316406 49.253906 64.269531 49.28125 C 64.125 49.359375 63.980469 49.433594 63.839844 49.511719 C 63.660156 49.605469 63.484375 49.699219 63.304688 49.796875 C 62.773438 50.078125 62.414062 50.03125 62.277344 50.648438 C 62.191406 51.042969 62.257812 51.4375 62.382812 51.808594 C 62.386719 51.816406 62.386719 51.820312 62.390625 51.824219 C 62.390625 51.828125 62.390625 51.832031 62.394531 51.835938 C 62.667969 52.652344 63 53.804688 63.703125 54.335938 C 64.355469 54.828125 65.265625 54.765625 66.089844 54.875 C 66.546875 54.9375 66.976562 55.050781 67.320312 55.347656 C 67.3125 55.554688 67.300781 55.761719 67.289062 55.96875 C 67.261719 56.382812 67.222656 56.789062 67.171875 57.199219 C 67.152344 57.257812 67.136719 57.316406 67.121094 57.371094 C 66.375 59.828125 65.699219 62.582031 66.675781 65.023438 C 70.980469 63.113281 74.886719 60.476562 78.242188 57.265625 C 76.972656 56.945312 74.585938 56.472656 74.203125 55.511719 " fill-opacity="1" fill-rule="nonzero"/></g><g clip-path="url(#e831c77e73)"><path fill="#ffffff" d="M 87.8125 43.140625 C 86.878906 42.410156 86.0625 41.558594 85.464844 40.578125 C 85.023438 39.851562 84.542969 39.144531 84.0625 38.441406 C 83.195312 37.167969 82.277344 35.9375 81.382812 34.6875 C 79.875 32.585938 78.460938 30.476562 75.625 30.359375 C 74.15625 30.300781 72.652344 30.648438 71.269531 31.132812 C 69.703125 31.679688 69.585938 33.03125 68.761719 34.242188 C 68.757812 34.246094 68.753906 34.25 68.75 34.257812 C 67.519531 36.035156 65.089844 35.488281 63.421875 36.320312 C 63.269531 36.355469 63.101562 36.402344 62.925781 36.457031 C 62.5 36.585938 63.152344 37.636719 63.296875 37.949219 C 63.300781 37.945312 63.304688 37.945312 63.308594 37.941406 C 63.390625 38.398438 63.449219 38.851562 63.554688 39.304688 C 63.640625 39.71875 63.757812 40.140625 64.015625 40.480469 C 65.222656 42.082031 69.621094 41.917969 70.816406 41.828125 C 71.035156 41.8125 71.742188 41.777344 71.742188 41.777344 C 71.863281 41.175781 72.050781 40.589844 72.265625 40.015625 C 73.082031 37.816406 74.050781 35.660156 74.984375 33.503906 C 74.386719 36.058594 73.414062 38.515625 72.828125 41.070312 C 72.503906 42.476562 72.191406 44.773438 73.722656 45.617188 C 75.902344 46.816406 78.125 44.628906 79.023438 42.832031 C 80.226562 40.417969 80.179688 37.445312 80.597656 34.832031 C 80.71875 38.066406 81.089844 41.914062 79.046875 44.679688 C 78.800781 45.011719 78.519531 45.320312 78.210938 45.597656 C 77.910156 45.863281 77.140625 46.378906 77.140625 46.378906 C 76.53125 46.785156 76.890625 48.6875 76.941406 49.265625 C 77.179688 51.847656 77.304688 54.207031 78.070312 56.542969 C 78.347656 56.609375 78.589844 56.671875 78.792969 56.730469 C 82.65625 52.890625 85.746094 48.277344 87.8125 43.140625 " fill-opacity="1" fill-rule="nonzero"/></g><g fill="#8c52ff" fill-opacity="1"><g transform="translate(37.467419, 65.156403)"><g><path d="M 2.109375 -3.8125 L 2.109375 -19.546875 L 1.828125 -19.546875 L 0 -23.203125 L 2.109375 -31.34375 L 9.296875 -31.34375 C 10.804688 -31.34375 12.128906 -31.265625 13.265625 -31.109375 C 14.410156 -30.953125 15.429688 -30.679688 16.328125 -30.296875 C 17.222656 -29.921875 18.015625 -29.4375 18.703125 -28.84375 C 19.390625 -28.25 20.03125 -27.515625 20.625 -26.640625 C 21.125 -25.921875 21.582031 -25.132812 22 -24.28125 C 22.425781 -23.4375 22.796875 -22.578125 23.109375 -21.703125 C 23.429688 -20.828125 23.675781 -19.96875 23.84375 -19.125 C 24.019531 -18.28125 24.109375 -17.515625 24.109375 -16.828125 C 24.109375 -14.878906 23.648438 -13.113281 22.734375 -11.53125 C 21.828125 -9.945312 20.53125 -8.671875 18.84375 -7.703125 C 17.90625 -7.171875 16.945312 -6.78125 15.96875 -6.53125 C 15 -6.28125 13.734375 -6.140625 12.171875 -6.109375 L 12.171875 0 L 3.8125 0 Z M 9.671875 -4.375 L 9.671875 -10.4375 C 10.460938 -10.4375 11.128906 -10.453125 11.671875 -10.484375 C 12.222656 -10.515625 12.707031 -10.5625 13.125 -10.625 C 13.550781 -10.6875 13.9375 -10.765625 14.28125 -10.859375 C 14.625 -10.953125 14.984375 -11.0625 15.359375 -11.1875 C 17.335938 -11.96875 18.847656 -13.15625 19.890625 -14.75 C 20.941406 -16.351562 21.46875 -18.265625 21.46875 -20.484375 C 21.46875 -22.171875 21.125 -23.734375 20.4375 -25.171875 C 19.75 -26.617188 18.796875 -27.75 17.578125 -28.5625 C 17.046875 -28.9375 16.507812 -29.25 15.96875 -29.5 C 15.4375 -29.75 14.84375 -29.945312 14.1875 -30.09375 C 13.53125 -30.238281 12.796875 -30.34375 11.984375 -30.40625 C 11.171875 -30.46875 10.210938 -30.5 9.109375 -30.5 L 2.71875 -30.5 L 0.984375 -23.828125 L 2.953125 -23.828125 L 2.953125 -4.375 Z M 9.671875 -24.296875 C 10.585938 -24.296875 11.269531 -24.265625 11.71875 -24.203125 C 12.175781 -24.140625 12.625 -24.03125 13.0625 -23.875 C 13.71875 -23.625 14.253906 -23.175781 14.671875 -22.53125 C 15.097656 -21.882812 15.3125 -21.171875 15.3125 -20.390625 C 15.3125 -19.578125 15.09375 -18.859375 14.65625 -18.234375 C 14.21875 -17.609375 13.640625 -17.171875 12.921875 -16.921875 C 12.453125 -16.753906 12.003906 -16.644531 11.578125 -16.59375 C 11.160156 -16.550781 10.523438 -16.515625 9.671875 -16.484375 Z M 12.171875 -19.734375 L 12.171875 -17.625 C 12.703125 -17.6875 13.160156 -17.894531 13.546875 -18.25 C 13.941406 -18.613281 14.203125 -19.046875 14.328125 -19.546875 C 14.234375 -19.578125 14.03125 -19.597656 13.71875 -19.609375 C 13.40625 -19.628906 12.984375 -19.671875 12.453125 -19.734375 Z M 12.171875 -19.734375 "/></g></g></g><g fill="#8c52ff" fill-opacity="1"><g transform="translate(89.50791, 65.156403)"><g><path d="M 4.609375 -3.8125 L 4.609375 -19.40625 L 1.734375 -19.40625 L 0 -23.015625 L 2.109375 -31.34375 L 11.5625 -31.34375 L 11.84375 -32.421875 L 19.453125 -32.421875 L 21.234375 -28.75 L 18.84375 -19.40625 L 14.5625 -19.40625 L 14.5625 0 L 6.53125 0 Z M 12.125 -23.828125 L 16.53125 -23.828125 L 18.421875 -31.625 L 12.453125 -31.625 L 12.171875 -30.5 L 2.8125 -30.5 L 1.078125 -23.828125 L 5.40625 -23.828125 L 5.40625 -4.375 L 12.125 -4.375 Z M 12.125 -23.828125 "/></g></g></g></svg>