<svg width="400" height="400" viewBox="0 0 400 400" fill="none" xmlns="http://www.w3.org/2000/svg">
<g clip-path="url(#clip0_6_6)">
<path d="M99.599 75.6875L15.1719 168.469C15.1719 168.469 2.90104 155.224 4.93229 130.057C5.83854 127.495 7.26042 119.844 13.4375 113.078C12.9792 112.068 12.6354 110.542 12.9427 109.375C21.0573 102.667 29.0521 103.734 34.5885 102.01C35.4479 101.698 36.2969 101.318 37.1458 100.901C37.3229 100.802 37.4635 100.74 37.5833 100.687C49.6979 94.4323 60.9271 78.6406 69.1927 74.2396C69.1927 74.25 84.026 65.75 99.599 75.6875ZM293.708 364.453C293.964 364.922 293.875 371.505 296.026 374.479C296.026 374.479 287.865 376.563 288.641 383.906C289.578 386.807 295.781 386.755 295.781 386.755C295.781 386.755 316.5 385.651 309.042 373.865C301.578 362.073 293.708 364.453 293.708 364.453ZM258.698 338.776C258.62 339.411 263.193 360.516 260.745 376.042C260.542 378.214 253.438 380.026 257.49 387.62C258.464 389.193 267.839 393.214 272.469 386.526C277.099 379.828 269.479 337.505 258.698 338.776Z" fill="#FFBD59"/>
<path d="M219.557 104.224C219.125 105.625 218.542 106.891 217.833 108.078C217.031 105.922 215.854 103.906 214.323 102.188C212.719 100.365 210.766 98.8802 209.13 97.0938C207.484 95.3073 206.12 93.0938 206.063 90.6719C205.849 93.7188 206.938 97.3906 208.328 100.109C209.724 102.813 211.344 105.469 212.073 108.427C212.578 110.49 212.552 112.776 211.781 114.714C208.208 117.76 204.552 120.74 200.344 122.786C195.693 125.052 190.229 126.094 185.302 124.51C181.005 125.62 176.208 127.083 172.313 129.208C170.667 130.104 169.052 131.099 167.276 131.719C165.182 132.448 162.932 132.641 160.719 132.771C153.99 133.172 147.24 133.135 140.505 132.948C131.604 132.693 122.568 132.151 114.167 129.208C103.771 125.563 94.8854 118.396 87.7083 110.031C80.5312 101.667 71.8594 93.2604 69.5833 82.4792C68.8073 78.7761 68.0885 75.0209 68.1042 71.2344C68.1302 67.4479 68.9323 63.5886 70.9844 60.4011C72.0781 60.6771 73.4115 59.2917 74.2292 58.5104C79.349 53.6459 80.125 45.8906 83.099 39.4844C85.526 34.2396 89.7604 29.6615 95.1927 27.6875C100.88 25.6146 107.161 26.5313 113.141 27.474C120.083 28.5677 126.802 23.0365 131.839 18.125C136.875 13.2136 141.479 7.6146 147.745 4.42709C156.062 0.192718 168.146 1.06251 174.938 7.46355C183.333 7.06251 191.417 11.8906 196.432 18.6354C201.443 25.3802 203.734 33.8177 204.599 42.1823C205.464 50.5469 205.005 58.9844 205.094 67.3854C205.125 70.1719 205.214 73 206.021 75.6667C207.604 80.8802 211.688 84.875 215.026 89.1771C218.396 93.4792 221.177 99.0209 219.557 104.224Z" fill="black"/>
<mask id="mask0_6_6" style="mask-type:luminance" maskUnits="userSpaceOnUse" x="-40" y="-40" width="480" height="480">
<path d="M440 -40H-40V440H440V-40Z" fill="black" fill-opacity="0.25"/>
</mask>
<g mask="url(#mask0_6_6)">
<mask id="mask1_6_6" style="mask-type:luminance" maskUnits="userSpaceOnUse" x="10" y="112" width="21" height="59">
<path d="M30.6667 112H10.6667V170.667H30.6667V112Z" fill="white"/>
</mask>
<g mask="url(#mask1_6_6)">
<mask id="mask2_6_6" style="mask-type:luminance" maskUnits="userSpaceOnUse" x="10" y="112" width="21" height="58">
<path d="M10.8802 112.641H30.0781V169.333H10.8802V112.641Z" fill="white"/>
</mask>
<g mask="url(#mask2_6_6)">
<path d="M23.3385 148.943C23.1667 151.432 22.9844 153.917 22.8125 156.406C22.5729 159.771 22.2917 163.276 20.5938 166.193C20 167.203 19.2135 168.146 18.1458 168.625C17.0729 169.104 15.6875 168.995 14.8958 168.146C14.2552 167.469 14.0937 166.453 14.2083 165.531C14.3281 164.609 14.6823 163.74 14.9583 162.849C15.3906 161.464 15.625 159.995 15.4219 158.552C15.2396 157.307 14.7292 156.135 14.4792 154.911C13.7865 151.609 14.9323 148.234 16.0677 145.057C18.1458 146.703 20.7396 148.339 23.3385 148.943ZM17.276 119.177C17.4063 118.292 14.5625 116.521 13.4375 113.083C12.651 113.948 11.9375 114.833 11.2969 115.714C13.4323 119.74 17.1667 119.953 17.276 119.177ZM27.8385 134.818L29.75 131.365C29.75 131.365 20.526 131.208 20.3542 132.552C21.5208 133.016 27.8385 134.818 27.8385 134.818Z" fill="#3D1E22"/>
</g>
</g>
</g>
<path d="M125.703 335.995C125.703 335.995 130.786 336.24 130.464 337.896C121.026 348.745 125.703 335.995 125.703 335.995ZM4.64063 281.125C4.63021 295.068 128.661 280.943 129.677 268.573C130.693 256.203 17.8906 254.438 4.64063 281.125Z" fill="#3D1E22"/>
<path d="M136.547 255.542C134.948 277.38 128.005 333.109 128.031 339.177C128.062 346.354 83.9687 369.094 78.0208 346.063C72.0729 323.026 64.1875 315.411 61.6614 294.51C59.7708 280.188 63.3073 268.911 64.6146 262.984C64.2031 259.859 61.7396 251.911 61.7396 251.911C61.7396 251.911 124.849 243.88 136.547 255.542Z" fill="#FFB1B8"/>
<path d="M92.9479 256.833C70.9219 267.156 59.4739 276.906 59.4739 276.906C59.4739 276.906 50.5 274.036 57.2239 257.729C63.9427 241.422 104.339 251.495 92.9479 256.833ZM106.781 250.016C106.698 249.802 106.406 249.839 106.38 250.073C106.057 254.068 106.672 258.172 106.667 262.182C106.667 263.365 106.635 264.542 106.594 265.724C106.203 265.37 105.76 265.073 105.401 264.677C104.526 263.724 104.24 262.396 103.943 261.135C103.344 258.62 102.464 256.016 100.51 254.313C98.5625 252.615 95.7917 254.635 94.0364 256.542C94.5729 260.63 93.5781 263.953 94.0573 265.802C94.5364 267.651 96.0521 269.406 97.9635 269.448C98.526 271.01 99.3021 272.766 100.74 273.609C101.474 274.042 102.339 274.198 103.187 274.245C104.161 274.302 105.177 274.552 106.005 274.042C105.995 274.146 105.99 274.245 105.974 274.354C105.13 282.177 103.865 289.953 103.297 297.807C102.187 313.323 101.51 329.089 101.708 344.646C101.708 344.714 101.812 344.714 101.818 344.646C103.51 328.844 103.651 312.932 104.854 297.109C105.479 288.984 106.682 280.938 107.453 272.828C107.458 272.776 107.458 272.719 107.469 272.667C107.682 272.406 107.885 272.146 108.083 271.885C108.099 270.917 108.089 269.635 107.891 268.464C108.521 262.302 108.979 255.573 106.781 250.016Z" fill="#3D1E22"/>
<path d="M191.651 130.068C189.349 148.167 153.021 163.615 153.021 163.615L146.505 152.068C146.505 152.068 131.849 170.839 129.036 173.495C126.229 176.156 120.38 180.193 120.38 180.193C138.615 221.797 136.547 255.547 136.547 255.547C84.0417 243.698 51.5781 285.203 4.64062 281.125C4.64062 281.125 5.05208 186.203 21.5677 147.906C21.5677 147.906 32.6146 119.26 58.724 93.1042C70.2604 79.0573 83 72.8542 99.5885 79.8386C114.125 85.9583 116.807 121.781 116.807 121.781C116.807 121.781 122.969 122.12 127.938 120.349C127.969 119.891 127.99 119.432 127.974 118.979C127.906 117.01 127.313 115.099 126.99 113.146C126.307 108.943 127.448 104.365 129.281 100.526C127.969 105.5 128.401 110.911 130.5 115.604C130.885 116.474 131.333 117.339 131.771 118.214C132.516 117.563 133.13 116.792 133.536 115.875C134.359 113.005 132.807 111.583 132.375 108.74C132.115 107.042 140.078 105.057 141.359 101.719C145.99 97.0625 142.203 93.6719 145.719 91.6302C163.354 81.4167 167.875 99.5573 167.875 99.5573C177.188 102.333 187.469 122.661 191.651 130.068Z" fill="#8C52FF"/>
<mask id="mask3_6_6" style="mask-type:luminance" maskUnits="userSpaceOnUse" x="-40" y="-40" width="480" height="480">
<path d="M440 -40H-40V440H440V-40Z" fill="black" fill-opacity="0.25"/>
</mask>
<g mask="url(#mask3_6_6)">
<mask id="mask4_6_6" style="mask-type:luminance" maskUnits="userSpaceOnUse" x="144" y="98" width="168" height="294">
<path d="M312 98.6667H144V392H312V98.6667Z" fill="white"/>
</mask>
<g mask="url(#mask4_6_6)">
<mask id="mask5_6_6" style="mask-type:luminance" maskUnits="userSpaceOnUse" x="144" y="100" width="167" height="291">
<path d="M144.641 100H310.667V390.667H144.641V100Z" fill="white"/>
</mask>
<g mask="url(#mask5_6_6)">
<path d="M146.505 152.068C146.505 152.068 145.932 152.807 144.99 154.005C145.115 152.25 145.411 150.5 145.854 148.802C147.12 143.844 149.443 139.24 151.734 134.672C155.031 128.073 158.302 121.458 160.854 114.542C162.057 111.276 163.12 107.911 164.953 104.953C165.797 103.594 167.583 101.083 169.375 100.172C170.688 100.807 172.01 101.75 173.328 102.927C174.099 105.87 173.656 110 173.469 112.406C172.734 121.74 169.172 130.656 165.078 138.979C163.661 141.87 162.151 144.792 161.703 147.969C161.427 149.922 161.552 151.901 161.427 153.865C161.286 156.052 160.797 158.214 160.021 160.266C155.87 162.406 153.031 163.615 153.031 163.615L146.505 152.068ZM293.708 364.453C293.964 364.922 293.875 371.505 296.026 374.479C296.026 374.479 287.865 376.563 288.641 383.906C289.578 386.807 295.781 386.755 295.781 386.755C295.781 386.755 316.5 385.651 309.042 373.865C301.578 362.073 293.708 364.453 293.708 364.453ZM258.698 338.776C258.62 339.411 263.193 360.516 260.745 376.042C260.542 378.214 253.438 380.026 257.49 387.62C258.464 389.193 267.839 393.214 272.469 386.526C277.099 379.828 269.479 337.505 258.698 338.776Z" fill="#3D1E22"/>
</g>
</g>
</g>
<mask id="mask6_6_6" style="mask-type:luminance" maskUnits="userSpaceOnUse" x="218" y="218" width="179" height="178">
<path d="M218.667 218.667H396.911V396H218.667V218.667Z" fill="white"/>
</mask>
<g mask="url(#mask6_6_6)">
<path d="M283.031 226.37C286.068 235.839 306.948 243.802 293.859 254.849C299.26 268.646 307.828 292.339 340.943 301.719C342.01 302.536 343.089 303.354 344.177 304.182C368.828 322.896 378.047 344.589 374.172 365.594C374.172 365.594 383.286 360.432 378.401 328.865C374.411 303.078 363.016 285.396 371.964 283.161C375.479 282.74 379.031 285.365 382.302 289.948C388.016 297.943 382.245 307.615 395.177 326.021C396.599 334.724 397.057 343.49 396.146 350.964C392.917 377.547 375.078 392.458 355.422 391.208C330.453 399.87 295.089 392.469 293.781 389.578C290.776 380.349 304.932 376.667 304.932 376.667C303.328 375.255 301.948 369.234 301.948 369.234C291.177 368.906 286.083 362.286 286.083 362.286C286.083 362.286 284.568 387.052 281.865 389.547C279.167 392.052 263.839 392.615 261.849 389.313C259.083 381.828 267.302 379.568 267.302 379.568C268.443 360.646 264.563 346.188 264.563 346.188C253.688 339.208 245.266 321.448 244.047 309.786C242.828 298.12 250.531 286.938 246.51 266.714C237.271 270.146 228.646 262.797 229.188 259.375C230.203 256.125 239.391 256.609 240.734 252.797C237.281 255.052 228.521 255.307 223.651 252.385C217.974 248.995 217.755 238.641 221.745 236.625C233.432 237.969 239.057 235.26 243.307 231.286C245.74 229.016 250.375 236.104 252.781 233.516C252.781 233.516 252.745 221.089 258.391 220.219C263.76 219.396 271.849 220.182 283.031 226.37Z" fill="#FFBD59"/>
</g>
<path d="M73.849 345.667C74.0312 345.693 75.776 345.245 78.125 346.401C83.1771 346.63 92.1146 346.083 101.844 343.354L102.406 337.443C102.406 337.443 124.089 339.26 130.469 337.885C128.521 348.531 130.589 355.432 142.885 359.464C152.724 361.484 157.047 366.115 153.651 377.286C153.036 381.224 139.693 383.698 126.479 377.682C128.062 388.313 120.49 396.172 104.62 394.938C96.3021 394.167 88.4792 380.818 86.1094 381.203C83.75 381.594 77.8073 380.094 75.3385 376.255C71.7812 368.411 77.8021 360.193 76.4323 354.734C75.0521 349.281 73.849 345.667 73.849 345.667ZM262.854 228.313C262.609 226.094 261.911 223.875 260.526 222.13C259.938 221.38 259.214 220.734 258.401 220.234C252.76 221.099 250.135 223.75 250.135 223.75C247.729 226.339 245.745 229.021 243.318 231.297C242.224 234.474 242.443 238.125 244.073 241.078C245.156 243.047 246.839 244.729 248.927 245.563C251.01 246.396 253.5 246.318 255.411 245.13C256.427 244.5 257.25 243.578 257.771 242.51C258.573 240.865 258.646 238.922 259.5 237.302C260.188 236.01 261.339 235.021 262.042 233.745C262.943 232.115 263.057 230.161 262.854 228.313ZM335.75 306.714C337.661 305.667 339.516 303.818 340.943 301.719C317.807 284.057 299.297 268.667 293.875 254.891C287.589 261.057 281.135 262.292 281.135 262.292C281.849 269.995 284.135 278.026 288.219 284.594C289.651 286.901 291.328 289.141 293.615 290.604C296.063 292.167 299 292.698 301.786 293.526C306.609 294.958 311.141 297.365 315.026 300.563C317.87 302.901 320.443 305.693 323.802 307.193C327.573 308.88 332.13 308.698 335.75 306.714ZM322.771 332.646C321.109 338.813 322.135 345.62 325.37 351.12C326.729 353.438 328.547 355.599 330.979 356.724C335.245 358.698 340.328 357.141 344.917 358.151C348.26 358.891 351.724 360.974 354.849 359.573C356.656 358.76 357.792 356.958 358.781 355.245C361.281 350.901 363.651 346.156 363.354 341.151C363.167 338.036 361.953 335.094 360.656 332.25C358.286 327.068 355.453 321.88 350.974 318.344C346.51 314.828 338.693 312.625 333.984 316.818C329.281 321.031 324.438 326.453 322.771 332.646ZM382.302 289.948C378.932 293.635 376.635 299.021 376.62 303.953C376.604 307.51 377.438 311.359 380.146 313.672C382.578 315.75 386.135 316.26 388.313 318.604C390.391 320.849 391.021 324.563 393.849 325.729C394.281 325.906 394.729 325.99 395.182 326.021C392.87 311.885 388.005 297.943 382.302 289.948Z" fill="black"/>
<path d="M147.969 104.828C148.099 109.698 140.125 112.375 138.781 106.38C138.781 106.38 136.844 109.974 132.365 108.724C132.109 107.026 132.25 104.823 133.531 101.495C138.156 96.8333 142.193 93.6771 145.714 91.6406C150.969 91.8437 155.562 93.8177 156.099 95.3646C157.391 99.0781 154.401 105.813 147.969 104.828ZM155.562 159.172C150.354 164.479 154.068 166.604 158.359 163.109C162.646 159.615 155.562 159.172 155.562 159.172Z" fill="#3D1E22"/>
<path d="M129.047 173.495C129.047 173.495 153.427 136.391 155.13 97.1823C155.13 97.1823 159.115 92.9219 167.385 95.7031C174.901 99.5625 174.536 131.099 129.047 173.495ZM70.3177 145.656C70.276 145.672 67.4948 136.542 66.2396 130.516C61.4792 132.495 41.3646 140.172 26.901 134.604C10.3906 128.25 18.9375 145.292 21.5573 147.911C24.1823 150.531 51.7448 156.854 70.3177 145.656Z" fill="#FFBD59"/>
<mask id="mask7_6_6" style="mask-type:luminance" maskUnits="userSpaceOnUse" x="-40" y="-40" width="480" height="480">
<path d="M440 -40H-40V440H440V-40Z" fill="black" fill-opacity="0.25"/>
</mask>
<g mask="url(#mask7_6_6)">
<mask id="mask8_6_6" style="mask-type:luminance" maskUnits="userSpaceOnUse" x="64" y="129" width="315" height="250">
<path d="M378.667 129.333H64V378.667H378.667V129.333Z" fill="white"/>
</mask>
<g mask="url(#mask8_6_6)">
<mask id="mask9_6_6" style="mask-type:luminance" maskUnits="userSpaceOnUse" x="65" y="129" width="314" height="250">
<path d="M65.3333 129.922H378.563V378.24H65.3333V129.922Z" fill="white"/>
</mask>
<g mask="url(#mask9_6_6)">
<path d="M105.901 254.214C101.474 254.807 98.2604 255.422 94.0417 256.542C92.4688 250.833 86.1823 251.141 85.7396 233.198C85.5937 227.219 81.776 219.333 79.5781 213.771C76.8073 206.75 74.5521 197.594 73.7708 190.083C73.3854 186.349 65.1094 174.229 73.4479 179.141C73.4583 176.188 68.8437 175.339 68.4375 168.813C73 171.594 73.3646 166.911 73.026 164.708C72.2292 159.474 68.8073 155.042 67.1719 150.016C65.1094 143.677 65.3437 137.115 66.25 130.516C66.3125 136.276 70.2865 145.677 70.3229 145.656L79.4531 145.135C88.3281 159.307 93.7969 175.943 94.2188 192.667L112.521 181.682C112.521 181.682 116.911 182.948 120.5 180.427C122.302 184.552 123.901 188.589 125.323 192.531C122.427 193.026 115.833 193.156 110.016 188.031L98.0885 197.552C98.4896 210.984 101.693 224.156 103.422 237.479C104.083 242.698 105.62 248.672 105.901 254.214ZM247.328 271.964C252.948 269.328 256.401 262.339 256.401 262.339C256.401 262.339 251.719 265 246.51 266.714C246.88 268.531 247.141 270.281 247.328 271.964ZM378.219 358.724C376.542 364.229 374.172 365.594 374.172 365.594C374.281 365.01 374.37 364.438 374.458 363.854L374.156 364.255C374.156 364.255 371.625 373.432 369.651 376.375C369.651 376.375 377.156 372.266 378.219 358.708V358.724ZM296.943 368.583C296.943 368.583 299.354 369.281 301.958 369.234C301.958 369.234 294.583 359.417 304.75 335.422C304.75 335.422 294.302 347.714 296.943 368.583ZM117.094 358.635C115.234 357.443 113.26 356.385 111.677 354.844C109.797 353 108.599 350.573 107.698 348.094C106.797 345.62 107.521 340.057 107.01 337.781C104.24 337.594 102.391 337.443 102.391 337.443L101.828 343.354C101.745 343.38 101.677 343.396 101.599 343.417C101.677 345.391 101.969 347.625 102.708 349.901C104.87 356.604 106.563 361.927 113.25 366.146C119.943 370.359 126.01 371.344 126.464 377.688C128.068 374.224 126.875 370.031 125.063 366.672C123.26 363.313 120.302 360.698 117.094 358.635ZM268.125 259.135C270.755 264.849 285.354 270.932 296.198 259.604L293.87 254.849C278.781 270.563 268.125 259.135 268.125 259.135Z" fill="#3D1E22"/>
</g>
</g>
</g>
<path d="M184.266 42.3021C179.203 40.7187 176.286 41.4323 167.875 47.9427C159.458 54.4479 152.943 48.8385 146.505 44.6667C140.073 40.5 132.609 48.2708 136.37 56.8125C130.354 66.4896 142.391 77.4427 139.198 88.349C135.365 97.974 133.536 101.484 133.536 101.484C142.74 106.724 147.917 102.25 148.969 96.9531C164.521 103.745 182.911 86.0937 183.359 78.1615C183.359 78.1615 185.797 75.5729 188.24 71.8073C187.823 69.7344 187.135 68.2917 185.609 66.4531C184.807 65.4844 185.547 63.7292 186.021 63.5052C187.276 62.9115 188.937 67.1042 189.333 70.0365C190.844 67.4583 192.203 64.4896 192.797 61.4844C194.464 53.0417 184.266 42.3021 184.266 42.3021ZM175.792 58.3437C171.073 54.5625 167.88 56.5208 167.385 54.5625C167.292 51.6562 177.802 53.6562 179.385 56.8646C180.12 58.3281 176.719 59.4219 175.792 58.3437ZM191.651 130.068C197.094 139.349 205.276 163.896 206.229 164.646C224.682 175.068 246.599 205.995 251.271 210.063C255.948 214.135 265.901 212.448 271.604 214.495C277.313 216.542 286.005 222.661 286.391 223.536C286.776 224.411 286.203 225.573 286.203 225.573C283.844 230.927 274.125 224.646 267.339 225.219C267.339 225.219 270.167 227.828 268.833 229.344C266.161 231.729 259.005 228.068 255.292 227.755C242.875 226.833 241.708 219.604 238.682 218.776C187.823 208.568 155.562 159.167 155.562 159.167C172.703 141.068 191.651 130.068 191.651 130.068ZM118.115 259.781C117.099 261.536 114.344 260.651 114.344 260.651C114.021 270.266 107.734 273.625 107.734 273.625C106.375 274.734 104.271 274.672 102.99 273.276C100.88 273.229 99.0885 270.917 100.042 267.052C94.6719 268.698 96.6927 257.943 96.0417 254.714C86.6771 243.391 90.5 242.63 90.2969 233.427C90.2969 223.906 78.0208 205.234 80.7604 173.615C80.3958 171.01 74.125 152.688 74.151 141.344C98.1406 130.068 112.833 132.766 112.833 132.766C112.833 132.766 114.401 157.891 112.833 177.901C111.339 196.969 108.255 229.359 107.958 235.292C111.12 239.057 113.958 242.526 115.328 245.635C117.021 249.5 118.802 258.453 118.115 259.781Z" fill="#FFB1B8"/>
<path d="M124.812 373.911C124.844 374.005 124.708 374.052 124.661 373.974C122.13 369.688 116.849 369.203 112.849 366.875C110.505 365.505 108.5 363.625 106.885 361.453C103.031 356.25 100.604 348.406 101.698 341.964C101.714 341.87 101.859 341.885 101.88 341.964C102.984 345.844 103.062 349.911 104.453 353.734C105.87 357.62 108.115 361.193 111.354 363.807C115.839 367.411 122.885 367.661 124.812 373.911ZM73.849 345.667C74.3281 346.792 78.125 346.401 78.125 346.401L77.4844 344.016C77.4844 344.016 73.5521 344.401 73.849 345.667ZM131.25 354.885C128.354 354.245 125.844 356.135 123.984 358.151C123.937 358.203 124 358.281 124.062 358.25C125.094 357.75 126.182 357.375 127.245 356.938C128.464 356.432 129.807 355.474 131.156 355.552C131.542 355.573 131.625 354.969 131.25 354.885ZM81.9062 377.177C81.8594 377.135 81.7812 377.193 81.8229 377.25C83.7344 379.734 85.6615 382.073 88.6771 383.203C88.7448 383.229 88.8021 383.125 88.7448 383.078C86.4427 381.151 84.1823 379.146 81.9062 377.177ZM144.078 55.2031C144.141 55.3229 144.312 55.2604 144.318 55.1406C144.401 52.1927 143.479 49.3958 140.724 47.9427C140.526 47.8386 140.229 48.0104 140.312 48.2552C141.276 50.7448 142.833 52.8594 144.078 55.2031ZM140.323 60.4844C138.833 59.0781 137.26 57.849 136.385 55.9271C136.214 55.5521 135.562 55.8281 135.708 56.2136C136.516 58.2292 137.979 60.2552 140.245 60.6198C140.323 60.6354 140.391 60.5469 140.323 60.4844ZM167.375 88.7656C165.234 88.7344 162.828 88.7813 161.641 86.6667C160.714 85.0156 160.672 83.2813 160.687 81.474C160.687 81.4011 160.625 81.3646 160.562 81.3802C158.635 81.75 160.24 86.1927 160.807 87.1615C162.302 89.7292 164.849 89.8229 167.406 88.9479C167.505 88.9167 167.49 88.7656 167.375 88.7656ZM179.818 69.6146C178.396 71.1719 177.859 73.0052 177.719 75.099C177.646 76.1198 177.771 77.099 177.812 78.1146C177.937 80.9323 177.104 82.2969 174.781 83.7604C174.719 83.8021 174.734 83.9219 174.823 83.9219C176.724 83.8281 178.521 82.6927 179.109 80.8021C179.583 79.2917 178.984 77.5834 178.969 76.0521C178.943 73.8802 179.557 71.8333 180.031 69.7396C180.062 69.6146 179.911 69.5104 179.818 69.6146ZM172.453 62.6354C171.406 61.849 169.755 62.2656 168.771 63.5729C167.786 64.875 167.833 66.5781 168.885 67.3698C169.943 68.1667 171.589 67.7396 172.573 66.4323C173.552 65.1198 173.505 63.4219 172.453 62.6354ZM184.563 70C183.516 69.2136 181.865 69.6302 180.88 70.9375C179.896 72.2448 179.943 73.9427 181 74.7344C182.052 75.5313 183.698 75.1042 184.682 73.8021C185.656 72.4844 185.609 70.7865 184.563 70ZM265.396 224.505C266.224 225.167 267.135 225.599 268.073 226.073C268.182 226.125 268.302 225.984 268.208 225.896C267.448 225.188 266.76 224.448 265.932 223.818C265.167 223.24 264.297 222.859 263.516 222.307C263.453 222.26 263.391 222.354 263.438 222.411C264.099 223.094 264.635 223.901 265.396 224.505ZM194.229 175.589C194.219 175.708 194.385 175.776 194.464 175.682C195.573 174.396 196.349 172.896 197.594 171.677C198.813 170.484 200.224 169.552 201.563 168.505C201.609 168.469 201.552 168.406 201.505 168.411C198.297 168.859 194.557 172.26 194.229 175.589ZM272.354 219.24C274.943 220.286 277.589 221.099 280.042 222.458C282.219 223.672 284.188 225.203 286.359 226.417C286.406 226.443 286.469 226.385 286.438 226.339C283.401 222.302 277.349 219.484 272.375 219.089C272.281 219.083 272.281 219.208 272.354 219.24ZM249.224 232.302C250.021 232.714 250.823 233.12 251.521 233.682C252.828 234.719 253.734 236.042 254.828 237.26C254.969 237.417 255.286 237.302 255.271 237.078C255.151 235.583 254.208 234.151 253.089 233.182C252.474 232.651 251.75 232.193 251.021 231.854C250.672 231.688 248.76 231.375 248.672 231.146C248.641 231.052 248.526 231.005 248.448 231.083C248.406 231.125 248.37 231.161 248.328 231.203C248.271 231.255 248.234 231.365 248.266 231.448C248.453 231.927 248.745 232.057 249.224 232.302ZM255.917 262.24C254.198 262.969 252.391 263.417 250.672 264.182C248.995 264.922 247.401 265.813 245.729 266.557C245.458 266.682 245.651 267.13 245.938 267.047C247.635 266.521 249.302 266.073 250.943 265.365C252.781 264.568 254.286 263.38 255.969 262.333C256.031 262.302 255.979 262.214 255.917 262.24ZM266.318 348.464C262.297 338.089 257.922 327.875 253.969 317.474C253.932 317.365 253.776 317.401 253.792 317.521C255.75 328.37 259.786 339.427 265.984 348.594C266.104 348.755 266.396 348.656 266.318 348.464ZM285.479 347.172C286.161 353.38 286.141 359.651 286.516 365.885C286.526 365.979 286.682 366.016 286.698 365.906C287.641 359.526 287.068 353.427 286.115 347.083C286.063 346.729 285.438 346.807 285.479 347.172ZM307.865 331.323C301.651 337.651 299.453 348.854 299.146 357.417C298.823 366.443 301.333 374.896 307.151 381.833C307.307 382.026 307.609 381.781 307.479 381.578C303.13 374.635 300.724 366.307 300.604 358.135C300.479 349.589 302.349 338.208 307.938 331.401C307.995 331.344 307.917 331.276 307.865 331.323ZM298.573 385.307C296.953 386.557 295.943 388.854 296.667 390.891C296.865 391.443 297.714 391.229 297.557 390.651C297.156 389.099 298.005 386.786 298.682 385.422C298.714 385.354 298.646 385.25 298.573 385.307ZM272.344 378.427C270.12 377.719 268.01 378.307 266.099 379.505C265.823 379.677 266 380.073 266.307 380.01C268.323 379.599 270.365 379.385 272.344 378.813C272.542 378.766 272.536 378.49 272.344 378.427ZM266.411 384.969C265.344 385.276 264.38 386.115 263.901 387.115C263.5 387.948 263.026 389.406 263.625 390.24C263.714 390.359 263.88 390.375 263.958 390.24C264.411 389.49 264.406 388.464 264.813 387.651C265.276 386.724 265.854 385.953 266.531 385.172C266.599 385.078 266.536 384.927 266.411 384.969ZM374.688 360.339C374.677 360.255 374.557 360.234 374.542 360.323C373.042 367.094 370.641 373.052 367.557 379.255C367.484 379.406 367.667 379.552 367.781 379.438C372.75 374.495 375.151 367.26 374.688 360.339ZM100.198 267.417C102.604 264.724 102.646 260.651 101.844 257.318C101.828 257.255 101.74 257.271 101.729 257.333C101.568 260.349 101.635 264.417 99.6771 266.896C99.3854 267.26 99.875 267.776 100.198 267.417ZM102.922 273.651C106.766 270.682 109.115 262.505 107.49 257.964C107.437 257.818 107.224 257.839 107.219 258.005C106.974 262.953 105.964 269.469 102.714 273.391C102.604 273.521 102.755 273.776 102.922 273.651ZM103.276 273.453C103.208 273.422 103.161 273.505 103.219 273.547C105.464 275.271 107.13 274.552 108.406 273.021C115.052 271.13 115.115 260.875 114.172 255.599C114.151 255.453 113.906 255.484 113.922 255.63C114.354 261.469 113.953 268.094 109.208 271.885C109.708 271.073 110.146 270.172 110.521 269.323C112.365 265.198 112.385 261.151 111.432 256.833C111.411 256.745 111.26 256.76 111.271 256.854C111.724 261.354 110.609 276.615 103.276 273.453ZM112.672 182.135C117.177 182.781 121.042 181.797 123.948 178.109C124.135 177.87 123.906 177.51 123.609 177.677C121.901 178.604 120.375 179.885 118.557 180.625C116.729 181.365 114.599 181.578 112.661 181.875C112.542 181.891 112.536 182.115 112.672 182.135ZM80.6719 174.813C80.8542 174.813 80.901 174.583 80.7604 174.49C77.125 171.969 72.526 170.797 68.7135 168.422C65.1615 166.208 61.7865 163.708 59.0104 160.568C58.9531 160.505 58.8698 160.599 58.9167 160.661C61.5417 164 64.7135 166.87 68.2083 169.276C71.6615 171.63 76.3385 174.797 80.6719 174.813ZM78.401 179.161C78.8385 178.911 78.4531 178.302 78.0052 178.495C76.599 179.099 73.276 177.776 71.7396 177.531C69.8073 177.224 67.8646 176.922 65.9167 176.698C65.8385 176.693 65.8385 176.802 65.901 176.823C68.474 177.724 71.1615 178.526 73.8125 179.146C75.4062 179.516 76.9271 180.005 78.401 179.161ZM78.0521 240.682C80.651 241.182 83.1198 242.208 85.6927 242.776C85.849 242.807 85.9792 242.62 85.8594 242.5C83.7812 240.422 81.0104 239.865 78.1771 239.802C77.6771 239.786 77.5469 240.589 78.0521 240.682ZM87.0573 252.802C87.6302 252.818 87.724 252.094 87.3229 251.802C84.9323 250.089 82.0677 251.167 80.026 252.865C79.9271 252.953 80.0365 253.141 80.1615 253.094C82.3906 252.26 84.7656 252.734 87.0573 252.802ZM114.542 132.255C114.542 132.37 114.708 132.385 114.74 132.276C118.38 121.156 116.375 108.505 112.49 97.7552C112.276 97.1719 111.365 97.4011 111.547 98.0156C115 109.417 114.771 120.526 114.542 132.255ZM246.974 249.536C239.661 253.448 232.031 255.359 223.99 252.521C223.818 252.458 223.75 252.719 223.917 252.786C231.474 255.943 240.969 255.557 247.047 249.625C247.094 249.583 247.031 249.516 246.974 249.536ZM226.547 236.964C225.068 236.932 223.479 236.818 221.755 236.625C220.401 237.307 219.536 238.953 219.198 240.958C223.406 242.714 226.333 239.646 226.547 236.964ZM37.0937 151.948C29.4583 150.943 22.2656 148.88 15.7604 144.693C15.5156 144.536 15.3021 144.917 15.5417 145.078C21.9896 149.49 29.2396 152.234 37.099 152.109C37.1875 152.094 37.1875 151.958 37.0937 151.948ZM19.6615 122.714C19.7396 122.786 19.8437 122.682 19.7812 122.599C16.8542 118.948 13.8021 114.224 13.0625 109.542C13.0312 109.339 12.7292 109.328 12.6354 109.49C11.526 111.438 13.1458 114.042 14.099 115.828C15.526 118.474 17.4531 120.703 19.6615 122.714ZM39.2344 111.469C38.1927 108.385 36.6146 105.568 35.8906 102.365C35.8125 102.01 35.1875 102.073 35.2344 102.453C35.651 105.693 36.5417 109.276 39.0312 111.589C39.1146 111.667 39.2708 111.589 39.2344 111.469ZM22.6667 121.943C25.7448 119.396 29.7135 120.125 33.2292 118.74C35.8333 117.729 37.4167 115.656 38.7292 113.286C38.8229 113.115 38.5781 112.901 38.4375 113.068C37.4062 114.24 36.4219 115.563 35.25 116.594C33.4479 118.177 31.3073 118.615 29.0417 119.026C26.5312 119.474 24.3854 119.953 22.5833 121.849C22.5208 121.911 22.6042 122 22.6667 121.943ZM157.469 102.422C156.724 115.151 153.474 127.943 148.036 139.484C148.005 139.557 148.104 139.625 148.146 139.547C154.328 127.896 157.635 115.62 158.141 102.422C158.156 101.99 157.495 101.995 157.469 102.422ZM18.5156 131.891C26.7448 135.677 35.8958 137.406 44.9167 136.068C45.0781 136.047 45.0417 135.781 44.875 135.781C35.8125 135.891 27.1302 134.849 18.5677 131.755C18.5 131.734 18.4427 131.859 18.5156 131.891ZM53.1927 137.87C44.6146 139.563 35.2344 140.01 26.6719 138.047C26.375 137.974 26.25 138.417 26.5469 138.51C35.6615 141.271 44.2917 141.573 53.25 138.094C53.3802 138.031 53.3333 137.839 53.1927 137.87ZM96.7448 369.354C99.875 366.979 103.432 366.292 107.089 365.068C107.234 365.021 107.203 364.828 107.057 364.813C103.229 364.438 98.2865 365.099 96.4896 369.109C96.4271 369.25 96.5781 369.479 96.7448 369.354ZM118.885 380.224C110.734 383.005 103.651 381.599 95.4687 380.063C95.276 380.026 95.1198 380.307 95.3281 380.401C102.589 383.583 112.031 385.005 118.958 380.385C119.036 380.333 118.99 380.182 118.885 380.224ZM151.219 368.151C147.474 369.719 143.406 371.552 139.266 371.406C139.062 371.401 139.073 371.698 139.266 371.724C143.823 372.323 147.625 371.021 151.318 368.385C151.432 368.318 151.37 368.094 151.219 368.151ZM70.3021 145.75C70.4896 146.755 71.7552 147.349 74.3437 146.813L74.151 141.344C71.8698 142.411 70.5 143.969 70.3021 145.193C68.651 138.651 66.3177 132.734 66.2396 125.823C66.2396 125.578 65.8854 125.589 65.8698 125.823C65.3177 132.922 66.3281 139.604 70.2292 145.708C70.2448 145.734 70.2708 145.75 70.3021 145.75ZM108.297 234.505C108.375 234.297 108.099 234.193 107.958 234.313C106.516 235.474 105.375 236.719 103.354 236.547C103.156 236.531 103.068 236.839 103.25 236.922C105.281 237.896 107.578 236.5 108.297 234.505ZM114.833 260.427C114.635 260.422 114.589 260.745 114.786 260.776C116.25 260.969 118.052 260.563 118.464 258.927C118.943 257.021 118.094 254.172 117.437 252.427C117.406 252.339 117.271 252.349 117.271 252.448C117.312 254.125 117.609 255.745 117.786 257.406C117.849 257.979 117.958 258.656 117.667 259.193C117.141 260.146 115.818 260.469 114.833 260.427ZM293.781 254.76C289.87 259.505 277.703 264.135 272.099 260.813C263.005 255.432 265.714 243.391 262.865 234.87C262.818 234.719 262.573 234.734 262.573 234.906C262.833 244.286 262.479 258.656 273.036 262.87C279.891 265.599 290.531 261.438 293.964 254.906C294.026 254.792 293.87 254.651 293.781 254.76ZM147.042 102.042C152.651 104.854 148.969 96.9584 148.969 96.9584C144.958 95.0573 139.198 88.3594 139.198 88.3594L138.703 89.6094C138.693 89.6094 141.432 99.2396 147.042 102.042Z" fill="#3D1E22"/>
<path d="M143.708 44.1875C134.698 43.9687 129.932 49.9271 125.286 56.8437C125.245 56.9062 125.156 56.849 125.187 56.7865C128.469 50.4062 135.13 40.6302 143.74 43.974C143.849 44.0156 143.839 44.1979 143.708 44.1875ZM114.542 34.8542C107.75 32.8333 100.937 35.0521 96.7344 40.7812C94.0104 44.4948 92.1562 48.8073 89.6198 52.6562C86.6771 57.125 82.2135 64.776 76.2448 65.1927C75.9271 65.2135 75.9219 65.6927 76.2448 65.6875C83.4062 65.4844 88.5208 56.9687 91.9167 51.5781C94.3958 47.6406 96.2135 43.0937 99.4583 39.6927C103.339 35.6198 109.026 34.0156 114.49 35.0365C114.604 35.0521 114.661 34.8854 114.542 34.8542ZM112.172 80.8594C106.005 81.0104 100.849 79.9948 94.9896 78.1667C90.2604 76.6979 86 76.224 81.2187 77.75C80.9427 77.8385 81.0573 78.2396 81.3333 78.1771C87.7396 76.776 93.0208 78.6615 99.0312 80.5052C103.531 81.8802 107.578 82 112.214 81.2187C112.427 81.1823 112.38 80.849 112.172 80.8594ZM173.135 7.49479C172.38 16.3802 174.302 25.1458 179.047 32.7604C179.125 32.8906 179.359 32.8073 179.297 32.651C175.901 24.5937 173.885 16.2656 173.578 7.49479C173.568 7.20312 173.161 7.20833 173.135 7.49479ZM200.599 104.677C196.333 99.0625 193.906 92.9219 194.589 85.7448C194.615 85.4687 194.141 85.401 194.099 85.6823C193.344 91.0208 193.937 96.1562 196.516 100.964C199.38 106.302 204.031 110.307 206.031 116.146C206.062 116.245 206.234 116.24 206.229 116.12C205.943 111.583 203.255 108.182 200.599 104.677ZM190.646 111.807C191.969 115.995 193.135 120.307 193.953 124.62C194.047 125.099 194.88 125 194.818 124.5C194.245 119.917 193.005 115.797 190.766 111.755C190.734 111.693 190.625 111.74 190.646 111.807Z" fill="#FFBD59"/>
</g>
<defs>
<clipPath id="clip0_6_6">
<rect width="400" height="400" fill="white"/>
</clipPath>
</defs>
</svg>
