<svg xmlns="http://www.w3.org/2000/svg" xmlns:xlink="http://www.w3.org/1999/xlink" width="400" zoomAndPan="magnify" viewBox="0 0 300 299.999988" height="400" preserveAspectRatio="xMidYMid meet" version="1.0"><defs><filter x="0%" y="0%" width="100%" height="100%" id="3e38dbaa6c"><feColorMatrix values="0 0 0 0 1 0 0 0 0 1 0 0 0 0 1 0 0 0 1 0" color-interpolation-filters="sRGB"/></filter><mask id="bb302f6ee9"><g filter="url(#3e38dbaa6c)"><rect x="-30" width="360" fill="#000000" y="-29.999999" height="359.999986" fill-opacity="0.25"/></g></mask><clipPath id="f892e289a4"><path d="M 0.160156 0.480469 L 14.558594 0.480469 L 14.558594 43 L 0.160156 43 Z M 0.160156 0.480469 " clip-rule="nonzero"/></clipPath><clipPath id="b028c98bf4"><rect x="0" width="15" y="0" height="44"/></clipPath><mask id="afe2ecf606"><g filter="url(#3e38dbaa6c)"><rect x="-30" width="360" fill="#000000" y="-29.999999" height="359.999986" fill-opacity="0.25"/></g></mask><clipPath id="c8ad3446b8"><path d="M 0.480469 1 L 125 1 L 125 219 L 0.480469 219 Z M 0.480469 1 " clip-rule="nonzero"/></clipPath><clipPath id="cf56cc0eca"><rect x="0" width="126" y="0" height="220"/></clipPath><clipPath id="6e48277613"><path d="M 164 164 L 297.683594 164 L 297.683594 297 L 164 297 Z M 164 164 " clip-rule="nonzero"/></clipPath><mask id="6be732dbfe"><g filter="url(#3e38dbaa6c)"><rect x="-30" width="360" fill="#000000" y="-29.999999" height="359.999986" fill-opacity="0.25"/></g></mask><clipPath id="64dfb06ecb"><path d="M 1 0.441406 L 235.921875 0.441406 L 235.921875 186.679688 L 1 186.679688 Z M 1 0.441406 " clip-rule="nonzero"/></clipPath><clipPath id="ef6971952f"><rect x="0" width="236" y="0" height="187"/></clipPath></defs><path fill="#ffbd59" d="M 74.699219 56.765625 L 11.378906 126.351562 C 11.378906 126.351562 2.175781 116.417969 3.699219 97.542969 C 4.378906 95.621094 5.445312 89.882812 10.078125 84.808594 C 9.734375 84.050781 9.476562 82.90625 9.707031 82.03125 C 15.792969 77 21.789062 77.800781 25.941406 76.507812 C 26.585938 76.273438 27.222656 75.988281 27.859375 75.675781 C 27.992188 75.601562 28.097656 75.554688 28.1875 75.515625 C 37.273438 70.824219 45.695312 58.980469 51.894531 55.679688 C 51.894531 55.6875 63.019531 49.3125 74.699219 56.765625 Z M 220.28125 273.339844 C 220.472656 273.691406 220.40625 278.628906 222.019531 280.859375 C 222.019531 280.859375 215.898438 282.421875 216.480469 287.929688 C 217.183594 290.105469 221.835938 290.066406 221.835938 290.066406 C 221.835938 290.066406 237.375 289.238281 231.78125 280.398438 C 226.183594 271.554688 220.28125 273.339844 220.28125 273.339844 Z M 194.023438 254.082031 C 193.964844 254.558594 197.394531 270.386719 195.558594 282.03125 C 195.40625 283.660156 190.078125 285.019531 193.117188 290.714844 C 193.847656 291.894531 200.878906 294.910156 204.351562 289.894531 C 207.824219 284.871094 202.109375 253.128906 194.023438 254.082031 Z M 194.023438 254.082031 " fill-opacity="1" fill-rule="nonzero"/><path fill="#000000" d="M 164.667969 78.167969 C 164.34375 79.21875 163.90625 80.167969 163.375 81.058594 C 162.773438 79.441406 161.890625 77.929688 160.742188 76.640625 C 159.539062 75.273438 158.074219 74.160156 156.847656 72.820312 C 155.613281 71.480469 154.589844 69.820312 154.546875 68.003906 C 154.386719 70.289062 155.203125 73.042969 156.246094 75.082031 C 157.292969 77.109375 158.507812 79.101562 159.054688 81.320312 C 159.433594 82.867188 159.414062 84.582031 158.835938 86.035156 C 156.15625 88.320312 153.414062 90.554688 150.257812 92.089844 C 146.769531 93.789062 142.671875 94.570312 138.976562 93.382812 C 135.753906 94.214844 132.15625 95.3125 129.234375 96.90625 C 128 97.578125 126.789062 98.324219 125.457031 98.789062 C 123.886719 99.335938 122.199219 99.480469 120.539062 99.578125 C 115.492188 99.878906 110.429688 99.851562 105.378906 99.710938 C 98.703125 99.519531 91.925781 99.113281 85.625 96.90625 C 77.828125 94.171875 71.164062 88.796875 65.78125 82.523438 C 60.398438 76.25 53.894531 69.945312 52.1875 61.859375 C 51.605469 59.082031 51.066406 56.265625 51.078125 53.425781 C 51.097656 50.585938 51.699219 47.691406 53.238281 45.300781 C 54.058594 45.507812 55.058594 44.46875 55.671875 43.882812 C 59.511719 40.234375 60.09375 34.417969 62.324219 29.613281 C 64.144531 25.679688 67.320312 22.246094 71.394531 20.765625 C 75.660156 19.210938 80.371094 19.898438 84.855469 20.605469 C 90.0625 21.425781 95.101562 17.277344 98.878906 13.59375 C 102.65625 9.910156 106.109375 5.710938 110.808594 3.320312 C 117.046875 0.144531 126.109375 0.796875 131.203125 5.597656 C 137.5 5.296875 143.5625 8.917969 147.324219 13.976562 C 151.082031 19.035156 152.800781 25.363281 153.449219 31.636719 C 154.097656 37.910156 153.753906 44.238281 153.820312 50.539062 C 153.84375 52.628906 153.910156 54.75 154.515625 56.75 C 155.703125 60.660156 158.765625 63.65625 161.269531 66.882812 C 163.796875 70.109375 165.882812 74.265625 164.667969 78.167969 Z M 164.667969 78.167969 " fill-opacity="1" fill-rule="nonzero"/><g mask="url(#bb302f6ee9)"><g transform="matrix(1, 0, 0, 1, 8, 84)"><g clip-path="url(#b028c98bf4)"><g clip-path="url(#f892e289a4)"><path fill="#3d1e22" d="M 9.503906 27.707031 C 9.375 29.574219 9.238281 31.4375 9.109375 33.304688 C 8.929688 35.828125 8.71875 38.457031 7.445312 40.644531 C 7 41.402344 6.410156 42.109375 5.609375 42.46875 C 4.804688 42.828125 3.765625 42.746094 3.171875 42.109375 C 2.691406 41.601562 2.570312 40.839844 2.65625 40.148438 C 2.746094 39.457031 3.011719 38.804688 3.21875 38.136719 C 3.542969 37.097656 3.71875 35.996094 3.566406 34.914062 C 3.429688 33.980469 3.046875 33.101562 2.859375 32.183594 C 2.339844 29.707031 3.199219 27.175781 4.050781 24.792969 C 5.609375 26.027344 7.554688 27.253906 9.503906 27.707031 Z M 4.957031 5.382812 C 5.054688 4.71875 2.921875 3.390625 2.078125 0.8125 C 1.488281 1.460938 0.953125 2.125 0.472656 2.785156 C 2.074219 5.804688 4.875 5.964844 4.957031 5.382812 Z M 12.878906 17.113281 L 14.3125 14.523438 C 14.3125 14.523438 7.394531 14.40625 7.265625 15.414062 C 8.140625 15.761719 12.878906 17.113281 12.878906 17.113281 Z M 12.878906 17.113281 " fill-opacity="1" fill-rule="nonzero"/></g></g></g></g><path fill="#3d1e22" d="M 94.277344 251.996094 C 94.277344 251.996094 98.089844 252.179688 97.847656 253.421875 C 90.769531 261.558594 94.277344 251.996094 94.277344 251.996094 Z M 3.480469 210.84375 C 3.472656 221.300781 96.496094 210.707031 97.257812 201.429688 C 98.019531 192.152344 13.417969 190.828125 3.480469 210.84375 Z M 3.480469 210.84375 " fill-opacity="1" fill-rule="nonzero"/><path fill="#ffb1b8" d="M 102.410156 191.65625 C 101.210938 208.035156 96.003906 249.832031 96.023438 254.382812 C 96.046875 259.765625 62.976562 276.820312 58.515625 259.546875 C 54.054688 242.269531 48.140625 236.558594 46.246094 220.882812 C 44.828125 210.140625 47.480469 201.683594 48.460938 197.238281 C 48.152344 194.894531 46.304688 188.933594 46.304688 188.933594 C 46.304688 188.933594 93.636719 182.910156 102.410156 191.65625 Z M 102.410156 191.65625 " fill-opacity="1" fill-rule="nonzero"/><path fill="#3d1e22" d="M 69.710938 192.625 C 53.191406 200.367188 44.605469 207.679688 44.605469 207.679688 C 44.605469 207.679688 37.875 205.527344 42.917969 193.296875 C 47.957031 181.066406 78.253906 188.621094 69.710938 192.625 Z M 80.085938 187.511719 C 80.023438 187.351562 79.804688 187.378906 79.785156 187.554688 C 79.542969 190.550781 80.003906 193.628906 80 196.636719 C 80 197.523438 79.976562 198.40625 79.945312 199.292969 C 79.652344 199.027344 79.320312 198.804688 79.050781 198.507812 C 78.394531 197.792969 78.179688 196.796875 77.957031 195.851562 C 77.507812 193.964844 76.847656 192.011719 75.382812 190.734375 C 73.921875 189.460938 71.84375 190.976562 70.527344 192.40625 C 70.929688 195.472656 70.183594 197.964844 70.542969 199.351562 C 70.902344 200.738281 72.039062 202.054688 73.472656 202.085938 C 73.894531 203.257812 74.476562 204.574219 75.554688 205.207031 C 76.105469 205.53125 76.753906 205.648438 77.390625 205.683594 C 78.121094 205.726562 78.882812 205.914062 79.503906 205.53125 C 79.496094 205.609375 79.492188 205.683594 79.480469 205.765625 C 78.847656 211.632812 77.898438 217.464844 77.472656 223.355469 C 76.640625 234.992188 76.132812 246.816406 76.28125 258.484375 C 76.28125 258.535156 76.359375 258.535156 76.363281 258.484375 C 77.632812 246.632812 77.738281 234.699219 78.640625 222.832031 C 79.109375 216.738281 80.011719 210.703125 80.589844 204.621094 C 80.59375 204.582031 80.59375 204.539062 80.601562 204.5 C 80.761719 204.304688 80.914062 204.109375 81.0625 203.914062 C 81.074219 203.1875 81.066406 202.226562 80.917969 201.347656 C 81.390625 196.726562 81.734375 191.679688 80.085938 187.511719 Z M 80.085938 187.511719 " fill-opacity="1" fill-rule="nonzero"/><path fill="#8c52ff" d="M 143.738281 97.550781 C 142.011719 111.125 114.765625 122.710938 114.765625 122.710938 L 109.878906 114.050781 C 109.878906 114.050781 98.886719 128.128906 96.777344 130.121094 C 94.671875 132.117188 90.285156 135.144531 90.285156 135.144531 C 103.960938 166.347656 102.410156 191.660156 102.410156 191.660156 C 63.03125 182.773438 38.683594 213.902344 3.480469 210.84375 C 3.480469 210.84375 3.789062 139.652344 16.175781 110.929688 C 16.175781 110.929688 24.460938 89.445312 44.042969 69.828125 C 52.695312 59.292969 62.25 54.640625 74.691406 59.878906 C 85.59375 64.46875 87.605469 91.335938 87.605469 91.335938 C 87.605469 91.335938 92.226562 91.589844 95.953125 90.261719 C 95.976562 89.917969 95.992188 89.574219 95.980469 89.234375 C 95.929688 87.757812 95.484375 86.324219 95.242188 84.859375 C 94.730469 81.707031 95.585938 78.273438 96.960938 75.394531 C 95.976562 79.125 96.300781 83.183594 97.875 86.703125 C 98.164062 87.355469 98.5 88.003906 98.828125 88.660156 C 99.386719 88.171875 99.847656 87.59375 100.152344 86.90625 C 100.769531 84.753906 99.605469 83.6875 99.28125 81.554688 C 99.085938 80.28125 105.058594 78.792969 106.019531 76.289062 C 109.492188 72.796875 106.652344 70.253906 109.289062 68.722656 C 122.515625 61.0625 125.90625 74.667969 125.90625 74.667969 C 132.890625 76.75 140.601562 91.996094 143.738281 97.550781 Z M 143.738281 97.550781 " fill-opacity="1" fill-rule="nonzero"/><g mask="url(#afe2ecf606)"><g transform="matrix(1, 0, 0, 1, 108, 74)"><g clip-path="url(#cf56cc0eca)"><g clip-path="url(#c8ad3446b8)"><path fill="#3d1e22" d="M 1.878906 40.050781 C 1.878906 40.050781 1.449219 40.605469 0.742188 41.503906 C 0.835938 40.1875 1.058594 38.875 1.390625 37.601562 C 2.339844 33.882812 4.082031 30.429688 5.800781 27.003906 C 8.273438 22.054688 10.726562 17.09375 12.640625 11.90625 C 13.542969 9.457031 14.339844 6.933594 15.714844 4.714844 C 16.347656 3.695312 17.6875 1.8125 19.03125 1.128906 C 20.015625 1.605469 21.007812 2.3125 21.996094 3.195312 C 22.574219 5.402344 22.242188 8.5 22.101562 10.304688 C 21.550781 17.304688 18.878906 23.992188 15.808594 30.234375 C 14.746094 32.402344 13.613281 34.59375 13.277344 36.976562 C 13.070312 38.441406 13.164062 39.925781 13.070312 41.398438 C 12.964844 43.039062 12.597656 44.660156 12.015625 46.199219 C 8.902344 47.804688 6.773438 48.710938 6.773438 48.710938 Z M 112.28125 199.339844 C 112.472656 199.691406 112.40625 204.628906 114.019531 206.859375 C 114.019531 206.859375 107.898438 208.421875 108.480469 213.929688 C 109.183594 216.105469 113.835938 216.066406 113.835938 216.066406 C 113.835938 216.066406 129.375 215.238281 123.78125 206.398438 C 118.183594 197.554688 112.28125 199.339844 112.28125 199.339844 Z M 86.023438 180.082031 C 85.964844 180.558594 89.394531 196.386719 87.558594 208.03125 C 87.40625 209.660156 82.078125 211.019531 85.117188 216.714844 C 85.847656 217.894531 92.878906 220.910156 96.351562 215.894531 C 99.824219 210.871094 94.109375 179.128906 86.023438 180.082031 Z M 86.023438 180.082031 " fill-opacity="1" fill-rule="nonzero"/></g></g></g></g><g clip-path="url(#6e48277613)"><path fill="#ffbd59" d="M 212.273438 169.777344 C 214.550781 176.878906 230.210938 182.851562 220.394531 191.136719 C 224.445312 201.484375 230.871094 219.253906 255.707031 226.289062 C 256.507812 226.902344 257.316406 227.515625 258.132812 228.136719 C 276.621094 242.171875 283.535156 258.441406 280.628906 274.195312 C 280.628906 274.195312 287.464844 270.324219 283.800781 246.648438 C 280.808594 227.308594 272.261719 214.046875 278.972656 212.371094 C 281.609375 212.054688 284.273438 214.023438 286.726562 217.460938 C 291.011719 223.457031 286.683594 230.710938 296.382812 244.515625 C 297.449219 251.042969 297.792969 257.617188 297.109375 263.222656 C 294.6875 283.160156 281.308594 294.34375 266.566406 293.40625 C 247.839844 299.902344 221.316406 294.351562 220.335938 292.183594 C 218.082031 285.261719 228.699219 282.5 228.699219 282.5 C 227.496094 281.441406 226.460938 276.925781 226.460938 276.925781 C 218.382812 276.679688 214.5625 271.714844 214.5625 271.714844 C 214.5625 271.714844 213.425781 290.289062 211.398438 292.160156 C 209.375 294.039062 197.878906 294.460938 196.386719 291.984375 C 194.3125 286.371094 200.476562 284.675781 200.476562 284.675781 C 201.332031 270.484375 198.421875 259.640625 198.421875 259.640625 C 190.265625 254.40625 183.949219 241.085938 183.035156 232.339844 C 182.121094 223.589844 187.898438 215.203125 184.882812 200.035156 C 177.953125 202.609375 171.484375 197.097656 171.890625 194.53125 C 172.652344 192.09375 179.542969 192.457031 180.550781 189.597656 C 177.960938 191.289062 171.390625 191.480469 167.738281 189.289062 C 163.480469 186.746094 163.316406 178.980469 166.308594 177.46875 C 175.074219 178.476562 179.292969 176.445312 182.480469 173.464844 C 184.304688 171.761719 187.78125 177.078125 189.585938 175.136719 C 189.585938 175.136719 189.558594 165.816406 193.792969 165.164062 C 197.820312 164.546875 203.886719 165.136719 212.273438 169.777344 Z M 212.273438 169.777344 " fill-opacity="1" fill-rule="nonzero"/></g><path fill="#000000" d="M 55.386719 259.25 C 55.523438 259.269531 56.832031 258.933594 58.59375 259.800781 C 62.382812 259.972656 69.085938 259.5625 76.382812 257.515625 L 76.804688 253.082031 C 76.804688 253.082031 93.066406 254.445312 97.851562 253.414062 C 96.390625 261.398438 97.941406 266.574219 107.164062 269.597656 C 114.542969 271.113281 117.785156 274.585938 115.238281 282.964844 C 114.777344 285.917969 104.769531 287.773438 94.859375 283.261719 C 96.046875 291.234375 90.367188 297.128906 78.464844 296.203125 C 72.226562 295.625 66.359375 285.613281 64.582031 285.902344 C 62.8125 286.195312 58.355469 285.070312 56.503906 282.191406 C 53.835938 276.308594 58.351562 270.144531 57.324219 266.050781 C 56.289062 261.960938 55.386719 259.25 55.386719 259.25 Z M 197.140625 171.234375 C 196.957031 169.570312 196.433594 167.90625 195.394531 166.597656 C 194.953125 166.035156 194.410156 165.550781 193.800781 165.175781 C 189.570312 165.824219 187.601562 167.8125 187.601562 167.8125 C 185.796875 169.753906 184.308594 171.765625 182.488281 173.472656 C 181.667969 175.855469 181.832031 178.59375 183.054688 180.808594 C 183.867188 182.285156 185.128906 183.546875 186.695312 184.171875 C 188.257812 184.796875 190.125 184.738281 191.558594 183.847656 C 192.320312 183.375 192.9375 182.683594 193.328125 181.882812 C 193.929688 180.648438 193.984375 179.191406 194.625 177.976562 C 195.140625 177.007812 196.003906 176.265625 196.53125 175.308594 C 197.207031 174.085938 197.292969 172.621094 197.140625 171.234375 Z M 251.8125 230.035156 C 253.246094 229.25 254.636719 227.863281 255.707031 226.289062 C 238.355469 213.042969 224.472656 201.5 220.40625 191.167969 C 215.691406 195.792969 210.851562 196.71875 210.851562 196.71875 C 211.386719 202.496094 213.101562 208.519531 216.164062 213.445312 C 217.238281 215.175781 218.496094 216.855469 220.210938 217.953125 C 222.046875 219.125 224.25 219.523438 226.339844 220.144531 C 229.957031 221.21875 233.355469 223.023438 236.269531 225.421875 C 238.402344 227.175781 240.332031 229.269531 242.851562 230.394531 C 245.679688 231.660156 249.097656 231.523438 251.8125 230.035156 Z M 242.078125 249.484375 C 240.832031 254.109375 241.601562 259.214844 244.027344 263.339844 C 245.046875 265.078125 246.410156 266.699219 248.234375 267.542969 C 251.433594 269.023438 255.246094 267.855469 258.6875 268.613281 C 261.195312 269.167969 263.792969 270.730469 266.136719 269.679688 C 267.492188 269.070312 268.34375 267.71875 269.085938 266.433594 C 270.960938 263.175781 272.738281 259.617188 272.515625 255.863281 C 272.375 253.527344 271.464844 251.320312 270.492188 249.1875 C 268.714844 245.300781 266.589844 241.410156 263.230469 238.757812 C 259.882812 236.121094 254.019531 234.46875 250.488281 237.613281 C 246.960938 240.773438 243.328125 244.839844 242.078125 249.484375 Z M 286.726562 217.460938 C 284.199219 220.226562 282.476562 224.265625 282.464844 227.964844 C 282.453125 230.632812 283.078125 233.519531 285.109375 235.253906 C 286.933594 236.8125 289.601562 237.195312 291.234375 238.953125 C 292.792969 240.636719 293.265625 243.421875 295.386719 244.296875 C 295.710938 244.429688 296.046875 244.492188 296.386719 244.515625 C 294.652344 233.914062 291.003906 223.457031 286.726562 217.460938 Z M 286.726562 217.460938 " fill-opacity="1" fill-rule="nonzero"/><path fill="#3d1e22" d="M 110.976562 78.621094 C 111.074219 82.273438 105.09375 84.28125 104.085938 79.785156 C 104.085938 79.785156 102.632812 82.480469 99.273438 81.542969 C 99.082031 80.269531 99.1875 78.617188 100.148438 76.121094 C 103.617188 72.625 106.644531 70.257812 109.285156 68.730469 C 113.226562 68.882812 116.671875 70.363281 117.074219 71.523438 C 118.042969 74.308594 115.800781 79.359375 110.976562 78.621094 Z M 116.671875 119.378906 C 112.765625 123.359375 115.550781 124.953125 118.769531 122.332031 C 121.984375 119.710938 116.671875 119.378906 116.671875 119.378906 Z M 116.671875 119.378906 " fill-opacity="1" fill-rule="nonzero"/><path fill="#ffbd59" d="M 96.785156 130.121094 C 96.785156 130.121094 115.070312 102.292969 116.347656 72.886719 C 116.347656 72.886719 119.335938 69.691406 125.539062 71.777344 C 131.175781 74.671875 130.902344 98.324219 96.785156 130.121094 Z M 52.738281 109.242188 C 52.707031 109.253906 50.621094 102.40625 49.679688 97.886719 C 46.109375 99.371094 31.023438 105.128906 20.175781 100.953125 C 7.792969 96.1875 14.203125 108.96875 16.167969 110.933594 C 18.136719 112.898438 38.808594 117.640625 52.738281 109.242188 Z M 52.738281 109.242188 " fill-opacity="1" fill-rule="nonzero"/><g mask="url(#6be732dbfe)"><g transform="matrix(1, 0, 0, 1, 48, 97)"><g clip-path="url(#ef6971952f)"><g clip-path="url(#64dfb06ecb)"><path fill="#3d1e22" d="M 31.425781 93.660156 C 28.105469 94.105469 25.695312 94.566406 22.53125 95.40625 C 21.351562 91.125 16.636719 91.355469 16.304688 77.898438 C 16.195312 73.414062 13.332031 67.5 11.683594 63.328125 C 9.605469 58.0625 7.914062 51.195312 7.328125 45.5625 C 7.039062 42.761719 0.832031 33.671875 7.085938 37.355469 C 7.09375 35.140625 3.632812 34.503906 3.328125 29.609375 C 6.75 31.695312 7.023438 28.183594 6.769531 26.53125 C 6.171875 22.605469 3.605469 19.28125 2.378906 15.511719 C 0.832031 10.757812 1.007812 5.835938 1.6875 0.886719 C 1.734375 5.207031 4.714844 12.257812 4.742188 12.242188 L 11.589844 11.851562 C 18.246094 22.480469 22.347656 34.957031 22.664062 47.5 L 36.390625 39.261719 C 36.390625 39.261719 39.683594 40.210938 42.375 38.320312 C 43.726562 41.414062 44.925781 44.441406 45.992188 47.398438 C 43.820312 47.769531 38.875 47.867188 34.511719 44.023438 L 25.566406 51.164062 C 25.867188 61.238281 28.269531 71.117188 29.566406 81.109375 C 30.0625 85.023438 31.214844 89.503906 31.425781 93.660156 Z M 137.496094 106.972656 C 141.710938 104.996094 144.300781 99.753906 144.300781 99.753906 C 144.300781 99.753906 140.789062 101.75 136.882812 103.035156 C 137.160156 104.398438 137.355469 105.710938 137.496094 106.972656 Z M 235.664062 172.042969 C 234.40625 176.171875 232.628906 177.195312 232.628906 177.195312 C 232.710938 176.757812 232.777344 176.328125 232.84375 175.890625 L 232.617188 176.191406 C 232.617188 176.191406 230.71875 183.074219 229.238281 185.28125 C 229.238281 185.28125 234.867188 182.199219 235.664062 172.03125 Z M 174.707031 179.4375 C 174.707031 179.4375 176.515625 179.960938 178.46875 179.925781 C 178.46875 179.925781 172.9375 172.5625 180.5625 154.566406 C 180.5625 154.566406 172.726562 163.785156 174.707031 179.4375 Z M 39.820312 171.976562 C 38.425781 171.082031 36.945312 170.289062 35.757812 169.132812 C 34.347656 167.75 33.449219 165.929688 32.773438 164.070312 C 32.097656 162.214844 32.640625 158.042969 32.257812 156.335938 C 30.179688 156.195312 28.792969 156.082031 28.792969 156.082031 L 28.371094 160.515625 C 28.308594 160.535156 28.257812 160.546875 28.199219 160.5625 C 28.257812 162.042969 28.476562 163.71875 29.03125 165.425781 C 30.652344 170.453125 31.921875 174.445312 36.9375 177.609375 C 41.957031 180.769531 46.507812 181.507812 46.847656 186.265625 C 48.050781 183.667969 47.15625 180.523438 45.796875 178.003906 C 44.445312 175.484375 42.226562 173.523438 39.820312 171.976562 Z M 153.09375 97.351562 C 155.066406 101.636719 166.015625 106.199219 174.148438 97.703125 L 172.402344 94.136719 C 161.085938 105.921875 153.09375 97.351562 153.09375 97.351562 Z M 153.09375 97.351562 " fill-opacity="1" fill-rule="nonzero"/></g></g></g></g><path fill="#ffb1b8" d="M 138.199219 31.726562 C 134.402344 30.539062 132.214844 31.074219 125.90625 35.957031 C 119.59375 40.835938 114.707031 36.628906 109.878906 33.5 C 105.054688 30.375 99.457031 36.203125 102.277344 42.609375 C 97.765625 49.867188 106.792969 58.082031 104.398438 66.261719 C 101.523438 73.480469 100.152344 76.113281 100.152344 76.113281 C 107.054688 80.042969 110.9375 76.6875 111.726562 72.714844 C 123.390625 77.808594 137.183594 64.570312 137.519531 58.621094 C 137.519531 58.621094 139.347656 56.679688 141.179688 53.855469 C 140.867188 52.300781 140.351562 51.21875 139.207031 49.839844 C 138.605469 49.113281 139.160156 47.796875 139.515625 47.628906 C 140.457031 47.183594 141.703125 50.328125 142 52.527344 C 143.132812 50.59375 144.152344 48.367188 144.597656 46.113281 C 145.847656 39.78125 138.199219 31.726562 138.199219 31.726562 Z M 131.84375 43.757812 C 128.304688 40.921875 125.910156 42.390625 125.539062 40.921875 C 125.46875 38.742188 133.351562 40.242188 134.539062 42.648438 C 135.089844 43.746094 132.539062 44.566406 131.84375 43.757812 Z M 143.738281 97.550781 C 147.820312 104.511719 153.957031 122.921875 154.671875 123.484375 C 168.511719 131.300781 184.949219 154.496094 188.453125 157.546875 C 191.960938 160.601562 199.425781 159.335938 203.703125 160.871094 C 207.984375 162.40625 214.503906 166.996094 214.792969 167.652344 C 215.082031 168.308594 214.652344 169.179688 214.652344 169.179688 C 212.882812 173.195312 205.59375 168.484375 200.503906 168.914062 C 200.503906 168.914062 202.625 170.871094 201.625 172.007812 C 199.621094 173.796875 194.253906 171.050781 191.46875 170.816406 C 182.15625 170.125 181.28125 164.703125 179.011719 164.082031 C 140.867188 156.425781 116.671875 119.375 116.671875 119.375 C 129.527344 105.800781 143.738281 97.550781 143.738281 97.550781 Z M 88.585938 194.835938 C 87.824219 196.152344 85.757812 195.488281 85.757812 195.488281 C 85.515625 202.699219 80.800781 205.21875 80.800781 205.21875 C 79.78125 206.050781 78.203125 206.003906 77.242188 204.957031 C 75.660156 204.921875 74.316406 203.1875 75.03125 200.289062 C 71.003906 201.523438 72.519531 193.457031 72.03125 191.035156 C 65.007812 182.542969 67.875 181.972656 67.722656 175.070312 C 67.722656 167.929688 58.515625 153.925781 60.570312 130.210938 C 60.296875 128.257812 55.59375 114.515625 55.613281 106.007812 C 73.605469 97.550781 84.625 99.574219 84.625 99.574219 C 84.625 99.574219 85.800781 118.417969 84.625 133.425781 C 83.503906 147.726562 81.191406 172.019531 80.96875 176.46875 C 83.339844 179.292969 85.46875 181.894531 86.496094 184.226562 C 87.765625 187.125 89.101562 193.839844 88.585938 194.835938 Z M 88.585938 194.835938 " fill-opacity="1" fill-rule="nonzero"/><path fill="#3d1e22" d="M 93.609375 280.433594 C 93.632812 280.503906 93.53125 280.539062 93.496094 280.480469 C 91.597656 277.265625 87.636719 276.902344 84.636719 275.15625 C 82.878906 274.128906 81.375 272.71875 80.164062 271.089844 C 77.273438 267.1875 75.453125 261.304688 76.273438 256.472656 C 76.285156 256.402344 76.394531 256.414062 76.410156 256.472656 C 77.238281 259.382812 77.296875 262.433594 78.339844 265.300781 C 79.402344 268.214844 81.085938 270.894531 83.515625 272.855469 C 86.878906 275.558594 92.164062 275.746094 93.609375 280.433594 Z M 55.386719 259.25 C 55.746094 260.09375 58.59375 259.800781 58.59375 259.800781 L 58.113281 258.011719 C 58.113281 258.011719 55.164062 258.300781 55.386719 259.25 Z M 98.4375 266.164062 C 96.265625 265.683594 94.382812 267.101562 92.988281 268.613281 C 92.953125 268.652344 93 268.710938 93.046875 268.6875 C 93.820312 268.3125 94.636719 268.03125 95.433594 267.703125 C 96.347656 267.324219 97.355469 266.605469 98.367188 266.664062 C 98.65625 266.679688 98.71875 266.226562 98.4375 266.164062 Z M 61.429688 282.882812 C 61.394531 282.851562 61.335938 282.894531 61.367188 282.9375 C 62.800781 284.800781 64.246094 286.554688 66.507812 287.402344 C 66.558594 287.421875 66.601562 287.34375 66.558594 287.308594 C 64.832031 285.863281 63.136719 284.359375 61.429688 282.882812 Z M 108.058594 41.402344 C 108.105469 41.492188 108.234375 41.445312 108.238281 41.355469 C 108.300781 39.144531 107.609375 37.046875 105.542969 35.957031 C 105.394531 35.878906 105.171875 36.007812 105.234375 36.191406 C 105.957031 38.058594 107.125 39.644531 108.058594 41.402344 Z M 105.242188 45.363281 C 104.125 44.308594 102.945312 43.386719 102.289062 41.945312 C 102.160156 41.664062 101.671875 41.871094 101.78125 42.160156 C 102.386719 43.671875 103.484375 45.191406 105.183594 45.464844 C 105.242188 45.476562 105.292969 45.410156 105.242188 45.363281 Z M 125.53125 66.574219 C 123.925781 66.550781 122.121094 66.585938 121.230469 65 C 120.535156 63.761719 120.503906 62.460938 120.515625 61.105469 C 120.515625 61.050781 120.46875 61.023438 120.421875 61.035156 C 118.976562 61.3125 120.179688 64.644531 120.605469 65.371094 C 121.726562 67.296875 123.636719 67.367188 125.554688 66.710938 C 125.628906 66.6875 125.617188 66.574219 125.53125 66.574219 Z M 134.863281 52.210938 C 133.796875 53.378906 133.394531 54.753906 133.289062 56.324219 C 133.234375 57.089844 133.328125 57.824219 133.359375 58.585938 C 133.453125 60.699219 132.828125 61.722656 131.085938 62.820312 C 131.039062 62.851562 131.050781 62.941406 131.117188 62.941406 C 132.542969 62.871094 133.890625 62.019531 134.332031 60.601562 C 134.6875 59.46875 134.238281 58.1875 134.226562 57.039062 C 134.207031 55.410156 134.667969 53.875 135.023438 52.304688 C 135.046875 52.210938 134.933594 52.132812 134.863281 52.210938 Z M 129.339844 46.976562 C 128.554688 46.386719 127.316406 46.699219 126.578125 47.679688 C 125.839844 48.65625 125.875 49.933594 126.664062 50.527344 C 127.457031 51.125 128.691406 50.804688 129.429688 49.824219 C 130.164062 48.839844 130.128906 47.566406 129.339844 46.976562 Z M 138.421875 52.5 C 137.636719 51.910156 136.398438 52.222656 135.660156 53.203125 C 134.921875 54.183594 134.957031 55.457031 135.75 56.050781 C 136.539062 56.648438 137.773438 56.328125 138.511719 55.351562 C 139.242188 54.363281 139.207031 53.089844 138.421875 52.5 Z M 199.046875 168.378906 C 199.667969 168.875 200.351562 169.199219 201.054688 169.554688 C 201.136719 169.59375 201.226562 169.488281 201.15625 169.421875 C 200.585938 168.890625 200.070312 168.335938 199.449219 167.863281 C 198.875 167.429688 198.222656 167.144531 197.636719 166.730469 C 197.589844 166.695312 197.542969 166.765625 197.578125 166.808594 C 198.074219 167.320312 198.476562 167.925781 199.046875 168.378906 Z M 145.671875 131.691406 C 145.664062 131.78125 145.789062 131.832031 145.847656 131.761719 C 146.679688 130.796875 147.261719 129.671875 148.195312 128.757812 C 149.109375 127.863281 150.167969 127.164062 151.171875 126.378906 C 151.207031 126.351562 151.164062 126.304688 151.128906 126.308594 C 148.722656 126.644531 145.917969 129.195312 145.671875 131.691406 Z M 204.265625 164.429688 C 206.207031 165.214844 208.191406 165.824219 210.03125 166.84375 C 211.664062 167.753906 213.140625 168.902344 214.769531 169.8125 C 214.804688 169.832031 214.851562 169.789062 214.828125 169.753906 C 212.550781 166.726562 208.011719 164.613281 204.28125 164.316406 C 204.210938 164.3125 204.210938 164.40625 204.265625 164.429688 Z M 186.917969 174.226562 C 187.515625 174.535156 188.117188 174.839844 188.640625 175.261719 C 189.621094 176.039062 190.300781 177.03125 191.121094 177.945312 C 191.226562 178.0625 191.464844 177.976562 191.453125 177.808594 C 191.363281 176.6875 190.65625 175.613281 189.816406 174.886719 C 189.355469 174.488281 188.8125 174.144531 188.265625 173.890625 C 188.003906 173.765625 186.570312 173.53125 186.503906 173.359375 C 186.480469 173.289062 186.394531 173.253906 186.335938 173.3125 C 186.304688 173.34375 186.277344 173.371094 186.246094 173.402344 C 186.203125 173.441406 186.175781 173.523438 186.199219 173.585938 C 186.339844 173.945312 186.558594 174.042969 186.917969 174.226562 Z M 191.9375 196.679688 C 190.648438 197.226562 189.292969 197.5625 188.003906 198.136719 C 186.746094 198.691406 185.550781 199.359375 184.296875 199.917969 C 184.09375 200.011719 184.238281 200.347656 184.453125 200.285156 C 185.726562 199.890625 186.976562 199.554688 188.207031 199.023438 C 189.585938 198.425781 190.714844 197.535156 191.976562 196.75 C 192.023438 196.726562 191.984375 196.660156 191.9375 196.679688 Z M 199.738281 261.347656 C 196.722656 253.566406 193.441406 245.90625 190.476562 238.105469 C 190.449219 238.023438 190.332031 238.050781 190.34375 238.140625 C 191.8125 246.277344 194.839844 254.570312 199.488281 261.445312 C 199.578125 261.566406 199.796875 261.492188 199.738281 261.347656 Z M 214.109375 260.378906 C 214.621094 265.035156 214.605469 269.738281 214.886719 274.414062 C 214.894531 274.484375 215.011719 274.511719 215.023438 274.429688 C 215.730469 269.644531 215.300781 265.070312 214.585938 260.3125 C 214.546875 260.046875 214.078125 260.105469 214.109375 260.378906 Z M 230.898438 248.492188 C 226.238281 253.238281 224.589844 261.640625 224.359375 268.0625 C 224.117188 274.832031 226 281.171875 230.363281 286.375 C 230.480469 286.519531 230.707031 286.335938 230.609375 286.183594 C 227.347656 280.976562 225.542969 274.730469 225.453125 268.601562 C 225.359375 262.191406 226.761719 253.65625 230.953125 248.550781 C 230.996094 248.507812 230.9375 248.457031 230.898438 248.492188 Z M 223.929688 288.980469 C 222.714844 289.917969 221.957031 291.640625 222.5 293.167969 C 222.648438 293.582031 223.285156 293.421875 223.167969 292.988281 C 222.867188 291.824219 223.503906 290.089844 224.011719 289.066406 C 224.035156 289.015625 223.984375 288.9375 223.929688 288.980469 Z M 204.257812 283.820312 C 202.589844 283.289062 201.007812 283.730469 199.574219 284.628906 C 199.367188 284.757812 199.5 285.054688 199.730469 285.007812 C 201.242188 284.699219 202.773438 284.539062 204.257812 284.109375 C 204.40625 284.074219 204.402344 283.867188 204.257812 283.820312 Z M 199.808594 288.726562 C 199.007812 288.957031 198.285156 289.585938 197.925781 290.335938 C 197.625 290.960938 197.269531 292.054688 197.71875 292.679688 C 197.785156 292.769531 197.910156 292.78125 197.96875 292.679688 C 198.308594 292.117188 198.304688 291.347656 198.609375 290.738281 C 198.957031 290.042969 199.390625 289.464844 199.898438 288.878906 C 199.949219 288.808594 199.902344 288.695312 199.808594 288.726562 Z M 281.015625 270.253906 C 281.007812 270.191406 280.917969 270.175781 280.90625 270.242188 C 279.78125 275.320312 277.980469 279.789062 275.667969 284.441406 C 275.613281 284.554688 275.75 284.664062 275.835938 284.578125 C 279.5625 280.871094 281.363281 275.445312 281.015625 270.253906 Z M 75.148438 200.5625 C 76.953125 198.542969 76.984375 195.488281 76.382812 192.988281 C 76.371094 192.941406 76.304688 192.953125 76.296875 193 C 76.175781 195.261719 76.226562 198.3125 74.757812 200.171875 C 74.539062 200.445312 74.90625 200.832031 75.148438 200.5625 Z M 77.191406 205.238281 C 80.074219 203.011719 81.835938 196.878906 80.617188 193.472656 C 80.578125 193.363281 80.417969 193.378906 80.414062 193.503906 C 80.230469 197.214844 79.472656 202.101562 77.035156 205.042969 C 76.953125 205.140625 77.066406 205.332031 77.191406 205.238281 Z M 77.457031 205.089844 C 77.40625 205.066406 77.371094 205.128906 77.414062 205.160156 C 79.097656 206.453125 80.347656 205.914062 81.304688 204.765625 C 86.289062 203.347656 86.335938 195.65625 85.628906 191.699219 C 85.613281 191.589844 85.429688 191.613281 85.441406 191.722656 C 85.765625 196.101562 85.464844 201.070312 81.90625 203.914062 C 82.28125 203.304688 82.609375 202.628906 82.890625 201.992188 C 84.273438 198.898438 84.289062 195.863281 83.574219 192.625 C 83.558594 192.558594 83.445312 192.570312 83.453125 192.640625 C 83.792969 196.015625 82.957031 207.460938 77.457031 205.089844 Z M 84.503906 136.601562 C 87.882812 137.085938 90.78125 136.347656 92.960938 133.582031 C 93.101562 133.402344 92.929688 133.132812 92.707031 133.257812 C 91.425781 133.953125 90.28125 134.914062 88.917969 135.46875 C 87.546875 136.023438 85.949219 136.183594 84.496094 136.40625 C 84.40625 136.417969 84.402344 136.585938 84.503906 136.601562 Z M 60.503906 131.109375 C 60.640625 131.109375 60.675781 130.9375 60.570312 130.867188 C 57.84375 128.976562 54.394531 128.097656 51.535156 126.316406 C 48.871094 124.65625 46.339844 122.78125 44.257812 120.425781 C 44.214844 120.378906 44.152344 120.449219 44.1875 120.496094 C 46.15625 123 48.535156 125.152344 51.15625 126.957031 C 53.746094 128.722656 57.253906 131.097656 60.503906 131.109375 Z M 58.800781 134.371094 C 59.128906 134.183594 58.839844 133.726562 58.503906 133.871094 C 57.449219 134.324219 54.957031 133.332031 53.804688 133.148438 C 52.355469 132.917969 50.898438 132.691406 49.4375 132.523438 C 49.378906 132.519531 49.378906 132.601562 49.425781 132.617188 C 51.355469 133.292969 53.371094 133.894531 55.359375 134.359375 C 56.554688 134.636719 57.695312 135.003906 58.800781 134.371094 Z M 58.539062 180.511719 C 60.488281 180.886719 62.339844 181.65625 64.269531 182.082031 C 64.386719 182.105469 64.484375 181.964844 64.394531 181.875 C 62.835938 180.316406 60.757812 179.898438 58.632812 179.851562 C 58.257812 179.839844 58.160156 180.441406 58.539062 180.511719 Z M 65.292969 189.601562 C 65.722656 189.613281 65.792969 189.070312 65.492188 188.851562 C 63.699219 187.566406 61.550781 188.375 60.019531 189.648438 C 59.945312 189.714844 60.027344 189.855469 60.121094 189.820312 C 61.792969 189.195312 63.574219 189.550781 65.292969 189.601562 Z M 85.90625 99.191406 C 85.90625 99.277344 86.03125 99.289062 86.054688 99.207031 C 88.785156 90.867188 87.28125 81.378906 84.367188 73.316406 C 84.207031 72.878906 83.523438 73.050781 83.660156 73.511719 C 86.25 82.0625 86.078125 90.394531 85.90625 99.191406 Z M 185.230469 187.152344 C 179.746094 190.085938 174.023438 191.519531 167.992188 189.390625 C 167.863281 189.34375 167.8125 189.539062 167.9375 189.589844 C 173.605469 191.957031 180.726562 191.667969 185.285156 187.21875 C 185.320312 187.1875 185.273438 187.136719 185.230469 187.152344 Z M 169.910156 177.722656 C 168.800781 177.699219 167.609375 177.613281 166.316406 177.46875 C 165.300781 177.980469 164.652344 179.214844 164.398438 180.71875 C 167.554688 182.035156 169.75 179.734375 169.910156 177.722656 Z M 27.820312 113.960938 C 22.09375 113.207031 16.699219 111.660156 11.820312 108.519531 C 11.636719 108.402344 11.476562 108.6875 11.65625 108.808594 C 16.492188 112.117188 21.929688 114.175781 27.824219 114.082031 C 27.890625 114.070312 27.890625 113.96875 27.820312 113.960938 Z M 14.746094 92.035156 C 14.804688 92.089844 14.882812 92.011719 14.835938 91.949219 C 12.640625 89.210938 10.351562 85.667969 9.796875 82.15625 C 9.773438 82.003906 9.546875 81.996094 9.476562 82.117188 C 8.644531 83.578125 9.859375 85.53125 10.574219 86.871094 C 11.644531 88.855469 13.089844 90.527344 14.746094 92.035156 Z M 29.425781 83.601562 C 28.644531 81.289062 27.460938 79.175781 26.917969 76.773438 C 26.859375 76.507812 26.390625 76.554688 26.425781 76.839844 C 26.738281 79.269531 27.40625 81.957031 29.273438 83.691406 C 29.335938 83.75 29.453125 83.691406 29.425781 83.601562 Z M 17 91.457031 C 19.308594 89.546875 22.285156 90.09375 24.921875 89.054688 C 26.875 88.296875 28.0625 86.742188 29.046875 84.964844 C 29.117188 84.835938 28.933594 84.675781 28.828125 84.800781 C 28.054688 85.679688 27.316406 86.671875 26.4375 87.445312 C 25.085938 88.632812 23.480469 88.960938 21.78125 89.269531 C 19.898438 89.605469 18.289062 89.964844 16.9375 91.386719 C 16.890625 91.433594 16.953125 91.5 17 91.457031 Z M 118.101562 76.816406 C 117.542969 86.363281 115.105469 95.957031 111.027344 104.613281 C 111.003906 104.667969 111.078125 104.71875 111.109375 104.660156 C 115.746094 95.921875 118.226562 86.714844 118.605469 76.816406 C 118.617188 76.492188 118.121094 76.496094 118.101562 76.816406 Z M 13.886719 98.917969 C 20.058594 101.757812 26.921875 103.054688 33.6875 102.050781 C 33.808594 102.035156 33.78125 101.835938 33.65625 101.835938 C 26.859375 101.917969 20.347656 101.136719 13.925781 98.816406 C 13.875 98.800781 13.832031 98.894531 13.886719 98.917969 Z M 39.894531 103.402344 C 33.460938 104.671875 26.425781 105.007812 20.003906 103.535156 C 19.78125 103.480469 19.6875 103.8125 19.910156 103.882812 C 26.746094 105.953125 33.21875 106.179688 39.9375 103.570312 C 40.035156 103.523438 40 103.378906 39.894531 103.402344 Z M 72.558594 277.015625 C 74.90625 275.234375 77.574219 274.71875 80.316406 273.800781 C 80.425781 273.765625 80.402344 273.621094 80.292969 273.609375 C 77.421875 273.328125 73.714844 273.824219 72.367188 276.832031 C 72.320312 276.9375 72.433594 277.109375 72.558594 277.015625 Z M 89.164062 285.167969 C 83.050781 287.253906 77.738281 286.199219 71.601562 285.046875 C 71.457031 285.019531 71.339844 285.230469 71.496094 285.300781 C 76.941406 287.6875 84.023438 288.753906 89.21875 285.289062 C 89.277344 285.25 89.242188 285.136719 89.164062 285.167969 Z M 113.414062 276.113281 C 110.605469 277.289062 107.554688 278.664062 104.449219 278.554688 C 104.296875 278.550781 104.304688 278.773438 104.449219 278.792969 C 107.867188 279.242188 110.71875 278.265625 113.488281 276.289062 C 113.574219 276.238281 113.527344 276.070312 113.414062 276.113281 Z M 52.726562 109.3125 C 52.867188 110.066406 53.816406 110.511719 55.757812 110.109375 L 55.613281 106.007812 C 53.902344 106.808594 52.875 107.976562 52.726562 108.894531 C 51.488281 103.988281 49.738281 99.550781 49.679688 94.367188 C 49.679688 94.183594 49.414062 94.191406 49.402344 94.367188 C 48.988281 99.691406 49.746094 104.703125 52.671875 109.28125 C 52.683594 109.300781 52.703125 109.3125 52.726562 109.3125 Z M 81.222656 175.878906 C 81.28125 175.722656 81.074219 175.644531 80.96875 175.734375 C 79.886719 176.605469 79.03125 177.539062 77.515625 177.410156 C 77.367188 177.398438 77.300781 177.628906 77.4375 177.691406 C 78.960938 178.421875 80.683594 177.375 81.222656 175.878906 Z M 86.125 195.320312 C 85.976562 195.316406 85.941406 195.558594 86.089844 195.582031 C 87.1875 195.726562 88.539062 195.421875 88.847656 194.195312 C 89.207031 192.765625 88.570312 190.628906 88.078125 189.320312 C 88.054688 189.253906 87.953125 189.261719 87.953125 189.335938 C 87.984375 190.59375 88.207031 191.808594 88.339844 193.054688 C 88.386719 193.484375 88.46875 193.992188 88.25 194.394531 C 87.855469 195.109375 86.863281 195.351562 86.125 195.320312 Z M 220.335938 191.070312 C 217.402344 194.628906 208.277344 198.101562 204.074219 195.609375 C 197.253906 191.574219 199.285156 182.542969 197.148438 176.152344 C 197.113281 176.039062 196.929688 176.050781 196.929688 176.179688 C 197.125 183.214844 196.859375 193.992188 204.777344 197.152344 C 209.917969 199.199219 217.898438 196.078125 220.472656 191.179688 C 220.519531 191.09375 220.402344 190.988281 220.335938 191.070312 Z M 110.28125 76.53125 C 114.488281 78.640625 111.726562 72.71875 111.726562 72.71875 C 108.71875 71.292969 104.398438 66.269531 104.398438 66.269531 L 104.027344 67.207031 C 104.019531 67.207031 106.074219 74.429688 110.28125 76.53125 Z M 110.28125 76.53125 " fill-opacity="1" fill-rule="nonzero"/><path fill="#ffbd59" d="M 107.78125 33.140625 C 101.023438 32.976562 97.449219 37.445312 93.964844 42.632812 C 93.933594 42.679688 93.867188 42.636719 93.890625 42.589844 C 96.351562 37.804688 101.347656 30.472656 107.804688 32.980469 C 107.886719 33.011719 107.878906 33.148438 107.78125 33.140625 Z M 85.90625 26.140625 C 80.8125 24.625 75.703125 26.289062 72.550781 30.585938 C 70.507812 33.371094 69.117188 36.605469 67.214844 39.492188 C 65.007812 42.84375 61.660156 48.582031 57.183594 48.894531 C 56.945312 48.910156 56.941406 49.269531 57.183594 49.265625 C 62.554688 49.113281 66.390625 42.726562 68.9375 38.683594 C 70.796875 35.730469 72.160156 32.320312 74.59375 29.769531 C 77.503906 26.714844 81.769531 25.511719 85.867188 26.277344 C 85.953125 26.289062 85.996094 26.164062 85.90625 26.140625 Z M 84.128906 60.644531 C 79.503906 60.757812 75.636719 59.996094 71.242188 58.625 C 67.695312 57.523438 64.5 57.167969 60.914062 58.3125 C 60.707031 58.378906 60.792969 58.679688 61 58.632812 C 65.804688 57.582031 69.765625 58.996094 74.273438 60.378906 C 77.648438 61.410156 80.683594 61.5 84.160156 60.914062 C 84.320312 60.886719 84.285156 60.636719 84.128906 60.644531 Z M 129.851562 5.621094 C 129.285156 12.285156 130.726562 18.859375 134.285156 24.570312 C 134.34375 24.667969 134.519531 24.605469 134.472656 24.488281 C 131.925781 18.445312 130.414062 12.199219 130.183594 5.621094 C 130.175781 5.402344 129.871094 5.40625 129.851562 5.621094 Z M 150.449219 78.507812 C 147.25 74.296875 145.429688 69.691406 145.941406 64.308594 C 145.960938 64.101562 145.605469 64.050781 145.574219 64.261719 C 145.007812 68.265625 145.453125 72.117188 147.386719 75.722656 C 149.535156 79.726562 153.023438 82.730469 154.523438 87.109375 C 154.546875 87.183594 154.675781 87.179688 154.671875 87.089844 C 154.457031 83.6875 152.441406 81.136719 150.449219 78.507812 Z M 142.984375 83.855469 C 143.976562 86.996094 144.851562 90.230469 145.464844 93.464844 C 145.535156 93.824219 146.160156 93.75 146.113281 93.375 C 145.683594 89.9375 144.753906 86.847656 143.074219 83.816406 C 143.050781 83.769531 142.96875 83.804688 142.984375 83.855469 Z M 142.984375 83.855469 " fill-opacity="1" fill-rule="nonzero"/></svg>