<svg xmlns="http://www.w3.org/2000/svg" xmlns:xlink="http://www.w3.org/1999/xlink" width="400" zoomAndPan="magnify" viewBox="0 0 300 299.999988" height="400" preserveAspectRatio="xMidYMid meet" version="1.0"><defs><filter x="0%" y="0%" width="100%" height="100%" id="678f79fcfa"><feColorMatrix values="0 0 0 0 1 0 0 0 0 1 0 0 0 0 1 0 0 0 1 0" color-interpolation-filters="sRGB"/></filter><mask id="a30a33e828"><g filter="url(#678f79fcfa)"><rect x="-30" width="360" fill="#000000" y="-29.999999" height="359.999986" fill-opacity="0.25"/></g></mask><clipPath id="e522ca79c4"><path d="M 1 1 L 11.839844 1 L 11.839844 23 L 1 23 Z M 1 1 " clip-rule="nonzero"/></clipPath><clipPath id="0b90cb436e"><rect x="0" width="12" y="0" height="24"/></clipPath><mask id="dbe70ed60e"><g filter="url(#678f79fcfa)"><rect x="-30" width="360" fill="#000000" y="-29.999999" height="359.999986" fill-opacity="0.25"/></g></mask><clipPath id="60f3208979"><path d="M 0.238281 0.121094 L 91 0.121094 L 91 99 L 0.238281 99 Z M 0.238281 0.121094 " clip-rule="nonzero"/></clipPath><clipPath id="48327b32b2"><rect x="0" width="92" y="0" height="99"/></clipPath><clipPath id="dea59ec0e4"><path d="M 66.546875 166 L 233.796875 166 L 233.796875 300 L 66.546875 300 Z M 66.546875 166 " clip-rule="nonzero"/></clipPath></defs><path fill="#ffbd59" d="M 130.902344 95.777344 L 100.921875 95.777344 L 100.921875 53.554688 L 130.902344 53.554688 Z M 169.109375 95.777344 L 195.101562 95.777344 L 195.101562 53.554688 L 169.109375 53.554688 Z M 169.109375 95.777344 " fill-opacity="1" fill-rule="nonzero"/><path fill="#350e07" d="M 223.160156 224.820312 L 232.132812 224.820312 L 232.132812 229.152344 L 223.160156 229.152344 Z M 223.160156 183.183594 L 223.160156 187.515625 L 232.132812 187.515625 L 232.132812 183.183594 Z M 223.160156 270.789062 L 232.132812 270.789062 L 232.132812 266.457031 L 223.160156 266.457031 Z M 69.808594 229.152344 L 77.152344 229.152344 L 77.152344 224.820312 L 69.808594 224.820312 C 69.808594 224.820312 69.808594 229.152344 69.808594 229.152344 Z M 69.808594 187.515625 L 77.152344 187.515625 L 77.152344 183.183594 L 69.808594 183.183594 C 69.808594 183.183594 69.808594 187.515625 69.808594 187.515625 Z M 69.808594 270.789062 L 77.152344 270.789062 L 77.152344 266.457031 L 69.808594 266.457031 C 69.808594 266.457031 69.808594 270.789062 69.808594 270.789062 Z M 203.167969 169.152344 C 203.167969 164.167969 204.402344 160.488281 206.847656 158.207031 C 208.082031 157.054688 209.535156 156.339844 210.957031 155.902344 C 214.398438 154.851562 216.8125 151.746094 217.054688 148.148438 C 214.265625 147.957031 207.222656 148.046875 201.960938 152.96875 C 198.011719 156.660156 196.011719 162.101562 196.011719 169.152344 L 196.011719 206.453125 L 104.015625 206.453125 L 104.015625 169.152344 C 104.015625 162.101562 102.015625 156.660156 98.066406 152.96875 C 92.800781 148.050781 85.753906 147.964844 82.96875 148.148438 C 83.214844 151.738281 85.621094 154.84375 89.0625 155.902344 C 90.484375 156.339844 91.9375 157.054688 93.171875 158.207031 C 95.617188 160.488281 96.851562 164.167969 96.851562 169.152344 L 96.851562 206.453125 L 86.972656 206.453125 L 86.972656 214.15625 L 96.839844 214.15625 L 96.839844 264.804688 L 104.007812 264.804688 L 104.007812 248.25 C 104.503906 248.394531 104.996094 248.613281 105.414062 248.960938 C 106.851562 250.148438 107.152344 252.585938 107.152344 254.425781 C 107.152344 255.632812 107.128906 256.964844 107.101562 258.34375 C 106.9375 267.722656 107.042969 274.097656 109.988281 277.089844 C 111.046875 278.164062 112.433594 278.757812 113.902344 278.757812 L 124.199219 278.757812 C 128.160156 278.757812 131.367188 275.550781 131.367188 271.589844 L 114.910156 271.589844 C 114.082031 269.140625 114.207031 262.042969 114.273438 258.476562 C 114.296875 257.050781 114.320312 255.679688 114.320312 254.433594 C 114.320312 249.46875 112.832031 245.746094 109.894531 243.371094 C 107.980469 241.820312 105.835938 241.183594 104.007812 240.957031 L 104.007812 214.164062 L 196 214.164062 L 196 240.957031 C 194.164062 241.183594 192.027344 241.820312 190.113281 243.371094 C 187.175781 245.746094 185.6875 249.46875 185.6875 254.433594 C 185.6875 255.679688 185.710938 257.054688 185.734375 258.476562 C 185.800781 262.042969 185.925781 269.140625 185.097656 271.589844 L 168.636719 271.589844 C 168.636719 275.550781 171.847656 278.757812 175.808594 278.757812 L 186.105469 278.757812 C 187.574219 278.757812 188.960938 278.167969 190.019531 277.089844 C 192.957031 274.097656 193.070312 267.722656 192.902344 258.34375 C 192.878906 256.964844 192.855469 255.640625 192.855469 254.425781 C 192.855469 252.585938 193.160156 250.148438 194.59375 248.960938 C 195.011719 248.613281 195.503906 248.394531 196 248.25 L 196 264.804688 L 203.167969 264.804688 L 203.167969 214.15625 L 217.527344 214.15625 L 217.527344 206.453125 L 203.167969 206.453125 Z M 185.097656 67.496094 C 184.695312 47.144531 174.117188 44.90625 171.757812 33.363281 C 170.582031 23.835938 166.035156 2.824219 147.660156 1.410156 C 129.285156 -0.0078125 123.867188 15.066406 122.117188 25.042969 C 120.902344 31.933594 119.160156 47.789062 113.214844 53.554688 C 107.265625 59.320312 109.871094 70.066406 118.679688 78.875 C 127.484375 87.6875 185.496094 87.847656 185.097656 67.496094 Z M 95.667969 101.707031 L 103.855469 101.707031 C 104.335938 101.707031 104.738281 101.3125 104.738281 100.824219 L 104.738281 50.597656 C 104.738281 47.847656 102.507812 45.621094 99.761719 45.621094 C 97.015625 45.621094 94.785156 47.847656 94.785156 50.597656 L 94.785156 100.824219 C 94.792969 101.3125 95.1875 101.707031 95.667969 101.707031 Z M 191.183594 101.707031 L 199.367188 101.707031 C 199.851562 101.707031 200.25 101.3125 200.25 100.824219 L 200.25 50.597656 C 200.25 47.847656 198.023438 45.621094 195.277344 45.621094 C 192.527344 45.621094 190.300781 47.847656 190.300781 50.597656 L 190.300781 100.824219 C 190.300781 101.3125 190.699219 101.707031 191.183594 101.707031 Z M 191.183594 101.707031 " fill-opacity="1" fill-rule="nonzero"/><path fill="#8c52ff" d="M 196.917969 172.597656 L 196.917969 194.398438 C 196.917969 197.222656 194.625 199.515625 191.796875 199.515625 L 108.214844 199.515625 C 105.390625 199.515625 103.09375 197.222656 103.09375 194.398438 L 103.09375 172.597656 L 149.898438 172.597656 L 149.898438 173.699219 L 150.113281 172.597656 Z M 196.917969 172.597656 " fill-opacity="1" fill-rule="nonzero"/><path fill="#ffbd59" d="M 113.238281 270.449219 L 113.238281 263.960938 C 113.238281 262.4375 114.476562 261.199219 116 261.199219 L 146.738281 261.199219 C 148.261719 261.199219 149.5 262.4375 149.5 263.960938 L 149.5 270.449219 C 149.5 271.972656 148.261719 273.207031 146.738281 273.207031 L 116 273.207031 C 114.476562 273.207031 113.238281 271.972656 113.238281 270.449219 Z M 186.769531 270.449219 L 186.769531 263.960938 C 186.769531 262.4375 185.53125 261.199219 184.007812 261.199219 L 153.269531 261.199219 C 151.746094 261.199219 150.507812 262.4375 150.507812 263.960938 L 150.507812 270.449219 C 150.507812 271.972656 151.746094 273.207031 153.269531 273.207031 L 184.007812 273.207031 C 185.539062 273.207031 186.769531 271.972656 186.769531 270.449219 Z M 147.59375 212.496094 C 147.574219 206.453125 147.222656 200.933594 147.210938 196.140625 C 147.210938 196.140625 149.144531 194.410156 153.089844 196.152344 C 153.089844 196.152344 153.167969 202.675781 153 211.273438 C 156.464844 212.457031 167.648438 226.984375 179.492188 211.386719 C 179.703125 210.804688 179.910156 210.25 180.109375 209.761719 C 182.421875 204.074219 187.765625 191.71875 187.765625 191.71875 C 197.699219 182.585938 198.070312 168.394531 196.308594 161.988281 C 194.550781 155.585938 194.988281 146.511719 194.988281 146.511719 C 194.988281 146.511719 129.832031 106.546875 103.398438 155.089844 C 102.625 167.289062 101.160156 183.464844 112.074219 190.285156 C 113.285156 194.527344 118.148438 203.511719 121.195312 212.269531 C 126.035156 213.621094 134.390625 224.820312 147.59375 212.496094 Z M 91.34375 136.308594 C 85.449219 132.28125 71.25 133.566406 71.25 148.152344 C 71.25 150 96.582031 149.527344 98.925781 148.152344 C 99.953125 147.367188 99.769531 138.003906 99.769531 138.003906 Z M 200.25 138.003906 C 200.25 138.003906 200.066406 147.367188 201.09375 148.152344 C 203.433594 149.527344 228.769531 150 228.769531 148.152344 C 228.769531 133.574219 214.566406 132.28125 208.675781 136.308594 Z M 200.25 138.003906 " fill-opacity="1" fill-rule="nonzero"/><path fill="#8c52ff" d="M 147.0625 228.570312 C 149.117188 235.347656 150.347656 256.695312 149.144531 263.488281 C 138.941406 271.402344 120.363281 267.480469 118.949219 263.925781 C 114.945312 250.011719 125.089844 240.667969 124.253906 231.261719 M 153.320312 228.570312 C 151.265625 235.347656 150.035156 256.695312 151.238281 263.488281 C 161.441406 271.402344 180.019531 267.480469 181.433594 263.925781 C 185.4375 250.011719 175.292969 240.667969 176.128906 231.261719 M 131.226562 64.574219 C 123.359375 64.570312 120.179688 60.046875 120.179688 60.046875 C 120.179688 60.046875 109.457031 55.597656 93.792969 85.246094 C 78.132812 114.890625 79.367188 129.28125 83.675781 135.285156 C 87.988281 141.289062 102.710938 141.289062 107.707031 137.683594 C 112.707031 134.074219 103.703125 148.851562 103.710938 149.117188 C 103.714844 149.378906 103.394531 155.089844 103.394531 155.089844 L 107.101562 156.324219 C 107.101562 156.324219 116.917969 135.40625 127.660156 139.246094 C 138.398438 143.089844 142.671875 153.394531 142.507812 157.847656 C 142.507812 157.847656 149.691406 160.820312 158.554688 156.457031 C 165.574219 146.117188 175.53125 141.90625 187.976562 150.171875 C 187.976562 150.171875 202.941406 150.519531 209.773438 133.890625 C 216.601562 117.265625 201.871094 89.019531 195.289062 76.308594 C 187.394531 61.0625 173.316406 61.195312 173.316406 61.195312 C 168.828125 61.613281 164.253906 68.253906 160.507812 65.980469 " fill-opacity="1" fill-rule="nonzero"/><g mask="url(#a30a33e828)"><g transform="matrix(1, 0, 0, 1, 178, 87)"><g clip-path="url(#0b90cb436e)"><g clip-path="url(#e522ca79c4)"><path fill="#350e07" d="M 6.667969 18.292969 C 7.101562 12.433594 0.996094 6.015625 1.207031 1.800781 C 1.414062 -0.226562 2.4375 4.554688 5.667969 7.425781 C 8.898438 10.292969 11.828125 14.738281 11.09375 20.707031 C 10.363281 26.667969 6.433594 18.507812 6.433594 18.507812 " fill-opacity="1" fill-rule="nonzero"/></g></g></g></g><path fill="#ffeed4" d="M 157.21875 117.414062 C 157.21875 117.414062 160.066406 116.578125 161.683594 117.414062 C 161.683594 117.414062 160.484375 109.988281 160.125 108.535156 C 159.769531 107.085938 165.855469 108.09375 169.402344 113.171875 C 169.402344 113.171875 176.75 110.335938 182.222656 111.171875 C 182.222656 111.171875 184.3125 103.929688 186.925781 102.863281 C 189.535156 101.785156 192.03125 116.074219 192.710938 118.75 C 193.703125 122.632812 194.273438 131.75 181.53125 134.34375 C 169.769531 136.738281 164.636719 129.941406 164.636719 129.941406 C 159.660156 131.667969 150.5625 143.417969 142.707031 144.019531 L 132.605469 147.3125 C 132.605469 147.3125 119.414062 139.335938 107.101562 156.324219 C 101.925781 152.753906 103.261719 143.609375 107.101562 140.078125 L 107.707031 137.675781 C 107.707031 137.675781 123.042969 120.113281 138.535156 119.875 C 138.535156 119.875 151.003906 114.683594 157.21875 117.414062 Z M 157.21875 117.414062 " fill-opacity="1" fill-rule="nonzero"/><g mask="url(#dbe70ed60e)"><g transform="matrix(1, 0, 0, 1, 102, 93)"><g clip-path="url(#48327b32b2)"><g clip-path="url(#60f3208979)"><path fill="#350e07" d="M 55.445312 24.355469 C 55.777344 24.695312 55.921875 25.046875 55.839844 25.394531 C 54.507812 30.839844 46.449219 27.496094 46.449219 27.496094 C 41.023438 34.417969 21.894531 30.195312 10.085938 40.28125 C 15.738281 35.058594 26.101562 27.035156 36.542969 26.875 C 36.542969 26.875 49.011719 21.683594 55.222656 24.414062 C 55.21875 24.414062 55.304688 24.390625 55.445312 24.355469 Z M 58.085938 24.050781 C 57.832031 31.648438 59.117188 35.847656 60.433594 38.121094 C 61.230469 37.585938 61.972656 37.171875 62.636719 36.941406 C 59.464844 32.96875 60.359375 30.078125 59.683594 24.414062 C 59.21875 24.175781 58.65625 24.074219 58.085938 24.050781 Z M 8.796875 0.773438 C 8.492188 -0.0664062 7.195312 6.03125 4.417969 10.167969 C 1.636719 14.292969 -0.0507812 18.886719 1.371094 22.425781 C 1.371094 22.425781 4.734375 21.320312 6 21.066406 C 3.492188 13.007812 9.757812 5.203125 8.796875 0.773438 Z M 6.308594 94.042969 C 7.363281 95.269531 8.605469 96.359375 10.074219 97.28125 C 7.222656 91.164062 6.890625 83.039062 6.488281 80.65625 C 6.117188 78.464844 4.0625 82.371094 6.308594 94.042969 Z M 89.804688 81.804688 C 88.972656 83.34375 89.40625 91.054688 85.765625 98.71875 C 87.613281 97.023438 89.128906 95.148438 90.359375 93.183594 C 91.332031 86.269531 90.449219 80.609375 89.804688 81.804688 Z M 89.804688 81.804688 " fill-opacity="1" fill-rule="nonzero"/></g></g></g></g><path fill="#a6746b" d="M 160.515625 66.785156 C 156.429688 63.902344 155.042969 59.582031 155.042969 59.582031 C 161.726562 54.199219 164.449219 43.667969 164.449219 43.667969 C 171.230469 43.699219 172.46875 33.355469 166.53125 33.355469 C 165.449219 33.226562 164.449219 34.808594 164.449219 34.808594 C 160.3125 35.148438 163.320312 13.902344 153.902344 18.660156 C 144.972656 14.332031 149.640625 33.789062 142.535156 31.875 L 143.148438 28.929688 C 139.972656 33.507812 134.175781 32.214844 134.175781 32.214844 L 135.574219 29.550781 C 135.574219 29.550781 132.898438 33.363281 125.921875 33.355469 C 119.984375 33.355469 121.21875 43.699219 128 43.667969 C 128 43.667969 130.9375 55.023438 138.203125 60.179688 C 136.996094 66.558594 131.226562 65.375 131.226562 65.375 C 133.703125 83.722656 161.386719 79.890625 160.515625 66.785156 Z M 141.535156 34.652344 C 136.703125 33.191406 133.613281 35.28125 133.296875 34.527344 C 132.839844 33.441406 135.820312 32.074219 137.878906 32.074219 C 140.324219 32.074219 142.101562 34.730469 141.535156 34.652344 Z M 158.574219 34.707031 C 154.863281 32.671875 150.582031 34.050781 150.363281 33.417969 C 150.066406 32.539062 152.933594 31.339844 155.132812 31.648438 C 157.414062 31.964844 158.890625 33.65625 158.996094 34.445312 C 159.027344 34.664062 158.769531 34.816406 158.574219 34.707031 Z M 121.195312 212.265625 C 122.402344 215.730469 123.320312 219.15625 123.613281 222.246094 C 124.660156 233.140625 124.742188 239.777344 125.527344 243.667969 C 125.527344 243.667969 136.230469 238.351562 145.359375 242.539062 C 146.226562 240.609375 147.628906 226.070312 147.585938 212.496094 C 137.027344 215.628906 126.035156 213.621094 121.195312 212.265625 Z M 179.492188 211.386719 C 166.351562 214.992188 156.464844 212.449219 153 211.273438 C 152.800781 221.265625 153.09375 234.0625 155.277344 242.699219 C 155.277344 242.699219 167.3125 239.007812 176.265625 242.699219 C 174.882812 228.191406 177.300781 217.472656 179.492188 211.386719 Z M 136.601562 113.40625 C 136.703125 113.761719 137.203125 118.386719 138.535156 120.679688 C 140.882812 123.484375 146.667969 119.570312 148.507812 119.558594 C 150.347656 119.546875 152.886719 122.527344 154.410156 120.679688 C 154.410156 120.679688 155.867188 122.019531 156.75 120.539062 C 156.75 120.539062 157.933594 120.644531 157.828125 119.195312 C 157.535156 118.558594 155.40625 115.667969 154.476562 114.839844 C 153.550781 114.003906 148.542969 111.0625 146.714844 111.136719 C 144.898438 111.210938 136.601562 113.40625 136.601562 113.40625 Z M 142.707031 144.828125 C 141.230469 145.304688 137.671875 143.128906 135.203125 143.371094 C 132.738281 143.609375 129.71875 142.847656 128.816406 143.859375 C 127.914062 144.875 129.332031 146.679688 131.949219 147.808594 C 136.480469 149.761719 141.476562 154.808594 142.515625 158.648438 C 142.515625 158.648438 147.199219 157.789062 148.101562 155.5 C 148.101562 155.507812 144.042969 149.527344 142.707031 144.828125 Z M 142.707031 144.828125 " fill-opacity="1" fill-rule="nonzero"/><g clip-path="url(#dea59ec0e4)"><path fill="#8c52ff" d="M 66.601562 286.121094 L 66.601562 169.167969 C 66.601562 167.886719 67.640625 166.847656 68.925781 166.847656 C 70.210938 166.847656 71.25 167.886719 71.25 169.167969 L 71.25 286.128906 C 71.25 287.414062 70.210938 288.453125 68.925781 288.453125 C 67.640625 288.453125 66.601562 287.40625 66.601562 286.121094 Z M 233.410156 286.121094 L 233.410156 169.167969 C 233.410156 167.886719 232.371094 166.847656 231.085938 166.847656 C 229.804688 166.847656 228.765625 167.886719 228.765625 169.167969 L 228.765625 286.128906 C 228.765625 287.414062 229.804688 288.453125 231.085938 288.453125 C 232.371094 288.453125 233.410156 287.40625 233.410156 286.121094 Z M 100.429688 300 C 104.050781 300 106.976562 297.066406 106.976562 293.453125 L 106.976562 260.980469 C 106.976562 257.359375 104.042969 254.433594 100.429688 254.433594 C 96.8125 254.433594 93.882812 257.367188 93.882812 260.980469 L 93.882812 293.453125 C 93.878906 297.066406 96.8125 300 100.429688 300 Z M 206.136719 293.453125 L 206.136719 260.980469 C 206.136719 257.359375 203.203125 254.433594 199.589844 254.433594 C 195.96875 254.433594 193.042969 257.367188 193.042969 260.980469 L 193.042969 293.453125 C 193.042969 297.074219 195.972656 300 199.589844 300 C 203.203125 300 206.136719 297.066406 206.136719 293.453125 Z M 206.136719 293.453125 " fill-opacity="1" fill-rule="nonzero"/></g><path fill="#350e07" d="M 127.117188 43.136719 C 126.601562 41.273438 127.042969 37.964844 127.042969 37.964844 C 127.28125 37.382812 127.492188 41.109375 127.980469 42.898438 Z M 165.832031 38 C 165.707031 37.730469 165.402344 40.234375 164.425781 42.878906 L 165.269531 43.191406 C 166.296875 40.296875 165.832031 38 165.832031 38 Z M 153.574219 41.960938 C 154.375 41.960938 155 40.96875 155 39.707031 C 155 38.445312 154.375 37.457031 153.574219 37.457031 C 152.773438 37.457031 152.144531 38.445312 152.144531 39.707031 C 152.144531 40.96875 152.773438 41.960938 153.574219 41.960938 Z M 138.574219 41.960938 C 139.375 41.960938 140 40.96875 140 39.707031 C 140 38.445312 139.375 37.457031 138.574219 37.457031 C 137.773438 37.457031 137.144531 38.445312 137.144531 39.707031 C 137.144531 40.96875 137.773438 41.960938 138.574219 41.960938 Z M 145.878906 48.691406 C 147.28125 48.859375 148.003906 48.433594 148.792969 47.050781 C 148.792969 47.050781 147.875 47.902344 146.058594 47.808594 C 145.042969 47.753906 143.613281 47.074219 143.613281 47.074219 C 143.757812 47.707031 144.753906 48.554688 145.878906 48.691406 Z M 169.546875 122.136719 C 170.257812 122.570312 171.304688 123.050781 172.40625 123.050781 C 172.640625 123.050781 172.878906 123.027344 173.113281 122.980469 C 174.105469 122.785156 176.164062 121.320312 175.609375 121.128906 C 175.609375 121.128906 174.832031 121.917969 172.941406 122.101562 C 171.847656 122.210938 170.734375 121.78125 170.011719 121.363281 C 169.808594 121.242188 169.550781 121.300781 169.421875 121.5 C 169.273438 121.714844 169.324219 122.007812 169.546875 122.136719 Z M 186.242188 119.117188 C 186.023438 119.015625 185.769531 119.109375 185.65625 119.320312 C 185.179688 120.183594 184.566406 120.722656 183.828125 120.925781 C 182.382812 121.320312 181.332031 120.882812 181.332031 120.882812 C 180.644531 120.980469 181.65625 121.910156 183.125 121.910156 C 183.429688 121.910156 183.746094 121.875 184.0625 121.792969 C 185.046875 121.523438 185.855469 120.832031 186.457031 119.726562 C 186.578125 119.503906 186.46875 119.222656 186.242188 119.117188 Z M 185.316406 111.527344 C 185.316406 111.527344 184.128906 110.539062 182.484375 110.328125 L 182.222656 111.160156 C 183.8125 111.363281 185.550781 111.816406 185.316406 111.527344 Z M 146.203125 55.550781 C 147.839844 55.550781 149.539062 54.75 151.183594 52.875 C 151.351562 52.683594 151.320312 52.390625 151.125 52.226562 C 150.933594 52.074219 150.664062 52.101562 150.503906 52.28125 C 146.578125 56.625 141.058594 53.636719 141.058594 53.636719 C 140.25 53.835938 143.453125 55.550781 146.203125 55.550781 Z M 151.785156 60.488281 C 148.894531 62.628906 142.863281 63.332031 138.203125 59.378906 C 131.226562 59.808594 131.226562 64.574219 131.226562 64.574219 C 131.441406 66.183594 131.859375 67.609375 132.425781 68.890625 C 146.050781 69.574219 153.125 60 151.785156 60.488281 Z M 136.738281 113.421875 L 136.621094 112.671875 C 136.566406 112.683594 130.902344 113.152344 117.863281 112.773438 C 107.089844 112.460938 101.003906 115.820312 98.078125 117.429688 C 97.449219 117.777344 95.460938 119.042969 96.636719 118.574219 C 96.636719 118.574219 107.3125 113.355469 117.839844 113.667969 C 130.992188 114.050781 136.511719 113.464844 136.738281 113.421875 Z M 107.117188 140.109375 C 106.75 140.347656 106.417969 140.8125 106.417969 140.8125 C 106.421875 140.824219 106.421875 140.832031 106.429688 140.84375 C 106.941406 142.167969 108.722656 145.9375 112.96875 148.296875 C 113.113281 148.375 113.261719 148.195312 113.148438 148.078125 C 112.292969 147.144531 110.484375 144.964844 107.117188 140.109375 Z M 142.523438 157.847656 C 146.242188 168.457031 147.222656 195.894531 147.234375 196.171875 L 148.054688 195.675781 C 148.015625 194.570312 147.15625 169.3125 143.578125 158.191406 C 143.507812 157.976562 142.523438 157.847656 142.523438 157.847656 Z M 157.378906 157.007812 C 152.789062 168.128906 152.3125 194.742188 152.292969 195.902344 L 153.144531 196.253906 C 153.148438 195.960938 153.710938 166.671875 158.621094 156.410156 C 158.625 156.410156 157.523438 156.660156 157.378906 157.007812 Z M 189.515625 150.082031 C 189.171875 149.832031 187.96875 150.136719 187.96875 150.136719 C 192.738281 152.949219 194.898438 158.847656 194.898438 157.835938 C 194.898438 157.84375 193.78125 153.171875 189.515625 150.082031 Z M 104.945312 160.730469 C 104.945312 160.730469 106 158.773438 107.121094 156.324219 L 106.265625 156.039062 C 105.113281 158.554688 104.539062 160.730469 104.945312 160.730469 Z M 120.246094 256.75 C 120.820312 257.394531 125.585938 258.804688 131.277344 258.804688 C 135.925781 258.804688 141.195312 257.863281 145.292969 254.785156 C 145.292969 254.785156 136.632812 257.671875 132.367188 257.875 C 125.921875 258.179688 120.246094 256.75 120.246094 256.75 Z M 166.566406 257.820312 C 162.8125 257.527344 155.089844 254.785156 155.089844 254.785156 C 159.183594 257.863281 164.449219 258.804688 169.105469 258.804688 C 174.792969 258.804688 179.558594 257.394531 180.136719 256.75 C 180.136719 256.75 173.078125 258.328125 166.566406 257.820312 Z M 212.839844 137.820312 C 211.695312 136.808594 210.109375 136.324219 208.589844 136.46875 C 208.28125 136.5 208.070312 137.460938 208.148438 137.441406 C 209.566406 137.125 212.839844 137.820312 212.839844 137.820312 Z M 155.1875 120.335938 C 155.414062 120.054688 155.507812 118.984375 151.375 116.003906 C 151.375 116.003906 154.390625 119.054688 154.457031 119.910156 C 154.457031 119.910156 154.761719 120.203125 155.1875 120.335938 Z M 156.75 119.75 C 156.75 119.75 157.144531 119.929688 157.574219 119.414062 C 156.917969 117.449219 153.316406 114.570312 153.316406 114.570312 C 152.683594 114.570312 156.390625 118.015625 156.75 119.75 Z M 177.953125 131.679688 C 177.933594 131.679688 177.914062 131.683594 177.890625 131.683594 C 177.863281 131.695312 177.886719 131.695312 177.953125 131.679688 Z M 182.695312 130.328125 C 182.695312 130.328125 181.351562 130.554688 180.046875 128.089844 C 179.984375 127.449219 179.84375 126.738281 179.625 125.925781 C 179.605469 125.855469 179.59375 125.804688 179.589844 125.78125 L 179.144531 125.855469 L 178.699219 125.871094 C 178.699219 125.9375 178.699219 125.984375 178.757812 126.152344 C 180.371094 130.386719 178.351562 131.523438 177.945312 131.667969 C 178.621094 131.65625 179.152344 131.414062 179.523438 130.957031 C 179.804688 130.609375 179.984375 130.148438 180.058594 129.582031 C 180.351562 130.042969 180.746094 130.371094 181.308594 130.566406 C 181.949219 130.792969 183.179688 130.464844 182.695312 130.328125 Z M 207.164062 140.675781 C 206.964844 141.007812 210.257812 143.105469 210.65625 142.574219 C 211.0625 142.042969 207.933594 139.777344 207.164062 140.675781 Z M 82.394531 140.820312 C 82.628906 140.984375 82.664062 138.304688 85.167969 136.828125 L 84.152344 135.871094 C 82.234375 137.03125 82.167969 140.65625 82.394531 140.820312 Z M 89.019531 146.195312 C 89.285156 146.261719 88.167969 143.496094 90.339844 140.589844 C 88.691406 140.6875 86.914062 145.324219 89.019531 146.195312 Z M 89.019531 146.195312 " fill-opacity="1" fill-rule="nonzero"/><path fill="#ffbd59" d="M 90.234375 163.046875 L 90.234375 292.253906 C 90.234375 296.535156 86.761719 300.007812 82.480469 300.007812 C 78.195312 300.007812 74.726562 296.535156 74.726562 292.253906 L 74.726562 163.046875 C 74.726562 158.761719 78.195312 155.292969 82.480469 155.292969 C 86.761719 155.292969 90.234375 158.761719 90.234375 163.046875 Z M 217.527344 155.292969 C 213.246094 155.292969 209.773438 158.761719 209.773438 163.046875 L 209.773438 292.253906 C 209.773438 296.535156 213.246094 300.007812 217.527344 300.007812 C 221.8125 300.007812 225.28125 296.535156 225.28125 292.253906 L 225.28125 163.046875 C 225.28125 158.761719 221.8125 155.292969 217.527344 155.292969 Z M 176.757812 125.148438 C 177.042969 126.535156 179.132812 126.832031 179.539062 126.648438 C 179.953125 126.464844 181.363281 125.386719 180.855469 124.34375 C 180.347656 123.296875 176.625 124.535156 176.757812 125.148438 Z M 176.757812 125.148438 " fill-opacity="1" fill-rule="nonzero"/></svg>